/* XPM */
static char *c05cb7c78b4e4468faf570cff7787ef31zD9VY0xNjw8laon[] = {
/* columns rows colors chars-per-pixel */
"64 64 221 2 ",
"   c None",
".  c #1E141C",
"X  c #140D14",
"o  c #200F1F",
"O  c #221B12",
"+  c #21161C",
"@  c #24191C",
"#  c #211716",
"$  c #323D1F",
"%  c #180E2D",
"&  c #1C1325",
"*  c #1B132B",
"=  c #1E1929",
"-  c #1E1431",
";  c #1E1238",
":  c #1E0F36",
">  c #291D23",
",  c #21192B",
"<  c #261A27",
"1  c #221535",
"2  c #241B34",
"3  c #2B1C36",
"4  c #231639",
"5  c #251C3C",
"6  c #2A1C3C",
"7  c #26232B",
"8  c #352B2B",
"9  c #392B28",
"0  c #37322A",
"q  c #373829",
"w  c #2B2536",
"e  c #2C243C",
"r  c #282B37",
"t  c #322B3D",
"y  c #322637",
"u  c #2F3434",
"i  c #423A2C",
"p  c #413A3B",
"a  c #3E483F",
"s  c #504E1D",
"d  c #515118",
"f  c #496115",
"g  c #66661E",
"h  c #4B442A",
"j  c #464525",
"k  c #4F5026",
"l  c #575828",
"z  c #4B473D",
"x  c #534836",
"c  c #554E32",
"v  c #7A752D",
"b  c #6B6739",
"n  c #7B7A38",
"m  c #6F682D",
"M  c #261B43",
"N  c #2A1D43",
"B  c #271D4F",
"V  c #2D2244",
"C  c #2D224A",
"Z  c #2F2945",
"A  c #322644",
"S  c #332B43",
"D  c #392D43",
"F  c #32254D",
"G  c #352B4C",
"H  c #392D4C",
"J  c #3C3446",
"K  c #37314D",
"L  c #3E344C",
"P  c #3F394A",
"I  c #363043",
"U  c #2E2351",
"Y  c #2E2656",
"T  c #332653",
"R  c #362B54",
"E  c #392D55",
"W  c #3D245E",
"Q  c #362B5B",
"!  c #3A2D5B",
"~  c #352758",
"^  c #3B3154",
"/  c #3C315C",
"(  c #373051",
")  c #3C2D62",
"_  c #3A2967",
"`  c #3D3164",
"'  c #433D4D",
"]  c #49394D",
"[  c #412B5E",
"{  c #403156",
"}  c #40335D",
"|  c #463B56",
" . c #422D6A",
".. c #412D60",
"X. c #423562",
"o. c #46336B",
"O. c #483961",
"+. c #452C77",
"@. c #4A3573",
"#. c #443173",
"$. c #543E71",
"%. c #4F414E",
"&. c #584B48",
"*. c #484355",
"=. c #485550",
"-. c #6E6947",
";. c #7A755F",
":. c #57476A",
">. c #5A497F",
",. c #64566B",
"<. c #644F70",
"1. c #566373",
"2. c #6D6678",
"3. c #7A7B7E",
"4. c #75706E",
"5. c #897C68",
"6. c #8B7C77",
"7. c #6C8239",
"8. c #7E8B43",
"9. c #8D8B44",
"0. c #8E9242",
"q. c #8A865C",
"w. c #888859",
"e. c #999655",
"r. c #92934F",
"t. c #91A05F",
"y. c #A6A858",
"u. c #8C856A",
"i. c #999367",
"p. c #9D8D7A",
"a. c #A19F64",
"s. c #96AA63",
"d. c #A5A068",
"f. c #BFB96F",
"g. c #A6A373",
"h. c #AAA777",
"j. c #A5B374",
"k. c #BCB97B",
"l. c #BBB576",
"z. c #C8C67A",
"x. c #5B3E88",
"c. c #564184",
"v. c #5F4E83",
"b. c #5C4689",
"n. c #5D4592",
"m. c #63488A",
"M. c #644A93",
"N. c #6A4B99",
"B. c #675091",
"V. c #7A7585",
"C. c #7D7B80",
"Z. c #7A6B9C",
"A. c #78679B",
"S. c #6E7D84",
"D. c #7E70A9",
"F. c #857988",
"G. c #897791",
"H. c #8B8797",
"J. c #938F9E",
"K. c #9B9497",
"L. c #8D8F85",
"P. c #AD9F92",
"I. c #BEBC84",
"U. c #A6A494",
"Y. c #B5B194",
"T. c #918DA4",
"R. c #9993A3",
"E. c #AAA5AC",
"W. c #C3BF8F",
"Q. c #C0BD9E",
"!. c #C1B7AB",
"~. c #BAD183",
"^. c #BFC086",
"/. c #C7C385",
"(. c #C6D586",
"). c #D6D88C",
"_. c #C5C192",
"`. c #CBCA93",
"'. c #D4CC98",
"]. c #D7DB94",
"[. c #C3D990",
"{. c #E1DD9E",
"}. c #DDF09F",
"|. c #E5E59A",
" X c #E4F199",
".X c #CEC7AB",
"XX c #D2CFAE",
"oX c #DAD7AA",
"OX c #D9D8BA",
"+X c #CDCBB2",
"@X c #E2D9AE",
"#X c #DAEBA5",
"$X c #EAE4A4",
"%X c #E6E3A9",
"&X c #E8ECA9",
"*X c #F3EDA9",
"=X c #E9F7AA",
"-X c #F1F3A3",
";X c #F9F6AE",
":X c #F6FEAC",
">X c #FBFCAD",
",X c #F8F9A8",
"<X c #E8E6B6",
"1X c #F4EDB1",
"2X c #EEFFBB",
"3X c #F5FDB4",
"4X c #FBFDB4",
"5X c #FCFCBA",
"6X c #F2F6B7",
"7X c #A9B9C4",
"8X c #CAD3D5",
"9X c #E8DDD2",
"0X c #E7E8CB",
"qX c #F4FEC2",
"wX c #FCFAC5",
"eX c #FEFCD3",
"rX c #FEFADC",
"tX c #F0EEC7",
"yX c #D9EBF2",
"uX c #FFFFE3",
"iX c #E1ECF2",
/* pixels */
"                                                                                                                                ",
"                                                                                                                                ",
"                                                                                                                                ",
"                                                                                                                                ",
"                                                                                                                                ",
"                                                                Z.B.` v.A.:.:.                                                  ",
"                                                              D.b._ _ $.v.} C 2.                                                ",
"                                                              n.+._ c.b.) ! G |                                                 ",
"                                                            n.+.n.b.c.@.) ! ^ L                                                 ",
"                                                          @.N.x.M.c.@.) ! E F e 2.                                              ",
"                                                        m.x.m.m.@.o.) ! ! E G w J                                               ",
"                                                  m.M.M.N.c.W W W ! ! ! ! E V 2 '                                               ",
"                                          G.Z.v.o.o.@. . .o.) ~ ~ E ! E F C 6 2 P                                               ",
"                                        Z.v. .) ) ! ! o.) ! ! ! R R T N N N e 2 '                                               ",
"                                      A.b.#._ o.! } E R R / Q / / E F N M 5 5 2 P                                               ",
"                                      <.<.:...! ! E ^ / R / R / Q E R F C V 5 2 P                                               ",
"                                        p.5.,.$.[ [ E ! ! ! / R / / / ! R F V 2 '                                               ",
"                                      .X$X'.p.F.:.O.O.! ! X.E ! R ! ! ! ! ! G S                                                 ",
"                                      W.;X4X$X@X.XF.| ! R / ) ) ! ! ! ! ! ! E H 2.                                              ",
"                                      `.0.0.z.4X1X.X,.E ^ / ` ` / / ! ! ! ! R G L                                               ",
"                                      =X(.(. X:X4X<XF.:.E F / Y / / ! ! ! ! E H e 2.                                            ",
"                                      3X&X[.3X:X:X6X!.,.H / ` / ^ ! ! ! ! ! ! E 2 J                                             ",
"                                      2X[.7.s.8.y.3XoX&.S ! Y / / ! ! ! ) ! ! E E e V.                                          ",
"                                      qX~.f t.t.).4X%X5.%.A / ! ! ! ! ! ) ) ! ! ( A D                                           ",
"                                      qX~.f j.&X5X4X;X'.6.] ! ~ ! / Q ! ` ! ! / E H e w                                         ",
"                                0Xq.j.2X}.~.#XwX5X>X>X1XP.F.O.~ Q ` / Q Q X.! ! R Z 5 = r                                       ",
"                                  e.].:X=X3X3X3X:X>X-Xl.p.] A E ! R ! ` / X.R E F V * e t                                       ",
"                                <X/.,X4X:X=X:X>X>X-Xz.i.i 3 H { / / ! ! R F F F 4 2 e t                                         ",
"                                    ].,X4X>X:X,X-Xk.w.i > A { E R / E ^ ^ N 6 2 2 , t                                           ",
"                                      ].3X4X>X*Xk.i.h O D { T X.E / C 5 A e 2 * I                                               ",
"                                        tX`./.g.x p . w A N F F F N 5 A * & J                                                   ",
"                                          OXQ.i X & 2 % - 4 : ; % 2 * * J                                                       ",
"                                            8Xr r * - - 1 6 4 4 - D E.                                                          ",
"                                          yX7X1.u 7 * 6 6 6 N N 2 t F.                                                          ",
"                                          7XS.=.q q . 3 6 6 N N 6 2 '                                                           ",
"                                        iX3.=.$ j j . 3 N C M M 4 2 S H.                                                        ",
"                                        8Xa $ j l j + 6 H E N F Z 5 2 '                                                         ",
"                                          L.w.j.n s . 6 ! E N E C C V e H.                                                      ",
"                                          0XI.|.y.b @ 6 { R Z Z / R N V *.                                                      ",
"                                          0X^.;Xz.e.9 3 { R ^ M Q ! R G S H.                                                    ",
"                                          rX<X4X>Xk.x o L E / T ) ! ! G S *.                                                    ",
"                                          eXeX5X|.l.h @ D ( Q U Q ! / / G I H.                                                  ",
"                                        uXeXwX1Xz.v x > D E / ~ ) ) ! E E G *.                                                  ",
"                                        eXwX1X/.e.d h @ D ^ / ! ! ) ! E ^ G K J.                                                ",
"                                        %X;X*Xe.9.d.h + H / ^ E ! ! ! / E E ( K T.                >X3XqX                        ",
"                                        l.>Xf.9.z.{.-.@ ( ! E ^ / ! R } R / ^ ( K T.              -X                            ",
"                                        d.).v y.,X|.q.O ( ` R / ! ! ! / ! / T / E G R.          1X                              ",
"                                        h.r.v f.>X$Xq.O G X.R ! ! / / T / / / R R ( K J.        '.                              ",
"                                          Y.h./.>X$Xu.# L ^ ! / / ^ E E / ( G G R X.R H R.      g.                              ",
"                                              I.;X&X5.> D H R U E E R R ^ ( G G R ~ ! F D K.  h.q.                              ",
"                                              I.5XoX&.t D ( R T ! ! R R ! / E E ! ! / ^ t 0   w.b                               ",
"                                              I.5X_.> H ^ ^ R T ! ! Q ~ ! / ! ! U Q E G y O c l -.                              ",
"                                              I.3X_.< ^ H E Q B R E E T Q ) ) ) ) Q C Z 7 q k b                                 ",
"                                              I.5X_.> ^ E E Q Y T E E T R ! ! ! ! U M S 3.U.                                    ",
"                                              e.).g.> H ^ ! ) Q F E H C V A A A G * Z H.                                        ",
"                                            a.g 9.w.8 H E ! ! C N A A 2 , , = = w V.R.                                          ",
"                                          oXn d g -.y N C G A 2 < & < + p L.3.C.K.                                              ",
"                                        eX%Xe.n b u.< 1 4 1 = + 8 8 0 z E.                                                      ",
"                                        tX`.g.g.Y.9XF.F.F.V.4.z ;.;.5.Y.                                                        ",
"                                          XXXXOX              U.+X+XOX                                                          ",
"                                                                                                                                ",
"                                                                                                                                ",
"                                                                                                                                ",
"                                                                                                                                "
};
