/* XPM */
static char *_41b6bdf52a640d5a2d9b75faa3ab14aonJYfuJ3WKxhs4vx[] = {
/* columns rows colors chars-per-pixel */
"64 64 210 2 ",
"   c None",
".  c #141516",
"X  c #3F3E1F",
"o  c #2D331A",
"O  c #160D28",
"+  c #1D142C",
"@  c #1A1729",
"#  c #1D0D35",
"$  c #1D1431",
"%  c #1F1935",
"&  c #221B2E",
"*  c #251926",
"=  c #201633",
"-  c #231C35",
";  c #29173F",
":  c #251B3B",
">  c #291F3C",
",  c #22163C",
"<  c #331E3D",
"1  c #2D212E",
"2  c #252629",
"3  c #35272A",
"4  c #3D2C27",
"5  c #39362A",
"6  c #2B2334",
"7  c #27213B",
"8  c #2B233C",
"9  c #2C2B30",
"0  c #312432",
"q  c #36243C",
"w  c #302C3B",
"e  c #3A323B",
"r  c #353638",
"t  c #413225",
"y  c #3C4818",
"u  c #38452B",
"i  c #434111",
"p  c #5E551C",
"a  c #526D1C",
"s  c #46442C",
"d  c #5A5C27",
"f  c #577422",
"g  c #706C2D",
"h  c #797835",
"j  c #261A42",
"k  c #2A1D42",
"l  c #2C1F4B",
"z  c #2D2344",
"x  c #2F2946",
"c  c #2E234C",
"v  c #322545",
"b  c #332A44",
"n  c #32264C",
"m  c #342A4D",
"M  c #3A2B4B",
"N  c #39264D",
"B  c #3B3346",
"V  c #3B334B",
"C  c #363241",
"Z  c #2E2051",
"A  c #332653",
"S  c #392752",
"D  c #352A54",
"F  c #3B2D55",
"G  c #36255C",
"H  c #362B5A",
"J  c #3B2D5B",
"K  c #3C3255",
"L  c #3D325C",
"P  c #373056",
"I  c #3C2D63",
"U  c #362460",
"Y  c #3D3162",
"T  c #41394E",
"R  c #412E5B",
"E  c #403453",
"W  c #41335E",
"Q  c #483A5B",
"!  c #402E68",
"~  c #413462",
"^  c #45346B",
"/  c #483A68",
"(  c #543F60",
")  c #493771",
"_  c #4D3C7A",
"`  c #4E3E74",
"'  c #503D7F",
"]  c #46404E",
"[  c #4F4657",
"{  c #514D5E",
"}  c #58565A",
"|  c #4C5751",
" . c #655C47",
".. c #665F59",
"X. c #5C6958",
"o. c #6B6646",
"O. c #6D6957",
"+. c #767259",
"@. c #534A61",
"#. c #594868",
"$. c #5B5567",
"%. c #4F4179",
"&. c #54447C",
"*. c #584A76",
"=. c #5D507E",
"-. c #655567",
";. c #62567E",
":. c #716E69",
">. c #676173",
",. c #73677A",
"<. c #75717F",
"1. c #738C39",
"2. c #7B9645",
"3. c #928D3A",
"4. c #918F42",
"5. c #9B9849",
"6. c #83825E",
"7. c #918852",
"8. c #9F9E5B",
"9. c #8D9353",
"0. c #A39D51",
"q. c #8DA653",
"w. c #AAA959",
"e. c #9B9968",
"r. c #929079",
"t. c #8C916C",
"y. c #BBB867",
"u. c #ACA97A",
"i. c #B5AB74",
"p. c #AFB97A",
"a. c #B0C46F",
"s. c #B9C979",
"d. c #CBC47C",
"f. c #523E83",
"g. c #5E4D85",
"h. c #604E88",
"j. c #685692",
"k. c #6E6286",
"l. c #73688B",
"z. c #7B7683",
"x. c #7A7685",
"c. c #7F7C91",
"v. c #74689D",
"b. c #847D8C",
"n. c #807C85",
"m. c #837C90",
"M. c #8477A4",
"N. c #868394",
"B. c #8B8699",
"V. c #988996",
"C. c #829292",
"Z. c #958B93",
"A. c #A29086",
"S. c #93A396",
"D. c #BCBD84",
"F. c #B8BA8B",
"G. c #BEBC94",
"H. c #B9B69A",
"J. c #ADA391",
"K. c #9C95A6",
"L. c #A39FAE",
"P. c #A39CB1",
"I. c #A2A0AA",
"U. c #B0A2A2",
"Y. c #B7BAA7",
"T. c #C1BE8B",
"R. c #C3B6A6",
"E. c #C4C181",
"W. c #C1C288",
"Q. c #C8D887",
"!. c #D9D588",
"~. c #CBCA9A",
"^. c #DCD99A",
"/. c #D6D498",
"(. c #E3DC96",
"). c #D3EB95",
"_. c #E5E598",
"`. c #E3F196",
"'. c #F6F59D",
"]. c #CCC6A5",
"[. c #C5C8A3",
"{. c #D9D9AB",
"}. c #CCC4B0",
"|. c #DCDCB9",
" X c #EBDEB9",
".X c #E3DCA5",
"XX c #DBF2A7",
"oX c #EAE9A7",
"OX c #F2ECA9",
"+X c #E3F7AA",
"@X c #F7FBA2",
"#X c #F5FFAC",
"$X c #FDFEAC",
"%X c #FBF7A5",
"&X c #E7E5B8",
"*X c #EEF9B5",
"=X c #F5FCB4",
"-X c #FBFEB2",
";X c #F5FDBC",
":X c #FBFABA",
">X c #F7F4B7",
",X c #BEB7C7",
"<X c #BFC8CF",
"1X c #CFCFC7",
"2X c #C6D6D5",
"3X c #E0CCC3",
"4X c #F6FAC6",
"5X c #FDFED3",
"6X c #F8F6DA",
"7X c #FAEBC4",
/* pixels */
"                                                                                                                                ",
"                                                                                                                                ",
"                                                                                                                                ",
"                                                                                                                                ",
"                                                                                                                                ",
"                                                                                                                                ",
"                                                                                                                                ",
"                                                                        k.k.l.l.,.b.                                            ",
"                                                                    k.*.*./ W W V B                                             ",
"                                                                l.%.=.*.H Y L n E 8                                             ",
"                                                            v._ &.&.I G I H L D % $.                                            ",
"                                                        M.%.%.&.! I I I ~ J A z 7                                               ",
"                                                  g.g.j.h.` H D J I Y I H A z : >.                                              ",
"                                              =._ _ f.' _ A D n W J Z H j , z O                                                 ",
"                                          =.^ ) I I ^ G I ~ D A D D c , k z + c.                                                ",
"                                        ;.) ) U I G I Y H J ~ J H D j > z = +                                                   ",
"                                      b.-.#.~ J J H P H H I J J H D D z ; : +                                                   ",
"                                        U.Z.-.#.E J L L Y L H D ~ J A N n - 6                                                   ",
"                                      ]. X XJ.A.,.#.F D J J F K A J ~ F K : m.                                                  ",
"                                      ~.^.(.oX7X3XV.( J ~ H D K L L D S K n b                                                   ",
"                                      &X8.4.d.>X7XR.-.F W J H P H L L H F K 8 K.                                                ",
"                                      5X=X`.-X-X:X&XZ.Q R J H D L D L H L N v O                                                 ",
"                                      5X+Xq.Q.s.Q.;XU.[ N F K K H H H J P L k z B.                                              ",
"                                      4XXXa 2.1.a.;XY.} F S F K J J L H J H L z z B.                                            ",
"                                    5X*XXXf q.).=X;X&XJ.-.N F F D ~ Y J Y A L F b - m.                                          ",
"                                  R.9.`.+Xs.).#X=X-X=X].V.*.n L L D H J J ~ F n 7 8 6 z.                                        ",
"                                  H.s.`.#X#X$X@X@X$X_.u.-.N F A ~ H W L D L D : - & w                                           ",
"                                  [.oX$X@X$X'.$X%X(.i. .1 v F L D F F F D : k > 8 C                                             ",
"                                    ~.OX$X%X-X%X_.i. .3 q M M E K F N n z > = 8 w                                               ",
"                                      {.>XOXOX.Xe.o.3 8 M M E M v v z > = 8 T                                                   ",
"                                        6X].H.+.o . & - $ 8 ; ; : $ : 8 Q P.                                                    ",
"                                            1X2 . @ O $ = O # # = @.@.m.                                                        ",
"                                            <X{ r 2 % k j j k : B ,X                                                            ",
"                                          2XC.} r 9 + k l j z > & ]                                                             ",
"                                          S.| u s 5 * k n ; z > > V L.                                                          ",
"                                          X.o y d X @ n S k z 8 8 = {                                                           ",
"                                          Y.t.p.h i * N S A n m n $ V K.                                                        ",
"                                            F.oXw.d * N S D n D H n 7 $.                                                        ",
"                                            G.:X!.7.3 v F H c D H D m V Z.                                                      ",
"                                            5X:XOXi.4 < W J D L H L K 8 <.                                                      ",
"                                          6X5X>X!.7.4 q W J c H J J L m b I.                                                    ",
"                                          5X>X(.0.p t q S J P D J Y D D x x.                                                    ",
"                                          :XOXw.3.h t 0 F J L F H Y D / K 8 N.                                                  ",
"                                        T.oX!.3.y.E.s 1 E L m L L A ~ D A K 8 N.                                                ",
"                                        u.^.5.5.'.^. .0 b ~ A L H ~ D H H L P 8 N.                                              ",
"                                        H.e.g y.$X^. .0 M F L J L D ~ F L D D D x c.                                            ",
"                                          }.G.E.$X^. .6 E N Y I H L L c L D H L A K x.      *X4X;X4X5X                          ",
"                                              D.-X/...8 m L A G H n H L H H H H L m B :.6X4X;X;X4X4X                            ",
"                                              D.$Xi.e A J Y A J L A J H J I A H F V e 5 |.F.D.{.                                ",
"                                              W.-Xe.6 J ~ D c J H L l Y ^ H D c n B * 5 O.o.u.                                  ",
"                                              D.-Xe.6 H L L D c D A D A D L L m b & e } O.r.                                    ",
"                                              ~.=Xe.& L L N m c D L m c D N K 8 & [                                             ",
"                                                /.6.& F K V m v F z % : : & & B [                                               ",
"                                                F.6.1 z m V > + + 8 b @.$.$.{                                                   ",
"                                                |.t.* $ & + 6 >.,.>.V.                                                          ",
"                                                  H.n.N.b.z.B.                                                                  ",
"                                                                                                                                ",
"                                                                                                                                ",
"                                                                                                                                ",
"                                                                                                                                ",
"                                                                                                                                ",
"                                                                                                                                ",
"                                                                                                                                ",
"                                                                                                                                "
};
