/* XPM */
static char *_240c691db494ad9ebcc10c9209358cd5sE1Llkr8jDQkAff[] = {
/* columns rows colors chars-per-pixel */
"64 64 211 2 ",
"   c None",
".  c #211B14",
"X  c #2B1C1C",
"o  c #291E19",
"O  c #25200D",
"+  c #292117",
"@  c #362E1C",
"#  c #37361D",
"$  c #150D28",
"%  c #1D152C",
"&  c #1C192C",
"*  c #191526",
"=  c #170D33",
"-  c #1D1531",
";  c #1E1834",
":  c #221B2D",
">  c #271B28",
",  c #211334",
"<  c #231B34",
"1  c #251B3B",
"2  c #281D3C",
"3  c #25173A",
"4  c #2B222A",
"5  c #2A2134",
"6  c #2D243C",
"7  c #2A2B3D",
"8  c #332B3D",
"9  c #382B3C",
"0  c #32263C",
"q  c #3C303E",
"w  c #353526",
"e  c #4C3F2D",
"r  c #463D37",
"t  c #464039",
"y  c #424C3B",
"u  c #4D463B",
"i  c #5C4E31",
"p  c #50532F",
"a  c #625A3B",
"s  c #5B752E",
"d  c #6B7134",
"f  c #261C43",
"g  c #291D41",
"h  c #2A1E4A",
"j  c #2F1E52",
"k  c #2D2344",
"l  c #2E224C",
"z  c #322646",
"x  c #342B44",
"c  c #3A2D44",
"v  c #32254B",
"b  c #342A4D",
"n  c #392D4D",
"m  c #3A3041",
"M  c #3B334D",
"N  c #3B3B47",
"B  c #322454",
"V  c #392751",
"C  c #362A54",
"Z  c #3A2D54",
"A  c #34255A",
"S  c #372A5B",
"D  c #3A2D5B",
"F  c #38275B",
"G  c #3C3255",
"H  c #3D315C",
"J  c #3B3555",
"K  c #362B61",
"L  c #3C2D62",
"P  c #3E2C6A",
"I  c #3E3162",
"U  c #433C4C",
"Y  c #473B47",
"T  c #402D5A",
"R  c #402E54",
"E  c #423656",
"W  c #41345C",
"Q  c #46395A",
"!  c #533E5D",
"~  c #412E63",
"^  c #413363",
"/  c #44346B",
"(  c #483A63",
")  c #4A3B72",
"_  c #4A3976",
"`  c #503D7F",
"'  c #3D4549",
"]  c #4B4456",
"[  c #4C445A",
"{  c #454056",
"}  c #544C5B",
"|  c #4F4847",
" . c #6D634B",
".. c #737043",
"X. c #6A6455",
"o. c #766E50",
"O. c #4F4069",
"+. c #544B62",
"@. c #5B5364",
"#. c #5E5A6B",
"$. c #4F4172",
"%. c #54467A",
"&. c #564976",
"*. c #5C527A",
"=. c #665969",
"-. c #645D78",
";. c #715A72",
":. c #6A6278",
">. c #726C7C",
",. c #6F7E7B",
"<. c #7C7271",
"1. c #6B796C",
"2. c #8A7779",
"3. c #738F42",
"4. c #868437",
"5. c #878549",
"6. c #9A964A",
"7. c #929455",
"8. c #A49F4D",
"9. c #85A248",
"0. c #928960",
"q. c #9A9866",
"w. c #898671",
"e. c #928678",
"r. c #A29869",
"t. c #A29875",
"y. c #A6A878",
"u. c #B2AD7E",
"i. c #AABA73",
"p. c #BFBB7E",
"a. c #B8B477",
"s. c #ADB567",
"d. c #B1C977",
"f. c #CECB7D",
"g. c #C8C578",
"h. c #4B3A80",
"j. c #584785",
"k. c #5F508B",
"l. c #625486",
"z. c #635090",
"x. c #736A84",
"c. c #7E7884",
"v. c #7A6D97",
"b. c #776C91",
"n. c #857D89",
"m. c #927F81",
"M. c #827AA4",
"N. c #8C878A",
"B. c #939A8D",
"V. c #ABA787",
"C. c #B7AB86",
"Z. c #B9B887",
"A. c #BCBC91",
"S. c #968FAB",
"D. c #A099A0",
"F. c #B0ACA0",
"G. c #ABA8B3",
"H. c #D0BCB5",
"J. c #BEC88A",
"K. c #B1C0BB",
"L. c #C7C384",
"P. c #C9D28A",
"I. c #C8C897",
"U. c #D0C492",
"Y. c #D8D999",
"T. c #D6D389",
"R. c #E4DF8E",
"E. c #E5DE96",
"W. c #D7EA98",
"Q. c #E5E499",
"!. c #F4EF9E",
"~. c #EDF09F",
"^. c #F9F89D",
"/. c #D0CCAC",
"(. c #D2D1AB",
"). c #D2D6A3",
"_. c #CED1B4",
"`. c #D9DAB3",
"'. c #D0C9AC",
"]. c #E7E7A5",
"[. c #F2E9A5",
"{. c #E9F2A3",
"}. c #FBFAA4",
"|. c #FDFDAC",
" X c #F5F6A9",
".X c #E7E3B7",
"XX c #F5EFBD",
"oX c #E6FCB3",
"OX c #F4FDB3",
"+X c #FCFDB4",
"@X c #F5F6BC",
"#X c #F4FDBC",
"$X c #FDFDBA",
"%X c #F4F5B3",
"&X c #B2ADC2",
"*X c #B7B2C5",
"=X c #BEB9D0",
"-X c #C3BDD2",
";X c #C8C7CA",
":X c #E8E9C7",
">X c #F4FCC2",
",X c #FCFFC3",
"<X c #F6FCCA",
"1X c #FDFDCC",
"2X c #F6F4C4",
"3X c #FFFEDC",
"4X c #F5F9D4",
"5X c #F7E3C0",
"6X c #FFFFE2",
"7X c #FFFFEE",
"8X c #E7F1EB",
/* pixels */
"                                                                                                                                ",
"                                                                                                                                ",
"                                                                                                                                ",
"                                                                                                                                ",
"                                                                                                                                ",
"                                                                                                                                ",
"                                                                                                                                ",
"                                                                          -.x.b.b.x.                                            ",
"                                                                      *.&.&.H W Q k :.                                          ",
"                                                                  *.$.l.^ F / C b z -.                                          ",
"                                                              &.$.%.) F S I S D v k                                             ",
"                                                          l._ j.) L P P K L S C 2 +.                                            ",
"                                                  v.k.k.z.j./ B S K I S S D l 3 6                                               ",
"                                              v.%._ h.h.` _ B F F A I D h g 2 < ]                                               ",
"                                          S.) _ / A L ^ ~ ^ D C D B h f g 6 5 8                                                 ",
"                                        M.%./ P P P I C C Z W Z C D v 1 k 3 < U                                                 ",
"                                        -.*.O.D L P K H b b E Z Z H C l g 2 < U                                                 ",
"                                        ;XD.n.=.! ~ L H Z J b Z C H H C l b < ]                                                 ",
"                                        I.@XU.C.2.;.Q D Z J S I D D C ^ H v n                                                   ",
"                                        p.Q.R.[.5XH.;.( H D P K D H D C C W b +.                                                ",
"                                      3XY.4.8.R.+X.Xm.! D L / K S ^ D C W Z k J                                                 ",
"                                      3X,X{.~.|.}.$X'.;.T ~ F D H C D I H D W 3 [                                               ",
"                                      6X@XP.s.d.d.{.:X<.R L C H H H D S D D C k M                                               ",
"                                      3X>Xi.d 3.9.W.#Xw.U V T D H C I I S H C Z k U                                             ",
"                                      <X#Xi.s d.oXOXOXI.e.U V L D D D S D H D Z v z M                                           ",
"                                    y.y.OXW.J.oX>XOX|. XV.2.( A F I S ^ ^ C H C v 6 : N                                         ",
"                                    y.Y.+X|. X+X$X+X^.g.t.Y n F L D S D D Z C v k % < =.                                        ",
"                                    Z.%X|.}.|.|.|. Xf.r.e 4 z ^ C ( C H Z k k 2 < 6 #.                                          ",
"                                      I.%X}.}.^.|.L.r.e > c Z Z H v C G k z : < 8 #.                                            ",
"                                      :XI.$X[.!.a.q.r 5 x z E z Z b k 2 2 < 8 @.                                                ",
"                                          :XA.y.p . < f ; 6 , 2 2 1 - 6 c }                                                     ",
"                                            7Xw.. * = = - $ , - $ z +.]                                                         ",
"                                            8XB.' 7 $ 1 2 2 g 2 , >.                                                            ",
"                                            K.,.' N & < 2 1 3 g 2 % D.                                                          ",
"                                            1.y w y 4 < g v f g 2 2 -.                                                          ",
"                                            y # p p + : v L l l f 1 $ *X                                                        ",
"                                            B.y.q.d O 4 C F l Z C C g [                                                         ",
"                                            _.).P.7.# > D L v C D h l -                                                         ",
"                                            .XY.].L.a > V ^ b k H H Z n {                                                       ",
"                                              @X$X].o.X n D n b D D C G <                                                       ",
"                                            1X$X[.p. .X c Z G v Z H C H b J                                                     ",
"                                            @X XT.d i X 9 E b C Z G W C b k =X                                                  ",
"                                          2X$Xf.6.5.a o q n D H W v J C ( H k -X                                                ",
"                                          A. Xs.6.E.0.+ Y b I K C G G H Z C G b &X                                              ",
"                                          Z.L.4.f.+Xu.@ 9 Z I S D Z H C H Z J b Q *X                                            ",
"                                          V.5.5.Q.|.C.@ 9 G K K L I D H C H Z H b J &X          <X                              ",
"                                            I.a.Y.+Xu.@ c Z H S P S D Z H b C l Z J J G.    <X,X#X#X<X                          ",
"                                              I.Q.+XC.@ c Z C B L K B D C W B H D Z x Y F.6X>X#X>X>X4X                          ",
"                                              (.Q.%XX.9 n W D S D C D S L F K A D Z c 4 w./.Z.J.4X                              ",
"                                              (.Y.@Xu c G C D l G Z l S K / L j l x m o u ....(.                                ",
"                                              /.Y.1Xt 0 G C Z l b Z l C S H D H Z 6 5 | X. .                                    ",
"                                                ]..Xu 8 G G Z v v G b k b b b z 6 : c.                                          ",
"                                                  A.t m x b G v k M k < < < 5 6 U c.                                            ",
"                                                  A.r 5 x x z 2 < - % [ @.@.} >.                                                ",
"                                                `.`.| * : : & x x.:.>.                                                          ",
"                                                    N.N.c.n.n.                                                                  ",
"                                                                                                                                ",
"                                                                                                                                ",
"                                                                                                                                ",
"                                                                                                                                ",
"                                                                                                                                ",
"                                                                                                                                ",
"                                                                                                                                ",
"                                                                                                                                "
};
