/* XPM */
static char *_e8a97ee037641398ab7ffaef368f39bfVqri2gWjPDahrEP[] = {
/* columns rows colors chars-per-pixel */
"64 64 212 2 ",
"   c None",
".  c #170F1F",
"X  c #1B1619",
"o  c #2A1F1B",
"O  c #282519",
"+  c #302A12",
"@  c #160A29",
"#  c #1D142B",
"$  c #1C1524",
"%  c #1B0F31",
"&  c #1B1333",
"*  c #241C2D",
"=  c #251A26",
"-  c #201633",
";  c #231C34",
":  c #24153C",
">  c #261B3C",
",  c #2A1E3C",
"<  c #291F37",
"1  c #2A2427",
"2  c #352C2B",
"3  c #322928",
"4  c #343A2A",
"5  c #2B2334",
"6  c #2C233B",
"7  c #32263C",
"8  c #312738",
"9  c #393737",
"0  c #2F3430",
"q  c #433B31",
"w  c #3D4130",
"e  c #48431B",
"r  c #6C6715",
"t  c #5D562A",
"y  c #4B443A",
"u  c #544C3B",
"i  c #585535",
"p  c #4D4E32",
"a  c #615C39",
"s  c #655E27",
"d  c #5A762B",
"f  c #6B6434",
"g  c #777438",
"h  c #6D6931",
"j  c #271A41",
"k  c #291D43",
"l  c #291E48",
"z  c #2D2244",
"x  c #2E224B",
"c  c #322544",
"v  c #352B44",
"b  c #32254C",
"n  c #342A4C",
"m  c #392D4C",
"M  c #3C344C",
"N  c #383045",
"B  c #332554",
"V  c #362B54",
"C  c #392D55",
"Z  c #34235B",
"A  c #362C5A",
"S  c #3A2D5B",
"D  c #392759",
"F  c #373255",
"G  c #3B3154",
"H  c #3C315B",
"J  c #2F2D52",
"K  c #3B2664",
"L  c #3C2C62",
"P  c #382765",
"I  c #3C3260",
"U  c #42355C",
"Y  c #453D59",
"T  c #48324F",
"R  c #402E64",
"E  c #422C6A",
"W  c #423363",
"Q  c #4B3462",
"!  c #45316B",
"~  c #493B67",
"^  c #4A3573",
"/  c #4C3775",
"(  c #553E7D",
")  c #4E366A",
"_  c #484749",
"`  c #564D4A",
"'  c #5C5549",
"]  c #4B4357",
"[  c #565858",
"{  c #625D4B",
"}  c #675D51",
"|  c #576254",
" . c #6A6852",
".. c #534866",
"X. c #564777",
"o. c #5F576C",
"O. c #685A6C",
"+. c #6C5B78",
"@. c #776976",
"#. c #6C6B6B",
"$. c #827D35",
"%. c #827D45",
"&. c #857777",
"*. c #84776B",
"=. c #718B37",
"-. c #79994C",
";. c #6F8D42",
":. c #858235",
">. c #8B874D",
",. c #979446",
"<. c #888159",
"1. c #999557",
"2. c #918E41",
"3. c #86A758",
"4. c #A4A15A",
"5. c #878368",
"6. c #999567",
"7. c #94967E",
"8. c #A59F61",
"9. c #ABA668",
"0. c #B8B362",
"q. c #ABA574",
"w. c #A4A675",
"e. c #B8B679",
"r. c #B0AB73",
"t. c #C2BE79",
"y. c #B7C47C",
"u. c #D3CF7D",
"i. c #CFCE7C",
"p. c #563C83",
"a. c #5C4284",
"s. c #5D4788",
"d. c #624E85",
"f. c #634B8C",
"g. c #685787",
"h. c #715599",
"j. c #6F578B",
"k. c #756582",
"l. c #7C728A",
"z. c #837C8E",
"x. c #837A95",
"c. c #7C878B",
"v. c #97939E",
"b. c #928A8D",
"n. c #A59B8B",
"m. c #A19192",
"M. c #96A199",
"N. c #B8B489",
"B. c #B4A88D",
"V. c #9487A7",
"C. c #9C94A3",
"Z. c #9B95AB",
"A. c #A19AA9",
"S. c #ADA8B3",
"D. c #B1ACBC",
"F. c #B2A8A2",
"G. c #C3BA87",
"H. c #C2BE9B",
"J. c #C6BA94",
"K. c #C4BDA6",
"L. c #C2B9B0",
"P. c #BEC098",
"I. c #C7C58B",
"U. c #D6D285",
"Y. c #D8D489",
"T. c #C7C796",
"R. c #DADA9B",
"E. c #D7D79B",
"W. c #C2DB8A",
"Q. c #D7E699",
"!. c #E5E49C",
"~. c #EDEB9B",
"^. c #E6E599",
"/. c #F6F99D",
"(. c #E6F096",
"). c #CAC8A5",
"_. c #D9D7AD",
"`. c #D9D9B5",
"'. c #CFCFBC",
"]. c #E3DEA8",
"[. c #D5F2A9",
"{. c #ECE5AE",
"}. c #E9E6A5",
"|. c #F2EFA8",
" X c #EBF5A8",
".X c #FCFFA4",
"XX c #FCF5AB",
"oX c #F5FCAB",
"OX c #FDFDAB",
"+X c #F6F7A5",
"@X c #E9E5B6",
"#X c #F6ECB4",
"$X c #F5FFB2",
"%X c #FEFDB3",
"&X c #FEFDBB",
"*X c #F6F6B7",
"=X c #E8FDBA",
"-X c #B0ABC1",
";X c #B9C7C2",
":X c #DCDBC5",
">X c #E9E9CA",
",X c #F1E8C3",
"<X c #FDFBC4",
"1X c #FFFDCD",
"2X c #F6F8C2",
"3X c #E8E4DA",
"4X c #FBFCD2",
"5X c #FFFEDA",
"6X c #F8F6DA",
"7X c #EFFFC2",
"8X c #FDFFE4",
"9X c #EAE0FB",
/* pixels */
"                                                                                                                                ",
"                                                                                                                                ",
"                                                                                                                                ",
"                                                                                                                                ",
"                                                                      X.      ..                                                ",
"                                                                    d.^ Z X.X.G                                                 ",
"                                                                  f.^ K ( X./ C ,                                               ",
"                                                                f.p.K ^ f./ D G z                                               ",
"                                                              f.^ ( f.s./ E L S z                                               ",
"                                                            / p.f.f.a./ L P S G z 6                                             ",
"                                                      j.h.h.h.p.( ^ ! L L L S C n @                                             ",
"                                                  g.X.d.a.a.a.E Z B D L R H D x < ;                                             ",
"                                            V.j.d.^ ! L L ! W R B B S S A B b k ; *                                             ",
"                                        9XV.d.E E E K L ! S V V H S S V x l k k 6 *                                             ",
"                                        V.d.^ ! K E R S V V H H S V S A x l k > ; #                                             ",
"                                        V.k.k.Q Q S S D S H V G H S S H A B x > < *                                             ",
"                                        3X  n.*.O.) Q S S S S G S S S L L S V n < 5                                             ",
"                                        ).].{.J.B.&.+...! D D V C S S L L L S V < z.                                            ",
"                                        T.R.|.}.{.,XK.@.U L I H F S S S S S S C m 6                                             ",
"                                        *X4.g 9.~.%X#Xn.~ P H J F S S S S S S G G < z.                                          ",
"                                        *X}.Q. X/..X+XJ.k.^ V F F H S S S S S G C n 6                                           ",
"                                        <X%Xy.Q.(.(..X#Xb.~ x H H H S S S S S S H x & x.                                        ",
"                                        <X X=.-.=.=.i.&Xb.T C D S S H G C S S S A H k n                                         ",
"                                          $Xd ;.3.W.oXXXJ.*.T D S S H H C S S S D L S b M                                       ",
"                                        *X$X;.-.[.=X&X%X#XJ.@.U V A H H C G D H L A S V ; 5                                     ",
"                                    6.$.!.oXQ. X7X7X*X%XXXG.m.+.H B V V H H S S S S x > n #                                     ",
"                                    N.U.~.OXoX$X$X$XOX+Xi.q.` 7 b A W S C H S V S D k < ; ;                                     ",
"                                    T.!.OX/..X+XoXOX/.U.9.i 1 6 V H H V C H S V k > > # 6                                       ",
"                                      T.^././.OX.X.Xu.8.u 2 ; ~ V C C H S b k k , < 6 5                                         ",
"                                        T.}.%X|.XXt.9.t 1 v n b V G n b x x z < 6 *                                             ",
"                                            _.N.B.a + 3 $ > n k k z k j j > , ;                                                 ",
"                                                 .X X . - & @ : % % % > - z                                                     ",
"                                                #.9 1 $ & j : : : , # l.                                                        ",
"                                              ;Xc._ 0 X ; k k l k : 6 M                                                         ",
"                                            ;Xb.[ 9 w O < j k j k z - # C.                                                      ",
"                                            M.| 4 w p O # k n b > c > < N                                                       ",
"                                            #.4 p p i + = n C z V k k , # C.                                                    ",
"                                            3X7.P.w.g + = c C x b S C b ; N                                                     ",
"                                              K._.I.>.e = m G V l V V b z 6 Z.                                                  ",
"                                              H.{.|.e.f 1 c C H x V S B C n M D.                                                ",
"                                              ,X&X&X~.>.2 6 C H V S V H S C 6 C.                                                ",
"                                            8X4X&X+XU.g 3 , H A V B S H S G n Y D.                                              ",
"                                            5X<XXXu.,.s o c H A V B H S V V H ; b.                                              ",
"                                          6X5X*XU.0.r t 3 < C I A H H V H V U n ..D.                                            ",
"                                          `.@X&Xt.$.0.%.O v C A H S A V W H C C z Y -X                $X$X                      ",
"                                          H.R.Y.2.0.~.r.q 6 C I H A H H V H S V G n Y -X            *XoX                        ",
"                                          6.E.1.:.Y.%XI.q 8 C H A A H A V S H H V H x ] S.          R.                          ",
"                                          `.6.s ,.~.OXG.y 5 G V V H H V U V V H S H C b ] S.      }.e.                          ",
"                                              ).r.^.OXI.y 6 G G F F G G m G G S B B S C v ] S.    t.q.                          ",
"                                                I.^.OXe._ z V G V V V n n V H A D S S S G 6 ] F.  1.g                           ",
"                                                G.^.XX<.9 C H A Z P L A V C G S S B B G G m 6 ` <.f <.                          ",
"                                                I.!.&Xa 5 H H A P P L A B A S S A S B b G v $ 2 p t                             ",
"                                                I.].<Xi 7 G V H B B S S B B S S I S b c 7 1 2 y i 5.                            ",
"                                                J.{.1X{ 7 C C G B B C S V b V S S C G < * [                                     ",
"                                                @X2X4X} 7 G G n C b b C n z z c z z - # O.                                      ",
"                                                1X2X`.' 6 n G M m , < c 7 - # # # ; o.A.                                        ",
"                                            5X1X&XE.N.u 6 k b c 5 = X = X 5 @.C.v.A.                                            ",
"                                          8X4X<XR.1.H.' . - & # X 3 q 2 9 &.                                                    ",
"                                          6X`.T.e.w.>XL.C.Z.Z.v.{  .*.5.n.                                                      ",
"                                            >X`.`.6X            '.).`.:X                                                        ",
"                                                                                                                                ",
"                                                                                                                                ",
"                                                                                                                                ",
"                                                                                                                                "
};
