/* XPM */
static char *result[] = {
/* columns rows colors chars-per-pixel */
"64 64 223 2 ",
"   c #1A1515",
".  c #231D0D",
"X  c #231C1C",
"o  c #2A2618",
"O  c #36321C",
"+  c #1C1525",
"@  c #1C152C",
"#  c #1E1A2E",
"$  c #161229",
"%  c #1D1533",
"&  c #1F1C31",
"*  c #180D2F",
"=  c #231C2C",
"-  c #261C24",
";  c #211734",
":  c #231C34",
">  c #241B3B",
",  c #291E3B",
"<  c #21163E",
"1  c #1F203C",
"2  c #2B252A",
"3  c #37392C",
"4  c #2B2335",
"5  c #24213A",
"6  c #2C233B",
"7  c #2D293E",
"8  c #272535",
"9  c #32253D",
"0  c #332B3C",
"q  c #332934",
"w  c #393538",
"e  c #322C2B",
"r  c #433E24",
"t  c #443B36",
"y  c #344337",
"u  c #625D1B",
"i  c #4A4827",
"p  c #56542C",
"a  c #4B4938",
"s  c #524C37",
"d  c #475335",
"f  c #5A5735",
"g  c #4E502B",
"h  c #625D3A",
"j  c #57613C",
"k  c #716C28",
"l  c #6A6530",
"z  c #5C5715",
"x  c #291E42",
"c  c #2A1E49",
"v  c #241C45",
"b  c #2D1F52",
"n  c #2B2343",
"m  c #2F2845",
"M  c #2D234C",
"N  c #292549",
"B  c #322643",
"V  c #352C44",
"C  c #32254C",
"Z  c #342B4B",
"A  c #392C4C",
"S  c #392E43",
"D  c #2D3247",
"F  c #3C344D",
"G  c #393547",
"H  c #332554",
"J  c #362B53",
"K  c #3B2D55",
"L  c #3B2D5B",
"P  c #35275B",
"I  c #3C3255",
"U  c #3D315B",
"Y  c #2E2055",
"T  c #3C2C62",
"R  c #392965",
"E  c #3E3165",
"W  c #443947",
"Q  c #423355",
"!  c #42335B",
"~  c #44395C",
"^  c #453A52",
"/  c #412F5F",
"(  c #422E68",
")  c #433464",
"_  c #453369",
"`  c #493A67",
"'  c #523E6C",
"]  c #4D3D73",
"[  c #493576",
"{  c #513F73",
"}  c #3C464F",
"|  c #49464E",
" . c #544D48",
".. c #4D5644",
"X. c #464658",
"o. c #514256",
"O. c #4F5850",
"+. c #625C4D",
"@. c #65515D",
"#. c #686647",
"$. c #736C5A",
"%. c #787357",
"&. c #706E51",
"*. c #544567",
"=. c #595766",
"-. c #544674",
";. c #55447B",
":. c #574976",
">. c #494966",
",. c #66556A",
"<. c #695476",
"1. c #5F6975",
"2. c #67676A",
"3. c #6B6879",
"4. c #736B77",
"5. c #7A6F6B",
"6. c #817F4F",
"7. c #897B7B",
"8. c #8B7D71",
"9. c #7F815A",
"0. c #8A893A",
"q. c #8D933D",
"w. c #9B9C49",
"e. c #878659",
"r. c #928F56",
"t. c #9A9758",
"y. c #8A884B",
"u. c #A29D56",
"i. c #A2A44A",
"p. c #A5A15D",
"a. c #ADA55C",
"s. c #AEA757",
"d. c #B4AA59",
"f. c #BEB95B",
"g. c #989965",
"h. c #988979",
"j. c #948F6C",
"k. c #A79D75",
"l. c #B09E77",
"z. c #A89573",
"x. c #9CA369",
"c. c #A7A768",
"v. c #B5AC66",
"b. c #B9B767",
"n. c #ADA376",
"m. c #A8A577",
"M. c #B4A679",
"N. c #BBB977",
"B. c #C1B965",
"V. c #C2BD76",
"C. c #BEC264",
"Z. c #C5C56E",
"A. c #C8C879",
"S. c #D9D87B",
"D. c #554185",
"F. c #5F4B92",
"G. c #67568B",
"H. c #726C82",
"J. c #7D7788",
"K. c #707189",
"L. c #877786",
"P. c #83759B",
"I. c #8A768B",
"U. c #8879AA",
"Y. c #888282",
"T. c #A59C8C",
"R. c #A7A683",
"E. c #BBB98B",
"W. c #B0AB8E",
"Q. c #B0AABD",
"!. c #C1BE89",
"~. c #C7BDBB",
"^. c #C8C787",
"/. c #DAD483",
"(. c #DADC82",
"). c #DCDC8E",
"_. c #D5D38A",
"`. c #C4C496",
"'. c #CCCC93",
"]. c #C7C595",
"[. c #DAD899",
"{. c #D0CD92",
"}. c #E2DA88",
"|. c #E1DE92",
" X c #DDE286",
".X c #E7E48D",
"XX c #E3E39C",
"oX c #ECEB9B",
"OX c #E8E797",
"+X c #F3F59E",
"@X c #F5FA9B",
"#X c #FBFD9C",
"$X c #F7FB95",
"%X c #F2EF92",
"&X c #DBD6A2",
"*X c #CCC8A2",
"=X c #EAE7A7",
"-X c #F2EFA3",
";X c #F3F3A4",
":X c #F9F7A4",
">X c #F5FBA3",
",X c #FCFDA4",
"<X c #F6F4AA",
"1X c #FDFEAB",
"2X c #F7F8AD",
"3X c #E8E5B1",
"4X c #F2EEB3",
"5X c #EDF4B9",
"6X c #FDFCB3",
"7X c #FEFCBB",
"8X c #F8F7B6",
"9X c #EEF0A5",
"0X c #BDB6CA",
"qX c #C3BDCB",
"wX c #CAC5C7",
"eX c #D4CED7",
"rX c #F9FAC2",
"tX c #E9E5C2",
"yX c #D9CBE9",
"uX c #D1C2F3",
"iX c #D5D3E0",
"pX c #E7DAEE",
"aX c None",
/* pixels */
"aXaXaXaXaXaXaXaXaXaXaXaXaXaXaXaXaXaXaXaXaXaXaXaXaXaXaXaXaXaXaXaXaXaXaXaXaXaXaXaXaXaXaXaXaXaXaXaXaXaXaXaXaXaXaXaXaXaXaXaXaXaXaXaX",
"aXaXaXaXaXaXaXaXaXaXaXaXaXaXaXaXaXaXaXaXaXaXaXaXaXaXaXaXaXaXaXaXaXaXaXaXaXaXaXaXaXaXaXaXaXaXaXaXaXaXaXaXaXaXaXaXaXaXaXaXaXaXaXaX",
"aXaXaXaXaXaXaXaXaXaXaXaXaXaXaXaXaXaXaXaXaXaXaXaXaXaXaXaXaXaXaXaXaXaXaXaXaXaXaXaXaXaXaXaXaXaXaXaXaXaXaXaXaXaXaXaXaXaXaXaXaXaXaXaX",
"aXaXaXaXaXaXaXaXaXaXaXaXaXaXaXaXaXaXaXaXaXaXaXaXaXaXaXaXaXaXaXaXaXaXaXaXaXaXaXaXaXaXaXaXaXaXaXaXaXaXaXaXaXaXaXaXaXaXaXaXaXaXaXaX",
"aXaXaXaXaXaXaXaXaXaXaXaXaXaXaX0 aXaXaXaXaXaXaXaXaXaXaXaXaXaXaXaXaXaXaXaXaXaXaXaXaXaXaXaXaXaXaXaXaXaXaXaXaXaXaXaXaXaXaXaXaXaXaXaX",
"aXaXaXaXaXaXaXaXaXaXaXaXaXaXaX: { U.aXaXaXaXaXaXaXaXaXaXaXaXaXaXaXaXaXaXaXaXaXaXaXaXaXaXI 9 aXaXaXaXaXaXaXaXaXaXaXaXaXaXaXaXaXaX",
"aXaXaXaXaXaXaXaXaXaXaXaXaXaXaX6 _ ;.P.pXpXaXaXaXaXaXaXaXaXaXaXaXaXaXaXaXaXaXaXaXaXaXK.-.` > aXaXaXaXaXaXaXaXaXaXaXaXaXaXaXaXaXaX",
"aXaXaXaXaXaXaXaXaXaXaXaXaXaX= , / _ { :.U.yXpXaXaXaXaXaXaXaXaXaXaXaXaXaXaXaXaXaXP.-._ P L V ; aXaXaXaXaXaXaXaXaXaXaXaXaXaXaXaXaX",
"aXaXaXaXaXaXaXaXaXaXaXaXaXaX= 6 / K ( _ { G.U.uXuXuXuXaXaXaXaXaXaXaXaXaXaXaXU.-.-.) L L J B = aXaXaXaXaXaXaXaXaXaXaXaXaXaXaXaXaX",
"aXaXaXaXaXaXaXaXaXaXaXaXaXaX+ B A / P P [ D.F.F.D.D.;.;.-.:.:.-.:.:.;.' ;.G.:.` L ( P T ! 6 4 aXaXaXaXaXaXaXaXaXaXaXaXaXaXaXaXaX",
"aXaXaXaXaXaXaXaXaXaXaXaXaXaX@ 6 Q Q L T [ [ D.[ T T L L L K K P L L T ( ( [ { { T T T E K , = aXaXaXaXaXaXaXaXaXaXaXaXaXaXaXaXaX",
"aXaXaXaXaXaXaXaXaXaXaXaXaXaX: : B K b _ ( [ ( ( T L K Q / L K K L ! T T L ( ( _ _ T R E H n 9 aXaXaXaXaXaXaXaXaXaXaXaXaXaXaXaXaX",
"aXaXaXaXaXaXaXaXaXaXaXaXaXaX= , b R [ _ ( ( ( K ! K K K Q K K Q Q L L L T L / / T _ P R H x 6 aXaXaXaXaXaXaXaXaXaXaXaXaXaXaXaXaX",
"aXaXaXaXaXaXaXaXaXaXaXaXaXaX= , v R ;.L P H K ! K L Q K J K / K K K U L / / P K T _ ] Y c > 6 aXaXaXaXaXaXaXaXaXaXaXaXaXaXaXaXaX",
"aXaXaXaXaXaXaXaXaXaXaXaXaXaX2.; H E ` L ) Q K K L ) ' ' ' ' ' ' ' ) ' L L ! / K U K :.J > 6 4.aXaXaXaXaXaXaXaXaXaXaXaXaXaXaXaXaX",
"aXaXaXaXaXaXaXaXaXaXaXaXaXaXaX@ c ` U K C / Q ~ ` <.I.I.L.L.7.7.7.L.I.,.~ ^ K / L I ) ~ > : eXaXaXaXaXaXaXaXaXaXaXaXaXaXaXaXaXaX",
"aXaXaXaXaXaXaXaXaXaXaXaXaXaXaX# N U U P ! ) ' ,.I.h.l.l.l.l.M.l.l.M.l.j.8.@.' ( U I C >.N n iXaXaXaXaXaXaXaXaXaXaXaXaXaXaXaXaXaX",
"aXaXaXaXaXaXaXaXaXaXaXaXaXaX3.7 I J J K ! ,.L.h.z.B.v.d.d.d.s.s.v.a.a.v.l.h.I.<.U ) U J H C J.aXaXaXaXaXaXaXaXaXaXaXaXaXaXaXaXaX",
"aXaXaXaXaXaXaXaXaXaXaXaXaXaX: F U L L ~ ,.h.M.v.b.B./.}.}./.S.}.}./.V.v.s.d.M.h.=./ J Z U D n aXaXaXaXaXaXaXaXaXaXaXaXaXaXaXaXaX",
"aXaXaXaXaXaXaXaXaXaXaXaXaXK.m K J L L ^ 5.R.d.f.S..X6X1X-X1X:X#X,X:X.XS.f.d.a.M.4.) U J I I 6 I.aXaXaXaXaXaXaXaXaXaXaXaXaXaXaXaX",
"aXaXaXaXaXaXaXaXaXaXaXaX3.Z U J / / ~ W $.R.V..X,X#XS.i.A.1X>X,Xb.i.S.,X%XS.B.M.5.Q Q P K L K B aXaXaXaXaXaXaXaXaXaXaXaXaXaXaXaX",
"aXaXaXaXaXaXaXaXaXaXaX4.Z D E U ( B o.8.n.&X=X6X,X#XS.b. X2X>X1XS.Z..X,X:X#X|.&XT.W 9 Q ) H Q A 0 aXaXaXaXaXaXaXaXaXaXaXaXaXaXaX",
"aXaXaXaXaXaXaXaXaXaX2.= V Z J J / 9 s E.=X1X6X:X6X6X1X1X>X>X>X,X@X,X1X,X#X,X1X8X3X8.t 9 K K K K 7 e aXaXaXaXaXaXaXaXaXaXaXaXaXaX",
"aXaXaXaXaXaXaXaXaXaXaX# & 5 M I K 0 r !.6X,X2XoX).>X,X@X@X,X1X,X1X,X@X,X}..X8X8X8XE.t 9 K K Z 6 + aXaXaXaXaXaXaXaXaXaXaXaXaXaXaX",
"aXaXaXaXaXaXaXaXaXaXaXaXaX: % n C , 2 &.{.6X1X+XV.0.q.i.(.,X6X2X).w.q.0.Z.:X2X7X{.#.2 6 M n @ : aXaXaXaXaXaXaXaXaXaXaXaXaXaXaXaX",
"aXaXaXaXaXaXaXaXaXaXaXaXaXaXaX: % : - X #.[.2X6XXX/.A. X+X,X1X7X9X|.S.A.oX6X8X&Xf o = > $ : aXaXaXaXaXaXaXaXaXaXaXaXaXaXaXaXaXaX",
"aXaXaXaXaXaXaXaXaXaXaXaXaXaXaXaXaX$   - . #.&X8X5X2X2X2X<XA.y.C.8X2X2X6X8XrX*Xh .   + 8 aXaXaXaXaXaXaXaXaXaXaXaXaXaXaXaXaXaXaXaX",
"aXaXaXaXaXaXaXaXaXaXaXaXaXaXaXaXaXaXaXwX~.R.O d g.5XrXrX5X3X'.9X7X5X5X5Xe.p r T.wXwXaXaXaXaXaXaXaXaXaXaXaXaXaXaXaXaXaXaXaXaXaXaX",
"aXaXaXaXaXaXaXaXaXaXaXaXaXaXaXaXaXaXaXaXaXaXh.  e ..y ..d d j z d d d d t   L.aXaXaXaXaXaXaXaXaXaXaXaXaXaXaXaXaXaXaXaXaXaXaXaXaX",
"aXaXaXaXaXaXaXaXaXaXaXaXaXaXaXaXaXaXaXaXaXqXG @ & } 1.=.3 +.9.d y O.2.y & : X.qXaXaXaXaXaXaXaXaXaXaXaXaXaXaXaXaXaXaXaXaXaXaXaXaX",
"aXaXaXaXaXaXaXaXaXaXaXaXaXaXaXaXaXaXaXaXqXS = 6 1 >.1.O.3 &.m.j y } K.} 1 v ; ^ eXaXaXaXaXaXaXaXaXaXaXaXaXaXaXaXaXaXaXaXaXaXaXaX",
"aXaXaXaXaXaXaXaXaXaXaXaXaXaXaXaXaXaXaXaXQ.; > : 1 D } y f x.c.x.j } } D 1 N x $ 0XaXaXaXaX8XaXaXaXaXaXaXaXaXaXaXaXaXaXaXaXaXaXaX",
"aXaXaXaXaXaXaXaXaXaXaXaXaXaXaXaXaXaXaXwXF J Z Z > 4 O j x._.oXA.x.d e 8 v P D V I aXaXaXaXaX7XaXaXaXaXaXaXaXaXaXaXaXaXaXaXaXaXaX",
"aXaXaXaXaXaXaXaXaXaXaXaXaXaXaXaXaXaXaXQ.& I K Z V - f c.^.oX6X+XA.m.a + M L G G % 0XaXaXaXXX2XaXaXaXaXaXaXaXaXaXaXaXaXaXaXaXaXaX",
"aXaXaXaXaXaXaXaXaXaXaXaXaXaXaXaXaXaXaXV U J K F = +.g.{.>X2X,X,X@XA.x.a S Z A I I F aXaXx.[.aXaXaXaXaXaXaXaXaXaXaXaXaXaXaXaXaXaX",
"aXaXaXaXaXaXaXaXaXaXaXaXaXaXaXaXaXaXaX5 J L L 4  .k.'.;X1X2X,X,X>X@X^.k.W V I K Z + +.j.t.aXaXaXaXaXaXaXaXaXaXaXaXaXaXaXaXaXaXaX",
"aXaXaXaXaXaXaXaXaXaXaXaXaXaXaXaXaXaXS Z P L K q f '.;X1X2X,X1X,X#X#X:X].a ; ~ K I G o 9.e.aXaXaXaXaXaXaXaXaXaXaXaXaXaXaXaXaXaXaX",
"aXaXaXaXaXaXaXaXaXaXaXaXaXaXaXaXaXaX8 U L L Q e 6.=X>X,X:X1X1X:X#X$X@X9X%.t B U U S . #.aXaXaXaXaXaXaXaXaXaXaXaXaXaXaXaXaXaXaXaX",
"aXaXaXaXaXaXaXaXaXaXaXaXaXaXaXaXaXaX@ H _ / , 2.4X X(.1X6X<X-X<X,X,XZ.=XtX .V K C I = aXaXaXaXaXaXaXaXaXaXaXaXaXaXaXaXaXaXaXaXaX",
"aXaXaXaXaXaXaXaXaXaXaXaXaXaXaXaXaX9 , U L / q $.2XS.Z.oX7X|.v.|.1XoXV.|.rX+.S J E U 5 S aXaXaXaXaXaXaXaXaXaXaXaXaXaXaXaXaXaXaXaX",
"aXaXaXaXaXaXaXaXaXaXaXaXaXaXaXaXaX: v U L K 4 %.6X Xw.v.8X'.u._.7Xu.w..X8X+.q / ( P M # aXaXaXaXaXaXaXaXaXaXaXaXaXaXaXaXaXaXaXaX",
"aXaXaXaXaXaXaXaXaXaXaXaXaXaXaXaX6 * I U K I q #.6X@Xs.p.4XN.z V.4Xt.Z.6X6Xf q / L T c 5 7 aXaXaXaXaXaXaXaXaXaXaXaXaXaXaXaXaXaXaX",
"aXaXaXaXaXaXaXaXaXaXaXaXaXaXaXaX; C J L Q ^ e 6.<X1X).t.M.t.u u.p.u.}.:X6X&.q A J U J n 5 aXaXaXaXaXaXaXaXaXaXaXaXaXaXaXaXaXaXaX",
"aXaXaXaXaXaXaXaXaXaXaXaXaXaXaXaXx U L L A 9 t *X6X1X,X_.r.k k k u.).1X<X8X!.t 0 I A I Z n S aXaXaXaXaXaXaXaXaXaXaXaXaXaXaXaXaXaX",
"aXaXaXaXaXaXaXaXaXaXaXaXaXaXaXG I L J M Q 9 a ].6X>X1X6X).b.V.b.(.,X1X1X2X^.t q Q : I U Z D G aXaXaXaXaXaXaXaXaXaXaXaXaXaXaXaXaX",
"aXaXaXaXaXaXaXaXaXaXaXaXaXaX5 n J J L J K 4 s ].8X1X@X>X:X,X:X:X,X,X,X,X:X^.t 0 A ~ J U I Z 7 aXaXaXaXaXaXaXaXaXaXaXaXaXaXaXaXaX",
"aXaXaXaXaXaXaXaXaXaXaXaXaX8 F D Q I K U Q 4 s ].6X,X#X#X#X,X#X1X1X1X,X#X,XC.w 9 ! L P P I N Z D aXaXaXaXaXaXaXaXaXaXaXaXaXaXaXaX",
"aXaXaXaXaXaXaXaXaXaXaXaXaX5 G J J U c K K 9 a ].6X,X$X$X#X,X1X:X:X1X#X,X,X^.t A P ( Y L J J U n aXaXaXaXaXaXaXaXaXaXaXaXaXaXaXaX",
"aXaXaXaXaXaXaXaXaXaXaXaX: m Z U / H / Q K , t W.8X1X#X$X1X6X6X,X1X,X@X1X2Xm.t A T R T P J J U n q aXaXaXaXaXaXaXaXaXaXaXaXaXaXaX",
"aXaXaXaXaXaXaXaXaXaXaXaX6 V I J b H K A Q B - $.rX1X@X,X4XXX=X;X-X,X1X1X7Xh - B L T J v I I J Z 7 aXaXaXaXaXaXaXaXaXaXaXaXaXaXaX",
"aXaXaXaXaXaXaXaXaXaXaXaX7 6 n J c c B S A 9 - +.4X6X2X;XN.r.y.y.V.<X,X2X3Xf X 9 K L L > 5 m n : w aXaXaXaXaXaXaXaXaXaXaXaXaXaXaX",
"aXaXaXaXaXaXaXaXaXaXaXaX3.>.& & > > 6 : ; = - s E.[.[.N.g.aXaXaXr.N.XX[.E.i X 6 < v > 5 8 # 5 aXaXaXaXaXaXaXaXaXaXaXaXaXaXaXaXaX",
"aXaXaXaXaXaXaXaXaXaXaXaXaXaXH.3.=.: + = 4 = w aXm.'.'.g.aXaXaXaXm.c.].^.m.%.e = ; , @ = =.aXaXaXaXaXaXaXaXaXaXaXaXaXaXaXaXaXaXaX",
"aXaXaXaXaXaXaXaXaXaXaXaXaXaXaXaXaXJ.2.4.4.4.aXaXaXE.`.aXaXaXaXaXaXR.E.`.R.aXaX4.H.aXaXaXaXaXaXaXaXaXaXaXaXaXaXaXaXaXaXaXaXaXaXaX",
"aXaXaXaXaXaXaXaXaXaXaXaXaXaXaXaXaXaXaXaXaXaXaXaXaXaXaXaXaXaXaXaXaXaXR.R.aXaXaXaXaXaXaXaXaXaXaXaXaXaXaXaXaXaXaXaXaXaXaXaXaXaXaXaX",
"aXaXaXaXaXaXaXaXaXaXaXaXaXaXaXaXaXaXaXaXaXaXaXaXaXaXaXaXaXaXaXaXaXaXaXaXaXaXaXaXaXaXaXaXaXaXaXaXaXaXaXaXaXaXaXaXaXaXaXaXaXaXaXaX",
"aXaXaXaXaXaXaXaXaXaXaXaXaXaXaXaXaXaXaXaXaXaXaXaXaXaXaXaXaXaXaXaXaXaXaXaXaXaXaXaXaXaXaXaXaXaXaXaXaXaXaXaXaXaXaXaXaXaXaXaXaXaXaXaX",
"aXaXaXaXaXaXaXaXaXaXaXaXaXaXaXaXaXaXaXaXaXaXaXaXaXaXaXaXaXaXaXaXaXaXaXaXaXaXaXaXaXaXaXaXaXaXaXaXaXaXaXaXaXaXaXaXaXaXaXaXaXaXaXaX",
"aXaXaXaXaXaXaXaXaXaXaXaXaXaXaXaXaXaXaXaXaXaXaXaXaXaXaXaXaXaXaXaXaXaXaXaXaXaXaXaXaXaXaXaXaXaXaXaXaXaXaXaXaXaXaXaXaXaXaXaXaXaXaXaX",
"aXaXaXaXaXaXaXaXaXaXaXaXaXaXaXaXaXaXaXaXaXaXaXaXaXaXaXaXaXaXaXaXaXaXaXaXaXaXaXaXaXaXaXaXaXaXaXaXaXaXaXaXaXaXaXaXaXaXaXaXaXaXaXaX",
"aXaXaXaXaXaXaXaXaXaXaXaXaXaXaXaXaXaXaXaXaXaXaXaXaXaXaXaXaXaXaXaXaXaXaXaXaXaXaXaXaXaXaXaXaXaXaXaXaXaXaXaXaXaXaXaXaXaXaXaXaXaXaXaX",
"aXaXaXaXaXaXaXaXaXaXaXaXaXaXaXaXaXaXaXaXaXaXaXaXaXaXaXaXaXaXaXaXaXaXaXaXaXaXaXaXaXaXaXaXaXaXaXaXaXaXaXaXaXaXaXaXaXaXaXaXaXaXaXaX",
"aXaXaXaXaXaXaXaXaXaXaXaXaXaXaXaXaXaXaXaXaXaXaXaXaXaXaXaXaXaXaXaXaXaXaXaXaXaXaXaXaXaXaXaXaXaXaXaXaXaXaXaXaXaXaXaXaXaXaXaXaXaXaXaX",
"aXaXaXaXaXaXaXaXaXaXaXaXaXaXaXaXaXaXaXaXaXaXaXaXaXaXaXaXaXaXaXaXaXaXaXaXaXaXaXaXaXaXaXaXaXaXaXaXaXaXaXaXaXaXaXaXaXaXaXaXaXaXaXaX"
};
