/* XPM */
static char *result[] = {
/* columns rows colors chars-per-pixel */
"64 64 233 2 ",
"   c #1D1A19",
".  c #231B18",
"X  c #352F18",
"o  c #29281D",
"O  c #1A132B",
"+  c #1E1A2B",
"@  c #1A1623",
"#  c #1E1835",
"$  c #130F20",
"%  c #241C2D",
"&  c #25192A",
"*  c #211533",
"=  c #241B33",
"-  c #2A1D34",
";  c #241C3B",
":  c #2A1D3C",
">  c #22153A",
",  c #292529",
"<  c #352B28",
"1  c #3B352C",
"2  c #3A392B",
"3  c #252333",
"4  c #2B2334",
"5  c #2D233C",
"6  c #242637",
"7  c #332738",
"8  c #373834",
"9  c #2A322E",
"0  c #413E1D",
"q  c #483838",
"w  c #3F4334",
"e  c #5E5B0E",
"r  c #496018",
"t  c #706D1F",
"y  c #424628",
"u  c #474A35",
"i  c #574F39",
"p  c #4F4F39",
"a  c #546820",
"s  c #777427",
"d  c #6A6C29",
"f  c #1E1941",
"g  c #2A1D42",
"h  c #281A46",
"j  c #301F4B",
"k  c #2D2444",
"l  c #2D234C",
"z  c #2A2544",
"x  c #312546",
"c  c #332B43",
"v  c #3A2D43",
"b  c #33254B",
"n  c #342B4C",
"m  c #3A2C4E",
"M  c #3B3345",
"N  c #37324B",
"B  c #3C334C",
"V  c #3A374A",
"C  c #2F2653",
"Z  c #332652",
"A  c #362B53",
"S  c #3B2D55",
"D  c #3A265B",
"F  c #362B5B",
"G  c #3B2C5B",
"H  c #382659",
"J  c #3C3254",
"K  c #3C315B",
"L  c #373354",
"P  c #3D2D62",
"I  c #382861",
"U  c #3E3263",
"Y  c #3E306D",
"T  c #423847",
"R  c #422C5B",
"E  c #40275E",
"W  c #41335C",
"Q  c #433A5C",
"!  c #4B3B5B",
"~  c #463655",
"^  c #543D5E",
"/  c #402D65",
"(  c #433364",
")  c #433469",
"_  c #46396B",
"`  c #4B3A66",
"'  c #513B65",
"]  c #533E69",
"[  c #4A3A73",
"{  c #513E76",
"}  c #3C444A",
"|  c #45474A",
" . c #544C49",
".. c #4B4655",
"X. c #534B5D",
"o. c #534755",
"O. c #53555E",
"+. c #4C5051",
"@. c #675E4C",
"#. c #675D5B",
"$. c #6A6959",
"%. c #716E55",
"&. c #777856",
"*. c #79764A",
"=. c #554963",
"-. c #5C576A",
";. c #4F4276",
":. c #55467C",
">. c #57487A",
",. c #5B5674",
"<. c #4D426A",
"1. c #625664",
"2. c #605A72",
"3. c #776476",
"4. c #75727D",
"5. c #6C6E6E",
"6. c #827D49",
"7. c #8A7978",
"8. c #857570",
"9. c #7E8750",
"0. c #87833C",
"q. c #8A8948",
"w. c #989849",
"e. c #969756",
"r. c #8B8F51",
"t. c #8FA157",
"y. c #A9A658",
"u. c #B5A858",
"i. c #AEAB50",
"p. c #888465",
"a. c #948C68",
"s. c #8E9367",
"d. c #948976",
"f. c #9A9577",
"g. c #938D70",
"h. c #A69A7B",
"j. c #A59A68",
"k. c #9DA763",
"l. c #96B164",
"z. c #A8A96A",
"x. c #B4A968",
"c. c #B6B468",
"v. c #A8A677",
"b. c #B4A676",
"n. c #B8B777",
"m. c #A6B86C",
"M. c #C4BE75",
"N. c #C0B375",
"B. c #BCC07C",
"V. c #B2CD73",
"C. c #C8C676",
"Z. c #D3D47E",
"A. c #C8CA70",
"S. c #584682",
"D. c #665888",
"F. c #614D8C",
"G. c #7D7786",
"H. c #706C84",
"J. c #8B7785",
"K. c #837C94",
"L. c #978883",
"P. c #8B8795",
"I. c #938B98",
"U. c #97919B",
"Y. c #9F9885",
"T. c #A29686",
"R. c #A6A484",
"E. c #BBB788",
"W. c #B4B09C",
"Q. c #B7AE87",
"!. c #9A94A5",
"~. c #A29BA6",
"^. c #A496BB",
"/. c #BCB8A2",
"(. c #AFADB7",
"). c #C1BEAF",
"_. c #BBCC8B",
"`. c #C8C68A",
"'. c #C8DA8C",
"]. c #D4D484",
"[. c #DCDA8C",
"{. c #D9D788",
"}. c #D2CD9C",
"|. c #D4D39B",
" X c #DCDD9E",
".X c #DAD997",
"XX c #CBC996",
"oX c #E2DE9A",
"OX c #D9E78E",
"+X c #D5E897",
"@X c #F2F98D",
"#X c #E6E597",
"$X c #EAF499",
"%X c #F2F39D",
"&X c #F3FD9C",
"*X c #FCFE9D",
"=X c #F4F797",
"-X c #EBE994",
";X c #DADBA6",
":X c #CDC8AE",
">X c #E4DDAE",
",X c #DCE4A1",
"<X c #DFF2A3",
"1X c #E3E4A3",
"2X c #E6E9A8",
"3X c #F2EEA4",
"4X c #EEF1A3",
"5X c #EDFEA5",
"6X c #EDF3AC",
"7X c #E8F9A9",
"8X c #F4F4A2",
"9X c #F4FDA3",
"0X c #FBFDA4",
"qX c #F3F4AA",
"wX c #F4FCAC",
"eX c #FCFDAB",
"rX c #FAF5A3",
"tX c #F4ECB4",
"yX c #EDF5B2",
"uX c #EBF9B5",
"iX c #FDFEB2",
"pX c #F6FAB8",
"aX c #E9EDB0",
"sX c #BEBCC7",
"dX c #AD9DCE",
"fX c #C9C4CC",
"gX c #CBC7D4",
"hX c #D6CED7",
"jX c #E2DAD7",
"kX c #FBFCC4",
"lX c #DFDBF0",
"zX c #E2DDF1",
"xX c None",
/* pixels */
"xXxXxXxXxXxXxXxXxXxXxXxXxXxXxXxXxXxXxXxXxXxXxXxXxXxXxXxXxXxXxXxXxXxXxXxXxXxXxXxXxXxXxXxXxXxXxXxXxXxXxXxXxXxXxXxXxXxXxXxXxXxXxXxX",
"xXxXxXxXxXxXxXxXxXxXxXxXxXxXxXxXxXxXxXxXxXxXxXxXxXxXxXxXxXxXxXxXxXxXxXxXxXxXxXxXxXxXxXxXxXxXxXxXxXxXxXxXxXxXxXxXxXxXxXxXxXxXxXxX",
"xXxXxXxXxXxXxXxXxXxXxXxXxXxXxXxXxXxXxXxXxXxXxXxXxXxXxXxXxXxXxXxXxXxXxXxXxXxXxXxXxXxXxXxXxXxXxXxXxXxXxXxXxXxXxXxXxXxXxXxXxXxXxXxX",
"xXxXxXxXxXxXxXxXxXxXxXxXxXxXxXxXxXxXxXxXxXxXxXxXxXxXxXxXxXxXxXxXxXxXxXxXxXxXxXxXxXxXxXxXxXxXxXxXxXxXxXxXxXxXxXxXxXxXxXxXxXxXxXxX",
"xXxXxXxXxXxXxXxXxXxXxXxXxXxXxXxXxXxXxXxXxXxXxXxXxXxXxXxXxXxXxXxXxXxXxXxXxXxXxXxXxXxXxXxXxXxXxXxXxXxXxXxXxXxXxXxXxXxXxXxXxXxXxXxX",
"xXxXxXxXxXxXxXxXxXxXxXxXxXxXxXxXxXxXxXxXxXxXxXxXxXxXxXxXxXxXxXxXxXxXxXxXxXxXxXxXxXxXxXxXxXxXxXxXxXxXxXxXxXxXxXxXxXxXxXxXxXxXxXxX",
"xXxXxXxXxXxXxXxXxXxXxXxXxXxXxXxXQ xXxXxXxXxXxXxXxXxXxXxXxXxXxXxXxXxXxXxXxXxXxXxXxXxXxXxXxXxXxXxXxXxXxXxXxXxXxXxXxXxXxXxXxXxXxXxX",
"xXxXxXxXxXxXxXxXxXxXxXxXxXxXxXxXb S.xXxXxXxXxXxXxXxXxXxXxXxXxXxXxXxXxXxXxXxXxXxXxXxXxXxX2.c xXxXxXxXxXxXxXxXxXxXxXxXxXxXxXxXxXxX",
"xXxXxXxXxXxXxXxXxXxXxXxXxXxXxXxXh [ >.^.xXxXxXxXxXxXxXxXxXxXxXxXxXxXxXxXxXxXxXxXxXxXxX,.=.n K xXxXxXxXxXxXxXxXxXxXxXxXxXxXxXxXxX",
"xXxXxXxXxXxXxXxXxXxXxXxXxXxXxX+ j D ] >.,.^.xXxXxXxXxXxXxXxXxXxXxXxXxXxXxXxXxXxXxXD.<.K n b k =.xXxXxXxXxXxXxXxXxXxXxXxXxXxXxXxX",
"xXxXxXxXxXxXxXxXxXxXxXxXxXxXxX$ b / D P { S.F.dXxXxXxXxXxXxXxXxXxXxXxXxXxXxXxXD.>.:.( K W A > =.xXxXxXxXxXxXxXxXxXxXxXxXxXxXxXxX",
"xXxXxXxXxXxXxXxXxXxXxXxXxXxXxX= j / ) P / { S.F.S.S.:.:.:.:.:.:.;.;.>.>._ S.D.S.I U D U Z A k =.xXxXxXxXxXxXxXxXxXxXxXxXxXxXxXxX",
"xXxXxXxXxXxXxXxXxXxXxXxXxXxXxX$ k S S H I [ { S.) / P G G / G P U P P ( P ) { ;.[ U D R K b > 1.xXxXxXxXxXxXxXxXxXxXxXxXxXxXxXxX",
"xXxXxXxXxXxXxXxXxXxXxXxXxXxXxX+ 5 A S G / ) [ P / / G G G E P G P U F F I D P ) ;.F F F W S : X.xXxXxXxXxXxXxXxXxXxXxXxXxXxXxXxX",
"xXxXxXxXxXxXxXxXxXxXxXxXxXxXxXO g l A U ) / ( F S K G S S S E E S K S S K G K G D D ( S b b = X.xXxXxXxXxXxXxXxXxXxXxXxXxXxXxXxX",
"xXxXxXxXxXxXxXxXxXxXxXxXxXxXxX+ ; h _ ;.G D G G G m R R R m R D K S m W K A K G P ) _ ( b : * =.xXxXxXxXxXxXxXxXxXxXxXxXxXxXxXxX",
"xXxXxXxXxXxXxXxXxXxXxXxXxXxXxX=.= A _ ) ( G R G / E ' ' R ' ' ' ' ` ] ` S W K A U I _ S.h : T ~.xXxXxXxXxXxXxXxXxXxXxXxXxXxXxXxX",
"xXxXxXxXxXxXxXxXxXxXxXxXxXxXxXxXO n _ U S A ( R R ' 8.J.7.7.7.J.J.J.J.J.o.~ T K P I Y _ F * o.xXxXxXxXxXxXxXxXxXxXxXxXxXxXxXxXxX",
"xXxXxXxXxXxXxXxXxXxXxXxXxXxXxXxX# z J A S K ` ! 8.7.h.b.x.u.b.b.b.Q.b.j.g.8.^ ~ K U Y U ( 5 O.xXxXxXxXxXxXxXxXxXxXxXxXxXxXxXxXxX",
"xXxXxXxXxXxXxXxXxXxXxXxXxXxXxX-.k L K S S ! 3.7.T.b.b.u.u.u.x.u.u.u.u.u.b.b.d.J.X.S K F L n V ~.xXxXxXxXxXxXxXxXxXxXxXxXxXxXxXxX",
"xXxXxXxXxXxXxXxXxXxXxXxXxXxX^.= R R E H ! 3.g.b.x.x.C.{.{.].].[.{.{.{.u.x.j.b.T.J.! S / F R v =.xXxXxXxXxXxXxXxXxXxXxXxXxXxXxXxX",
"xXxXxXxXxXxXxXxXxXxXxXxXxXgX-.k ~ R E E =.d.z.u.A.Z.*X0XeXiXeXiXrXrXrX[.{.c.x.b.Y.1.~ H P S m B xXxXxXxXxXxXxXxXxXxXxXxXxXxXxXxX",
"xXxXxXxXxXxXxXxXxXxXxXxXgX-.6 Q b R H ~ o.p.x.A.=X0X*Xi.w.#XeX8X%Xy.u.#XrX#X{.b.f.#.T j K K K A V xXxXxXxXxXxXxXxXxXxXxXxXxXxXxX",
"xXxXxXxXxXxXxXxXxXxXxXhXO.c J A K S S 1.d.E.OX4X0X&X0XA.A.=X0XiX0X].C.qXiXrXrXoX}.8.< T J L F L V V xXxXxXxXxXxXxXxXxXxXxXxXxXxX",
"xXxXxXxXxXxXxXxXxXxXxX..6 c N K P K 5 $.XXtXwXn.q.'.eXeX9X*X0XwX9XwXuXwX7Xy.w.$XtX}.%.& K G A K M 3 V xXxXxXxXxXxXxXxXxXxXxXxXxX",
"xXxXxXxXxXxXxXxXxXxXxXP.$ = z z F A 4 @.|.qXkX.Xl.z.9.'.&X&X0XeXwXwX<Xt.z.r.].wXiXaXd.4 m K K ; + + xXxXxXxXxXxXxXxXxXxXxXxXxXxX",
"xXxXxXxXxXxXxXxXxXxXxXxXxXG.= # Z j = 1 6.1X6XpX<Xm.a t.V.OX5X5X7XV.l.r t.+X9X9X%Xn.1 4 b h > & ..xXxXxXxXxXxXxXxXxXxXxXxXxXxXxX",
"xXxXxXxXxXxXxXxXxXxXxXxXxXxXxXK.O * = . X r.,XpXpX<XV.OXOX5XiXpX7X+X<X'.+XpX9X5Xx.y & * - * o.xXxXxXxXxXxXxXxXxXxXxXxXxXxXxXxXxX",
"xXxXxXxXxXxXxXxXxXxXxXxXxXxXxXxXxX4.3 @ . X p.,XuXuXkX7X$X5Xy.q.+X5XuX5XwX<XuXv.u   3 + | xXxXxXxXxXxXxXxXxXxXxXxXxXxXxXxXxXxXxX",
"xXxXxXxXxXxXxXxXxXxXxXxXxXxXxXxXxXxXxXgXgXfX4.y y _.7X7XuX7X|.`.aXuXyXpX,Xd y | (.fXhXxXxXxXxXxXxXxXxXxXxXxXxXxXxXxXxXxXxXxXxXxX",
"xXxXxXxXxXxXxXxXxXxXxXxXxXxXxXxXxXxXxXxXxXxXjX .  8 } w u y p p u u w p w   8 sXxXxXxXxXxXxXxXxXxXxXxXxXxXxXxXxXxXxXxXxXxXxXxXxX",
"xXxXxXxXxXxXxXxXxXxXxXxXxXxXxXxXxXxXxXxXxXxXI.< 6 # 2.5.+.o &.p.2 | 5.2.9 6 f -.lXxXxXxXxXxXxXxXxXxXxXxXxXxXxXxXxXxXxXxXxXxXxXxX",
"xXxXxXxXxXxXxXxXxXxXxXxXxXxXxXxXxXxXxXxXxXP.5 ; f z H.-.| 2 r.v.u w O.4.9 6 f z 2.xXxXxXxXxXxXxXxXxXxXxXxXxXxXxXxXxXxXxXxXxXxXxX",
"xXxXxXxXxXxXxXxXxXxXxXxXxXxXxXxXxXxXxXxXxXJ.= z z f L } 2 &.z.n.s.p } } 6 + C f K zXxXxXxXxXxXxXxXkXxXxXxXxXxXxXxXxXxXxXxXxXxXxX",
"xXxXxXxXxXxXxXxXxXxXxXxXxXxXxXxXxXxXxXxX!.v n x z f 9 9 9.v..X#Xn.s.w , 6 z L C c 1.xXxXxXxXxXkXkX;XxXxXxXxXxXxXxXxXxXxXxXxXxXxX",
"xXxXxXxXxXxXxXxXxXxXxXxXxXxXxXxXxXxXxXxXG.5 B W N 6 , &.m.1XeXiX4Xn.s.w @ N C L ~ T jXxXxXxX2XpXxXxXxXxXxXxXxXxXxXxXxXxXxXxXxXxX",
"xXxXxXxXxXxXxXxXxXxXxXxXxXxXxXxXxXxXxXU.7 S W S N 9 9.l.OX*X0XrXeX$XB.a.w c A G n v  .:Xq.z.n.xXxXxXxXxXxXxXxXxXxXxXxXxXxXxXxXxX",
"xXxXxXxXxXxXxXxXxXxXxXxXxXxXxXxXxXxXxXH.x m K c + $.v.+X*X@X0XeX9X0X=XN.p.< Z _ S v , @.j.e.xXxXxXxXxXxXxXxXxXxXxXxXxXxXxXxXxXxX",
"xXxXxXxXxXxXxXxXxXxXxXxXxXxXxXxXxXxX!.c J K K L , &.,X&X@X*XrXiXeX0X=X3XQ.< m Z S K 7 q a.xXxXxXxXxXxXxXxXxXxXxXxXxXxXxXxXxXxXxX",
"xXxXxXxXxXxXxXxXxXxXxXxXxXxXxXxXxXxXP.: G G F n 2 E.6X&X0X0XrXrXeXeX*X%X>Xi 7 L S S v 4 L.xXxXxXxXxXxXxXxXxXxXxXxXxXxXxXxXxXxXxX",
"xXxXxXxXxXxXxXxXxXxXxXxXxXxXxXxXxXxX4.z K I P = Y.kXB.-XrXrXrX3XwXiXrXM.tX:X8 m J F l ~ gXxXxXxXxXxXxXxXxXxXxXxXxXxXxXxXxXxXxXxX",
"xXxXxXxXxXxXxXxXxXxXxXxXxXxXxXxXxXI.% k P I G , Q.pXV.Z.rXiXM.x.qXqX{.M.3X>X< v K K G g =.xXxXxXxXxXxXxXxXxXxXxXxXxXxXxXxXxXxXxX",
"xXxXxXxXxXxXxXxXxXxXxXxXxXxXxXxXxX4.4 x F ) ( & R.iX].s  XkXc.w.2XiXs c.8X;X1 N C U A : T xXxXxXxXxXxXxXxXxXxXxXxXxXxXxXxXxXxXxX",
"xXxXxXxXxXxXxXxXxXxXxXxXxXxXxXxXxX3 = b P F n o b.qX0Xw.E.tXq.t #X{.0.-X&X,X< v ) F G 5 , o.xXxXxXxXxXxXxXxXxXxXxXxXxXxXxXxXxXxX",
"xXxXxXxXxXxXxXxXxXxXxXxXxXxXxXxX!.* L J U K c 2 n.eXiX`.q.M.s e M.0.c.=X9X#X .7 S A K c 3 | xXxXxXxXxXxXxXxXxXxXxXxXxXxXxXxXxXxX",
"xXxXxXxXxXxXxXxXxXxXxXxXxXxXxXxXK.k S L F A % %.;XeX0XrX`.q.t t t c.&X9X9XyXY.- S G A K c 3 ..xXxXxXxXxXxXxXxXxXxXxXxXxXxXxXxXxX",
"xXxXxXxXxXxXxXxXxXxXxXxXxXxXxXG.k K K Z l L . &.+XiXrXeXiXC.M.A.C.rX0X0XeXaXd.< v m l L L N n -.xXxXxXxXxXxXxXxXxXxXxXxXxXxXxXxX",
"xXxXxXxXxXxXxXxXxXxXxXxXxXxXJ.3 A P A K K V . %.1X8X0XeXeXiX0X0XrXeX0X0X9X6XR., v W F F U C l ` xXxXxXxXxXxXxXxXxXxXxXxXxXxXxXxX",
"xXxXxXxXxXxXxXxXxXxXxXxXxXxX= B Z K A b L ~ % %.;XeX*X0XrXiXeX0XiXrX0X*X9XqXf.< 7 J F F P L h n -.xXxXxXxXxXxXxXxXxXxXxXxXxXxXxX",
"xXxXxXxXxXxXxXxXxXxXxXxXxXH.b A K S n L S x - $.1XeX&X=XiXqXeXeX8XeX0X0XeX4Xh.< v K F Z C K J n ..xXxXxXxXxXxXxXxXxXxXxXxXxXxXxX",
"xXxXxXxXxXxXxXxXxXxXxXxXxX= k J F F S S G K 7 u `.9X*X*X0XiXiX0XiX0X*X*X0X2X&.< ~ Z F ( S n S m = xXxXxXxXxXxXxXxXxXxXxXxXxXxXxX",
"xXxXxXxXxXxXxXxXxXxXxXxXxX+ c J S l j G P S - . n.0X*X*XrX#XoXoXoX3X0X0XeX;XX & m G R b z b Q c 6 xXxXxXxXxXxXxXxXxXxXxXxXxXxXxX",
"xXxXxXxXxXxXxXxXxXxXxXxXxX+ 4 n g g g Z Z Z : . a.4XwX0X#Xe.6.6.r.C.rXiXwX`.< & j H Z x = = 5 x % xXxXxXxXxXxXxXxXxXxXxXxXxXxXxX",
"xXxXxXxXxXxXxXxXxXxXxXxXxXP.-.O * - ; : h j *   *.`.].[.e.h.E.v.b.e.n.[.`.a.. 4 j h > : 4 = = T xXxXxXxXxXxXxXxXxXxXxXxXxXxXxXxX",
"xXxXxXxXxXxXxXxXxXxXxXxXxXxXxXP.P.-.& * * * = $.&.E.;X|.&.xXxXxXxX*.XX.X}.g.7.4 * > * & M xXxXxXxXxXxXxXxXxXxXxXxXxXxXxXxXxXxXxX",
"xXxXxXxXxXxXxXxXxXxXxXxXxXxXxXxXxXxXU.U.U.I.I.xXxXR.v.f.W.xXxXxXxX:Xv.h.v./.xXxXxXxXxXxXxXxXxXxXxXxXxXxXxXxXxXxXxXxXxXxXxXxXxXxX",
"xXxXxXxXxXxXxXxXxXxXxXxXxXxXxXxXxXxXxXxXxXxXxXxXxXxXW.).xXxXxXxXxXxX:X/.xXxXxXxXxXxXxXxXxXxXxXxXxXxXxXxXxXxXxXxXxXxXxXxXxXxXxXxX",
"xXxXxXxXxXxXxXxXxXxXxXxXxXxXxXxXxXxXxXxXxXxXxXxXxXxXxXxXxXxXxXxXxXxXxXxXxXxXxXxXxXxXxXxXxXxXxXxXxXxXxXxXxXxXxXxXxXxXxXxXxXxXxXxX",
"xXxXxXxXxXxXxXxXxXxXxXxXxXxXxXxXxXxXxXxXxXxXxXxXxXxXxXxXxXxXxXxXxXxXxXxXxXxXxXxXxXxXxXxXxXxXxXxXxXxXxXxXxXxXxXxXxXxXxXxXxXxXxXxX",
"xXxXxXxXxXxXxXxXxXxXxXxXxXxXxXxXxXxXxXxXxXxXxXxXxXxXxXxXxXxXxXxXxXxXxXxXxXxXxXxXxXxXxXxXxXxXxXxXxXxXxXxXxXxXxXxXxXxXxXxXxXxXxXxX",
"xXxXxXxXxXxXxXxXxXxXxXxXxXxXxXxXxXxXxXxXxXxXxXxXxXxXxXxXxXxXxXxXxXxXxXxXxXxXxXxXxXxXxXxXxXxXxXxXxXxXxXxXxXxXxXxXxXxXxXxXxXxXxXxX",
"xXxXxXxXxXxXxXxXxXxXxXxXxXxXxXxXxXxXxXxXxXxXxXxXxXxXxXxXxXxXxXxXxXxXxXxXxXxXxXxXxXxXxXxXxXxXxXxXxXxXxXxXxXxXxXxXxXxXxXxXxXxXxXxX",
"xXxXxXxXxXxXxXxXxXxXxXxXxXxXxXxXxXxXxXxXxXxXxXxXxXxXxXxXxXxXxXxXxXxXxXxXxXxXxXxXxXxXxXxXxXxXxXxXxXxXxXxXxXxXxXxXxXxXxXxXxXxXxXxX",
"xXxXxXxXxXxXxXxXxXxXxXxXxXxXxXxXxXxXxXxXxXxXxXxXxXxXxXxXxXxXxXxXxXxXxXxXxXxXxXxXxXxXxXxXxXxXxXxXxXxXxXxXxXxXxXxXxXxXxXxXxXxXxXxX"
};
