/* XPM */
static char *result[] = {
/* columns rows colors chars-per-pixel */
"64 64 230 2 ",
"   c #3D3C1D",
".  c #1C1E2C",
"X  c #1E1834",
"o  c #251C2A",
"O  c #231B34",
"+  c #251C3B",
"@  c #291E3B",
"#  c #241A33",
"$  c #1C2737",
"%  c #1B2526",
"&  c #2B242C",
"*  c #342D2C",
"=  c #312A22",
"-  c #3A3425",
";  c #383627",
":  c #252136",
">  c #2A2333",
",  c #2B243C",
"<  c #292938",
"1  c #342D3D",
"2  c #342A34",
"3  c #2B3839",
"4  c #3B323A",
"5  c #38373A",
"6  c #423C3C",
"7  c #403D33",
"8  c #403D2E",
"9  c #354539",
"0  c #665F19",
"q  c #676018",
"w  c #474739",
"e  c #585536",
"r  c #544E34",
"t  c #726C25",
"y  c #251C40",
"u  c #2A1D45",
"i  c #2C2244",
"p  c #2D244A",
"a  c #2C2946",
"s  c #312545",
"d  c #332C44",
"f  c #32254C",
"g  c #342A4C",
"h  c #392C4D",
"j  c #382B46",
"k  c #353245",
"l  c #393546",
"z  c #36324B",
"x  c #3B334C",
"c  c #393C47",
"v  c #332554",
"b  c #352B53",
"n  c #3B2D55",
"m  c #362C59",
"M  c #3B2D5B",
"N  c #38265B",
"B  c #3B3253",
"V  c #373159",
"C  c #3C315B",
"Z  c #373654",
"A  c #2F2756",
"S  c #3C2C62",
"D  c #3E2B6B",
"F  c #382865",
"G  c #3E3263",
"H  c #3F326A",
"J  c #3F2A71",
"K  c #443B42",
"L  c #443B4D",
"P  c #402F5B",
"I  c #403256",
"U  c #42335D",
"Y  c #483B57",
"T  c #412E63",
"R  c #412E6C",
"E  c #433365",
"W  c #473769",
"Q  c #513D65",
"!  c #4A3874",
"~  c #452F74",
"^  c #2E4345",
"/  c #374645",
"(  c #3E505C",
")  c #48464A",
"_  c #575447",
"`  c #4C445B",
"'  c #4A455A",
"]  c #524B5C",
"[  c #52425C",
"{  c #5F5353",
"}  c #625D46",
"|  c #68684A",
" . c #6B6B57",
".. c #716B56",
"X. c #757852",
"o. c #554864",
"O. c #585668",
"+. c #56467A",
"@. c #4F506D",
"#. c #645465",
"$. c #615C75",
"%. c #614E64",
"&. c #766967",
"*. c #676379",
"=. c #736B73",
"-. c #50646B",
";. c #877C34",
":. c #807D5E",
">. c #857969",
",. c #88787A",
"<. c #816F6B",
"1. c #7B8232",
"2. c #7C8758",
"3. c #8A8739",
"4. c #918E36",
"5. c #979548",
"6. c #87855B",
"7. c #98955B",
"8. c #918E4C",
"9. c #A59A56",
"0. c #A7A458",
"q. c #B0AD57",
"w. c #918E66",
"e. c #989766",
"r. c #8D8578",
"t. c #96897B",
"y. c #9D9A76",
"u. c #818960",
"i. c #A79D7B",
"p. c #A89D68",
"a. c #9EA56F",
"s. c #AEA563",
"d. c #B3A968",
"f. c #BBB767",
"g. c #AEA274",
"h. c #ACAA7C",
"j. c #A4A476",
"k. c #B3A679",
"l. c #B9BA79",
"z. c #C4BE77",
"x. c #C2B86A",
"c. c #C6C778",
"v. c #D2CD7E",
"b. c #D6D37B",
"n. c #CECD6C",
"m. c #543F84",
"M. c #5B4A82",
"N. c #5B458C",
"B. c #584586",
"V. c #5D4694",
"C. c #65578A",
"Z. c #634C97",
"A. c #6A5898",
"S. c #725B9F",
"D. c #667885",
"F. c #797485",
"G. c #7A7687",
"H. c #756598",
"J. c #7E7992",
"K. c #73678A",
"L. c #7562A2",
"P. c #735FA7",
"I. c #837C8C",
"U. c #817898",
"Y. c #8576A2",
"T. c #8C78B7",
"R. c #778495",
"E. c #88858C",
"W. c #8A8595",
"Q. c #928F90",
"!. c #A99B82",
"~. c #A29390",
"^. c #ABA884",
"/. c #B2A784",
"(. c #B5B484",
"). c #B9BA86",
"_. c #B7B596",
"`. c #AAAD97",
"'. c #9B95A5",
"]. c #968EAC",
"[. c #A195B6",
"{. c #AFAAAE",
"}. c #BBC086",
"|. c #C5C588",
" X c #D7D787",
".X c #C7C692",
"XX c #DCDA94",
"oX c #D8D598",
"OX c #CFD480",
"+X c #E3DB89",
"@X c #E3DC96",
"#X c #DBE084",
"$X c #DDE197",
"%X c #E7E78E",
"&X c #E6E698",
"*X c #F6FA9C",
"=X c #FCFC9D",
"-X c #F7F49B",
";X c #EEF298",
":X c #C6C4A6",
">X c #DAD8A8",
",X c #DCD8B6",
"<X c #C4C3B4",
"1X c #E4DDA9",
"2X c #EBECAB",
"3X c #E7E7A6",
"4X c #F4EFA4",
"5X c #EDF6A5",
"6X c #F5F6A3",
"7X c #F6FCA5",
"8X c #FDFDA4",
"9X c #F4F4AD",
"0X c #F5FCAB",
"qX c #FCFDAB",
"wX c #F9F6A8",
"eX c #E8E8B4",
"rX c #FDFDB2",
"tX c #FCFEBC",
"yX c #F5F7B5",
"uX c #B19EDC",
"iX c #BCB9C9",
"pX c #C2BECC",
"aX c #C3C9C8",
"sX c #D0D3D8",
"dX c #E3DFDF",
"fX c #FAFBC7",
"gX c #F8F9D9",
"hX c #EBD9FF",
"jX c #E8E3E9",
"kX c None",
/* pixels */
"kXkXkXkXkXkXkXkXkXkXkXkXkXkXkXkXkXkXkXkXkXkXkXkXkXkXkXkXkXkXkXkXkXkXkXkXkXkXkXkXkXkXkXkXkXkXkXkXkXkXkXkXkXkXkXkXkXkXkXkXkXkXkXkX",
"kXkXkXkXkXkXkXkXkXkXkXkXkXkXkXkXkXkXkXkXkXkXkXkXkXkXkXkXkXkXkXkXkXkXkXkXkXkXkXkXkXkXkXkXkXkXkXkXkXkXkXkXkXkXkXkXkXkXkXkXkXkXkXkX",
"kXkXkXkXkXkXkXkXkXkXkXkXkXkXkXkXkXkXkXkXkXkXkXkXkXkXkXkXkXkXkXkXkXkXkXkXkXkXkXkXkXkXkXkXkXkXkXkXkXkXkXkXkXkXkXkXkXkXkXkXkXkXkXkX",
"kXkXkXkXkXkXkXkXkXkXkXkXkXkXkXkXkXkXkXkXkXkXkXkXkXkXkXkXkXkXkXkXkXkXkXkXkXkXkXkXkXkXkXkXkXkXkXkXkXkXkXkXkXkXkXkXkXkXkXkXkXkXkXkX",
"kXkXkXkXkXkXkXkXkXkXkXkXkXkXkXkXkXkXkXkXkXkXkXkXkXkXkXkXkXkXkXkXkXkXkXkXkXkXkXkXkXkXkXkXkXkXkXkXkXkXkXkXkXkXkXkXkXkXkXkXkXkXkXkX",
"kXkXkXkXkXkXkXkXkXkXkXkXkXkXkXkXkXkXkXG.$.kXkXkXkXkXkXkXkXkXkXkXkXkXkXkXkXkXkXkXkXkXkXkXkXkXC.kXkXkXkXkXkXkXkXkXkXkXkXkXkXkXkXkX",
"kXkXkXkXkXkXkXkXkXkXkXkXkXkXkXkXkXkXkX' V A.kXkXkXkXkXkXkXkXkXkXkXkXkXkXkXkXkXkXkXkXkXkXY.+.N H.kXkXkXkXkXkXkXkXkXkXkXkXkXkXkXkX",
"kXkXkXkXkXkXkXkXkXkXkXkXkXkXkXkXkXkX*.Z H H C.kXkXkXkXkXkXkXkXkXkXkXkXkXkXkXkXkXkXkXkXU.+.E T P kXkXkXkXkXkXkXkXkXkXkXkXkXkXkXkX",
"kXkXkXkXkXkXkXkXkXkXkXkXkXkXkXkXkXkX' b F H B.C.].kXkXkXkXkXkXkXkXkXkXkXkXkXkXkXkXkXY.M.+.T N h G.kXkXkXkXkXkXkXkXkXkXkXkXkXkXkX",
"kXkXkXkXkXkXkXkXkXkXkXkXkXkXkXkXkXkX' g G H ! M.C.uXkXkXkXkXkXkXkXkXkXkXkXkXkXkXkXY.C.M.S T P s G.kXkXkXkXkXkXkXkXkXkXkXkXkXkXkX",
"kXkXkXkXkXkXkXkXkXkXkXkXkXkXkXkXkX*.< B b m R ~ Z.B.uXkXkXkXkXkXkXkXkXkXkXkXkXhXT.Z.N.~ T T v h k kXkXkXkXkXkXkXkXkXkXkXkXkXkXkX",
"kXkXkXkXkXkXkXkXkXkXkXkXkXkXkXkXkX' + x C G M ! Z.Z.S.P.L.H.H.H.L.L.H.K.K.H.H.S.V.Z.m.R T M I g o I.kXkXkXkXkXkXkXkXkXkXkXkXkXkX",
"kXkXkXkXkXkXkXkXkXkXkXkXkXkXkXkXkX] : g f P N R ~ Z.Z.V.Z.! B.M.N.N.B.M.+.M.N.N.Z.Z.~ J F M C i O W.kXkXkXkXkXkXkXkXkXkXkXkXkXkX",
"kXkXkXkXkXkXkXkXkXkXkXkXkXkXkXkXkX' + I P N T T ! V.m.D D R R R D J R T T R R ~ m.m.R S M M b B O E.kXkXkXkXkXkXkXkXkXkXkXkXkXkX",
"kXkXkXkXkXkXkXkXkXkXkXkXkXkXkXkXkX` # f P N P T ! N N P T P N T M S S P M M M P R T Q W v m B d > R.kXkXkXkXkXkXkXkXkXkXkXkXkXkX",
"kXkXkXkXkXkXkXkXkXkXkXkXkXkXkXkXkX[ @ y v P ! P P I I P N P P P M C M M P M M n P P T v m b B , O W.kXkXkXkXkXkXkXkXkXkXkXkXkXkX",
"kXkXkXkXkXkXkXkXkXkXkXkXkXkXkXkXkX[ @ u N +.S P I P P P T N P N P T n U n n P N m E v E ! M u @ : G.kXkXkXkXkXkXkXkXkXkXkXkXkXkX",
"kXkXkXkXkXkXkXkXkXkXkXkXkXkXkXkXkXkXs y T ! M M I P P h T Q Q Y Q Y Q Y L Q n P M m M M W ! f + l iXkXkXkXkXkXkXkXkXkXkXkXkXkXkX",
"kXkXkXkXkXkXkXkXkXkXkXkXkXkXkXkXkXkX` y W E n I T P P Q %.,.<.<.<.<.>.<.<.&.%.Q E n U P E +.h O E.kXkXkXkXkXkXkXaXsXkXkXkXkXkXkX",
"kXkXkXkXkXkXkXkXkXkXkXkXkXkXkXkXkXkX' s M S n I P Q %.,.,./.z.i././.k.k./.!.I.<.[ Y h M M G U , G.kXkXkXkXkXkXsXaXsXkXkXkXkXkXkX",
"kXkXkXkXkXkXkXkXkXkXkXkXkXkXkXkXkXkXc B v M M U %.,.t.k.k.d.0.d.p.d.s.d.k.k.!.!.>.,.[ I n M C a o.pXkXkXkXkXkXkXkXkXkXkXkXkXkXkX",
"kXkXkXkXkXkXkXkXkXkXkXkXkXkXkXkXkX@.B C C M R %.t.i.k.d.x.q.;.d.+X+Xb.4.;.9.d.s.k.!.I.o.n C M m a E.kXkXkXkXkXkXkXkXkXkXkXkXkXkX",
"kXkXkXkXkXkXkXkXkXkXkXkXkXkXkXkXkXz f v P P W =.!.g.c.+X-Xb.f.%X-X=X8Xn.x.+Xb.x.d.p.~.%.B G F G g ] iXkXkXkXkXkXkXkXkXkXkXkXkXkX",
"kXkXkXkXkXkXkXkXkXkXkXkXkXkXkXkXz Z n P P P I &.k.x.%X8X=X=XqXqXrX-X-X8X8X8X8X+X+Xs.i.{ x m H F V Z ' iXkXkXkXkXkXkXkXkXkXkXkXkX",
"kXkXkXkXkXkXkXkXkXkXkXkXkXkXkXc z B m G P L >.k.1X@X XwX7XqX7XqXqX8X*X8X=X=XqX6Xv.@XoX:.* j n M C g Z ` kXkXkXkXkXkXkXkXkXkXkXkX",
"kXkXkXkXkXkXkXkXkXkXkXkXkXkX< < d B C M N K /.&XwXwXb.;.3.0.#X0XqX0X0X7Xn.4.3.5.&XqX-XoX..2 B C V b a , ) kXkXkXkXkXkXkXkXkXkXkX",
"kXkXkXkXkXkXkXkXkXkXkXkXkXkXkX> @ s b n h 6 /.9XqX8X%Xb.b.$X;XqX0XtX0X7X;X X XXXwXqXqXXXt.2 s U p a a , kXkXkXkXkXkXkXkXkXkXkXkX",
"kXkXkXkXkXkXkXkXkXkXkXkXkXkXkXkXO.g u u s o r ).9XqX8X8X0X7X7X0X0X5X0X0X7X0X0XrXqXqX$Xj.* > @ y f z J.kXkXkXkXkXkXkXkXkXkXkXkXkX",
"kXkXkXkXkXkXkXkXkXkXkXkXkXkXkXkXkXkX] d , @ * w (.yXrX5XqX0X0X7Xf.1. X0X0X0X0X0X0X3Xy.9 o # h C J.kXkXkXkXkXkXkXkXkXkXkXkXkXkXkX",
"kXkXkXkXkXkXkXkXkXkXkXkXkXkXkXkXkXkXkXkX] l l )  .(.>X2XyXyXrXyX2X3X0X0XtXfXtXeX>Xe._ 5 L I *.kXkXkXkXkXkXkXkXkXkXkXkXkXkXkXkXkX",
"kXkXkXkXkXkXkXkXkXkXkXkXkXkXkXkXkXkXkXkXkXkXkXkX<X_ _ r.,X>X,X>X>X>X>X>X,X,X:X| e &.dXkXkXkXkXkXkXkXkXkXkXkXkXkXkXkXkXkXkXkXkXkX",
"kXkXkXkXkXkXkXkXkXkXkXkXkXkXkXkXkXkXkXkXkXkXkXkXkXkXjXE.; ; ; ; ; ;   ; ; ; w {.kXkXkXkXkXkXkXkXkXkXkXkXkXkXkXkXkXkXkXkXkXkXkXkX",
"kXkXkXkXkXkXkXkXkXkXkXkXkXkXkXkXkXkXkXkXkXkXkXkXkXkX'.a % 3 ^ ^ < % 9 9 9 $ % 9 aXkXkXkXkXkXkXkXkXkXkXkXkXkXkXkXkXkXkXkXkXkXkXkX",
"kXkXkXkXkXkXkXkXkXkXkXkXkXkXkXkXkXkXkXkXkXkXkXkXkX[.: $ $ ( R./ / 9 / / D.( $ $ / iXkXkXkXkXkXkXgXkXkXkXkXkXkXkXkXkXkXkXkXkXkXkX",
"kXkXkXkXkXkXkXkXkXkXkXkXkXkXkXkXkXkXkXkXkXkXkXkX'., y y ( R.-.9  .`.9 ) *.D.Z $ < k sXkXkXkXkXgXfXkXkXkXkXkXkXkXkXkXkXkXkXkXkXkX",
"kXkXkXkXkXkXkXkXkXkXkXkXkXkXkXkXkXkXkXkXkXkXkXkX1 + y p ' -.9 9 2.a.| 9 ( *.a $ : : Y kXkXkXkXkX2XfXkXkXkXkXkXkXkXkXkXkXkXkXkXkX",
"kXkXkXkXkXkXkXkXkXkXkXkXkXkXkXkXkXkXkXkXkXkXkXW.+ f i + < 5 9 2.c.z.).| 9 5 : + + d x pXkXkXkXkX|.tXkXkXkXkXkXkXkXkXkXkXkXkXkXkX",
"kXkXkXkXkXkXkXkXkXkXkXkXkXkXkXkXkXkXkXkXkXkXkXz B b B : & ; u.l.%X8XXX/.| ; & < n C h ` kXkXkXkX|.2XkXkXkXkXkXkXkXkXkXkXkXkXkXkX",
"kXkXkXkXkXkXkXkXkXkXkXkXkXkXkXkXkXkXkXkXkXkXW.g B B g 4 ; 2.).&X7X=XwX@X).| = k h M P Y {.kXkX).3X3XkXkXkXkXkXkXkXkXkXkXkXkXkXkX",
"kXkXkXkXkXkXkXkXkXkXkXkXkXkXkXkXkXkXkXkXkXkXz b m C 4 5 6.|.&XqX=X8XqXwXXXh...* h S T N L `.y.p.}.kXkXkXkXkXkXkXkXkXkXkXkXkXkXkX",
"kXkXkXkXkXkXkXkXkXkXkXkXkXkXkXkXkXkXkXkXkXI.z V S v > _ l.&XqX8X8X8XqXrX6XoXj.; l m S M 4 6 e.w.e.kXkXkXkXkXkXkXkXkXkXkXkXkXkXkX",
"kXkXkXkXkXkXkXkXkXkXkXkXkXkXkXkXkXkXkXkXkXc m V A ( * | 4X8X8X8XqX7XrX6XqXqXoX  2 C G G , 6 i.w.kXkXkXkXkXkXkXkXkXkXkXkXkXkXkXkX",
"kXkXkXkXkXkXkXkXkXkXkXkXkXkXkXkXkXkXkXkXkXz g C S g { :X$X+XqXqXqXrXqX0X7Xb.2X`.K z m M K 2 Q.kXkXkXkXkXkXkXkXkXkXkXkXkXkXkXkXkX",
"kXkXkXkXkXkXkXkXkXkXkXkXkXkXkXkXkXkXkXkX*.1 h C S a  .fX XOXrXrXXXc.9X9X7Xc.&X>X5 z B A j & ..kXkXkXkXkXkXkXkXkXkXkXkXkXkXkXkXkX",
"kXkXkXkXkXkXkXkXkXkXkXkXkXkXkXkXkXkXkXkXK @ n b m 1  .fX#X4.z.tXOX7.3XtX5.9.4XeXw 1 C V d < #.kXkXkXkXkXkXkXkXkXkXkXkXkXkXkXkXkX",
"kXkXkXkXkXkXkXkXkXkXkXkXkXkXkXkXkXkXkX$.> i n I n 1 | yX6Xq.s.yX0.t oX9X4.b.qX1Xw l Z V g # h W.kXkXkXkXkXkXkXkXkXkXkXkXkXkXkXkX",
"kXkXkXkXkXkXkXkXkXkXkXkXkXkXkXkXkXkX$.f u n n h B 5  .yXrXc.5.c.5.0 |.9.9.-X4XeXw k Z A Z g , d Q.kXkXkXkXkXkXkXkXkXkXkXkXkXkXkX",
"kXkXkXkXkXkXkXkXkXkXkXkXkXkXkXkXkX*.s f P n n I g K (.tX7X=Xc.8.t 0 t s.+X-XrXeXt.< Z M V b f : k kXkXkXkXkXkXkXkXkXkXkXkXkXkXkX",
"kXkXkXkXkXkXkXkXkXkXkXkXkXkXkXkX*.B f n n h v n g 6 .XqX=X8XqXc.0.q.0.%X8X8XrXyX!.* j v v m B B g d kXkXkXkXkXkXkXkXkXkXkXkXkXkX",
"kXkXkXkXkXkXkXkXkXkXkXkXkXkXF.Z B g C B h B C v f ) |.8XqX*X8X6X6X-X;X8X8X8XwX2Xy.* L P m M m g g b I x kXkXkXkXkXkXkXkXkXkXkXkX",
"kXkXkXkXkXkXkXkXkXkXkXkXF.k z a C m p m C b M C h K |.0X8X=XqXqXqX0XqX8X=X=X7X9Xy.* j M M m B b b B B B d L kXkXkXkXkXkXkXkXkXkX",
"kXkXkXkXkXkXkXkXkXkXkX=.k z Z C v m m M m p M M n 6 .XqX*XqX8X7XqXwXqX8X=X=XqX9X^.4 h N S A M m m C g B B d 5 kXkXkXkXkXkXkXkXkX",
"kXkXkXkXkXkXkXkXkXkXkX) < z Z p p C C C m b M M s 6 g.wX=X8XwXrXrXtXqXqX*X*X8X3X>.* I M S v m n v b p g d k 1 ] kXkXkXkXkXkXkXkX",
"kXkXkXkXkXkXkXkXkXkXkXkX$.x z p b v v b v v C C h & X.wXrX-XqX4X3X2X@XrX8X*X8X3Xw o h P M f p m C B p g g ] O.kXkXkXkXkXkXkXkXkX",
"kXkXkXkXkXkXkXkXkXkXkXkXkXkX*.a y a a i y b B s h o e 3XrXqX4Xl.7.7.e.|.6X8X4XoX8 > h v h p y i p g X ' $.kXkXkXkXkXkXkXkXkXkXkX",
"kXkXkXkXkXkXkXkXkXkXkXkXkXkXkXkX*.z + + y + + + # o e z.&XrXz.8.7.w.w.e.$XqX@X9.- # @ + @ , X i + ` *.kXkXkXkXkXkXkXkXkXkXkXkXkX",
"kXkXkXkXkXkXkXkXkXkXkXkXkXkXkXkXkXkXF.F.: + O o # l 6.w.z.oX7.).kXkXkX6.l.XXf.6.&.2 O + # o x I.G.kXkXkXkXkXkXkXkXkXkXkXkXkXkXkX",
"kXkXkXkXkXkXkXkXkXkXkXkXkXkXkXkXkXkXkXkX'.W.W.W.W.{.kX6.oX.Xp._.kXkXkX:.).oX.XX.kX'.I.W.E.E.kXkXkXkXkXkXkXkXkXkXkXkXkXkXkXkXkXkX",
"kXkXkXkXkXkXkXkXkXkXkXkXkXkXkXkXkXkXkXkXkXkXkXkXkXkXkX^.^.^.`.kXkXkXkX<X^.j.j._.kXkXkXkXkXkXkXkXkXkXkXkXkXkXkXkXkXkXkXkXkXkXkXkX",
"kXkXkXkXkXkXkXkXkXkXkXkXkXkXkXkXkXkXkXkXkXkXkXkXkXkXkXkX_.`.kXkXkXkXkXkX:X_.<XkXkXkXkXkXkXkXkXkXkXkXkXkXkXkXkXkXkXkXkXkXkXkXkXkX",
"kXkXkXkXkXkXkXkXkXkXkXkXkXkXkXkXkXkXkXkXkXkXkXkXkXkXkXkXkXkXkXkXkXkXkXkXkXkXkXkXkXkXkXkXkXkXkXkXkXkXkXkXkXkXkXkXkXkXkXkXkXkXkXkX",
"kXkXkXkXkXkXkXkXkXkXkXkXkXkXkXkXkXkXkXkXkXkXkXkXkXkXkXkXkXkXkXkXkXkXkXkXkXkXkXkXkXkXkXkXkXkXkXkXkXkXkXkXkXkXkXkXkXkXkXkXkXkXkXkX",
"kXkXkXkXkXkXkXkXkXkXkXkXkXkXkXkXkXkXkXkXkXkXkXkXkXkXkXkXkXkXkXkXkXkXkXkXkXkXkXkXkXkXkXkXkXkXkXkXkXkXkXkXkXkXkXkXkXkXkXkXkXkXkXkX",
"kXkXkXkXkXkXkXkXkXkXkXkXkXkXkXkXkXkXkXkXkXkXkXkXkXkXkXkXkXkXkXkXkXkXkXkXkXkXkXkXkXkXkXkXkXkXkXkXkXkXkXkXkXkXkXkXkXkXkXkXkXkXkXkX"
};
