/* XPM */
static char *result[] = {
/* columns rows colors chars-per-pixel */
"64 64 217 2 ",
"   c #140D1F",
".  c #1D1517",
"X  c #1B140E",
"o  c #251C1E",
"O  c #281E1D",
"+  c #251E0E",
"@  c #25201D",
"#  c #342B1A",
"$  c #282009",
"%  c #170E2C",
"&  c #1C142C",
"*  c #1B1424",
"=  c #190F36",
"-  c #1D1334",
";  c #1F1638",
":  c #221A2C",
">  c #231926",
",  c #221633",
"<  c #241B34",
"1  c #2A1D34",
"2  c #261C3B",
"3  c #2A1D3D",
"4  c #25163D",
"5  c #2B262B",
"6  c #382D24",
"7  c #332826",
"8  c #38372B",
"9  c #252035",
"0  c #2B223C",
"q  c #2B2539",
"w  c #312534",
"e  c #32233D",
"r  c #322B3C",
"t  c #362C35",
"y  c #3B3A3A",
"u  c #443B1C",
"i  c #413B3F",
"p  c #3C4233",
"a  c #3B4127",
"s  c #4B461C",
"d  c #55512A",
"f  c #5A532C",
"g  c #4A4B34",
"h  c #555138",
"j  c #667A32",
"k  c #6F6C32",
"l  c #251A43",
"z  c #2A1D42",
"x  c #2A1F49",
"c  c #2D1F50",
"v  c #301E50",
"b  c #2D2344",
"n  c #2E234B",
"m  c #2F294D",
"M  c #322544",
"N  c #332C44",
"B  c #32254C",
"V  c #342A4C",
"C  c #3B2D4C",
"Z  c #382645",
"A  c #393245",
"S  c #3C344B",
"D  c #3F3B4C",
"F  c #3D3A45",
"G  c #2F2650",
"H  c #2F2A53",
"J  c #332653",
"K  c #352B54",
"L  c #3A2D55",
"P  c #36265B",
"I  c #3A275F",
"U  c #372D59",
"Y  c #3B2D5B",
"T  c #392653",
"R  c #3C3255",
"E  c #36325C",
"W  c #3C315B",
"Q  c #3C2C62",
"!  c #392866",
"~  c #3C3261",
"^  c #432F5D",
"/  c #443C53",
"(  c #41335C",
")  c #44395B",
"_  c #453C4C",
"`  c #422E65",
"'  c #402B6C",
"]  c #433464",
"[  c #463568",
"{  c #493674",
"}  c #4C3975",
"|  c #4D3A7B",
" . c #473674",
".. c #523E7B",
"X. c #503B74",
"o. c #513A64",
"O. c #444247",
"+. c #4C465C",
"@. c #4A4457",
"#. c #564C5C",
"$. c #595448",
"%. c #604F55",
"&. c #66575A",
"*. c #6B6948",
"=. c #6F6B50",
"-. c #77744D",
";. c #574866",
":. c #54437C",
">. c #574877",
",. c #5E5668",
"<. c #64556B",
"1. c #705D63",
"2. c #636C67",
"3. c #6D657B",
"4. c #857A56",
"5. c #7A8E47",
"6. c #7A8078",
"7. c #8E8A38",
"8. c #908840",
"9. c #989549",
"0. c #898358",
"q. c #8F9D52",
"w. c #9E9B59",
"e. c #868847",
"r. c #A19948",
"t. c #8FA35B",
"y. c #AAA75D",
"u. c #898567",
"i. c #9A9363",
"p. c #9E9A6B",
"a. c #9D9477",
"s. c #938C72",
"d. c #A89E7A",
"f. c #91A966",
"g. c #AFAB6E",
"h. c #B0AC6A",
"j. c #BCB875",
"k. c #B1AE75",
"l. c #C4BE78",
"z. c #C6C279",
"x. c #533E83",
"c. c #584687",
"v. c #614D8A",
"b. c #67568D",
"n. c #6B5B94",
"m. c #6F5A9D",
"M. c #706F81",
"N. c #7B7686",
"B. c #877883",
"V. c #8D7E99",
"C. c #8F8383",
"Z. c #9F9F92",
"A. c #878399",
"S. c #A49982",
"D. c #A28E97",
"F. c #96A298",
"G. c #B6B487",
"H. c #AEAD8C",
"J. c #9D90BC",
"K. c #9C8BB9",
"L. c #A193B7",
"P. c #BFBEA5",
"I. c #C1BD97",
"U. c #C8BEAE",
"Y. c #C6C784",
"T. c #D4CF8D",
"R. c #D0D18D",
"E. c #C4C293",
"W. c #CBC79E",
"Q. c #D5D295",
"!. c #CED98F",
"~. c #E5DF9B",
"^. c #DCE596",
"/. c #E7E89A",
"(. c #ECF79F",
"). c #F2F19C",
"_. c #F4EC9B",
"`. c #D4C8AB",
"'. c #DCD6A9",
"]. c #D8D4B5",
"[. c #C9C6AD",
"{. c #E1DBB1",
"}. c #E0DBA3",
"|. c #DCF3AC",
" X c #E2E1A2",
".X c #ECEAA3",
"XX c #EFEDA9",
"oX c #E7E5A8",
"OX c #F0ECAC",
"+X c #F0EEA4",
"@X c #EFFDAD",
"#X c #EAF5A8",
"$X c #F1F2A0",
"%X c #F3F6AB",
"&X c #F4FCAB",
"*X c #FCFEAB",
"=X c #F9F4A9",
"-X c #E8E4BA",
";X c #F0EBB1",
":X c #E8FDB7",
">X c #F4F3B3",
",X c #F3FFB4",
"<X c #FCFDB3",
"1X c #F5FABC",
"2X c #FBFABC",
"3X c #F3F0BB",
"4X c #A696C5",
"5X c #A997D1",
"6X c #B9A8D9",
"7X c #C2B6DB",
"8X c #EEEECD",
"9X c #FCFDCC",
"0X c #F9FAC4",
"qX c #F8F9D9",
"wX c #FFFFE1",
"eX c #FFFFF2",
"rX c None",
/* pixels */
"rXrXrXrXrXrXrXrXrXrXrXrXrXrXrXrXrXrXrXrXrXrXrXrXrXrXrXrXrXrXrXrXrXrXrXrXrXrXrXrXrXrXrXrXrXrXrXrXrXrXrXrXrXrXrXrXrXrXrXrXrXrXrXrX",
"rXrXrXrXrXrXrXrXrXrXrXrXrXrXrXrXrXrXrXrXrXrXrXrXrXrXrXrXrXrXrXrXrXrXrXrXrXrXrXrXrXrXrXrXrXrXrXrXrXrXrXrXrXrXrXrXrXrXrXrXrXrXrXrX",
"rXrXrXrXrXrXrXrXrXrXrXrXrXrXrXrXrXrXrXrXrXrXrXrXrXrXrXrXrXrXrXrXrXrXrXrXrXrXrXrXrXrXrXrXrXrXrXrXrXrXrXrXrXrXrXrXrXrXrXrXrXrXrXrX",
"rXrXrXrXrXrXrXrXrXrXrXrXrXrXrXrXrXrXrXrXrXrXrXrXrXrXrXrXrXrXrXrXrXrXrXrXrXrXrXrXrXrXrXrXrXrXrXrXrXrXrXrXrXrXrXrXrXrXrXrXrXrXrXrX",
"rXrXrXrXrXrXrXrXrXrXrXrXrXrXrXrXrXrXrXrXrXrXrXrXrXrXrXrXrXrXrXrXrXrXrXrXrXrXrXrXrXrXrXrXrXrXrXrXrXrXrXrXrXrXrXrXrXrXrXrXrXrXrXrX",
"rXrXrXrXrXrXrXrXrXrXrXrXrXrXrXrXrXrXrXrXrXrXrXrXrXrXrXrXrXrXrXrXrXrXrXrXrXrXrXrXrXrXrXrXrXrXrXrXrXrXrXrXrXrXrXrXrXrXrXrXrXrXrXrX",
"rXrXrXrXrXrXrXrXrXrXrXrXrXrXrXrXrXrXrXrXrXrXrXrXrXrXrXrXrXrXrXrXrXrXrXrXrXrXrXrXrXrXrXrXrXrXrXrXrXrXrXrXrXrXrXrXrXrXrXrXrXrXrXrX",
"rXrXrXrXrXrXrXrXrXrXrXrXrXrXrXrXrXrXrXrXrXrXrXrXrXrXrXrXrXrXrXrXrXrXrXrXrXrXrXrXrXrXrXrXrXrXrXrXrXrXrXrXrXrXrXrXrXrXrXrXrXrXrXrX",
"rXrXrXrXrXrXrXrXrXrXrXrXrXrXrXrXrXrXrXrX+.>.>.c.} >.K.rXrXrXrXrXrXrXrXrXrXrXrXrXrXrXrXrXrXrXrXrXrXrXrXrXrXrXrXrXrXrXrXrXrXrXrXrX",
"rXrXrXrXrXrXrXrXrXrXrXrXrXrXrXrXrXrXrXrX3 P ! ! | c.{ >.L.rXrXrXrXrXrXrXrXrXrXrXrXrXrXrXrXrXrXrXrXrXrXrXrXrXrXrXrXrXrXrXrXrXrXrX",
"rXrXrXrXrXrXrXrXrXrXrXrXrXrXrXrXrXrXrXrX, C L [ I ! ..:.{ >.4XrXrXrXrXrXrXrXrXrXrXrXrXrXrXrXrXrXrXrXrXrXrXrXrXrXrXrXrXrXrXrXrXrX",
"rXrXrXrXrXrXrXrXrXrXrXrXrXrXrXrXrXrXrXrX<.< B ( ^ I ` ! ..X.| b.J.7XrXrXrXrXrXrXrXrXrXrXrXrXrXrXrXrXrXrXrXrXrXrXrXrXrXrXrXrXrXrX",
"rXrXrXrXrXrXrXrXrXrXrXrXrXrXrXrXrXrXrXrXrX& N b ( T ` P !  .|  .| c.5X6X6XrXrXrXrXrXrXrXrXrXrXrXrXrXrXrXrXrXrXrXrXrXrXrXrXrXrXrX",
"rXrXrXrXrXrXrXrXrXrXrXrXrXrXrXrXrXrXrXrXrX,.: b b K L ] Q P Q ! { c.m.v.v.b.4XrXrXrXrXrXrXrXrXrXrXrXrXrXrXrXrXrXrXrXrXrXrXrXrXrX",
"rXrXrXrXrXrXrXrXrXrXrXrXrXrXrXrXrXrXrXrXrXrX& 9 z n x K ( V J B v [ X.{ ..} ..n.5XrXrXrXrXrXrXrXrXrXrXrXrXrXrXrXrXrXrXrXrXrXrXrX",
"rXrXrXrXrXrXrXrXrXrXrXrXrXrXrXrXrXrXrXrXrXrX3.; 2 2 b z b R V V ( ^ I [ I ` ' } :.n.rXrXrXrXrXrXrXrXrXrXrXrXrXrXrXrXrXrXrXrXrXrX",
"rXrXrXrXrXrXrXrXrXrXrXrXrXrXrXrXrXrXrXrXrXrXrX: 0 l 4 l G U W U E R Y C T ^ Y ' ! c.m.rXrXrXrXrXrXrXrXrXrXrXrXrXrXrXrXrXrXrXrXrX",
"rXrXrXrXrXrXrXrXrXrXrXrXrXrXrXrXrXrXrXrXrXrXrX: < b n n U U W U E J Y ^ L ^ Y ^ ] >.>.A.rXrXrXrXrXrXrXrXrXrXrXrXrXrXrXrXrXrXrXrX",
"rXrXrXrXrXrXrXrXrXrXrXrXrXrXrXrXrXrXrXrXrXrXrX  < b K L U W U U E H L ^ ` ^ [ o.<.C.rXrXrXrXrXrXrXrXrXrXrXrXrXrXrXrXrXrXrXrXrXrX",
"rXrXrXrXrXrXrXrXrXrXrXrXrXrXrXrXrXrXrXrXrXrXrXN.b V Y W Y Y W E ~ W T ^ ^ o.<.B.S.'.'.rXrXrXrXrXrXrXrXrXrXrXrXrXrXrXrXrXrXrXrXrX",
"rXrXrXrXrXrXrXrXrXrXrXrXrXrXrXrXrXrXrXrXrXrXrXR Z L W Y R U Y E H ~ U ^ ;.D.U.-XoX<XXXrXrXrXrXrXrXrXrXrXrXrXrXrXrXrXrXrXrXrXrXrX",
"rXrXrXrXrXrXrXrXrXrXrXrXrXrXrXrXrXrXrXrXrXrXrX3 Y R W L U W L R E ~ Q ] 1.`.0X>Xj.7.9.rXrXrXrXrXrXrXrXrXrXrXrXrXrXrXrXrXrXrXrXrX",
"rXrXrXrXrXrXrXrXrXrXrXrXrXrXrXrXrXrXrXrXrXrXS b W W W Y Y W Y L W I ' ;.S.;X<X(.(.!./.rXrXrXrXrXrXrXrXrXrXrXrXrXrXrXrXrXrXrXrXrX",
"rXrXrXrXrXrXrXrXrXrXrXrXrXrXrXrXrXrXrXrXrXrX% V Y Y Y Y Y W W L K ` ' <.`.%X(.(.(.z.%XrXrXrXrXrXrXrXrXrXrXrXrXrXrXrXrXrXrXrXrXrX",
"rXrXrXrXrXrXrXrXrXrXrXrXrXrXrXrXrXrXrXrXrXS x L W Y Y Q Y Y Y Y Y ^ Z &.{..Xq.5.t.j @XrXrXrXrXrXrXrXrXrXrXrXrXrXrXrXrXrXrXrXrXrX",
"rXrXrXrXrXrXrXrXrXrXrXrXrXrXrXrXrXrXrXrXD N L W W Y Y Y Y Y ] Y ^ e %.S.3X<X!.f.5.j #XrXrXrXrXrXrXrXrXrXrXrXrXrXrXrXrXrXrXrXrXrX",
"rXrXrXrXrXrXrXrXrXrXrXrXrXrXrXrXrXrXrXr < V V L Y Y Y ~ Y Y Y P T #.a.}.%X,X0X|.t.j &X,XrXrXrXrXrXrXrXrXrXrXrXrXrXrXrXrXrXrXrXrX",
"rXrXrXrXrXrXrXrXrXrXrXrXrXrXrXrXrXrXO.9 < b z Y Y Y Y Y Y Y Y J ) B.d..X*X@X:X0X:X|.#X^.e.rXrXrXrXrXrXrXrXrXrXrXrXrXrXrXrXrXrXrX",
"rXrXrXrXrXrXrXrXrXrXrXrXrXrXrXrXrXrXrXr < < V z L L L L L ^ W U T w 4.h..X*X@X@X,X@X<X&XR.rXrXrXrXrXrXrXrXrXrXrXrXrXrXrXrXrXrXrX",
"rXrXrXrXrXrXrXrXrXrXrXrXrXrXrXrXrXrXrXrXN 9 - M 3 Z L R L L W W B Z 6 4.g./.&X&X&X&X<X%X XrXrXrXrXrXrXrXrXrXrXrXrXrXrXrXrXrXrXrX",
"rXrXrXrXrXrXrXrXrXrXrXrXrXrXrXrXrXrXrXrXrX/ S 2 3 3 Z C L K L L ) V 1 6 4.k./.*X*X*X=X XrXrXrXrXrXrXrXrXrXrXrXrXrXrXrXrXrXrXrXrX",
"rXrXrXrXrXrXrXrXrXrXrXrXrXrXrXrXrXrXrXrXrXrXrX/ r 1 < 0 b B K L V K T 1 # 4.i./..XXXrXrXrXrXrXrXrXrXrXrXrXrXrXrXrXrXrXrXrXrXrXrX",
"rXrXrXrXrXrXrXrXrXrXrXrXrXrXrXrXrXrXrXrXrXrXrXrXrX@.t : : , 4 4 2 ; 4 l > X # u.G.rXrXrXrXrXrXrXrXrXrXrXrXrXrXrXrXrXrXrXrXrXrXrX",
"rXrXrXrXrXrXrXrXrXrXrXrXrXrXrXrXrXrXrXrXrXrXrXrXrXrXrX#.@.3 - - % ; = - * * * F rXrXrXrXrXrXrXrXrXrXrXrXrXrXrXrXrXrXrXrXrXrXrXrX",
"rXrXrXrXrXrXrXrXrXrXrXrXrXrXrXrXrXrXrXrXrXrXrXrXrXrXrXrXrX#.4 1 0 0 l 4 * 5 y 2.rXrXrXrXrXrXrXrXrXrXrXrXrXrXrXrXrXrXrXrXrXrXrXrX",
"rXrXrXrXrXrXrXrXrXrXrXrXrXrXrXrXrXrXrXrXrXrXrXrXrXrXrXrX3.2 M 3 1 1 z z * 5 F 2.F.rXrXrXrXrXrXrXrXrXrXrXrXrXrXrXrXrXrXrXrXrXrXrX",
"rXrXrXrXrXrXrXrXrXrXrXrXrXrXrXrXrXrXrXrXrXrXrXrXrXrXrXrX+., 3 2 e M z , @ p p p 2.rXrXrXrXrXrXrXrXrXrXrXrXrXrXrXrXrXrXrXrXrXrXrX",
"rXrXrXrXrXrXrXrXrXrXrXrXrXrXrXrXrXrXrXrXrXrXrXrXrXrXrXM., 2 4 T 3 Z B , X g g a p 6.rXrXrXrXrXrXrXrXrXrXrXrXrXrXrXrXrXrXrXrXrXrX",
"rXrXrXrXrXrXrXrXrXrXrXrXrXrXrXrXrXrXrXrXrXrXrXrXrXrXrX#.& R z L z L W r + f -.u.$.Z.rXrXrXrXrXrXrXrXrXrXrXrXrXrXrXrXrXrXrXrXrXrX",
"rXrXrXrXrXrXrXrXrXrXrXrXrXrXrXrXrXrXrXrXrXrXrXrXrXrXN.9 3 n ( B G Y E 9 $ k k.oX[.rXrXrXrXrXrXrXrXrXrXrXrXrXrXrXrXrXrXrXrXrXrXrX",
"rXrXrXrXrXrXrXrXrXrXrXrXrXrXrXrXrXrXrXrXrXrXrXrXrXrX,.N m K Y n G ~ J 1 u w.Q.OXI.rXrXrXrXrXrXrXrXrXrXrXrXrXrXrXrXrXrXrXrXrXrXrX",
"rXrXrXrXrXrXrXrXrXrXrXrXrXrXrXrXrXrXrXrXrXrXrXrXrXN.0 V ) R K J P L Y > f Y.<X2X{.rXrXrXrXrXrXrXrXrXrXrXrXrXrXrXrXrXrXrXrXrXrXrX",
"rXrXrXrXrXrXrXrXrXrXrXrXrXrXrXrXrXrXrXrXrXrXrXrXrX+.S V B Y W J Z ^ C 5 f Y.<X2X9XwXrXrXrXrXrXrXrXrXrXrXrXrXrXrXrXrXrXrXrXrXrXrX",
"rXrXrXrXrXrXrXrXrXrXrXrXrXrXrXrXrXrXrXrXrXrXrXrXA.b R W U W Y K Y Z ^ o f k Y.OX9XqXeXrXrXrXrXrXrXrXrXrXrXrXrXrXrXrXrXrXrXrXrXrX",
"rXrXrXrXrXrXrXrXrXrXrXrXrXrXrXrXrXrXrXrXrXrXrXrX;.b K W W W U W ( C S . s k r.Q.1X9XwXrXrXrXrXrXrXrXrXrXrXrXrXrXrXrXrXrXrXrXrXrX",
"rXrXrXrXrXrXrXrXrXrXrXrXrXrXrXrXrXrXrXrXrXrXrX+.M W R E K W U W L Y C O d y.9.y.OX0X].rXrXrXrXrXrXrXrXrXrXrXrXrXrXrXrXrXrXrXrXrX",
"rXrXrXrXrXrXrXrXrXrXrXrXrXrXrXrXrXrXrXrXrXrX@.N R R K ~ Y Y U U U U R @ e.~.l.7.z.OXG.rXrXrXrXrXrXrXrXrXrXrXrXrXrXrXrXrXrXrXrXrX",
"rXrXrXrXrXrXrXrXrXrXrXrXrXrXrXrXrXrXrXrXrX@.N S R U Y ~ Q Y ] K ~ E m 7 i.=X_.r.7.Q.a.rXrXrXrXrXrXrXrXrXrXrXrXrXrXrXrXrXrXrXrXrX",
"rXrXrXrXrXrXrXrXrXrXrXrX9X1XrXrXrXrXrXrX) K K V R R E E U U U E K R R > i.).).h.k s.rXrXrXrXrXrXrXrXrXrXrXrXrXrXrXrXrXrXrXrXrXrX",
"rXrXrXrXrXrXrXrXrXrXrX9X1X<X<XrXrXrXrX+.V K U K V K R E U U W U R U K w p.).).j.].rXrXrXrXrXrXrXrXrXrXrXrXrXrXrXrXrXrXrXrXrXrXrX",
"rXrXrXrXrXrXrXrXrXrXrXrX0X9X>X0XrXrXy M R E ] J K U W Y P U Y J E K Y e 0..X$Xz.rXrXrXrXrXrXrXrXrXrXrXrXrXrXrXrXrXrXrXrXrXrXrXrX",
"rXrXrXrXrXrXrXrXrXrXrXrXrXrXG.G.P.U.@ y V ] n P Q Y ~ Q U Y W J U E Q 0 f  X.Xl.rXrXrXrXrXrXrXrXrXrXrXrXrXrXrXrXrXrXrXrXrXrXrXrX",
"rXrXrXrXrXrXrXrXrXrXrXrXrXrXrX-.*.h X e L B J Q Q Y I P J Y ^ B K Y Q C # Q.%XY.rXrXrXrXrXrXrXrXrXrXrXrXrXrXrXrXrXrXrXrXrXrXrXrX",
"rXrXrXrXrXrXrXrXrXrXrXrXrXrXrXrX=.=.h w 1 B Y L ( I P J T Y J n K U Q L # '.<XG.rXrXrXrXrXrXrXrXrXrXrXrXrXrXrXrXrXrXrXrXrXrXrXrX",
"rXrXrXrXrXrXrXrXrXrXrXrXrXrXrXrXrXrXrXrXe 1 b L L Y J n Y Y B J K Y Y C 8 W.8XW.rXrXrXrXrXrXrXrXrXrXrXrXrXrXrXrXrXrXrXrXrXrXrXrX",
"rXrXrXrXrXrXrXrXrXrXrXrXrXrXrXrXrXrXrXrXrXA b z 2 z < 2 V V M B W Y K C 6 S.;XrXrXrXrXrXrXrXrXrXrXrXrXrXrXrXrXrXrXrXrXrXrXrXrXrX",
"rXrXrXrXrXrXrXrXrXrXrXrXrXrXrXrXrXrXrXrXrXrXrXF S F S r 9 9 ; b V V Y M # d.W.rXrXrXrXrXrXrXrXrXrXrXrXrXrXrXrXrXrXrXrXrXrXrXrXrX",
"rXrXrXrXrXrXrXrXrXrXrXrXrXrXrXrXrXrXrXrXrXrXrXrXrXrXrXN.F F @.0 < 0 2 : y U.{.8XqXrXrXrXrXrXrXrXrXrXrXrXrXrXrXrXrXrXrXrXrXrXrXrX",
"rXrXrXrXrXrXrXrXrXrXrXrXrXrXrXrXrXrXrXrXrXrXrXrXrXrXrXrXrXrXrXM.D D D _ %.rXrXP.].rXrXrXrXrXrXrXrXrXrXrXrXrXrXrXrXrXrXrXrXrXrXrX",
"rXrXrXrXrXrXrXrXrXrXrXrXrXrXrXrXrXrXrXrXrXrXrXrXrXrXrXrXrXrXrXrXrXrXrXrXrXrXrXrXrXrXrXrXrXrXrXrXrXrXrXrXrXrXrXrXrXrXrXrXrXrXrXrX",
"rXrXrXrXrXrXrXrXrXrXrXrXrXrXrXrXrXrXrXrXrXrXrXrXrXrXrXrXrXrXrXrXrXrXrXrXrXrXrXrXrXrXrXrXrXrXrXrXrXrXrXrXrXrXrXrXrXrXrXrXrXrXrXrX",
"rXrXrXrXrXrXrXrXrXrXrXrXrXrXrXrXrXrXrXrXrXrXrXrXrXrXrXrXrXrXrXrXrXrXrXrXrXrXrXrXrXrXrXrXrXrXrXrXrXrXrXrXrXrXrXrXrXrXrXrXrXrXrXrX",
"rXrXrXrXrXrXrXrXrXrXrXrXrXrXrXrXrXrXrXrXrXrXrXrXrXrXrXrXrXrXrXrXrXrXrXrXrXrXrXrXrXrXrXrXrXrXrXrXrXrXrXrXrXrXrXrXrXrXrXrXrXrXrXrX",
"rXrXrXrXrXrXrXrXrXrXrXrXrXrXrXrXrXrXrXrXrXrXrXrXrXrXrXrXrXrXrXrXrXrXrXrXrXrXrXrXrXrXrXrXrXrXrXrXrXrXrXrXrXrXrXrXrXrXrXrXrXrXrXrX"
};
