/* XPM */
static char *fa83cc76b65b477a83aebfa7c4ec87ecz7lBeB8CgPU7569L[] = {
/* columns rows colors chars-per-pixel */
"64 64 226 2 ",
"   c None",
".  c #1D150F",
"X  c #241B18",
"o  c #322B17",
"O  c #160E27",
"+  c #1C142C",
"@  c #1A172A",
"#  c #1C1232",
"$  c #1E183E",
"%  c #241A23",
"&  c #2B1C26",
"*  c #241A2C",
"=  c #2A1A2C",
"-  c #211732",
";  c #231B32",
":  c #2C1E34",
">  c #23173A",
",  c #251B3B",
"<  c #291C3B",
"1  c #311D36",
"2  c #1D2321",
"3  c #2B2229",
"4  c #332A2C",
"5  c #382829",
"6  c #3A3727",
"7  c #2B223C",
"8  c #292738",
"9  c #34283A",
"0  c #35353D",
"q  c #4A3F1F",
"w  c #413B28",
"e  c #473F3C",
"r  c #3B453B",
"t  c #514A16",
"y  c #615D1E",
"u  c #6D6817",
"i  c #5D5923",
"p  c #595435",
"a  c #51503E",
"s  c #4C4D3A",
"d  c #665D36",
"f  c #5F7A29",
"g  c #69632E",
"h  c #767339",
"j  c #696133",
"k  c #251C40",
"l  c #2B1E44",
"z  c #2C1E49",
"x  c #341E5F",
"c  c #2C2243",
"v  c #2D244B",
"b  c #2F2A45",
"n  c #322545",
"m  c #332A44",
"M  c #382C45",
"N  c #32264C",
"B  c #352B4C",
"V  c #3A2C4D",
"C  c #39274D",
"Z  c #3C344C",
"A  c #383447",
"S  c #2E2252",
"D  c #342653",
"F  c #342B54",
"G  c #3A2D55",
"H  c #35265A",
"J  c #362C5A",
"K  c #3B2D5B",
"L  c #3B2559",
"P  c #3C3155",
"I  c #3E3953",
"U  c #36325C",
"Y  c #3C325C",
"T  c #363056",
"R  c #3D2C62",
"E  c #3D3261",
"W  c #41364A",
"Q  c #412D5F",
"!  c #442E54",
"~  c #433254",
"^  c #433A52",
"/  c #41335C",
"(  c #463B59",
")  c #412C64",
"_  c #432C68",
"`  c #423562",
"'  c #44326B",
"]  c #4A356A",
"[  c #4B3474",
"{  c #4B3771",
"}  c #533D7B",
"|  c #51377F",
" . c #4A3173",
".. c #5E5846",
"X. c #474257",
"o. c #54475B",
"O. c #555156",
"+. c #454641",
"@. c #6E5B5D",
"#. c #696343",
"$. c #666552",
"%. c #777048",
"&. c #544B62",
"*. c #5A4A67",
"=. c #595364",
"-. c #5C4D73",
";. c #57447C",
":. c #4E4461",
">. c #685765",
",. c #604D7B",
"<. c #675475",
"1. c #66726A",
"2. c #6A647B",
"3. c #72697C",
"4. c #71746F",
"5. c #817C3F",
"6. c #847F2E",
"7. c #877857",
"8. c #897B61",
"9. c #8D7E7B",
"0. c #698234",
"q. c #738F3A",
"w. c #7C8B52",
"e. c #7C867D",
"r. c #888639",
"t. c #8B8759",
"y. c #8B914D",
"u. c #8EA55D",
"i. c #A3A259",
"p. c #B2AE5C",
"a. c #898968",
"s. c #99956B",
"d. c #988D7F",
"f. c #928261",
"g. c #A19C65",
"h. c #AF9F7D",
"j. c #91AB62",
"k. c #A8A36B",
"l. c #BAB96D",
"z. c #A9A775",
"x. c #B4AE73",
"c. c #B0A379",
"v. c #B2AF6D",
"b. c #C1B57B",
"n. c #B4C97C",
"m. c #C8C67E",
"M. c #CAC675",
"N. c #593C8E",
"B. c #5B4485",
"V. c #5F4294",
"C. c #614B8C",
"Z. c #67548B",
"A. c #634892",
"S. c #6C5296",
"D. c #705E8E",
"F. c #736687",
"G. c #797188",
"H. c #887D8F",
"J. c #8B8496",
"K. c #868288",
"L. c #A39391",
"P. c #A8A588",
"I. c #B5AF83",
"U. c #B8B889",
"Y. c #A7A798",
"T. c #B8B499",
"R. c #9E8FB7",
"E. c #998EAB",
"W. c #A79CBC",
"Q. c #94A3A0",
"!. c #B4A6A7",
"~. c #BFBEA0",
"^. c #A5A2B3",
"/. c #ADA7BB",
"(. c #B2A9BB",
"). c #A3AEA8",
"_. c #C3BE90",
"`. c #C4BEA4",
"'. c #D3CE8B",
"]. c #C3C096",
"[. c #D5D693",
"{. c #CDCD8C",
"}. c #E0DA9D",
"|. c #DCE797",
" X c #DBF298",
".X c #E7E798",
"XX c #F2EC9A",
"oX c #F2F49B",
"OX c #C7C3A4",
"+X c #D5CFAC",
"@X c #DCD8AA",
"#X c #DAD6B8",
"$X c #D0CFAE",
"%X c #E3D7B4",
"&X c #E1DCA4",
"*X c #D9EAA6",
"=X c #DCF3A5",
"-X c #EEECA5",
";X c #E8E5A8",
":X c #EAF6A6",
">X c #F2F1A3",
",X c #F3F5A8",
"<X c #FDFDAC",
"1X c #F8F9A9",
"2X c #EEEDBB",
"3X c #E9E7B5",
"4X c #EEF8B2",
"5X c #F5FDB3",
"6X c #FDFDB4",
"7X c #F4FCBC",
"8X c #FCFDBA",
"9X c #F7F5B5",
"0X c #F4EAB5",
"qX c #A997C8",
"wX c #A994CA",
"eX c #B4A7C8",
"rX c #AFA2C0",
"tX c #F7FCC2",
"yX c #FDFEC2",
"uX c #F9F7C7",
"iX c #FFFDD6",
"pX c #FDFCDA",
"aX c #E7E7C3",
"sX c #D0E0E0",
"dX c #FFFFE3",
"fX c #EFFAED",
/* pixels */
"                                                                                                                                ",
"                                                                                                                                ",
"                                                                                                                                ",
"                                                                                                                                ",
"                                                                                                                                ",
"                                                    E.R.    E.rX                                                                ",
"                                                    H.-.R.  Z.-.eX                                                              ",
"                                                    :./ ,.) L { ,.eX                                                            ",
"                                                  F.c / ] ;.} x [ S.wX                                                          ",
"                                                  3.n G R { B.| N. .S.wX                                                        ",
"                                                  ^ B K K R } C.V.N.A.} wX                                                      ",
"                                                  + B / / H ) [ | V.A.[ Z.wXqXeX                                                ",
"                                                  @ c N K K R R ) R ' C.C.Z.B.D.R.W.                                            ",
"                                                  + < k F K Q K S S H '  . .} { { D.R.W.                                        ",
"                                                  ; 7 c v l N D H K Y E K H _ ) _ { ] F.eX                                      ",
"                                                  * - < l l N K J U F J Y K R R _ ) _ { 2./.                                    ",
"                                                  + 7 , l F G K Y Y F U U F J R ) L ] ,.-.J.                                    ",
"                                                  - c B F F G Y G Y J U J Y Y G ! <.>.L.!.                                      ",
"                                                  *.m N Y ` Y K K ) R R H Y ( o.@.d.h.%X%X$X                                    ",
"                                                  Z B P G G K Y K R R ' R / >.L.+X0X-X6X;X_.                                    ",
"                                                2.B B G G Y Y F K K G Q Q ( 4.@X8X-Xp.r.i.                                      ",
"                                                m b Y Y K K K G K / G G ) *.P.0X<X1X:X[..X                                      ",
"                                                > N K K G K K Y T G Y K ' F.#X7X|. X=Xn.:X                                      ",
"                                              c v Y K K E K F Y Y F Y G G 3.aX;Xy.q.y.0.:X                                      ",
"                                            b B F Y K K E H E K U F P M >.Y.2X7X*Xj.w.f :X                                      ",
"                                          8 7 c Y D K E R K K K J F n >.L.3XyX5X7X*Xu.0.5X4X                                    ",
"                                          3 - 7 N G E E D R K K K D o.9.c.-X1X<X5XyX4X4X5X|.5.                                  ",
"                                          8 8 ; c B v K ` Y K E R G 9 5 f.v.XXoX1X6X8X5X6X,X[.                                  ",
"                                            9 ; - , N v G K G G K K V 9 5 8.b.XX<X<X,X,X6X>X}.                                  ",
"                                              X.A + N , l P G K K K G ~ 1 5 7.x..X1X<X6X,X;X                                    ",
"                                                  &.7 , v l > N F Y N b m = 5 8.g..X-X;X2X                                      ",
"                                                      X.M - > k k $ , , , - % . o a.U.$X                                        ",
"                                                          O.&., # # - O - # O @ 2 r fX                                          ",
"                                                              I , > : ; < , + 8 A 1.sX                                          ",
"                                                            &.+ c l < 7 < < @ 0 r 1.Q.                                          ",
"                                                            Z c , k < n < ; % +.6 s 1.).                                        ",
"                                                          o.- k k c v B n : X a s 6 r e.                                        ",
"                                                          ^ > c D B N G C : X p w.a.$.Y.                                        ",
"                                                        =.- v G Y D D G G = o %.x.3XOX                                          ",
"                                                        ^ V N F F v D Y G & q k.[.3XT.                                          ",
"                                                      =.m B ` F K F H K V & d '.9X9X3X                                          ",
"                                                    ^.X.P G K H K S K / C & j m.<X6XiXdX                                        ",
"                                                    2.m B K Y Y K F Y G N 3 i r.M.9XyXiX                                        ",
"                                                  ^.I v / K K Y Y J Y G N & t u p.'.9XiX                                        ",
"                            7XtXtX              ^.X.B F E J K F K K G P G X g p.6.l.9XuX#X                                      ",
"                              7X7X            (.I b Y Y J H Y K H K G P V 3 t.XXM.r.'.@X`.                                      ",
"                                [.tXpX      /.Z Z F F E E J F Y H Y P B V 4 k.>X.Xy.y.&Xa.                                      ",
"                                x.[.iX    /.A Z F Y J J J Y F G Y K G P C 4 z.>X>Xi.y s.                                        ",
"                                k.x.@X  (.G G Y Y S J R E Y F P F Y E F P 4 k.,XoXl.                                            ",
"                                h 5.OX!.W V K D J J Y K J F N B Y z K E v 4 s.,X.Xm.                                            ",
"                                I.g %.s 4 M ~ Y v F F P Y F G G B V F D ` M p ;X-X{.                                            ",
"                                  #.p 6 X A m v D Y D P P N F F B C G K ` M 6 ;X-X_.                                            ",
"                                  T.$...e 3 m B D Y P Y G D K K G l G / D V w 3X0X].                                            ",
"                                          K.; > N G P G z z G D N G G G K V 6 @X;XI.                                            ",
"                                            J.m B > , c < c V ~ z D K / G 9 6 z.g.t.                                            ",
"                                                G.^ m M 7 * * : > z N G F 7 w t.g i s.                                          ",
"                                                        H.4 o . % * , v > ; 6 #.i h x.uXpX                                      ",
"                                                          d...#...4 M Z ( W O.  t.t.U.2XdX                                      ",
"                                                            ~.U.P.a.              ].U.$X                                        ",
"                                                                                                                                ",
"                                                                                                                                ",
"                                                                                                                                ",
"                                                                                                                                ",
"                                                                                                                                "
};
