/* XPM */
static char *result[] = {
/* columns rows colors chars-per-pixel */
"64 64 219 2 ",
"   c #17101A",
".  c #251A1B",
"X  c #2C221B",
"o  c #2D2415",
"O  c #302815",
"+  c #303B1D",
"@  c #1D142C",
"#  c #1F182A",
"$  c #1F1927",
"%  c #1D1334",
"&  c #1F1A31",
"*  c #1F193B",
"=  c #180D2F",
"-  c #2A1B25",
";  c #21162C",
":  c #231A2D",
">  c #261B25",
",  c #231732",
"<  c #251A34",
"1  c #2A1C35",
"2  c #251B3C",
"3  c #2B1C3C",
"4  c #21173A",
"5  c #311C32",
"6  c #2B2525",
"7  c #342C2C",
"8  c #312A22",
"9  c #3A3A2A",
"0  c #262032",
"q  c #2C2334",
"w  c #2C233C",
"e  c #2B2C31",
"r  c #32253D",
"t  c #352A3C",
"y  c #332834",
"u  c #453C24",
"i  c #473C2A",
"p  c #433A33",
"a  c #3C413B",
"s  c #5B5C1A",
"d  c #526B1A",
"f  c #4A4929",
"g  c #5B5826",
"h  c #494536",
"j  c #585931",
"k  c #50442A",
"l  c #685E3B",
"z  c #586E25",
"x  c #61612B",
"c  c #6F702E",
"v  c #78762A",
"b  c #6D6C35",
"n  c #6E6C3C",
"m  c #7E7E3E",
"M  c #2B1F42",
"N  c #2B1E4B",
"B  c #251844",
"V  c #311F47",
"C  c #2D2243",
"Z  c #2E244A",
"A  c #2F2C47",
"S  c #322343",
"D  c #342A43",
"F  c #3B2D46",
"G  c #33254B",
"H  c #352B4D",
"J  c #392C4E",
"K  c #392642",
"L  c #3D334A",
"P  c #3D384A",
"I  c #2E2152",
"U  c #322652",
"Y  c #362B54",
"T  c #3A2D55",
"R  c #332659",
"E  c #3B255C",
"W  c #352B5A",
"Q  c #3A2D5A",
"!  c #3A2657",
"~  c #363253",
"^  c #3B3155",
"/  c #3C315C",
"(  c #373059",
")  c #3B2663",
"_  c #3C2D61",
"`  c #392A67",
"'  c #3D3163",
"]  c #363060",
"[  c #402A4E",
"{  c #44394C",
"}  c #412E5B",
"|  c #453355",
" . c #42325C",
".. c #473A59",
"X. c #432C6A",
"o. c #402F65",
"O. c #413163",
"+. c #44336B",
"@. c #422C71",
"#. c #4A3874",
"$. c #543E7B",
"%. c #594B44",
"&. c #495345",
"*. c #5A5447",
"=. c #4B4354",
"-. c #4C4657",
";. c #544F5D",
":. c #5B5457",
">. c #49424A",
",. c #635457",
"<. c #66624B",
"1. c #6F705F",
"2. c #7D7B5A",
"3. c #6C6751",
"4. c #584767",
"5. c #594972",
"6. c #4F4662",
"7. c #655565",
"8. c #665B79",
"9. c #7D7469",
"0. c #7B7678",
"q. c #7C667B",
"w. c #7D9247",
"e. c #8C8A47",
"r. c #848152",
"t. c #8D8958",
"y. c #948E5E",
"u. c #979658",
"i. c #939947",
"p. c #95AC5A",
"a. c #AAA856",
"s. c #878665",
"d. c #958C6C",
"f. c #9E9B63",
"g. c #898878",
"h. c #928F79",
"j. c #A79676",
"k. c #A2A26B",
"l. c #B2AF6C",
"z. c #A7B368",
"x. c #B6B769",
"c. c #A6A77B",
"v. c #C3BC7B",
"b. c #B3C67A",
"n. c #C4C17A",
"m. c #563F83",
"M. c #5B4485",
"N. c #5E478A",
"B. c #5E488B",
"V. c #5F4A85",
"C. c #624B8B",
"Z. c #625283",
"A. c #6A558B",
"S. c #6D5A94",
"D. c #746888",
"F. c #796798",
"G. c #8B7E89",
"H. c #82749B",
"J. c #927A90",
"K. c #888685",
"L. c #8E8990",
"P. c #9A9B95",
"I. c #A6988D",
"U. c #A1969D",
"Y. c #98A393",
"T. c #ACAC84",
"R. c #AFA389",
"E. c #B7AE83",
"W. c #B9B785",
"Q. c #B4AE92",
"!. c #B8B299",
"~. c #918CA0",
"^. c #9995AB",
"/. c #9889B6",
"(. c #A399B2",
"). c #B5AAA6",
"_. c #C6BC89",
"`. c #CDBCAC",
"'. c #BDC299",
"]. c #C9C688",
"[. c #D1CD8D",
"{. c #C8D185",
"}. c #D8D689",
"|. c #CFCD9B",
" X c #C9C596",
".X c #D4CD94",
"XX c #D3D29B",
"oX c #D9DA96",
"OX c #D7E993",
"+X c #E7E99C",
"@X c #EFFF9F",
"#X c #F6FD9A",
"$X c #DFF0A0",
"%X c #ECEAA2",
"&X c #EDECAC",
"*X c #E4E3A3",
"=X c #E3F7A3",
"-X c #F1FDA3",
";X c #F3F4AB",
":X c #F3FFAB",
">X c #F9FFAC",
",X c #F9F7A6",
"<X c #E6E7B9",
"1X c #EDF7BA",
"2X c #F4FCB4",
"3X c #FCFCB3",
"4X c #F6FFBB",
"5X c #FBFEBA",
"6X c #F7F6BE",
"7X c #F1E9B8",
"8X c #A694C0",
"9X c #E4DDC2",
"0X c #E6E5C5",
"qX c #FBFCC2",
"wX c #FBFCCB",
"eX c #F6F6CA",
"rX c #FDFDD4",
"tX c #FFFDE8",
"yX c None",
/* pixels */
"yXyXyXyXyXyXyXyXyXyXyXyXyXyXyXyXyXyXyXyXyXyXyXyXyXyXyXyXyXyXyXyXyXyXyXyXyXyXyXyXyXyXyXyXyXyXyXyXyXyXyXyXyXyXyXyXyXyXyXyXyXyXyXyX",
"yXyXyXyXyXyXyXyXyXyXyXyXyXyXyXyXyXyXyXyXyXyXyXyXyXyXyXyXyXyXyXyXyXyXyXyXyXyXyXyXyXyXyXyXyXyXyXyXyXyXyXyXyXyXyXyXyXyXyXyXyXyXyXyX",
"yXyXyXyXyXyXyXyXyXyXyXyXyXyXyXyXyXyXyXyXyXyXyXyXyXyXyXyXyXyXyXyXyXyXyXyXyXyXyXyXyXyXyXyXyXyXyXyXyXyXyXyXyXyXyXyXyXyXyXyXyXyXyXyX",
"yXyXyXyXyXyXyXyXyXyXyXyXyXyXyXyXyXyXyXyXyXyXyXyXyXyXyXyXyXyXyXyXyXyXyXyXyXyXyXyXyXyXyXyXyXyXyXyXyXyXyXyXyXyXyXyXyXyXyXyXyXyXyXyX",
"yXyXyXyXyXyXyXyXyXyXyXyXyXyXyXyXyXyXyXyXyXyXyXyXyXyXyXyXyXyXyXyXyXyXyXyXyXyXyXyXyXyXyXyXyXyXyXyXyXyXyXyXyXyXyXyXyXyXyXyXyXyXyXyX",
"yXyXyXyXyXyXyXyXyXyXyXyXyXyXyXyXyXyXyXyXyXyXyXyXyXyXyXyXyXyXyXyXyXyXyXyXyXyXyXyXyXyXyXyXyXyXyXyXyXyXyXyXyXyXyXyXyXyXyXyXyXyXyXyX",
"yXyXyXyXyXyXyXyXyXyXyXyXyXyXyXyXyXyXyXyXyXyXyXyXyXyXyXyXyXyXyXyXyXyXyXyXyXyXyXyXyXyXyXyXyXyXyXyXyXyXyXyXyXyXyXyXyXyXyXyXyXyXyXyX",
"yXyXyXyXyXyXyXyXyXyXyXyXyXyXyXyXyXyXyXyXyXyXyXyXyXyXyXyXyXH.yXyXyXyXyXyXyXyXyXyXyXyXyXyXyXyXyXyXyXyXyXyXyXyXyXyXyXyXyXyXyXyXyXyX",
"yXyXyXyXyXyXyXyXyXyXyXyXyXyXyXyXyXyXyXyXyXyXyXyXyXD.4.F.V.5.A./.yXyXyXyXyXyXyXyXyXyXyXyXyXyXyXyXyXyXyXyXyXyXyXyXyXyXyXyXyXyXyXyX",
"yXyXyXyXyXyXyXyXyXyXyXyXyXyXyXyXyXyXyXyXyXyXyXyXyX^ O.Z.$.) ` S./.yXyXyXyXyXyXyXyXyXyXyXyXyXyXyXyXyXyXyXyXyXyXyXyXyXyXyXyXyXyXyX",
"yXyXyXyXyXyXyXyXyXyXyXyXyXyXyXyXyXyXyXyXyXyXyXyXD.A E O.M.$.` @.S./.yXyXyXyXyXyXyXyXyXyXyXyXyXyXyXyXyXyXyXyXyXyXyXyXyXyXyXyXyXyX",
"yXyXyXyXyXyXyXyXyXyXyXyXyXyXyXyXyXyXyXyXyXyXyXyX8.H / ` #.M.B.m.` A./.yXyXyXyXyXyXyXyXyXyXyXyXyXyXyXyXyXyXyXyXyXyXyXyXyXyXyXyXyX",
"yXyXyXyXyXyXyXyXyXyXyXyXyXyXyXyXyXyXyXyXyXyXyXyXD Z / ' E +.N.B.B.B.X.8XyXyXyXyXyXyXyXyXyXyXyXyXyXyXyXyXyXyXyXyXyXyXyXyXyXyXyXyX",
"yXyXyXyXyXyXyXyXyXyXyXyXyXyXyXyXyXyXyXyXyXyXyXyX% H Y / O._ X.+.m.m.C.M.F.H.8XyXyXyXyXyXyXyXyXyXyXyXyXyXyXyXyXyXyXyXyXyXyXyXyXyX",
"yXyXyXyXyXyXyXyXyXyXyXyXyXyXyXyXyXyXyXyXyXyXyXyX# w S / / Q E _ ) ) M.N.N.C.C.S.yXyXyXyXyXyXyXyXyXyXyXyXyXyXyXyXyXyXyXyXyXyXyXyX",
"yXyXyXyXyXyXyXyXyXyXyXyXyXyXyXyXyXyXyXyXyXyXyXyX0 @ C T U ! Q G } o.X.X.@.@.X.#.Z.A.yXyXyXyXyXyXyXyXyXyXyXyXyXyXyXyXyXyXyXyXyXyX",
"yXyXyXyXyXyXyXyXyXyXyXyXyXyXyXyXyXyXyXyXyXyXyXyX; w 2 B N I W Q !  .E _ ` _ ` ` Q #.S.yXyXyXyXyXyXyXyXyXyXyXyXyXyXyXyXyXyXyXyXyX",
"yXyXyXyXyXyXyXyXyXyXyXyXyXyXyXyXyXyXyXyXyXyXyXyX@ C N N I R O./ ^ / O.Q ! Q / Y |  .$.S.yXyXyXyXyXyXyXyXyXyXyXyXyXyXyXyXyXyXyXyX",
"yXyXyXyXyXyXyXyXyXyXyXyXyXyXyXyXyXyXyXyXyXyXyXyX, 4 M I U Q Q ( W W ' Q /  .Q ..{ 7.q.J.yXyXyXyXyXyXyXyXyXyXyXyXyXyXyXyXyXyXyXyX",
"yXyXyXyXyXyXyXyXyXyXyXyXyXyXyXyXyXyXyXyXyXyXyXyX{ M U / ' / Y W ' ] E !  .| { 7.9.I.`.yXyXyXyXyXyXyXyXyXyXyXyXyXyXyXyXyXyXyXyXyX",
"yXyXyXyXyXyXyXyXyXyXyXyXyXyXyXyXyXyXyXyXyXyXyXyX6.J Q Q ( ( T / / ] Q }  .7.G.Q.|.7XqX_.yXyXyXyXyXyXyXyXyXyXyXyXyXyXyXyXyXyXyXyX",
"yXyXyXyXyXyXyXyXyXyXyXyXyXyXyXyXyXyXyXyXyXyXyXyXH Y / T Y T T ( W (  .|  .G.9X6X*Xv.l._.yXyXyXyXyXyXyXyXyXyXyXyXyXyXyXyXyXyXyXyX",
"yXyXyXyXyXyXyXyXyXyXyXyXyXyXyXyXyXyXyXyXyXyXyX..w T / / / /  .^ Q E  .| 7.).qX2X+Xx.a.&XyXyXyXyXyXyXyXyXyXyXyXyXyXyXyXyXyXyXyXyX",
"yXyXyXyXyXyXyXyXyXyXyXyXyXyXyXyXyXyXyXyXyXyXyX2 Y  .! Q / Q ( T Q } } | G.9X2X-X:X+X+X6XyXyXyXyXyXyXyXyXyXyXyXyXyXyXyXyXyXyXyXyX",
"yXyXyXyXyXyXyXyXyXyXyXyXyXyXyXyXyXyXyXyXyXyX-.C Y T Q ' ' Q T Q Q } } [ d.wX{.i.z.w.'.4XyXyXyXyXyXyXyXyXyXyXyXyXyXyXyXyXyXyXyXyX",
"yXyXyXyXyXyXyXyXyXyXyXyXyXyXyXyXyXyXyXyXyX-.H Y ( Q Q Q W Q ( Q o.E [ 7.E.5X$Xp.w.z b.1XyXyXyXyXyXyXyXyXyXyXyXyXyXyXyXyXyXyXyXyX",
"yXyXyXyXyXyXyXyXyXyXyXyXyXyXyXyXyXyXyXyXP 0 C ^ Q Q Q Q Q ] Q Q _ V 7.R.&X:X4X1Xb.d b.1XrXyXyXyXyXyXyXyXyXyXyXyXyXyXyXyXyXyXyXyX",
"yXyXyXyXyXyXyXyXyXyXyXyXyXyXyXyXyXyXyXyX& w w H T / Q / Q _ Q W R 5.I.l.3X:X:X4X$XOX+X4Xk.s.yXyXyXyXyXyXyXyXyXyXyXyXyXyXyXyXyXyX",
"yXyXyXyXyXyXyXyXyXyXyXyXyXyXyXyXyXyXyXyX0 & 0 B H T Q Q T Q Q Q E K i v.[.;X5X:X-X-X:X5X*Xc.yXyXyXyXyXyXyXyXyXyXyXyXyXyXyXyXyXyX",
"yXyXyXyXyXyXyXyXyXyXyXyXyXyXyXyXyXyXyXyXyXw w 2 M M H T ( Q ( ( ( K - i j.XX3X>X#X#X@X3X2XyXyXyXyXyXyXyXyXyXyXyXyXyXyXyXyXyXyXyX",
"yXyXyXyXyXyXyXyXyXyXyXyXyXyXyXyXyXyXyXyXyXyXD S 2 2 3 H T T W ( ~ ~ [ X %.j..X,X#X#X>X;XyXyXyXyXyXyXyXyXyXyXyXyXyXyXyXyXyXyXyXyX",
"yXyXyXyXyXyXyXyXyXyXyXyXyXyXyXyXyXyXyXyXyXyXyXyXL w < 3 C C G ( A ~ V K 5 %.d.].;X%X3XXXyXyXyXyXyXyXyXyXyXyXyXyXyXyXyXyXyXyXyXyX",
"yXyXyXyXyXyXyXyXyXyXyXyXyXyXyXyXyXyXyXyXyXyXyXyXyXyX{ q 1 < 2 2 2 * B 3 , > . *.c.'.yXyXyXyXyXyXyXyXyXyXyXyXyXyXyXyXyXyXyXyXyXyX",
"yXyXyXyXyXyXyXyXyXyXyXyXyXyXyXyXyXyXyXyXyXyXyXyXyXyXyXyXL -.@ % % % , % = @   6 Y.yXyXyXyXyXyXyXyXyXyXyXyXyXyXyXyXyXyXyXyXyXyXyX",
"yXyXyXyXyXyXyXyXyXyXyXyXyXyXyXyXyXyXyXyXyXyXyXyXyXyXyXyXyXyXF < 2 < < 3 4 & e a Y.yXyXyXyXyXyXyXyXyXyXyXyXyXyXyXyXyXyXyXyXyXyXyX",
"yXyXyXyXyXyXyXyXyXyXyXyXyXyXyXyXyXyXyXyXyXyXyXyXyXyXyXyXyX{ @ q w 1 3 V % # a &.K.yXyXyXyXyXyXyXyXyXyXyXyXyXyXyXyXyXyXyXyXyXyXyX",
"yXyXyXyXyXyXyXyXyXyXyXyXyXyXyXyXyXyXyXyXyXyXyXyXyXyXyXyXyXP 3 < 1 5 3 3 % q a + &.K.yXyXyXyXyXyXyXyXyXyXyXyXyXyXyXyXyXyXyXyXyXyX",
"yXyXyXyXyXyXyXyXyXyXyXyXyXyXyXyXyXyXyXyXyXyXyXyXyXyXyXyX=.< , S V V G G 3 7 j f 9 &.yXyXyXyXyXyXyXyXyXyXyXyXyXyXyXyXyXyXyXyXyXyX",
"yXyXyXyXyXyXyXyXyXyXyXyXyXyXyXyXyXyXyXyXyXyXyXyXyXyXyXyXD < H C J S Q J : X b e.2.1.yXyXyXyXyXyXyXyXyXyXyXyXyXyXyXyXyXyXyXyXyXyX",
"yXyXyXyXyXyXyXyXyXyXyXyXyXyXyXyXyXyXyXyXyXyXyXyXyXyXyX-.q 3 Y T Z G O.H - u u.{.|.0XyXyXyXyXyXyXyXyXyXyXyXyXyXyXyXyXyXyXyXyXyXyX",
"yXyXyXyXyXyXyXyXyXyXyXyXyXyXyXyXyXyXyXyXyXyXyXyXyXyXyX{ L Z Q W Z T W T X l v.%X.X9XyXyXyXyXyXyXyXyXyXyXyXyXyXyXyXyXyXyXyXyXyXyX",
"yXyXyXyXyXyXyXyXyXyXyXyXyXyXyXyXyXyXyXyXyXyXyXyXyXyX;.D T / _ R Y Q _ G X t.&X3X&XeXyXyXyXyXyXyXyXyXyXyXyXyXyXyXyXyXyXyXyXyXyXyX",
"yXyXyXyXyXyXyXyXyXyXyXyXyXyXyXyXyXyXyXyXyXyXyXyXyXU.t L ~ / ' _ G J Q K o r.oX3XqXrXyXyXyXyXyXyXyXyXyXyXyXyXyXyXyXyXyXyXyXyXyXyX",
"yXyXyXyXyXyXyXyXyXyXyXyXyXyXyXyXyXyXyXyXyXyXyXyXyX;.L L T ! _ R ! J E F o g u.oX5XwXyXyXyXyXyXyXyXyXyXyXyXyXyXyXyXyXyXyXyXyXyXyX",
"yXyXyXyXyXyXyXyXyXyXyXyXyXyXeXyXyXyXyXyXyXyXyXyXL.^ A ~ Q / +.' Q T | r o g m x.oXqXyXyXyXyXyXyXyXyXyXyXyXyXyXyXyXyXyXyXyXyXyXyX",
"yXyXyXyXyXyXyXyXyXyXyXyXyXeXwXwXyXyXyXyXyXyXyX^.H ~ / / Q Y Q Q / ! ^ q O y.l.e.oX2XXXyXyXyXyXyXyXyXyXyXyXyXyXyXyXyXyXyXyXyXyXyX",
"yXyXyXyXyXyXyXyXyXyXyXyXyXyXyX1XwXyXyXyXyXyX^.~ ^ Y / Y  ./ / ] ] ] / y u _.%Xa.i.}.].yXyXyXyXyXyXyXyXyXyXyXyXyXyXyXyXyXyXyXyXyX",
"yXyXyXyXyXyXyXyXyXyXyXyXyXyXyX X1XyXyXyXyX^.A Y ( / Y / / T W ( ] ] T y k _.,X}.v v.f.yXyXyXyXyXyXyXyXyXyXyXyXyXyXyXyXyXyXyXyXyX",
"yXyXyXyXyXyXyXyXyXyXyXyXyXyXyXT.W.wXyXyX(.G W ( ~ J ( ^ ~ ( ] ] Q E | r i _.3X}.e.r.yXyXyXyXyXyXyXyXyXyXyXyXyXyXyXyXyXyXyXyXyXyX",
"yXyXyXyXyXyXyXyXyXyXyXyXyXyXyXT.f.].yXU.T Q Q W G H ~ ~ U W W W ! T J y h |.5X{.XXyXyXyXyXyXyXyXyXyXyXyXyXyXyXyXyXyXyXyXyXyXyXyX",
"yXyXyXyXyXyXyXyXyXyXyXyXyXyXyXw.c k.!.7 S Q O.` W W ( / R W W W U ^ } r p E.3X}.yXyXyXyXyXyXyXyXyXyXyXyXyXyXyXyXyXyXyXyXyXyXyXyX",
"yXyXyXyXyXyXyXyXyXyXyXyXyXyXyXyXg g f . { T R R W W ' ( Y W Q Q U ^ O.J 7 2.;XoXyXyXyXyXyXyXyXyXyXyXyXyXyXyXyXyXyXyXyXyXyXyXyXyX",
"yXyXyXyXyXyXyXyXyXyXyXyXyXyXyXyXr.j f . 1 H U U W W _ W I W Q T U Y Q / 6 <.3X{.yXyXyXyXyXyXyXyXyXyXyXyXyXyXyXyXyXyXyXyXyXyXyXyX",
"yXyXyXyXyXyXyXyXyXyXyXyXyXyXyXyXyXd.h.0.=.& G T ( / Q Y U W E U U W Q / t 3.5X}.yXyXyXyXyXyXyXyXyXyXyXyXyXyXyXyXyXyXyXyXyXyXyXyX",
"yXyXyXyXyXyXyXyXyXyXyXyXyXyXyXyXyXyXyXyXyX;.; 1 D H H Z G Y J V U / ' Q q <.oXl.yXyXyXyXyXyXyXyXyXyXyXyXyXyXyXyXyXyXyXyXyXyXyXyX",
"yXyXyXyXyXyXyXyXyXyXyXyXyXyXyXyXyXyXyXyXyXyX0.;.# # # ; 1 D D 1 H ! _ Y t *.u.v e.yXyXyXyXyXyXyXyXyXyXyXyXyXyXyXyXyXyXyXyXyXyXyX",
"yXyXyXyXyXyXyXyXyXyXyXyXyXyXyXyXyXyXyXyXyXyXyXyXK.L.K.>.> - . > q S G C 1 >.n s c yXyXyXyXyXyXyXyXyXyXyXyXyXyXyXyXyXyXyXyXyXyXyX",
"yXyXyXyXyXyXyXyXyXyXyXyXyXyXyXyXyXyXyXyXyXyXyXyXyXyXyXyX*.8 9 7   ; ; < > %.d.n u.XXrXtXyXyXyXyXyXyXyXyXyXyXyXyXyXyXyXyXyXyXyXyX",
"yXyXyXyXyXyXyXyXyXyXyXyXyXyXyXyXyXyXyXyXyXyXyXyXyXyXyXyXyXK.h.9.,.yXyXyXyXyXyXQ.c. XeXyXyXyXyXyXyXyXyXyXyXyXyXyXyXyXyXyXyXyXyXyX",
"yXyXyXyXyXyXyXyXyXyXyXyXyXyXyXyXyXyXyXyXyXyXyXyXyXyXyXyXyXyXyXyXyXyXyXyXyXyXyXyXyX<XyXyXyXyXyXyXyXyXyXyXyXyXyXyXyXyXyXyXyXyXyXyX",
"yXyXyXyXyXyXyXyXyXyXyXyXyXyXyXyXyXyXyXyXyXyXyXyXyXyXyXyXyXyXyXyXyXyXyXyXyXyXyXyXyXyXyXyXyXyXyXyXyXyXyXyXyXyXyXyXyXyXyXyXyXyXyXyX",
"yXyXyXyXyXyXyXyXyXyXyXyXyXyXyXyXyXyXyXyXyXyXyXyXyXyXyXyXyXyXyXyXyXyXyXyXyXyXyXyXyXyXyXyXyXyXyXyXyXyXyXyXyXyXyXyXyXyXyXyXyXyXyXyX",
"yXyXyXyXyXyXyXyXyXyXyXyXyXyXyXyXyXyXyXyXyXyXyXyXyXyXyXyXyXyXyXyXyXyXyXyXyXyXyXyXyXyXyXyXyXyXyXyXyXyXyXyXyXyXyXyXyXyXyXyXyXyXyXyX",
"yXyXyXyXyXyXyXyXyXyXyXyXyXyXyXyXyXyXyXyXyXyXyXyXyXyXyXyXyXyXyXyXyXyXyXyXyXyXyXyXyXyXyXyXyXyXyXyXyXyXyXyXyXyXyXyXyXyXyXyXyXyXyXyX"
};
