/* XPM */
static char *Untitled_design_removebg_preview1738178376[] = {
/* columns rows colors chars-per-pixel */
"64 64 207 2 ",
"   c #211114",
".  c #2E220C",
"X  c #362918",
"o  c #180E27",
"O  c #1C1425",
"+  c #1D152C",
"@  c #1E1829",
"#  c #191525",
"$  c #1C1633",
"%  c #1E1933",
"&  c #1D1738",
"*  c #241323",
"=  c #21162E",
"-  c #221B2C",
";  c #2A1B29",
":  c #221633",
">  c #241C34",
",  c #291C36",
"<  c #24153C",
"1  c #251C3C",
"2  c #291D3C",
"3  c #28202E",
"4  c #342626",
"5  c #31232A",
"6  c #3C2E21",
"7  c #37312B",
"8  c #252134",
"9  c #2A2535",
"0  c #26213B",
"q  c #2A223C",
"w  c #2D283C",
"e  c #30253F",
"r  c #302C3B",
"t  c #3D353C",
"y  c #393438",
"u  c #42361C",
"i  c #41343E",
"p  c #483926",
"a  c #59560C",
"s  c #5C5718",
"d  c #635B12",
"f  c #584E29",
"g  c #5D5629",
"h  c #4C423A",
"j  c #5F5230",
"k  c #544A31",
"l  c #615A24",
"z  c #706A2E",
"x  c #766A3C",
"c  c #777439",
"v  c #736C2B",
"b  c #1E1D42",
"n  c #261C43",
"m  c #2A1C43",
"M  c #2A1D4A",
"N  c #301F49",
"B  c #2C1F51",
"V  c #242042",
"C  c #2C2344",
"Z  c #2E2B45",
"A  c #2E2249",
"S  c #2F2F4C",
"D  c #322544",
"F  c #322B44",
"G  c #32254C",
"H  c #342B4C",
"J  c #392E4D",
"K  c #3B2A44",
"L  c #2F304E",
"P  c #353145",
"I  c #3A3345",
"U  c #35314D",
"Y  c #3B334C",
"T  c #3D394C",
"R  c #2D2453",
"E  c #342552",
"W  c #352B53",
"Q  c #3A2D55",
"!  c #32275A",
"~  c #3A275A",
"^  c #362C5A",
"/  c #3B2E5B",
"(  c #382751",
")  c #363352",
"_  c #3B3154",
"`  c #37315A",
"'  c #3B315B",
"]  c #333859",
"[  c #3E3A58",
"{  c #3C2C62",
"}  c #3E2A69",
"|  c #3E3361",
" . c #433C4E",
".. c #423945",
"X. c #412D5E",
"o. c #423B53",
"O. c #41345B",
"+. c #4A3B56",
"@. c #412D68",
"#. c #423462",
"$. c #44336C",
"%. c #48346C",
"&. c #463965",
"*. c #463372",
"=. c #483573",
"-. c #4D3B79",
";. c #4C3977",
":. c #503D75",
">. c #48444D",
",. c #4C4459",
"<. c #554E54",
"1. c #59545A",
"2. c #5E5B4C",
"3. c #61524D",
"4. c #62545E",
"5. c #776C48",
"6. c #74704C",
"7. c #4D4A68",
"8. c #5E596C",
"9. c #595567",
"0. c #56437B",
"q. c #5A4C77",
"w. c #4E5271",
"e. c #595571",
"r. c #554C67",
"t. c #625C6C",
"y. c #62576B",
"u. c #675F75",
"i. c #6A6473",
"p. c #6F6A7A",
"a. c #6D6678",
"s. c #736E7C",
"d. c #75717D",
"f. c #6E6968",
"g. c #82773F",
"h. c #847D42",
"j. c #857A44",
"k. c #8A823B",
"l. c #878739",
"z. c #8C814B",
"x. c #88875A",
"c. c #908D58",
"v. c #A49B5C",
"b. c #ADA35E",
"n. c #ADA457",
"m. c #B3AA5F",
"M. c #908A74",
"N. c #97956D",
"B. c #A59D67",
"V. c #A89D79",
"C. c #ABA363",
"Z. c #A9A267",
"A. c #B3AB66",
"S. c #ADA17B",
"D. c #B8B379",
"F. c #5B4A80",
"G. c #5B468B",
"H. c #5F498B",
"J. c #574286",
"K. c #5D4C90",
"L. c #614D88",
"P. c #645386",
"I. c #654E94",
"U. c #654E99",
"Y. c #655291",
"T. c #736F82",
"R. c #7A778C",
"E. c #7D7A8B",
"W. c #787584",
"Q. c #7E7990",
"!. c #857E95",
"~. c #8B7EA4",
"^. c #8D7FA8",
"/. c #927EBA",
"(. c #8C8695",
"). c #8B8897",
"_. c #978F99",
"`. c #B6AF84",
"'. c #AFAC9B",
"]. c #BDBA9B",
"[. c #9588AD",
"{. c #9786B7",
"}. c #9A92A5",
"|. c #A19DAC",
" X c #A6A2A1",
".X c #AEA8BC",
"XX c #B2ACBA",
"oX c #C1C387",
"OX c #C1C19B",
"+X c #D6D795",
"@X c #DFE09C",
"#X c #C8C7A4",
"$X c #CDCABD",
"%X c #D0CDBC",
"&X c #E6E6AB",
"*X c #ECF0B3",
"=X c #F0F2BC",
"-X c #F7FBB7",
";X c #9885C3",
":X c #9D90C6",
">X c #A18CC6",
",X c #A08BCB",
"<X c #A195C5",
"1X c #B4ADC0",
"2X c #F9F9D6",
"3X c #F0F0CD",
"4X c None",
/* pixels */
"4X4X4X4X4X4X4X4X4X4X4X4X4X4X4X4X4X4X4X4X4X4X4X4X4X4X4X4X4X4X4X4X4X4X4X4X4X4X4X4X4X4X4X4X4X4X4X4X4X4X4X4X4X4X4X4X4X4X4X4X4X4X4X4X",
"4X4X4X4X4X4X4X4X4X4X4X4X4X4X4X4X4X4X4X4X4X4X4X4X4X4X4X4X4X4X4X4X4X4X4X4X4X4X4X4X4X4X4X4X4X4X4X4X4X4X4X4X4X4X4X4X4X4X4X4X4X4X4X4X",
"4X4X4X4X4X4X4X4X4X4X4X4X4X4X4X4X4X4X4X4X4X4X4X4X4X4X4X4X4X4X4X4X4X4X4X4X4X4X4X4X4X4X4X4X4X4X4X4X4X4X4X4X4X4X4X4X4X4X4X4X4X4X4X4X",
"4X4X4X4X4X4X4X4X4X4X4X4X4X4X4X4X4X4X4X4X4X4X4X4X4X4X4X4X4X4X4X4X4X4X4X4X4X4X4X4X4X4X4X4X4X4X4X4X4X4X4X4X4X4X4X4X4X4X4X4X4X4X4X4X",
"4X4X4X4X4X4X4X4X4X4X4X4X4X4X4X4X~./.4X4X4X4X4X4X4X4X4X4X4X4X4X4X4X4X4X4X4X4X4X4X4X4X}.!.4X4X4X4X4X4X4X4X4X4X4X4X4X4X4X4X4X4X4X4X",
"4X4X4X4X4X4X4X4X4X4X4X4X4X4X4X.XE 0.{.4X4X4X4X4X4X4X4X4X4X4X4X4X4X4X4X4X4X4X4X4X4X{.q.D 4X4X4X4X4X4X4X4X4X4X4X4X4X4X4X4X4X4X4X4X",
"4X4X4X4X4X4X4X4X4X4X4X4X4X4X4Xa.G %.0.{.4X4X4X4X4X4X4X4X4X4X4X4X4X4X4X4X4X4X4X4X{.q.&.G u.4X4X4X4X4X4X4X4X4X4X4X4X4X4X4X4X4X4X4X",
"4X4X4X4X4X4X4X4X4X4X4X4X4X4X4X2 / { :.P.^.4X4X4X4X4X4X4X4X4X4X4X4X4X4X4X4X4X4X{.Y.-.~ _ , 4X4X4X4X4X4X4X4X4X4X4X4X4X4X4X4X4X4X4X",
"4X4X4X4X4X4X4X4X4X4X4X4X4X4XXX, ' { $.F.q.^.4X4X4X4X4X4X4X4X4X4X4X4X4X4X4X4X/.L.G.=.@./ 2 4X4X4X4X4X4X4X4X4X4X4X4X4X4X4X4X4X4X4X",
"4X4X4X4X4X4X4X4X4X4X4X4X4X4X8.1 ~ @.{ =.F.P.[.4X4X4X4X4X4X4X4X4X4X4X4X4X4X{.H.H.*.} { ~ V r.4X4X4X4X4X4X4X4X4X4X4X4X4X4X4X4X4X4X",
"4X4X4X4X4X4X4X4X4X4X4X4X4X4X@ C #.{ { ~ :.0.G.;X,X,X>X>X>X>X>X>X{.<X,X:X/.I.J.=./ X./ Q D # 4X4X4X4X4X4X4X4X4X4X4X4X4X4X4X4X4X4X",
"4X4X4X4X4X4X4X4X4X4X4X4X4X4Xo F / ! #./ ~ =.-.J.U.U.I.I.I.I.I.U.Y.Y.K.I.K.*.%./ X.O.Q J D # 4X4X4X4X4X4X4X4X4X4X4X4X4X4X4X4X4X4X",
"4X4X4X4X4X4X4X4X4X4X4X4X4X4X+ C Q ' _ Q ' | { $.=.=.%.%.%.%.%.%.=.} $.-.} { / ' Q Q _ W Z , 4X4X4X4X4X4X4X4X4X4X4X4X4X4X4X4X4X4X",
"4X4X4X4X4X4X4X4X4X4X4X4X4X4Xo D _ O.H H ' Q / / { / / / / / / { $.| #.{ ^ #.Q ^ Q H ' Q A @ 4X4X4X4X4X4X4X4X4X4X4X4X4X4X4X4X4X4X",
"4X4X4X4X4X4X4X4X4X4X4X4X4X4X+ C C Q / W M E O.' / / / / ' / / / / ~ ' Q Q J W ' ! R ^ ^ Z @ 4X4X4X4X4X4X4X4X4X4X4X4X4X4X4X4X4X4X",
"4X4X4X4X4X4X4X4X4X4X4X4X4X4X: < m A M M ~ Q Q Q / / / / { ^ ' / | { O.H _ _ ' ! B R M A , @ 4X4X4X4X4X4X4X4X4X4X4X4X4X4X4X4X4X4X",
"4X4X4X4X4X4X4X4X4X4X4X4X4X4X8 8 1 V G W ~ ' / / / / / / / / ' / / / / Q ' / ' ^ ~ E n 1 q - 4X4X4X4X4X4X4X4X4X4X4X4X4X4X4X4X4X4X",
"4X4X4X4X4X4X4X4X4X4X4X4X4X4X4X@ 1 D W Q Q / ' / / / / / / / Q / / / / / / / { { | G G C o 4X4X4X4X4X4X4X4X4X4X4X4X4X4X4X4X4X4X4X",
"4X4X4X4X4X4X4X4X4X4X4X4X4X4X4Xo A W _ ' / / / ' ^ ' Q / / / ' ' _ / ' ' / ' / / / ' W A 2 4X4X4X4X4X4X4X4X4X4X4X4X4X4X4X4X4X4X4X",
"4X4X4X4X4X4X4X4X4X4X4X4X4X4X4X, H Q ' ' Q _ / / ' / ' ' ' / / ^ ' / Q ' ^ / / / / ^ _ W , 4X4X4X4X4X4X4X4X4X4X4X4X4X4X4X4X4X4X4X",
"4X4X4X4X4X4X4X4X4X4X4X4X4X4XF J _ ' ` ' ' ^ ` ^ ^ ' ` ` ` ' ` _ ` ` _ ` ` ^ ' / ! ' ' _ H Z 4X4X4X4X4X4X4X4X4X4X4X4X4X4X4X4X4X4X",
"4X4X4X4X4X4X4X4X4X4X4X4X4X4X, Q Q ' ` ^ ^ ' ' ` ` ^ ^ ' ` ` Q / ` Q / ` ' ` ^ ` ` ^ ` W [ q 4X4X4X4X4X4X4X4X4X4X4X4X4X4X4X4X4X4X",
"4X4X4X4X4X4X4X4X4X4X4X4X4X2 D Q ^ ' / ^ / | / / / ' ' Q Q / / Q ' ' / _ ' Q ' / | ' ^ _ G J 2 4X4X4X4X4X4X4X4X4X4X4X4X4X4X4X4X4X",
"4X4X4X4X4X4X4X4X4X4X4X4X, , m D ^ Q ' { / / ' / / / / / / ' / Q / ^ / / / Q / / ^ ' E _ G 1 q > 4X4X4X4X4X4X4X4X4X4X4X4X4X4X4X4X",
"4X4X4X4X4X4X4X4X4X4X4X9 > q 2 m G E Q / Q X.X./ X./ X./ X./ / / / ' X./ / / X.Q Q G E M < m 2 , 3 4X4X4X4X4X4X4X4X4X4X4X4X4X4X4X",
"4X4X4X4X4X4X4X4X4X4X<.@ - , 2 m < G N G / ( E / / Q / / / / X./ / Q ( / Q ( G G M m n m N 2 D = @ >.4X4X4X4X4X4X4X4X4X4X4X4X4X4X",
"4X4X4X4X4X4X4X4X4X4X4X1. .> > 1 2 m 2 m m < E ' Q ~ Q Q ( ( W ~ ~ / ~ ( < m m m D < m 2 , : = ,.1.4X4X4X4X4X4X4X4X4X4X4X4X4X4X4X",
"4X4X4X4X4X4X4X4X4X4X4X4X4Xy.,.= q , 2 : C m 2 < m m m m m n m n M < < D 2 2 , e : D 2 : 2 +.y.4X4X4X4X4X4X4X4X4X4X4X4X4X4X4X4X4X",
"4X4X4X4X4X4X4X4X4X4X4X4X4X4X4Xi. .* 8 - = , q 0 < 1 n 1 n n n C m C V 1 , q : - = , O >.t.4X4X4X4X4X4X4X4X4X4X4X4X4X4X4X4X4X4X4X",
"4X4X4X4X4X4X4X4X4X4X4X4X4X4X4X4X4Xd.i.d.a.T @ + q 2 1 0 n 1 1 V 1 2 V % : - I p.d.p.s.4X4X4X4X4X4X4X4X4X4X4X4X4X4X4X4X4X4X4X4X4X",
"4X4X4X4X4X4X4X4X4X4X4X4X4X4X4X4X4X4X4X4X4X4XT.R.q 8 % % & % $ & n $ $ P d.E.4X4X4X4X4X4X4X4X4X4X4X4X4X4X4X4X4X4X4X4X4X4X4X4X4X4X",
"4X4X4X4X4X4X4X4X4X4X4X4X4X4X4X4X4X4X4X4X4X4X4XXXY F Z Z U S S U Z ) Z P XX4X4X4X4X4X4X4X4X4X4X4X4X4X4X4X4X4X4X4X4X4X4X4X4X4X4X4X",
"4X4X4X4X4X4X4X4X4X4X4X4X4X4X4X4X4X4X4X4X4X4XXXY 0 P [ 7.w.w.w.w.7.o.H 8 Y  X4X4X4X4X4X4X4X4X4X4X4X4X4X4X4X4X4X4X4X4X4X4X4X4X4X4X",
"4X4X4X4X4X4X4X4X4X4X4X4X4X4X4X4X4X4X4X4X4X4XY , % & Z L ` ] ] ` ` 1 1 q , _ |.4X4X4X4X4X4X4X4X4X4X4X4X4X4X4X4X4X4X4X4X4X4X4X4X4X",
"4X4X4X4X4X4X4X4X4X4X4X4X4X4X4X4X4X4X4X4X4X .q 2 V V V n V b b b n n n n 1 % T 4X4X4X4X4X4X4X4X4X4X4X4X4X4X4X4X4X4X4X4X4X4X4X4X4X",
"4X4X4X4X4X4X4X4X4X4X4X4X4X4X4X4X4X4X4X4XW.+ 2 : m 1 1 n n n n n n B M 1 C m & a.4X4X4X4X4X4X4X4X4X4X4X4X4X4X4X4X4X4X4X4X4X4X4X4X",
"4X4X4X4X4X4X4X4X4X4X4X4X4X4X4X4X4X4X4X4Xo.D D Q m m M m 2 m m n M B m m A W C ,.4X4X4X4X4X4X4X4X4X4X4X4X4X4X4X4X4X4X4X4X4X4X4X4X",
"4X4X4X4X4X4X4X4X4X4X4X4X4X4X4X4X4X4X4XE.q _ O.Q Q Q ( N m m m m B ! F H E ' ` & d.4X4X4X4X4X4X4X4X4X4X4X4X4X4X4X4X4X4X4X4X4X4X4X",
"4X4X4X4X4X4X4X4X4X4X4X4X4X4X4X4X4X4X4XT o.G / / X./ ~ ( ( ( H Q W W I Y Q W ' ` Y 4X4X4X4X4X4X4X4X4X4X4X4X4X4X4X4X4X4X4X4X4X4X4X",
"4X4X4X4X4X4X4X4X4X4X4X4X4X4X4X4X4X4X(.q H Q #.( Q X./ X.Q O.X.Q J Y t y  .' ^ ' w d.4X4X4X4X4X4X4X4X4X4X4X4X4X4X4X4X4X4X4X4X4X4X",
"4X4X4X4X4X4X4X4X4X4X4X4X4X4X4X4X4X4XT Y _ / / { ` ^ / / / ' Q _ I y.%X'.>._ / | ) P 4X4X4X4X4X4X4X4X4X4X4X4X4X4X4X4X4X4X4X4X4X4X",
"4X4X4X4X4X4X4X4X4X4X4X4X4X4X4X4X4X}.> D [ ' ^ | { { / ` ^ ` ^ Y 1.$X2X2X XD { { H Z E.4X4X4X4X4X4X4X4X4X4X4X4X4X4X4X4X4X4X4X4X4X",
"4X4X4X4X4X4X4X4X4X4X4X4X4X4X4X4X4X!.D H ' ' ^ / | ^ / ` ` ` ` ) 9.3X=X3X$XI ' { / 1 Q.4X4X4X4X4X4X4X4X4X4X4X4X4X4X4X4X4X4X4X4X4X",
"4X4X4X4X4X4X4X4X4X4X4X4X4X4X4X4X4XF D _ ' ' ^ ^ ^ ` ` ` ` ` ` ) >.'.*X-X#XI W | ' F C 4X4X4X4X4X4X4X4X4X4X4X4X4X4X4X4X4X4X4X4X4X",
"4X4X4X4X4X4X4X4X4X4X4X4X4X4X4X4X).$ H _ ^ W ^ | ' / ^ ` ' ^ / Q I 2.oX-X#Xt ' ^ W R & R.4X4X4X4X4X4X4X4X4X4X4X4X4X4X4X4X4X4X4X4X",
"4X4X4X4X4X4X4X4X4X4X4X4X4X4X4X4XD 1 D ' ' ' ^ ^ / ' ' / / / / Q o.3.&X-XOX7 W | ' Q b Z ).4X4X4X4X4X4X4X4X4X4X4X4X4X4X4X4X4X4X4X",
"4X4X4X4X4X4X4X4X4X4X4X4X4X4X4X9 & W _ ) ! ^ ' ' / Q / / / / { / Q <.=X-X#Xh S ^ W ' H 1 9 _.4X4X4X4X4X4X4X4X4X4X4X4X4X4X4X4X4X4X",
"4X4X4X4X4X4X4X4X4X4X4X4X4X4Xw w _ R ' ` ` / ' ' ' / Q / / / / #./ 4.=X-X+X7 H / | ' ! H 8 q 4X4X4X4X4X4X4X4X4X4X4X4X4X4X4X4X4X4X",
"4X4X4X4X4X4X4X4X4X4X4X4X4XH H H ' ' / ' ' ^ ' ' ! ` _ _ Q / { { ~ 4.&X-XOXy H ! ` | ^ / Y e e 4X4X4X4X4X4X4X4X4X4X4X4X4X4X4X4X4X",
"4X4X4X4X4X4X4X4X4X4X4Xq Z D _ #.~ | ' ' ` ^ ^ ^ A ` ) W Q O.{ Q +.3.D.&XOXy ' ^ ^ ' ! O._ J ( N : 4X4X4X4X4X4X4X4X4X4X4X4X4X4X4X",
"4X4X4X4X4X4X4X4X4Xr 8 F _ ' ' ^ ~ ' / W H _ _ W ! / #./ X.( ( K p `.A.Z.M.i H | ` ^ Q / _ J #./ ) % 8 4X4X4X4X4X4X4X4X4X4X4X4X4X",
"4X4X4X4X4X4X4X4Xy P F _ H Q W | ' / E F H _ J W / { ~ { X.N ; X j B.A.B.f...Q ~ Z H O.H H _ / W ` T P 9 4X4X4X4X4X4X4X4X4X4X4X4X",
"4X4X4X4X4X4X4Xi.w 9 F Z H / &.! O.H H _ _ Q ( ( ~ { @.X.e ; X j B.B.B.5.i ( X.Q W H W ` A D #.^ ) U Z w t.4X4X4X4X4X4X4X4X4X4X4X",
"4X4X4X4X4X4X4X4Xd.8., 0 C D ' W Q H H _ Q G G N ~ ~ X.D 5 u l v.C.C.j.. ; ~ ( O.O.H A ) Y H A ^ 1 U 9.W.4X4X4X4X4X4X4X4X4X4X4X4X",
"4X4X4X4X4X4X4X4X4X4XT.e.0 V A U C A F W D D 2 2 D , *   p x g.n.A.v.x X * : m G C S R n U P + : 8.Q.4X4X4X4X4X4X4X4X4X4X4X4X4X4X",
"4X4X4X4X4X4X4X4X4X4X4X4X4X8.% % 1 1 n 1 2 , , ; * 4 6 u x B.n.m.n.b.g.f 4 * D 1 m C & 1 % # t.E.4X4X4X4X4X4X4X4X4X4X4X4X4X4X4X4X",
"4X4X4X4X4X4X4X4X4X4X4X4X4X4X4X4Xe.& & + 2 O r 7 X f l d j.j.z.h.g.g.d l f 4 3 = @ > $ e.(.(.4X4X4X4X4X4X4X4X4X4X4X4X4X4X4X4X4X4X",
"4X4X4X4X4X4X4X4X4X4X4X4X4X4X4X4X4X4X4X4X4X4X4X6.g l a a a z V.S.v k.k.c 5.4X_.(._.(.).4X4X4X4X4X4X4X4X4X4X4X4X4X4X4X4X4X4X4X4X4X",
"4X4X4X4X4X4X4X4X4X4X4X4X4X4X4X4X4X4X4X4X4X4X4X4X6.c l.l.z `.4X4XD.j.g.c.4X4X4X4X4X4X4X4X4X4X4X4X4X4X4X4X4X4X4X4X4X4X4X4X4X4X4X4X",
"4X4X4X4X4X4X4X4X4X4X4X4X4X4X4X4X4X4X4X4X4X4X4X4Xx.oX@X+X6.4X4X4X4X4X4X4X4X4X4X4X4X4X4X4X4X4X4X4X4X4X4X4X4X4X4X4X4X4X4X4X4X4X4X4X",
"4X4X4X4X4X4X4X4X4X4X4X4X4X4X4X4X4X4X4X4X4X4X4X4X4XN.c.N.4X4X4X4X4X4X4X4X4X4X4X4X4X4X4X4X4X4X4X4X4X4X4X4X4X4X4X4X4X4X4X4X4X4X4X4X",
"4X4X4X4X4X4X4X4X4X4X4X4X4X4X4X4X4X4X4X4X4X4X4X4X4X4X4X4X4X4X4X4X4X4X4X4X4X4X4X4X4X4X4X4X4X4X4X4X4X4X4X4X4X4X4X4X4X4X4X4X4X4X4X4X",
"4X4X4X4X4X4X4X4X4X4X4X4X4X4X4X4X4X4X4X4X4X4X4X4X4X4X4X4X4X4X4X4X4X4X4X4X4X4X4X4X4X4X4X4X4X4X4X4X4X4X4X4X4X4X4X4X4X4X4X4X4X4X4X4X",
"4X4X4X4X4X4X4X4X4X4X4X4X4X4X4X4X4X4X4X4X4X4X4X4X4X4X4X4X4X4X4X4X4X4X4X4X4X4X4X4X4X4X4X4X4X4X4X4X4X4X4X4X4X4X4X4X4X4X4X4X4X4X4X4X"
};
