/* XPM */
static char *result[] = {
/* columns rows colors chars-per-pixel */
"64 64 203 2 ",
"   c #261917",
".  c #261D0E",
"X  c #2F211E",
"o  c #392F1B",
"O  c #1F172E",
"+  c #1D192D",
"@  c #1E1633",
"#  c #1F1A31",
"$  c #1E143C",
"%  c #1C0D24",
"&  c #231423",
"*  c #211A2D",
"=  c #20132F",
"-  c #201634",
";  c #241C34",
":  c #291E35",
">  c #23163B",
",  c #241B3C",
"<  c #2A1D3D",
"1  c #301F31",
"2  c #29202C",
"3  c #25222D",
"4  c #332428",
"5  c #262134",
"6  c #2A2334",
"7  c #2D2A33",
"8  c #26213C",
"9  c #2B233C",
"0  c #2E2A3C",
"q  c #30253B",
"w  c #332C3D",
"e  c #302136",
"r  c #3A333C",
"t  c #42341B",
"y  c #483D29",
"u  c #41343B",
"i  c #595015",
"p  c #6E6717",
"a  c #564E28",
"s  c #595526",
"d  c #5A4D33",
"f  c #55533A",
"g  c #47403A",
"h  c #615834",
"j  c #655D2C",
"k  c #6C6526",
"l  c #766D20",
"z  c #656131",
"x  c #7B7225",
"c  c #1B1E41",
"v  c #251C42",
"b  c #2A1D44",
"n  c #2D1E49",
"m  c #311E4B",
"M  c #2A1E50",
"N  c #1F2245",
"B  c #252244",
"V  c #2C2243",
"C  c #2D224B",
"Z  c #2E2940",
"A  c #322545",
"S  c #332C43",
"D  c #3A2D46",
"F  c #32244C",
"G  c #342B4C",
"H  c #382D4C",
"J  c #353145",
"K  c #3B3445",
"L  c #3E3943",
"P  c #36314C",
"I  c #3C344B",
"U  c #3E3A4A",
"Y  c #2E2151",
"T  c #332653",
"R  c #352B54",
"E  c #3A2D55",
"W  c #362B5A",
"Q  c #3A2E5B",
"!  c #372758",
"~  c #3C3154",
"^  c #3F3953",
"/  c #37305A",
"(  c #3D315B",
")  c #373051",
"_  c #3C2C63",
"`  c #3E2E6B",
"'  c #372F60",
"]  c #3F3262",
"[  c #423B45",
"{  c #40334D",
"}  c #423D4E",
"|  c #46394A",
" . c #402E5C",
".. c #41345C",
"X. c #443A55",
"o. c #402D64",
"O. c #402E6B",
"+. c #423562",
"@. c #45336A",
"#. c #473A66",
"$. c #4C3B76",
"%. c #4A3776",
"&. c #523E7C",
"*. c #523F77",
"=. c #3E4562",
"-. c #4D4446",
";. c #5A5448",
":. c #494355",
">. c #45425A",
",. c #4B4556",
"<. c #514B58",
"1. c #57545F",
"2. c #534A41",
"3. c #61574C",
"4. c #7B7443",
"5. c #7D7956",
"6. c #4C4462",
"7. c #454C6C",
"8. c #474A68",
"9. c #544C61",
"0. c #584F65",
"q. c #5B5463",
"w. c #5C546A",
"e. c #595567",
"r. c #4B4F72",
"t. c #54427D",
"y. c #57467D",
"u. c #535176",
"i. c #645C74",
"p. c #64616C",
"a. c #6C6474",
"s. c #6C667A",
"d. c #747279",
"f. c #837744",
"g. c #847B53",
"h. c #80777C",
"j. c #837862",
"k. c #86825C",
"l. c #8A8356",
"z. c #9A9354",
"x. c #92915B",
"c. c #938C52",
"v. c #A69A4B",
"b. c #A4995A",
"n. c #ACA55A",
"m. c #B3A45A",
"M. c #989363",
"N. c #9F9772",
"B. c #A59969",
"V. c #A39A7D",
"C. c #AAA56A",
"Z. c #B3A66A",
"A. c #AAA57C",
"S. c #BAB978",
"D. c #523E82",
"F. c #5B4B82",
"G. c #584385",
"H. c #5F5089",
"J. c #624F8B",
"K. c #625084",
"L. c #63508B",
"P. c #685D85",
"I. c #624E91",
"U. c #6C5C94",
"Y. c #716C82",
"T. c #7D7B8A",
"R. c #6E6094",
"E. c #77679C",
"W. c #7F6DA5",
"Q. c #837F8E",
"!. c #867D9B",
"~. c #887AA3",
"^. c #8F7DAD",
"/. c #8E8587",
"(. c #8A8497",
"). c #888396",
"_. c #A59C9D",
"`. c #9A96A0",
"'. c #AAA5B4",
"]. c #B1ADB7",
"[. c #BAB4BE",
"{. c #C1BE9C",
"}. c #C2BE91",
"|. c #CECBAC",
" X c #CDCEA5",
".X c #CFCBB2",
"XX c #D7D4B2",
"oX c #EFF3B8",
"OX c #F5F7BC",
"+X c #F7F8BE",
"@X c #E6E7B0",
"#X c #9481C0",
"$X c #BBB8C3",
"%X c #C0BDC8",
"&X c #C3B4E8",
"*X c #E4DFCB",
"=X c #EEEBC5",
"-X c #E8E6C0",
";X c #FAFACA",
":X c #F7FAC2",
">X c #FFFDD4",
",X c #EEE8D8",
"<X c None",
/* pixels */
"<X<X<X<X<X<X<X<X<X<X<X<X<X<X<X<X<X<X<X<X<X<X<X<X<X<X<X<X<X<X<X<X<X<X<X<X<X<X<X<X<X<X<X<X<X<X<X<X<X<X<X<X<X<X<X<X<X<X<X<X<X<X<X<X",
"<X<X<X<X<X<X<X<X<X<X<X<X<X<X<X<X<X<X<X<X<X<X<X<X<X<X<X<X<X<X<X<X<X<X<X<X<X<X<X<X<X<X<X<X<X<X<X<X<X<X<X<X<X<X<X<X<X<X<X<X<X<X<X<X",
"<X<X<X<X<X<X<X<X<X<X<X<X<X<X<X<X<X<X<X<X<X<X<X<X<X<X<X<X<X<X<X<X<X<X<X<X<X<X<X<X<X<X<X<X<X<X<X<X<X<X<X<X<X<X<X<X<X<X<X<X<X<X<X<X",
"<X<X<X<X<X<X<X<X<X<X<X<X<X<X<X<X<X<X<X<X<X<X<X<X<X<X<X<X<X<X<X<X<X<X<X<X<X<X<X<X<X<X<X<X<X<X<X<X<X<X<X<X<X<X<X<X<X<X<X<X<X<X<X<X",
"<X<X<X<X<X<X<X<X<X<X<X<X<X<X<X<X<X<X<X<X<X<X<X<X<X<X<X<X<X<X<X<X<X<X<X<X<X<X<X<X<X<X<X!.<X<X<X<X<X<X<X<X<X<X<X<X<X<X<X<X<X<X<X<X",
"<X<X<X<X<X<X<X<X<X<X<X<X<X<X<X<XQ F.!.<X<X<X<X<X<X<X<X<X<X<X<X<X<X<X<X<X<X<X<X<X<X<XP.6.w.<X<X<X<X<X<X<X<X<X<X<X<X<X<X<X<X<X<X<X",
"<X<X<X<X<X<X<X<X<X<X<X<X<X<X<X<XY O.K.~.<X<X<X<X<X<X<X<X<X<X<X<X<X<X<X<X<X<X<X<X<XR.G.W X.<X<X<X<X<X<X<X<X<X<X<X<X<X<X<X<X<X<X<X",
"<X<X<X<X<X<X<X<X<X<X<X<X<X<X<XS ! O.O.i.^.<X<X<X<X<X<X<X<X<X<X<X<X<X<X<X<X<X<X<XR.G.` ' E 0.<X<X<X<X<X<X<X<X<X<X<X<X<X<X<X<X<X<X",
"<X<X<X<X<X<X<X<X<X<X<X<X<X<X<X9  . .o.y.K.~.<X<X<X<X<X<X<X<X<X<X<X<X<X<X<X<X<XU.J.D.` _ F 9.<X<X<X<X<X<X<X<X<X<X<X<X<X<X<X<X<X<X",
"<X<X<X<X<X<X<X<X<X<X<X<X<X<X<XS F  .@.%.t.K.^.<X<X<X<X<X<X<X<X<X<X<X<X<X<X<XE.J.D.` _ @.F ^ <X<X<X<X<X<X<X<X<X<X<X<X<X<X<X<X<X<X",
"<X<X<X<X<X<X<X<X<X<X<X<X<X<Xw :  .!  .! %.G.G.#X<X<X<X<X<X<X<X<X<X<X<X<X&X~.&.&._ @.Y T E O q.<X<X<X<X<X<X<X<X<X<X<X<X<X<X<X<X<X",
"<X<X<X<X<X<X<X<X<X<X<X<X<X<X* q { !  .E  .%.G.G.I.J.K.K.K.L.I.J.J.y.U.L.J.$.y.O._ +.( ) J : 1.<X<X<X<X<X<X<X<X<X<X<X<X<X<X<X<X<X",
"<X<X<X<X<X<X<X<X<X<X<X<X<X<X: 9 H ( E Q Q _ O.%.D.&.&.&.*.*.D.D.G.$.t.$.$.@.@.Q ! E ) H S 5 e.<X<X<X<X<X<X<X<X<X<X<X<X<X<X<X<X<X",
"<X<X<X<X<X<X<X<X<X<X<X<X<X<X7 : ~ ~ E E  .W _ _ O._ o._ _ o._ o._ ' W o.@._ Q Q Q ....~ D ; 9.<X<X<X<X<X<X<X<X<X<X<X<X<X<X<X<X<X",
"<X<X<X<X<X<X<X<X<X<X<X<X<X<Xq : F R ( W C R ~ ( Q _ _ _ _  .~ Q E R Q Q E Q Q W ! n R ( V + w.<X<X<X<X<X<X<X<X<X<X<X<X<X<X<X<X<X",
"<X<X<X<X<X<X<X<X<X<X<X<X<X<X3 9 B T C C C F ~ ) E Q Q _ Q Q E ) E ( ~ R ( Q Q Q M T n C V 5 <.<X<X<X<X<X<X<X<X<X<X<X<X<X<X<X<X<X",
"<X<X<X<X<X<X<X<X<X<X<X<X<X<X7 : , v C F T E ~ Q Q Q ' Q Q ' ( Q Q Q Q W Q Q Q ' R T C < ; * q.<X<X<X<X<X<X<X<X<X<X<X<X<X<X<X<X<X",
"<X<X<X<X<X<X<X<X<X<X<X<X<X<X<X* ; V G H E Q ~ Q ( W Q ' Q Q / / ' Q Q ( Q Q Q Q +.R V 8 : I <X<X<X<X<X<X<X<X<X<X<X<X<X<X<X<X<X<X",
"<X<X<X<X<X<X<X<X<X<X<X<X<X<X<X5 , F E ( ( Q Q Q W ( W ( Q Q W W ( Q ( W Q Q Q Q W ( ~ F 9 <.<X<X<X<X<X<X<X<X<X<X<X<X<X<X<X<X<X<X",
"<X<X<X<X<X<X<X<X<X<X<X<X<X<X<X9 F E ( ( Q W ( ( ( Q ~ / Q ( / ( / W ~ W Q ( ~ Q ( ( R F A w.<X<X<X<X<X<X<X<X<X<X<X<X<X<X<X<X<X<X",
"<X<X<X<X<X<X<X<X<X<X<X<X<X<Xw.S E  .Q Q Q Q Q ( ~ ( W ( W ( Q / ~ / / / / / / / W R ~ ( H S <X<X<X<X<X<X<X<X<X<X<X<X<X<X<X<X<X<X",
"<X<X<X<X<X<X<X<X<X<X<X<X<X<XS H ~ Q Q Q Q Q Q E W ( ( W ~ W ~ ( W / / / / / / Q ( W ( ( H A w.<X<X<X<X<X<X<X<X<X<X<X<X<X<X<X<X<X",
"<X<X<X<X<X<X<X<X<X<X<X<X<X9.8 E E Q Q Q Q ] Q W W Q W ( ( W ~ W Q / / / W / Q Q ] ( ~ T { E H <X<X<X<X<X<X<X<X<X<X<X<X<X<X<X<X<X",
"<X<X<X<X<X<X<X<X<X<X<X<Xw.9 > F E Q ' Q Q Q Q Q ] W ( ~ W ( Q ~ ' / W ( ( Q Q Q W W ] ~ E b < q <X<X<X<X<X<X<X<X<X<X<X<X<X<X<X<X",
"<X<X<X<X<X<X<X<X<X<X<X1.: : V v C W Q W Q Q Q Q W W ( Q ( ( R ] Q Q Q Q Q ..Q Q Q !  .n n b < : 7 <X<X<X<X<X<X<X<X<X<X<X<X<X<X<X",
"<X<X<X<X<X<X<X<X<X<Xa.5 9 @ V v b v T R R W R ( ] ( Q W ~ ( ( W W ] _ ..T Q E T F m n n > < b : 3 7 <X<X<X<X<X<X<X<X<X<X<X<X<X<X",
"<X<X<X<X<X<X<X<X<X<X<X:.6 9 @ < < V C V C C C Q R T Q Q T ! ( ! o.! F Q m m m A > F > < b b = : 7 d.<X<X<X<X<X<X<X<X<X<X<X<X<X<X",
"<X<X<X<X<X<X<X<X<X<X<X<X<X:.S O @ Z $ ; < v V v C C C C C b C n n n m V < < b - b @ V , 1 : w a.<X<X<X<X<X<X<X<X<X<X<X<X<X<X<X<X",
"<X<X<X<X<X<X<X<X<X<X<X<X<X<X<X:.J # : 5 : ; - V V V > > b v v v n F v < > , : : ; 9 * : S q.<X<X<X<X<X<X<X<X<X<X<X<X<X<X<X<X<X<X",
"<X<X<X<X<X<X<X<X<X<X<X<X<X<X<X<X<XU w U w I ; - @ < V , 8 V , v > V $ ; ; q ; J J U K p.<X<X<X<X<X<X<X<X<X<X<X<X<X<X<X<X<X<X<X<X",
"<X<X<X<X<X<X<X<X<X<X<X<X<X<X<X<X<X<X<X<X<X'.I } S @ < , > < > , , - ; 9 U S q.<X<X<X<X<X<X<X<X<X<X<X<X<X<X<X<X<X<X<X<X<X<X<X<X<X",
"<X<X<X<X<X<X<X<X<X<X<X<X<X<X<X<X<X<X<X<X<X<X<X<XY.5 # , # 8 $ 8 , > , ; '.<X<X<X<X<X<X<X<X<X<X<X<X<X<X<X<X<X<X<X<X<X<X<X<X<X<X<X",
"<X<X<X<X<X<X<X<X<X<X<X<X<X<X<X<X<X<X<X<X<X<X<X).8 J >.8.r.7.7.r.u.6.>.9 0 $X<X<X<X<X<X<X<X<X<X<X<X<X<X<X<X<X<X<X<X<X<X<X<X<X<X<X",
"<X<X<X<X<X<X<X<X<X<X<X<X<X<X<X<X<X<X<X<X<X<X(.: # 5 8 P =.7.7.7.=.B B 8 7 0 %X<X<X<X<X<X<X<X<X<X<X<X<X<X<X<X<X<X<X<X<X<X<X<X<X<X",
"<X<X<X<X<X<X<X<X<X<X<X<X<X<X<X<X<X<X<X<X<X(.; , B 8 , c B B c c B , B $ , ; 7 [.<X<X<X<X<X<X<X<X<X<X<X<X<X<X<X<X<X<X<X<X<X<X<X<X",
"<X<X<X<X<X<X<X<X<X<X<X<X<X<X<X<X<X<X<X<X].* 8 ; , 8 b v c v v b v B v C v , 6 L <X<X<X<X<X<X<X<X<X<X<X<X<X<X<X<X<X<X<X<X<X<X<X<X",
"<X<X<X<X<X<X<X<X<X<X<X<X<X<X<X<X<X<X<X<X).O A B C C b b b v b v < n v c Y B F 0 ].<X<X<X<X<X<X<X<X<X<X<X<X<X<X<X<X<X<X<X<X<X<X<X",
"<X<X<X<X<X<X<X<X<X<X<X<X<X<X<X<X<X<X<X<X; X.~ E F F n b b m n b b v Y T Y Y / I [ <X<X<X<X<X<X<X<X<X<X<X<X<X<X<X<X<X<X<X<X<X<X<X",
"<X<X<X<X<X<X<X<X<X<X<X<X<X<X<X<X<X<X<XQ.9 ) F .. . . .T m m m F F A ..Q Q Q Q F I '.<X<X<X<X<X<X<X<X<X<X<X<X<X<X<X<X<X<X<X<X<X<X",
"<X<X<X<X<X<X<X<X<X<X<X<X<X<X<X<X<X<X<X# P ( ..!  .!  . .Q  . .Q ! #.D S ~ ( Q ~ F } <X<X<X<X<X<X<X<X<X<X<X<X<X<X<X<X<X<X<X<X<X<X",
"<X<X<X<X<X<X<X<X<X<X<X<X<X<X<X<X<X<XT.5 P ( ( ( Q _ Q Q Q Q Q Q Q { [ h./.X.E Q T I '.<X<X<X<X<X<X<X<X<X<X<X<X<X<X<X<X<X<X<X<X<X",
"<X<X<X<X<X<X<X<X<X<X<X<X<X<X<X<X<X<X+ H ~ T W ] ' ' Q Q Q Q / ~ Q { /.*X,X_.X.{ Q G } <X<X<X<X<X<X<X<X<X<X<X<X<X<X<X<X<X<X<X<X<X",
"<X<X<X<X<X<X<X<X<X<X<X<X<X<X<X<X<X<X; X.~ ] / W / ' Q / ( / / / R | |.;X>X*X1.E ( G } <X<X<X<X<X<X<X<X<X<X<X<X<X<X<X<X<X<X<X<X<X",
"<X<X<X<X<X<X<X<X<X<X<X<X<X<X<X<X<Xi.V F R ( W ] ] W / / W / / / E r XX+X+X{.<.~ E G J `.<X<X<X<X<X<X<X<X<X<X<X<X<X<X<X<X<X<X<X<X",
"<X<X<X<X<X<X<X<X<X<X<X<X<X<X<X<X<X- V ~ ( ~ W Q Q Q Q Q W / Q Q ..r  X:XOX5.L E ( R 8 L <X<X<X<X<X<X<X<X<X<X<X<X<X<X<X<X<X<X<X<X",
"<X<X<X<X<X<X<X<X<X<X<X<X<X<X<X<Xi.- V E W ( ] W Q Q Q ( ~ Q Q Q I [  XOX@Xf [ G R Q > J Q.<X<X<X<X<X<X<X<X<X<X<X<X<X<X<X<X<X<X<X",
"<X<X<X<X<X<X<X<X<X<X<X<X<X<X<Xp.; F G Q ( R W ]  .Q Q Q Q Q Q { E [ |.;X=X;.U ( _ W F v S ).<X<X<X<X<X<X<X<X<X<X<X<X<X<X<X<X<X<X",
"<X<X<X<X<X<X<X<X<X<X<X<X<X<X1.5 S G ( Q ( Q ( Q Q Q Q Q  .Q Q (  .r XX:X@X;.J Q W _ ] F , Z ).<X<X<X<X<X<X<X<X<X<X<X<X<X<X<X<X<X",
"<X<X<X<X<X<X<X<X<X<X<X<X<Xp.A H ~ E E Q Q ( / ~ / W ' W ( R ( D H | |.;X=X;.D ! W _ ] R E V S <X<X<X<X<X<X<X<X<X<X<X<X<X<X<X<X<X",
"<X<X<X<X<X<X<X<X<X<X<Xs.6.F ) E E E ( ( ' W R / T W ' ' ] ~ ( ..| u A.@X-X;.{ m o._ ] E ~ ~ V ..6.<X<X<X<X<X<X<X<X<X<X<X<X<X<X<X",
"<X<X<X<X<X<X<X<X<Xp.,.I G E E ~ R  .W _ W / / / F / / W ( ! R H u j.C.S.A.2.{  .Q ! ( ( R ~ Q ! P P :.<X<X<X<X<X<X<X<X<X<X<X<X<X",
"<X<X<X<X<X<X<X<Xp.K 9 ~ H ( +.Q Q Q W T ! W ~ E G ~ ( W .. .m 1 o l.Z.Z.V.|  .Q Q T R ..W R +.Q G J 0 :.<X<X<X<X<X<X<X<X<X<X<X<X",
"<X<X<X<X<X<X<Xd.7 J I E C / T W ' _ W T R ~ E A / Q  .E H < % X g.B.Z.N.3.| H Q Q G T ( W T ! Q ( ^ S 0 U <X<X<X<X<X<X<X<X<X<X<X",
"<X<X<X<X<X<X<X<X<.Z 5 8 F ( ( / ' ' ' W Q ~ G m G T  . .1 4 y g.B.Z.B.d 4 A  .{ H E T W W T F I F J J S T.<X<X<X<X<X<X<X<X<X<X<X",
"<X<X<X<X<X<X<X<X<X<X>.J Z $ / G T T R R R T V v R A A 1 X t j b.Z.m.f.t & < V F P G C T Q ( q : Z J T.<X<X<X<X<X<X<X<X<X<X<X<X<X",
"<X<X<X<X<X<X<X<X<X<X<X<X>.) @ V : , b V V < ; : e &     y g.b.m.m.m.b.d X % 9 8 8 8 C v > < q J s.<X<X<X<X<X<X<X<X<X<X<X<X<X<X<X",
"<X<X<X<X<X<X<X<X<X<X<X<X<X<X,.J r + 5 # < ; 2   . o a s 4.M.z.n.v.v.x i d 4 2 6 # 8 # 0 K w a.<X<X<X<X<X<X<X<X<X<X<X<X<X<X<X<X<X",
"<X<X<X<X<X<X<X<X<X<X<X<X<X<X<X<X<XL } U S L g ;.z z s k 4.4.l.f.k l p k a 3.-.U U U U w.<X<X<X<X<X<X<X<X<X<X<X<X<X<X<X<X<X<X<X<X",
"<X<X<X<X<X<X<X<X<X<X<X<X<X<X<X<X<X<X<X<X<X<X<Xg.M.x.l.}.<X<X<X<XB.c.z.z.k.<X<X<X<X<X<X<X<X<X<X<X<X<X<X<X<X<X<X<X<X<X<X<X<X<X<X<X",
"<X<X<X<X<X<X<X<X<X<X<X<X<X<X<X<X<X<X<X<X<X<X<X<X5.k.{.<X<X<X<X<X<XN.g.g.<X<X<X<X<X<X<X<X<X<X<X<X<X<X<X<X<X<X<X<X<X<X<X<X<X<X<X<X",
"<X<X<X<X<X<X<X<X<X<X<X<X<X<X<X<X<X<X<X<X<X<X<X<X<X<X<X<X<X<X<X<X<X<X<X<X<X<X<X<X<X<X<X<X<X<X<X<X<X<X<X<X<X<X<X<X<X<X<X<X<X<X<X<X",
"<X<X<X<X<X<X<X<X<X<X<X<X<X<X<X<X<X<X<X<X<X<X<X<X<X<X<X<X<X<X<X<X<X<X<X<X<X<X<X<X<X<X<X<X<X<X<X<X<X<X<X<X<X<X<X<X<X<X<X<X<X<X<X<X",
"<X<X<X<X<X<X<X<X<X<X<X<X<X<X<X<X<X<X<X<X<X<X<X<X<X<X<X<X<X<X<X<X<X<X<X<X<X<X<X<X<X<X<X<X<X<X<X<X<X<X<X<X<X<X<X<X<X<X<X<X<X<X<X<X",
"<X<X<X<X<X<X<X<X<X<X<X<X<X<X<X<X<X<X<X<X<X<X<X<X<X<X<X<X<X<X<X<X<X<X<X<X<X<X<X<X<X<X<X<X<X<X<X<X<X<X<X<X<X<X<X<X<X<X<X<X<X<X<X<X"
};
