/* XPM */
static char *result[] = {
/* columns rows colors chars-per-pixel */
"64 64 208 2 ",
"   c #1E1119",
".  c #1C0F09",
"X  c #251716",
"o  c #26130C",
"O  c #382915",
"+  c #3F321F",
"@  c #160D24",
"#  c #1B1223",
"$  c #1C142C",
"%  c #1E1B2C",
"&  c #161125",
"*  c #1D1534",
"=  c #1D1A32",
"-  c #1E173C",
";  c #1E1A3C",
":  c #281C24",
">  c #20142C",
",  c #261A2A",
"<  c #241C34",
"1  c #281C36",
"2  c #23163B",
"3  c #251B3C",
"4  c #2A1C3C",
"5  c #201734",
"6  c #1F203E",
"7  c #23212C",
"8  c #3A2D2E",
"9  c #252134",
"0  c #25213C",
"q  c #2B233D",
"w  c #2A2435",
"e  c #31233D",
"r  c #322C3D",
"t  c #332737",
"y  c #38353B",
"u  c #44371A",
"i  c #453A25",
"p  c #423A38",
"a  c #5B550B",
"s  c #5C5418",
"d  c #625A0E",
"f  c #4A422F",
"g  c #564D2B",
"h  c #5E5322",
"j  c #5E5922",
"k  c #49423A",
"l  c #655637",
"z  c #605A2A",
"x  c #6D682B",
"c  c #776B2A",
"v  c #767038",
"b  c #756C31",
"n  c #1C1F40",
"m  c #261B41",
"M  c #2A1D43",
"N  c #2B1E4C",
"B  c #231641",
"V  c #2B1E53",
"C  c #1E2140",
"Z  c #262242",
"A  c #2C2244",
"S  c #2D2A43",
"D  c #2D234A",
"F  c #2B2848",
"G  c #312544",
"H  c #332B44",
"J  c #3A2C44",
"K  c #32244C",
"L  c #342A4C",
"P  c #3A2D4D",
"I  c #3A3344",
"U  c #3D3946",
"Y  c #3C344B",
"T  c #3A354A",
"R  c #2E2354",
"E  c #2D2058",
"W  c #332552",
"Q  c #362B54",
"!  c #3A2E55",
"~  c #372C5B",
"^  c #3A2E5A",
"/  c #362559",
"(  c #363056",
")  c #3B3154",
"_  c #3C3C57",
"`  c #373059",
"'  c #3C315B",
"]  c #3B2762",
"[  c #3B2D62",
"{  c #3B2D68",
"}  c #3D3162",
"|  c #423B4C",
" . c #403B4B",
".. c #443E53",
"X. c #40335A",
"o. c #473957",
"O. c #412D64",
"+. c #412E69",
"@. c #423264",
"#. c #44326C",
"$. c #48336B",
"%. c #433860",
"&. c #463372",
"*. c #4B3779",
"=. c #3F4663",
"-. c #4A4345",
";. c #4B444A",
":. c #55504D",
">. c #464253",
",. c #4B4355",
"<. c #4B435B",
"1. c #4C4757",
"2. c #524B59",
"3. c #585353",
"4. c #59525A",
"5. c #655F47",
"6. c #6E6745",
"7. c #766E44",
"8. c #7E7544",
"9. c #6D6C50",
"0. c #716958",
"q. c #7E7956",
"w. c #434863",
"e. c #4C4A61",
"r. c #434965",
"t. c #544D64",
"y. c #4A526D",
"u. c #575363",
"i. c #5A5665",
"p. c #5A556A",
"a. c #58576C",
"s. c #54437C",
"d. c #505B79",
"f. c #615C6D",
"g. c #625B7C",
"h. c #69636F",
"j. c #727064",
"k. c #686372",
"l. c #736D7C",
"z. c #7A727D",
"x. c #887A3B",
"c. c #857948",
"v. c #847D74",
"b. c #8A8847",
"n. c #99964A",
"m. c #88865A",
"M. c #8F8F5B",
"N. c #958B54",
"B. c #948947",
"V. c #A89A59",
"C. c #AEA25C",
"Z. c #B2A65E",
"A. c #9C946C",
"S. c #928C72",
"D. c #9D9976",
"F. c #A79C64",
"G. c #A49B72",
"H. c #ABA569",
"J. c #B8AC68",
"K. c #C2C47B",
"L. c #5F4A8D",
"P. c #5A4689",
"I. c #5D4695",
"U. c #634C8D",
"Y. c #635486",
"T. c #614A94",
"R. c #60499C",
"E. c #685396",
"W. c #7D768B",
"Q. c #797387",
"!. c #7F6C9D",
"~. c #716C84",
"^. c #6149A1",
"/. c #7A67A8",
"(. c #837C89",
"). c #82799B",
"_. c #806DA1",
"`. c #8478A6",
"'. c #8975B3",
"]. c #8873B9",
"[. c #8D8A95",
"{. c #898296",
"}. c #918B9B",
"|. c #97938C",
" X c #BFBF89",
".X c #B4B190",
"XX c #968FA2",
"oX c #9B98A4",
"OX c #9988BA",
"+X c #8D84A3",
"@X c #B0ACB0",
"#X c #CBCB94",
"$X c #E1E199",
"%X c #D6D4BB",
"&X c #E0E3AE",
"*X c #E6E9B4",
"=X c #E7E8B8",
"-X c #EFF4B1",
";X c #F7FBBE",
":X c #F4F8BB",
">X c #9A86C5",
",X c #AFAAC1",
"<X c #CAC6CE",
"1X c #EAE8C7",
"2X c #F8FBC3",
"3X c #F5F5D5",
"4X c #D3CAE6",
"5X c None",
/* pixels */
"5X5X5X5X5X5X5X5X5X5X5X5X5X5X5X5X5X5X5X5X5X5X5X5X5X5X5X5X5X5X5X5X5X5X5X5X5X5X5X5X5X5X5X5X5X5X5X5X5X5X5X5X5X5X5X5X5X5X5X5X5X5X5X5X",
"5X5X5X5X5X5X5X5X5X5X5X5X5X5X5X5X5X5X5X<X<X5X5X5X5X5X5X5X5X5X5X5X5X5X5X5X5X5X5X5X5X5X5X5X5X5X5X5X5X5X5X5X5X5X5X5X5X5X5X5X5X5X5X5X",
"5X5X5X5X5X5X5X5X5X5X5X5X5X5X5X5X5X5X,Xg.).4X5X5X5X5X5X5X5X5X5X5X5X5X5X5X5X5X5X5X5X5X5X5X5XXXY.).5X5X5X5X5X5X5X5X5X5X5X5X5X5X5X5X",
"5X5X5X5X5X5X5X5X5X5X5X5X5X5X5X5X5X5X).D s.`.5X5X5X5X5X5X5X5X5X5X5X5X5X5X5X5X5X5X5X5X5X5XOXg.$.X.5X5X5X5X5X5X5X5X5X5X5X5X5X5X5X5X",
"5X5X5X5X5X5X5X5X5X5X5X5X5X5X5X5X5X5Xo.R *.*./.5X5X5X5X5X5X5X5X5X5X5X5X5X5X5X5X5X5X5X5X>XU.$.O.! (.5X5X5X5X5X5X5X5X5X5X5X5X5X5X5X",
"5X5X5X5X5X5X5X5X5X5X5X5X5X5X5X5X5X[.Z ^ { P.L.!.5X5X5X5X5X5X5X5X5X5X5X5X5X5X5X5X5X5X>XE.U.] X.J  .5X5X5X5X5X5X5X5X5X5X5X5X5X5X5X",
"5X5X5X5X5X5X5X5X5X5X5X5X5X5X5X5X5X{.q X./ &.U.U._.5X5X5X5X5X5X5X5X5X5X5X5X5X5X5X5X>XT.I.*.O.X.J 2.5X5X5X5X5X5X5X5X5X5X5X5X5X5X5X",
"5X5X5X5X5X5X5X5X5X5X5X5X5X5X5X5X5XI e ) ! [ $.*.L.!.5X5X5X5X5X5X5X5X5X5X5X5X5X5X'.U.L.&.O.X.J J 1 l.5X5X5X5X5X5X5X5X5X5X5X5X5X5X",
"5X5X5X5X5X5X5X5X5X5X5X5X5X5X5X5X}.5 H ! X.! / $.*.T./.].].].'.'.'.'.'.'.'.'.'.].E.P.&.O.^ ) P J 1 U 5X5X5X5X5X5X5X5X5X5X5X5X5X5X",
"5X5X5X5X5X5X5X5X5X5X5X5X5X5X5X5X5X5 A ) X.X.! ^ $.&.I.R.^.R.R.R.T.T.T.T.T.T.I.I.*.&.O.^ ! ) ! ! , ,.5X5X5X5X5X5X5X5X5X5X5X5X5X5X",
"5X5X5X5X5X5X5X5X5X5X5X5X5X5X5X5X5Xm A ' Q ! X.X.X.O.+.&.*.&.#.$.$.$.$.$.$.+.&.#.] [ ^ ' ` ` [ ~ 0 U 5X5X5X5X5X5X5X5X5X5X5X5X5X5X",
"5X5X5X5X5X5X5X5X5X5X5X5X5X5X5X5X{.* K ' ! ! ! / ^ / ^ ^ O.^ O.^ O.O.X.! X.X.^ ^ ^ ' ! Q Q [ { ~ < U 5X5X5X5X5X5X5X5X5X5X5X5X5X5X",
"5X5X5X5X5X5X5X5X5X5X5X5X5X5X5X5XXX$ H H Q ~ R E ] ^ ^ ! P ! ! ^ ~ ^ ! ! ! P ! ! ^ ' / W W ~ ~ Q 9 1.5X5X5X5X5X5X5X5X5X5X5X5X5X5X",
"5X5X5X5X5X5X5X5X5X5X5X5X5X5X5X5X}.$ 1 4 D D E E ] [ ' ( ( ( ) ' [ ^ ' ' ) ) ) ( ! ^ ~ W N N N M 9 I 5X5X5X5X5X5X5X5X5X5X5X5X5X5X",
"5X5X5X5X5X5X5X5X5X5X5X5X5X5X5X5X5Xr $ 4 Z L L ~ ~ ~ ' ^ ~ ` ' Q ! ( ~ ~ ~ ~ ` ^ ! ) ' ! R M 4 1 < u.5X5X5X5X5X5X5X5X5X5X5X5X5X5X",
"5X5X5X5X5X5X5X5X5X5X5X5X5X5X5X5X5X~.< Z Z ( ` ' ` ` ~ [ [ } ` ` ! ^ ' [ } ~ ` ' ' ! ! ' ( L A 1 U 5X5X5X5X5X5X5X5X5X5X5X5X5X5X5X",
"5X5X5X5X5X5X5X5X5X5X5X5X5X5X5X5X5X{.@ D ^ ~ } ^ ^ ^ ( ' ^ ' ^ ^ ^ ^ ^ ^ ^ ^ ' ! ' ! ! Q ' ! K q >.5X5X5X5X5X5X5X5X5X5X5X5X5X5X5X",
"5X5X5X5X5X5X5X5X5X5X5X5X5X5X5X5X5X(.H L Q ~ } ~ ` ' ! ( ! ^ ^ ^ X.! ^ ' ! ^ ^ ' ~ ' ` ` ' ' ! L >.5X5X5X5X5X5X5X5X5X5X5X5X5X5X5X",
"5X5X5X5X5X5X5X5X5X5X5X5X5X5X5X5X5XT L ' } [ ~ [ ~ ' ( ( ' ' ^ ^ ^ ! ' Q ' ` ' ^ ' ' ' ' ^ ' ~ Q H i.5X5X5X5X5X5X5X5X5X5X5X5X5X5X",
"5X5X5X5X5X5X5X5X5X5X5X5X5X5X5X5X(.A L Q ` [ [ ' ^ ' ( ! ^ ^ ^ ~ ^ ^ ` ' ( ~ ( ~ ' ' ' Q / ~ ^ ! T ..5X5X5X5X5X5X5X5X5X5X5X5X5X5X",
"5X5X5X5X5X5X5X5X5X5X5X5X5X5X5X[.q 3 _ ' R [ [ } ^ ^ ( ' ` ~ ` ^ ` ` ` ` ` ` ~ ` ^ ^ ! ~ O.X.O.! L q t.5X5X5X5X5X5X5X5X5X5X5X5X5X",
"5X5X5X5X5X5X5X5X5X5X5X5X5X5X[.w 9 F D Q ` } [ ~ ! ^ ! ( ' ` [ ^ ` ` ` ` ' ! ' ^ ' ' ^ ^ ^ ^ ! K A q 1 f.5X5X5X5X5X5X5X5X5X5X5X5X",
"5X5X5X5X5X5X5X5X5X5X5X5X5X5X7 9 < m m W / ~ ~ ' ^ ! ! ! ^ ^ ^ ^ ~ ( ` ` ^ ' ^ ! ^ ^ ! ! W W D M m 2 1 9 1.5X5X5X5X5X5X5X5X5X5X5X",
"5X5X5X5X5X5X5X5X5X5X5X5X5X-.7 9 0 Z 3 M N D ~ Q ^ ! ^ ! ! ^ ^ ^ ' ^ ` ' ^ ) ^ ! ! Q W D N M m M 4 G 1 , y 5X5X5X5X5X5X5X5X5X5X5X",
"5X5X5X5X5X5X5X5X5X5X5X5X5X5X| r 5 4 4 4 M M M M M / X.K ! ^ W W W L X.W K X.P M A M m M 3 M - Z 2 1 w  .h.5X5X5X5X5X5X5X5X5X5X5X",
"5X5X5X5X5X5X5X5X5X5X5X5X5X5X5X5X..H 1 1 e e M 4 M 4 4 4 m m M K A K M A K M 4 4 2 4 M 4 S 3 0 = e  .l.5X5X5X5X5X5X5X5X5X5X5X5X5X",
"5X5X5X5X5X5X5X5X5X5X5X5X5X5X5X5X5X5X,.4 1 1 > 1 4 4 G 4 M M - M 2 N 2 m 4 2 M M q 4 4 < $ 9 q >.k.5X5X5X5X5X5X5X5X5X5X5X5X5X5X5X",
"5X5X5X5X5X5X5X5X5X5X5X5X5X5X5X5X5X5X5X5X,...o.,.J 4 > 2 Z 3 D B M M M K 4 4 4 2 4 < | >.>.>.f.5X5X5X5X5X5X5X5X5X5X5X5X5X5X5X5X5X",
"5X5X5X5X5X5X5X5X5X5X5X5X5X5X5X5X5X5X5X5X5X5X5X5X(.o.<.H 3 3 * C ; ; ; 6 2 4 2 ....f.5X5X5X5X5X5X5X5X5X5X5X5X5X5X5X5X5X5X5X5X5X5X",
"5X5X5X5X5X5X5X5X5X5X5X5X5X5X5X5X5X5X5X5X5X5X5X5X5X5X4X,.$ F = 6 C 6 6 F 4 $ A @X5X5X5X5X5X5X5X5X5X5X5X5X5X5X5X5X5X5X5X5X5X5X5X5X",
"5X5X5X5X5X5X5X5X5X5X5X5X5X5X5X5X5X5X5X5X5X5X5X5X5X5Xf.< _ _ a.y.=.d.y.=.r.1.9 H 5X5X5X5X5X5X5X5X5X5X5X5X5X5X5X5X5X5X5X5X5X5X5X5X",
"5X5X5X5X5X5X5X5X5X5X5X5X5X5X5X5X5X5X5X5X5X5X5X5X5Xf.> 5 F 0 _ =.y.=.=.r.Z 6 = 0 H 5X5X5X5X5X5X5X5X5X5X5X5X5X5X5X5X5X5X5X5X5X5X5X",
"5X5X5X5X5X5X5X5X5X5X5X5X5X5X5X5X5X5X5X5X5X5X5X5X2.q 4 4 4 M M 2 C C 3 F M 3 Z 2 2 H 5X5X5X5X5X5X5X5X5X5X5X5X5X5X5X5X5X5X5X5X5X5X",
"5X5X5X5X5X5X5X5X5X5X5X5X5X5X5X5X5X5X5X5X5X5X5Xh.q * 4 M m M M M 3 M 4 4 3 2 M G B Z U 5X5X5X5X5X5X5X5X5X5X5X5X5X5X5X5X5X5X5X5X5X",
"5X5X5X5X5X5X5X5X5X5X5X5X5X5X5X5X5X5X5X5X5X5X5Xa.3 Z K N M M M M M m 3 4 G M 4 4 W M r 5X5X5X5X5X5X5X5X5X5X5X5X5X5X5X5X5X5X5X5X5X",
"5X5X5X5X5X5X5X5X5X5X5X5X5X5X5X5X5X5X5X5X5X5Xl.0 Y X.^ W N K M M M M M 2 4 A N W ^ / Y U 5X5X5X5X5X5X5X5X5X5X5X5X5X5X5X5X5X5X5X5X",
"5X5X5X5X5X5X5X5X5X5X5X5X5X5X5X5X5X5X5X5X5X5Xt.H ) ^ ^ ~ O.! N K K M K K Q X.+.O.~ @.! H 5X5X5X5X5X5X5X5X5X5X5X5X5X5X5X5X5X5X5X5X",
"5X5X5X5X5X5X5X5X5X5X5X5X5X5X5X5X5X5X5X5X5XW.0 ) ! ! ^ ~ X.O.! X.' / X.^ ! O.] ] { ^ Q P U 5X5X5X5X5X5X5X5X5X5X5X5X5X5X5X5X5X5X5X",
"5X5X5X5X5X5X5X5X5X5X5X5X5X5X5X5X5X5X5X5X5Xp.H ) ' ^ O.~ ^ ^ / X.^ ' X.P P X./ O.~ X.' K Y 5X5X5X5X5X5X5X5X5X5X5X5X5X5X5X5X5X5X5X",
"5X5X5X5X5X5X5X5X5X5X5X5X5X5X5X5X5X5X5X5XW.w ' / ^ ^ O.^ [ X.! ! ^ ! J | z.(.,.J ) ! ' ' ( Y 5X5X5X5X5X5X5X5X5X5X5X5X5X5X5X5X5X5X",
"5X5X5X5X5X5X5X5X5X5X5X5X5X5X5X5X5X5X5X5XW.q ) ' ~ ^ ^ ' ^ ^ ! ^ [ /  .v.1X3X|. .y X.Q O.W | 5X5X5X5X5X5X5X5X5X5X5X5X5X5X5X5X5X5X",
"5X5X5X5X5X5X5X5X5X5X5X5X5X5X5X5X5X5X5X5Xe.S ( ' ' ^ ^ ^ ^ ^ X.! } ! ;.@X3X2X1XD.-.P ^ ~ ! H }.5X5X5X5X5X5X5X5X5X5X5X5X5X5X5X5X5X",
"5X5X5X5X5X5X5X5X5X5X5X5X5X5X5X5X5X5X5X{.9 S ) ' ! ^ ' ^ ^ ^ ! ^ ^ %.y j.#X:X2X=X:.J X.^ Q 0 >.5X5X5X5X5X5X5X5X5X5X5X5X5X5X5X5X5X",
"5X5X5X5X5X5X5X5X5X5X5X5X5X5X5X5X5X5X5X2.- L ' ! ' ^ ^ ! ! ) ' ^ } Q Y p 9.=X-X=X3.Y ' O.Q B H XX5X5X5X5X5X5X5X5X5X5X5X5X5X5X5X5X",
"5X5X5X5X5X5X5X5X5X5X5X5X5X5X5X5X5X5Xp.< A Q ' ~ ' ~ ' ' ^ ' ' ^ } / ) U k %X2X*X3.! ! ! ^ W M L 5X5X5X5X5X5X5X5X5X5X5X5X5X5X5X5X",
"5X5X5X5X5X5X5X5X5X5X5X5X5X5X5X5X5Xt.0 Z Q ' ^ ^ ^ ^ ' ( ' ' ^ ^ ' %.L I ;.%X;X=X3.! Y L ' ^ N ; H 5X5X5X5X5X5X5X5X5X5X5X5X5X5X5X",
"5X5X5X5X5X5X5X5X5X5X5X5X5X5X5X5Xp.Z L ' ^ } ^ } ^ ' ' ( Q ~ ^ [ } Q ' ) -.%X;X&X2.! ) L ^ ' / ) < y 5X5X5X5X5X5X5X5X5X5X5X5X5X5X",
"5X5X5X5X5X5X5X5X5X5X5X5X5X5X(.u.H ) ' ~ } ^ ~ [ ^ ^ ! ~ Q Q ^ [ [ ~ ^ Y p .X:X&X4.! L ! ! ' ) Q ( S T Q.5X5X5X5X5X5X5X5X5X5X5X5X",
"5X5X5X5X5X5X5X5X5X5X5X5XQ.t.4 L ( ' ! @.~ ^ ] ~ ^ } ^ Q / ( ' ! O.W O.J 0.G.K. X;.) ~ { ` ' ~ } ~ ^ ! F T ~.5X5X5X5X5X5X5X5X5X5X",
"5X5X5X5X5X5X5X5X5X5X5Xt.S G ) W ' X.^ ^ ^ [ R / } ^ R Q ! ^ ' ' W X.e i G.G.J.A.:.( #.E D ' ~ { } ^ ^ ! ) H H 5X5X5X5X5X5X5X5X5X",
"5X5X5X5X5X5X5X5X5X5Xi.r J _ K ) W ) ) ! ! ! D ! ! W ! ' ! / ^ ! J   X 6.F.H.G.0.o.~ ~ ' ( L [ ~ D ' ' ! T Y r I oX5X5X5X5X5X5X5X",
"5X5X5X5X5X5X5X5X5X5Xl.7 9 q P G X.' Q ( X.L K o.) L K L P X.X.e   u 7.F.H.F.l p P O.~ ) H S ' ~ ' K L ) H H 9 ;.5X5X5X5X5X5X5X5X",
"5X5X5X5X5X5X5X5X5X5X5X5XQ.@ , A D ' Q K ! ' X.W K 4 G K J G 1 : u h V.F.J.c.O X 4 N X.X.J L K ) L L A e 9 U 5X5X5X5X5X5X5X5X5X5X",
"5X5X5X5X5X5X5X5X5X5X5X5X5X5Xl.= 3 F L Z 3 3 W G G 4 q t , X   p c.B.V.J.V.B.h o : 4 M 4 K G < q S q $ | 5X5X5X5X5X5X5X5X5X5X5X5X",
"5X5X5X5X5X5X5X5X5X5X5X5X5X5X5X5Xk.% & < S 4 1 < , # X o O i g 8.V.J.C.J.V.x.h u . t e 2 A 3 , 5 @ T 5X5X5X5X5X5X5X5X5X5X5X5X5X5X",
"5X5X5X5X5X5X5X5X5X5X5X5X5X5X5X5X5X5X5Xh.# @ $ $ : 8 p f g z s x b v c c x.d s h i : > > $ @ T 5X5X5X5X5X5X5X5X5X5X5X5X5X5X5X5X5X",
"5X5X5X5X5X5X5X5X5X5X5X5X5X5X5X5X5X5X5X5X5X5X5X5X5X5Xv.q.A.N.x 5X5X5Xc.s a d a j 6.5X5X5X5X5X5X5X5X5X5X5X5X5X5X5X5X5X5X5X5X5X5X5X",
"5X5X5X5X5X5X5X5X5X5X5X5X5X5X5X5X5X5X5X5X5X5X5X5X5X5X5XS.6.7.5X5X5X5X5Xc.b.n.n.v 5X5X5X5X5X5X5X5X5X5X5X5X5X5X5X5X5X5X5X5X5X5X5X5X",
"5X5X5X5X5X5X5X5X5X5X5X5X5X5X5X5X5X5X5X5X5X5X5X5X5X5X5X5X5X5X5X5X5X5X5Xm.#X$X#Xm.5X5X5X5X5X5X5X5X5X5X5X5X5X5X5X5X5X5X5X5X5X5X5X5X",
"5X5X5X5X5X5X5X5X5X5X5X5X5X5X5X5X5X5X5X5X5X5X5X5X5X5X5X5X5X5X5X5X5X5X5X5XM.b.m.5X5X5X5X5X5X5X5X5X5X5X5X5X5X5X5X5X5X5X5X5X5X5X5X5X",
"5X5X5X5X5X5X5X5X5X5X5X5X5X5X5X5X5X5X5X5X5X5X5X5X5X5X5X5X5X5X5X5X5X5X5X5X5X5X5X5X5X5X5X5X5X5X5X5X5X5X5X5X5X5X5X5X5X5X5X5X5X5X5X5X",
"5X5X5X5X5X5X5X5X5X5X5X5X5X5X5X5X5X5X5X5X5X5X5X5X5X5X5X5X5X5X5X5X5X5X5X5X5X5X5X5X5X5X5X5X5X5X5X5X5X5X5X5X5X5X5X5X5X5X5X5X5X5X5X5X",
"5X5X5X5X5X5X5X5X5X5X5X5X5X5X5X5X5X5X5X5X5X5X5X5X5X5X5X5X5X5X5X5X5X5X5X5X5X5X5X5X5X5X5X5X5X5X5X5X5X5X5X5X5X5X5X5X5X5X5X5X5X5X5X5X",
"5X5X5X5X5X5X5X5X5X5X5X5X5X5X5X5X5X5X5X5X5X5X5X5X5X5X5X5X5X5X5X5X5X5X5X5X5X5X5X5X5X5X5X5X5X5X5X5X5X5X5X5X5X5X5X5X5X5X5X5X5X5X5X5X"
};
