/* XPM */
static char *result[] = {
/* columns rows colors chars-per-pixel */
"64 64 165 2 ",
"   c #0D2B45",
".  c #112D47",
"X  c #112F49",
"o  c #15324C",
"O  c #1B334D",
"+  c #1A3650",
"@  c #1D3953",
"#  c #23364F",
"$  c #253750",
"%  c #213C56",
"&  c #2B3A52",
"*  c #263E58",
"=  c #2A3F59",
"-  c #323E56",
";  c #343F59",
":  c #2B445B",
">  c #2E485E",
",  c #3E4253",
"<  c #34425C",
"1  c #3B445E",
"2  c #3E4660",
"3  c #354D63",
"4  c #3B546B",
"5  c #44444E",
"6  c #4C474B",
"7  c #4F484E",
"8  c #5B4D4D",
"9  c #454653",
"0  c #44455E",
"q  c #474A5E",
"w  c #584D57",
"e  c #524F59",
"r  c #5D5457",
"t  c #5C535C",
"y  c #655757",
"u  c #6C5651",
"i  c #6B585B",
"p  c #755C5C",
"a  c #795D5B",
"s  c #76615D",
"d  c #424761",
"f  c #464963",
"g  c #4B4B65",
"h  c #524D67",
"j  c #544E68",
"k  c #465368",
"l  c #545167",
"z  c #595165",
"x  c #575168",
"c  c #5B526A",
"v  c #475D71",
"b  c #555B72",
"n  c #5B5F76",
"m  c #645563",
"M  c #665866",
"N  c #6F5963",
"B  c #63556C",
"V  c #68576E",
"C  c #67596D",
"Z  c #6B596F",
"A  c #735B61",
"S  c #7A5F6B",
"D  c #6F5B70",
"F  c #745D72",
"G  c #785F73",
"H  c #5F6178",
"J  c #7D606D",
"K  c #746B6E",
"L  c #6B657C",
"P  c #7D6275",
"I  c #8A6353",
"U  c #82615F",
"Y  c #8B655C",
"T  c #936859",
"R  c #9D6F5F",
"E  c #A4705F",
"W  c #AE7458",
"Q  c #AA7E5E",
"!  c #B4765C",
"~  c #BC795B",
"^  c #856263",
"/  c #8C6563",
"(  c #846865",
")  c #83626B",
"_  c #8C666A",
"`  c #906660",
"'  c #9E6E62",
"]  c #926B6B",
"[  c #826476",
"{  c #896673",
"}  c #866678",
"|  c #896778",
" . c #8D697A",
".. c #956B76",
"X. c #9C6E72",
"o. c #916A78",
"O. c #9F7274",
"+. c #A57167",
"@. c #AB7566",
"#. c #A77962",
"$. c #AC7D62",
"%. c #A5716E",
"&. c #AC746A",
"*. c #B47766",
"=. c #B67965",
"-. c #BC7A63",
";. c #B17668",
":. c #A07070",
">. c #AD7B72",
",. c #C37C5D",
"<. c #CA7E5B",
"1. c #C17B60",
"2. c #B78362",
"3. c #BA8465",
"4. c #B78768",
"5. c #BA8468",
"6. c #B9877C",
"7. c #CE8059",
"8. c #D08159",
"9. c #D4885F",
"0. c #DB8C5B",
"q. c #E6945B",
"w. c #E9975B",
"e. c #EC995C",
"r. c #F29E5C",
"t. c #F4A15C",
"y. c #F9A55D",
"u. c #FFAA5E",
"i. c #CD8661",
"p. c #D28861",
"a. c #CE906A",
"s. c #D6936F",
"d. c #DB966C",
"f. c #CE8E70",
"g. c #C18A79",
"h. c #D39572",
"j. c #D59873",
"k. c #E59B64",
"l. c #EA9C63",
"z. c #E69C68",
"x. c #E19E73",
"c. c #EAA36F",
"v. c #FFAC63",
"b. c #F3A668",
"n. c #FFB36E",
"m. c #E3A77C",
"M. c #E6A87C",
"N. c #E9A97A",
"B. c #FFB673",
"V. c #F3B57E",
"C. c #F9B579",
"Z. c #FFBC7B",
"A. c #867385",
"S. c #8E7687",
"D. c #9C7D8B",
"F. c #B09182",
"G. c #BB9781",
"H. c #DEAC88",
"J. c #EDB283",
"K. c #E9B48D",
"L. c #FBBC82",
"P. c #F0BD94",
"I. c #FFC083",
"U. c #FFC48D",
"Y. c #FFC993",
/* pixels */
"J.d.0.e.e.e.e.t.t.q.@.x * . o .   . # ; 0 z B F F V B F F F F D h z z h z Z  . . . . . . .o.&.&.%.%.' Q s.V.a.2.2.2.4.G.h.L.I.P.",
"Z.b.t.u.e.t.r.q.t.t.i.=.s < ; # . & m F G  . . .[ B V  . . .o. . .[ D G  . .o.[ F  . . . . . . . .O.q.w.v.B.v.u.u.u.v.B.v.Z.Z.U.",
"u.u.u.u.t.t.t.w.q.q.0.q.5.B f $   0  .[ F D Z Z B j c G  . . . . .[ F G  . . .| G  . . . . . . .X.1.0.8.w.e.y.q.q.q.y.u.u.u.u.B.",
"u.u.u.u.u.B.I.n.t.c.d.q.k.] < X   0 [ B h j j j j j j c F  . . . . . . . . . . . . . . ...;.;.;.-.<.8.<.<.<.q.w.q.0.y.u.u.u.u.B.",
"I.n.u.u.u.n.Z.n.n.H.j.q.t.$.< o   0 F j h j j j j j j B G  . .[ D V D D Z F  . . . . . .o.*.<.<.p.w.e.w.w.w.w.w.y.e.u.u.u.u.u.B.",
"M.z.q.q.q.q.q.q.j.6.i.0.q.$.1 o   0 F h j j j j j j j V  .[ D F F F F F Z c S &...;.*.;.*.;.-.<.8.l.C.w.w.l.C.J.L.I.I.L.I.I.I.Y.",
"8.8.8.8.8.8.8.8.&.&.8.0.t.$.< .   0 [ V j j j j j j j h c B j c D D D D V j B ` o.&.&.&.&.%...&.*.p.x.9.<.0.N.V.F.F.m.m.M.M.M.K.",
"8.8.8.8.8.8.8.8.-.1.8.q.u.$.-     0  .F j j j j j j j g f j g d j h j j j j j B  . . . . . . ...*.<.<.8.<.<.0.0.2.#.R <.8.8.8.s.",
"8.8.8.7.8.8.8.7.8.8.8.0.r.$.-     ; P F j j j j j j h g 1 g j * d j j j j j j c G  . . . . . .X.<.8.8.8.8.8.<.9.q.0.E <.8.8.8.s.",
"8.8.8.-.,.8.8.8.8.1.-.8.w.$.-     & D F j j j j j j j g 1 g B 3 d h j j j j j j B |  . . . ...*.8.8.8.8.8.8.8.8.7.7.8.8.8.8.8.s.",
"8.8.8.&.;.8.8.8.8.-.1.0.r.$.- X X , P F j j j j j j j j h j j j j j j j j j j c F A. . . . .X.<.8.8.8.8.8.8.8.8.7.8.8.8.8.8.8.s.",
"8.8.8.-.1.8.8.8.8.8.8.q.u.$.- X X 0  .F j j j j j j j j j j j j j j j j j j j b F G } D G  ...*.<.8.8.8.8.<.8.8.8.8.8.7.8.8.8.s.",
"8.8.8.7.-.;.,.8.8.8.8.q.u.$.-     0  .[ B h j j j j j j l l j h j j j j j j j j j c D D G  . .o.=.-.<.<.8.8.8.8.8.8.8.8.8.8.8.s.",
"8.8.8.8.-.&.&.;.;.;.i.t.k.] < o   0 G c g 2 2 2 2 d j j l l g 2 2 2 2 2 2 d j j h c F  . .o.&.&.;.&.;.=.;.=.<.8.<.*.-.<.8.<.-.f.",
"-.,.-.;.;.;.X. . . .>.k.3.B 1 o   & 2 % @ % % % = ; 2 2 1 1 < % @ % @ @ @ : 2 2 1 f F D F ) &.&.;.&.o. . ...;.;.&. ...&.;.&...6.",
"..%.X. . . . . . .[ F ] ( h < o     o % + + + % = 3 + + % % % @ o + @ @ @ % @ @ $ = 2 d j B |  .} F F G } P }  . . . . . . . .D.",
"V F F F F F F F F B j h B c < o o o + % + o + @ % @ o X o o o o     o   O o o o O o O + < 1 c c x 2 2 d c x F F F F F F F F F A.",
"f h j h j j j j j h j B P F 2 @ % % % @ % % % % % @ o                                     . o O % % % % * d h j j j j h j j j L ",
"; h j B V D c j j g g C F B f < : * 2 < 2 < 3 < 2 1 + o o       o o     o o o     o o o o o   . o + + @ % % 1 d d h g d 2 2 2 n ",
"& d d l B D B j j 1 : 1 2 g h g : ; 2 d f 2 d 2 g f @ O o       o o   o + @ @ X X o o O O o         X @ % % % % * 1 2 % % @ % 4 ",
"9 y y y y a ^ ^ ^ s y y y a ^ a y y y p A i i y e < O . X   . + = 9 w 8 r y y y 8 8 8 8 6 & O - w 8 8 y < < % % % % % @ % % 1 K ",
"T 8.8.8.7.7.8.! T Y W 8.1.1.1.,.7.~ ! 8.<.<.8.8.! m % X O X X < J =.8.8.7.7.~ 7.7.7.-.7.~ p q / <.<.<.,.U p < % 1 r y y y i / f.",
"=.8.8.1.=.=.=._ x g ^ =.:.:.:.:.=.] _ =.1.,.,.<.8.! w   o o # M &.-.8.<.=.&...=.=.&...=.=.+.S -.8.<.=.=.-.,.U i / ,.-.-.<.-.7.h.",
"%.=.=.&.X. . . . . . . . .o. . . . . . .:.+.X.-.1.1.a X +   ; :.-.X.=.&. . . . . . . . . . . ...=.;.o. ...=.=.=.-.;.o...&...;.g.",
"G }  .%.:. . . . . . . . . . . . . . . . . . . .X.&.N X X   , &.&. . . . . . . . . . . . . . . . . . . . . . . . . . . . . . .D.",
"V P  . . . . . . . . . . . . . . . . . . . . . . .&.I       6 -. . . . . . . . . . . . . . . . . . . . . . . . . . . . . . . .D.",
" . . . . . . . . . . . . . . . . . . . . . . . ...=.I       6 -. . . . . . . .} P P  ...X.P  . . . . . . . . . . . . . . . . .D.",
" . . . . . . . . . . . . . . . . . . . . . . . .+.<.I       6 1.X. . . . . . .| A g P ..@.J  . . . . . . . . . . . . . . . . .D.",
" . . . . . . . . . . . . . .[ G [  . . . . . . .:.1.I       9 ,.-. . . . . . ...T t D  ...;.o. . . . . . . . . . . . . . . . .D.",
" . . . . . . . . . . . . . .P V G  . . . . . .} { *.I       - ] -. . . . . . .[ J ;. . . . . . . . . . . . . . . . . . . . . .D.",
" . . . . . . . . . . . . . . . . . . . . . . .P ) 1.I o o   & ^ -. . . . . . . . . . . . . . . . . . . . . . . . . . . . . . .D.",
" . . . . . . . . . . . . . . . . . . . . . . . . .&.T +     ; X.@. . . . . . . . . . . . . . . . . . . . . . . . . . . . . . .D.",
" . . . . . . . . . . . . . . . . . . . . . . . .o.*.T O     , %.X. . . . . . . . . . . . . . . . . . . . . . . . . . . . . . .D.",
" . . . . . . .o. . . . . . . . . . . . .[ [ } A.&.<.T O     6 <.-. .} [  . . . . . . . . . .o.A. . . . . . . . . . . . . . . .D.",
" . .[ P } } [ G }  . . . . . . . . .} [ Z j B G _ ~ I o     7 ,.' P F B  . . . . . . . . . . .G G [ [  . . . .A.} [ [ [ [ }  .D.",
"} P V j V V j j V } } [ G [ G [ [ G Z j j j j j j N u       5 _ j j h B P P [ G [ G [ G G } [ B c h c [ [ } [ [ F j h h j G [ S.",
"V j j j g g j j j Z V j j j j j j j j j j j j j h 1 +       O g f f f j j j j h f g j j j c [ G F c h h c F j j j g g f g f f H ",
"f f f f = 2 f f f f f f f d d f f f f f f f g f 1 % % +     . O @ @ = f f f f 2 @ * d 0 0 0 0 d 0 0 0 0 0 0 f f 2 % % % $ % % k ",
"@ % @ % % % % % % % % % % + + @ @ % % % % % @ % * * @ +           X + @ @ + @ @ o                         . % % % % % % % = % 4 ",
"+ % % % * = * % % % % % % % @ + + @ @ $ = = = = = 2 @ o                                 .                 . % $ = = % % = 2 * 4 ",
"o @ + + ; d = @ @ @ + + + @ + @ + @ X o = d d ; @ + o                                   +         .     . + @ $ 2 1 # $ 1 # + 4 ",
"  X O $ & & < ; - ; & $ $ O O $ o X X $ & $ . O # + O O o     . O # O O + o X X .       X o       . O O X X   X .     . O & & k ",
"$ ; g F | } } | P P } F F c x F g 2 g D } V 1 j F j j j d O O & h g h h j f = = $ O O           . 0 c j 2 < & ; & $ & 1 c } A.S.",
" .}  .[ [ P P P j x [ [ [ V B K G G [  .o.} G [ D j j j j f j h d = g f g j j j h h d           $ [ | | [ A.} [ G A.[ } | | } D.",
"} [ [ V h j d f j j j x j j f = d j V [ [ F j h f k f g 2 : k 4 2 % % % = g g g g g d .         & [ [ [ [ [ G j c G B G } [ c S.",
"B j j j h x h h j j j j j j h h j j j x j j j 2 % % % % % % % % % % % % % % % % % = f @       . ; F j j j j j j j j j j j j j F ",
"j j j j j j j j j j j j j j j j j j g f g g g 2 % @ % % % % % % % % @ % % % % % % = g %       . ; c j j j j j j j j j j j j j L ",
"j j j j j j h j j j j j j j j j j j < + % % % @ % % % % % % % @ % % % % % % % @ % = g d       O c [ j j j j j j j j j j j j j L ",
"j j j j j j j j j j j j j j j j j j 2 @ % @ % % % % % % % % % % % % % % @ @ % % @ * 1 0       # B [ j j j j h g j j j j j j j L ",
"j j j j j j j j j j j j j j h g j j 2 @ * % % % @ % @ % % % % % % @ = 2 X o % % % = f 0       $ [ G j j j j g = h j j j j j h L ",
"j j j j j j j j j j j j h h 2 2 j j 2 2 2 % % % % % * @ % % % % % % % % @ @ % % % % = 1       $ G j j j j j g < h j j j j j j L ",
"j j j j j j j j j j j j j h 2 2 j j j g 3 % % @ % % % % % % % % % % % % % * @ % @ % & $       $ [ B j j j j h h h j j j j j j L ",
"j j j j j j j j j j j j j h h h j k g 2 % % % % % % % % % % % % % % % % % @ % % % % < d       # [ G j g j j g j j j j j j j j L ",
"j j j j j j j j g g j j j h h h k > % % % % % % % % % % % % % % % % % % % % % % % = h d       # V [ g 1 h f $ h j j j h j j j L ",
"j j j j j j j g 2 d j j g 2 3 2 % @ + @ % % % % % % % % % % % % % % % % % % % % % = h d       # G [ j j j f ; g j j j j j j j L ",
"j j j j j j j 2 2 j h h 2 % 2 ; % % @ % % % % % % % % % % % % % % % % % % % @ @ % = h f       O B G j j g ; g j j j j j j j j L ",
"h j j g g g h h h j j g < ; = o @ % % @ % % % @ @ @ @ @ @ @ @ @ @ % @ @ @ @ + X @ * j 0 .     O j D g h f f h h g g g j g f g L ",
"; g g 3 * % 2 k g g g 2 % % o . o @ @ + o @ @ +   X o + X         o +           . O g 0       o 0 O = 0 % @ f 4 * * = d * % * V ",
"+ $ % % @ @ @ @ % % % @ X . .       o @ o X           X o                           $ ;         .   . .   . % % @ @ @ @ X   X 3 ",
"      X         X     X .                                                             .                         . . .         > ",
"                                                                                                                              : ",
"                                                                                                                              > ",
"                                            X o                                     X   X +                                   > ",
": : : : : : : : : : : : : : : = : : : : : > : : : : : : : : : : : : : : : : > 3 : 3 b 4 4 4 3 : : : : = 3 : : : : * : : : : : v "
};
