/* XPM */
static char *result[] = {
/* columns rows colors chars-per-pixel */
"64 64 172 2 ",
"   c black",
".  c #010101",
"X  c #020202",
"o  c gray1",
"O  c #040404",
"+  c gray2",
"@  c #060606",
"#  c #070707",
"$  c gray3",
"%  c #090909",
"&  c gray4",
"*  c #0C0C0C",
"=  c gray5",
"-  c #0E0E0E",
";  c gray6",
":  c #101010",
">  c #111111",
",  c gray7",
"<  c #131313",
"1  c gray8",
"2  c #151515",
"3  c #161616",
"4  c gray9",
"5  c #181818",
"6  c #191919",
"7  c gray10",
"8  c #1B1B1B",
"9  c gray11",
"0  c #1D1D1D",
"q  c #1E1E1E",
"w  c gray12",
"e  c #202020",
"r  c gray13",
"t  c #222222",
"y  c #232323",
"u  c gray14",
"i  c #252525",
"p  c gray15",
"a  c #272727",
"s  c #282828",
"d  c gray16",
"f  c #2A2A2A",
"g  c gray17",
"h  c #2C2C2C",
"j  c #2D2D2D",
"k  c gray18",
"l  c #2F2F2F",
"z  c gray19",
"x  c #313131",
"c  c #323232",
"v  c gray20",
"b  c #343434",
"n  c #353535",
"m  c gray21",
"M  c #373737",
"N  c gray22",
"B  c #393939",
"V  c #3A3A3A",
"C  c gray23",
"Z  c #3C3C3C",
"A  c gray24",
"S  c #3E3E3E",
"D  c #3F3F3F",
"F  c gray25",
"G  c #414141",
"H  c gray26",
"J  c #434343",
"K  c #444444",
"L  c gray27",
"P  c #464646",
"I  c gray28",
"U  c #484848",
"Y  c #494949",
"T  c gray29",
"R  c #4B4B4B",
"E  c #4C4C4C",
"W  c gray30",
"Q  c #4E4E4E",
"!  c gray31",
"~  c #505050",
"^  c #515151",
"/  c gray32",
"(  c #535353",
")  c gray33",
"_  c #555555",
"`  c #565656",
"'  c gray34",
"]  c #585858",
"[  c gray35",
"{  c #5A5A5A",
"}  c #5B5B5B",
"|  c gray36",
" . c #5D5D5D",
".. c gray37",
"X. c #5F5F5F",
"o. c #606060",
"O. c gray38",
"+. c #626262",
"@. c gray39",
"#. c #656565",
"$. c gray40",
"%. c #676767",
"&. c #686868",
"*. c DimGray",
"=. c #6A6A6A",
"-. c gray42",
";. c #6C6C6C",
":. c #6D6D6D",
">. c gray43",
",. c #6F6F6F",
"<. c gray44",
"1. c #717171",
"2. c #727272",
"3. c gray45",
"4. c #747474",
"5. c gray46",
"6. c #767676",
"7. c #777777",
"8. c gray47",
"9. c #797979",
"0. c gray48",
"q. c #7B7B7B",
"w. c #7C7C7C",
"e. c gray49",
"r. c #7E7E7E",
"t. c gray50",
"y. c #808080",
"u. c #818181",
"i. c gray51",
"p. c #838383",
"a. c #848484",
"s. c gray52",
"d. c #868686",
"f. c gray53",
"g. c #888888",
"h. c #898989",
"j. c gray54",
"k. c #8B8B8B",
"l. c gray55",
"z. c #8D8D8D",
"x. c #8E8E8E",
"c. c gray56",
"v. c #909090",
"b. c gray57",
"n. c #929292",
"m. c #939393",
"M. c gray58",
"N. c #959595",
"B. c gray59",
"V. c #979797",
"C. c #989898",
"Z. c gray60",
"A. c #9A9A9A",
"S. c #9B9B9B",
"D. c gray61",
"F. c gray62",
"G. c #9F9F9F",
"H. c #B4B4B4",
"J. c gray",
"K. c gray75",
"L. c gray76",
"P. c #C5C5C5",
"I. c #C6C6C6",
"U. c gray78",
"Y. c #C8C8C8",
"T. c gray79",
"R. c #CACACA",
"E. c #CBCBCB",
"W. c gray80",
"Q. c gray81",
"!. c gray90",
"~. c None",
/* pixels */
"~.~.~.~.~.~.~.~.~.~.~.!.K.W.Y.I.T.T.T.T.T.T.T.T.R.Y.Y.W.Y.Y.W.L.P.R.R.Y.T.T.U.T.T.T.T.T.T.T.T.T.E.I.Q.~.~.~.~.~.~.~.~.~.~.~.~.~.",
"~.~.~.~.~.~.~.~.~.~.~.M.t 0 9 9 8 8 8 8 8 8 8 8 9 7 6 9 7 7 6 & 4 9 9 7 8 8 7 8 8 8 8 8 8 8 8 8 6 0 Q ~.~.~.~.~.~.~.~.~.~.~.~.~.",
"~.~.~.~.~.~.~.~.~.~.~.l.3 e u t y y y y y y y y u y r y y u w % q y y t u y t u y y y y y y y y a 8 J ~.~.~.~.~.~.~.~.~.~.~.~.~.",
"~.~.~.~.~.~.~.~.~.~.J.4.r t t y r r r r r r r r e t e r r i w @ 8 e r e t r e t r r r r r r r r 0 u P H.~.~.~.~.~.~.~.~.~.~.~.~.",
"~.~.~.~.~.~.~.~.9 7 2 6 7 i t w y y y y y y y y r u y y t p r % 9 r t r u y t y y y y y y y y y u r 3 6 9 4 ^ ~.~.~.~.~.~.~.~.~.",
"~.~.~.~.~.~.~.~.3 p e d p w r a t t t t t t t t r y t t w t w $ 8 r t r y y r t t t t t t t t t t e s i e i C ~.~.~.~.~.~.~.~.~.",
"~.~.~.~.~.~.t 8 0 p q y t y t r t t t t t t t t t y t y r t w & 9 t y t u y r t t t t t t t t t y 0 t u 8 i 7 8 8 ~.~.~.~.~.~.~.",
"~.~.~.~.~.5 q u y t y u 0 i y t t t t t t t t t t r e y y u w & 9 t y t y y e r t t t t t t t t e f 0 e d 9 u t 9 ~.~.~.~.~.~.~.",
"~.~.~.~.~.9 u t p e w p y w u i t r i y 0 A W Y T ! Y T Q I Q ; N ~ R R R W T R L I p r i y w t q i 0 a t q y r 9 T ~.~.~.~.~.~.",
"~.~.~.~.~.8 0 w r r r y t t y 0 p w g H ^ 5.z.b.k.c.k.z.n.k.p.j 5.x.l.z.x.v.l.x.M.a.` H z t r p p y e w y y u r y 7 ~.~.~.~.~.~.",
"~.~.~.~.3 s q s t y y r r u u t 0 w G 9.k.m.c.h.v.n.c.z.v.v.f.r 1.l.z.c.x.v.l.c.g.b.l.s.( a w t y r p 0 u y e r e 8 ~.~.~.~.~.~.",
"~.~.~.~.6 u e q u t t w e t e u d y V 4.h.l.x.b.z.z.x.k.h.z.k.u <.z.c.v.x.x.k.c.v.v.z.a.U y u t q t e r y w e a u r #.~.~.~.~.~.",
"~.~.~.~.8 y u y t t y i Z ) ( ( ~ D J 7.x.v.c.c.x.l.v.m.z.x.j.t 2.c.v.v.z.x.l.v.c.x.c.d.W A / ~ ) E e s i e r u r 7 F ~.~.~.~.~.",
"~.~.0 0 7 t 7 p t y r y ) l.n.z.z.&.Q 3.l.c.z.j.b.j.l.v.c.c.h.r ,.k.l.z.k.l.j.c.j.z.b.s.~ ] h.m.c.5.r y y u y q e e e t ~.~.~.~.",
"~.7 g y q d t t y e w i { x.v.c.c.&.Y 1.c.n.n.v.v.l.j.k.l.c.k.i 2.x.c.v.c.v.x.b.n.z.l.i.( | f.f.x.8.h w w u u t f q 8 t q ~.~.~.",
"~.9 7 a w e a e t r k K 2.v.g.v.x.=.W 6.c.k.l.c.z.b.b.c.z.c.h.u 2.z.x.c.x.c.l.x.z.z.b.d.! ` g.n.l.f.( b p t w y e r a w q ~.~.~.",
"~.7 t r y u u e e r v ,.c.x.b.h.c.%.E 5.x.x.x.x.x.z.x.c.z.x.h.y 1.v.z.c.x.x.x.x.x.c.z.a./ ' g.x.z.b.u.L r s 0 t y r w i q ~.~.~.",
"~.q t t u w t p p i n ;.k.k.n.c.c.%.E 5.x.x.x.x.x.z.x.c.z.x.h.y 1.v.z.c.x.x.x.x.x.c.z.a./ ' g.x.z.z.e.K r i w i t u y w q ~.~.~.",
"f.0 u w t t y w w q b ;.x.k.b.x.c.%.E 5.x.x.x.x.x.z.x.c.z.x.h.y 1.v.z.c.x.x.x.x.x.c.z.a./ ' g.x.b.x.y.P r q r y t r i t 9 ~.~.~.",
"..7 u w y t y t s r M ;.v.z.v.l.c.%.E 5.x.x.x.x.x.z.x.c.z.x.h.y 1.v.z.c.x.x.x.x.x.c.z.a./ ' g.x.l.z.u.P u r g 0 y w i y 9 ~.~.~.",
"{ 0 e u p 9 t A ^ V J *.x.l.v.x.c.%.E 5.x.x.x.x.x.z.x.c.z.x.h.y 1.v.z.c.x.x.x.x.x.c.z.a./ ' g.x.l.x.i.R V J ! i y y u 9 e A ~.~.",
"Q 0 e y y e i E <.W W *.c.z.v.x.c.%.E 5.x.x.x.x.x.z.x.c.z.x.h.y 1.v.z.c.x.x.x.x.x.c.z.a./ ' g.x.v.c.u.W ! +.>.a t y r w e c ~.~.",
"A 6 y r w p u R 4.W Q =.n.c.c.l.c.%.E 5.x.x.x.x.x.z.x.c.z.x.h.y 1.v.z.c.x.x.x.x.x.c.z.a./ ' g.x.z.l.r.Y W o.1.w e t w u q u E ~.",
"J 5 y p r u q ! 3.T W %.v.x.c.z.c.%.E 5.x.x.x.x.x.z.x.c.z.x.h.y 1.v.z.c.x.x.x.x.x.c.z.a./ ' g.x.z.v.s.W R } 4.u q s e r w l ~ ~.",
"I 1 t u q y y E 2.W T -.x.x.x.x.c.%.E 5.x.x.x.x.x.z.x.c.z.x.h.y 1.v.z.c.x.x.x.x.x.c.z.a./ ' g.x.l.v.p.W U o.>.a y p 0 t e k T ~.",
"S 5 u p S ;.,.e.2.W T -.x.x.x.x.c.%.E 5.x.x.x.x.x.z.x.c.z.x.h.y 1.v.z.c.x.x.x.x.x.c.z.a./ ' g.x.v.x.t.Q U | d.=.-._ p e 0 j W ~.",
"D 0 u w U c.v.g.2.W T -.x.x.x.x.c.%.E 5.x.x.x.x.x.z.x.c.z.x.h.y 1.v.z.c.x.x.x.x.x.c.z.a./ ' g.x.x.x.t./ R [ v.v.b.:.i e q h ! ~.",
"F 9 r w U x.v.l.2.W T -.x.x.x.x.c.%.E 5.x.x.x.x.x.z.x.c.z.x.h.y 1.v.z.c.x.x.x.x.x.c.z.a./ ' g.x.j.b.y.! W } l.l.l.;.w t e d ~ ~.",
"F 6 r t T k.c.b.2.W T -.x.x.x.x.c.%.E 5.x.x.x.x.x.z.x.c.z.x.h.y 1.v.z.c.x.x.x.x.x.c.z.a./ ' g.x.z.m.e.T W ..z.l.c.1.w i q a ~ ~.",
"F 8 t e I j.l.j.2.W T -.x.x.x.x.c.%.E 5.x.x.x.x.x.z.x.c.z.x.h.y 1.v.z.c.x.x.x.x.x.c.z.a./ ' g.x.c.v.w.Q ! } z.b.v.1.q u q h ~ ~.",
"S 7 t e Y v.m.c.2.W T -.x.x.x.x.c.%.E 5.x.x.x.x.x.z.x.c.z.x.h.y 1.v.z.c.x.x.x.x.x.c.z.a./ ' g.x.z.c.r./ ! [ k.c.k.;.q u 0 z ! ~.",
"G 8 t t U j.x.x.2.W T -.x.x.x.x.c.%.E 5.x.x.x.x.x.z.x.c.z.x.h.y 1.v.z.c.x.x.x.x.x.c.z.a./ ' g.x.z.b.t.W T | v.z.x.<.y u 6 k E ~.",
"A 4 r y A k.d.s.*.R U +.s.j.j.p.s.o.I >.k.i.d.d.s.g.f.f.a.s.f.w >.s.d.g.s.f.s.f.i.k.g.7./ ^ r.g.l.p.4.T U { u.j.p.&.u q 9 s Y ~.",
"= X # + 6 p t d t 2 4 e p t i a y t 5 q y y s t s r t t f e u % 3 d p a i a u y y i u u 5 5 d y e y d 5 4 6 i e p q & o = o < ~.",
"  X   s t.9.0.9.w.q.q.r.9.0.q.w.0.e.e.w.q.q.w.q.0.7.r.7.w.u.2.w #.q.0.w.0.e.q.w.0.0.0.w.e.e.e.0.e.q.w.9.8.9.t.e.9.w.{     X   ~.",
"  o   c D.M.C.B.M.N.n.V.n.S.C.M.C.v.m.V.Z.V.M.A.b.F.V.N.A.M.z.j 7.n.B.Z.N.B.B.A.V.B.V.M.N.N.n.Z.B.n.M.A.C.V.N.m.A.b.$.    O   ~.",
"X .   d p.j.l.s.k.l.j.z.p.g.d.s.f.h.l.s.p.g.d.s.f.a.s.g.t.d.z.9 ,.d.f.h.s.d.a.d.g.a.d.f.h.j.s.f.l.f.d.g.s.f.h.h.g.s...@   .   ~.",
"+ . # : g r t p y 6 4 t i a p a p e 8 w p d a y s p p u j r u * 6 f u p p d p i a u s p 7 9 a p t i a q 7 q p y i y 7 + # X ; ~.",
"n 9 a L 6.0.w.0.O.L H  .8.q.0.8.8.[ P #.r.9.8.8.7.8.r.5.q.t.,.q $.8.6.8.8.w.0.0.9.8.q.<.R Q 5.9.w.0.:.P F _ 7.r.8.w.X.u 0 s K ~.",
"J 0 a ! c.z.v.z.1.W R -.c.x.x.x.v.%.R 1.b.j.c.v.l.n.z.x.x.z.j.y <.k.v.n.z.z.z.b.c.x.x.y.^ _ k.l.x.v.i.! U X.h.c.z.x.1.h u f ^ ~.",
"F 0 j E x.z.c.z.2.W T -.x.x.x.x.c.%.E 5.x.x.x.x.x.z.x.c.z.x.h.y 1.v.z.c.x.x.x.x.x.c.z.a./ ' g.x.x.x.y.Q E  .l.x.z.c.>.h i g ! ~.",
"F 0 j E x.z.c.z.2.W T -.x.x.x.x.c.%.E 5.x.x.x.x.x.z.x.c.z.x.h.y 1.v.z.c.x.x.x.x.x.c.z.a./ ' g.x.x.x.y.Q E  .l.x.z.c.>.h i g ! ~.",
"F 0 j E x.z.c.z.2.W T -.x.x.x.x.c.%.E 5.x.x.x.x.x.z.x.c.z.x.h.y 1.v.z.c.x.x.x.x.x.c.z.a./ ' g.x.x.x.y.Q E  .l.x.z.c.>.h i g ! ~.",
"F 0 j E x.z.c.z.2.W T -.x.x.x.x.c.%.E 5.x.x.x.x.x.z.x.c.z.x.h.y 1.v.z.c.x.x.x.x.x.c.z.a./ ' g.x.x.x.y.Q E  .l.x.z.c.>.h i g ! ~.",
"F 0 j E x.z.c.z.2.W T -.x.x.x.x.c.%.E 5.x.x.x.x.x.z.x.c.z.x.h.y 1.v.z.c.x.x.x.x.x.c.z.a./ ' g.x.x.x.y.Q E  .l.x.z.c.>.h i g ! ~.",
"F 0 j E x.z.c.z.2.W T -.x.x.x.x.c.%.E 5.x.x.x.x.x.z.x.c.z.x.h.y 1.v.z.c.x.x.x.x.x.c.z.a./ ' g.x.x.x.y.Q E  .l.x.z.c.>.h i g ! ~.",
"F 0 j E x.z.c.z.2.W T -.x.x.x.x.c.%.E 5.x.x.x.x.x.z.x.c.z.x.h.y 1.v.z.c.x.x.x.x.x.c.z.a./ ' g.x.x.x.y.Q E  .l.x.z.c.>.h i g ! ~.",
"F 0 j E x.z.c.z.2.W T -.x.x.x.x.c.%.E 5.x.x.x.x.x.z.x.c.z.x.h.y 1.v.z.c.x.x.x.x.x.c.z.a./ ' g.x.x.x.y.Q E  .l.x.z.c.>.h i g ! ~.",
"J q d Q z.x.l.l.2.W R :.v.c.c.c.v.&.W 3.z.b.v.z.v.x.l.x.b.c.f.u 1.v.z.x.x.x.c.x.l.c.c.d.( ' h.c.v.v.y.W R ..z.v.k.z.1.h i k Q ~.",
"D 9 d Q x.c.v.b.1.W R ;.z.l.l.z.z.%.W 5.z.c.c.x.l.l.l.x.v.c.g.i <.c.l.x.z.z.z.l.c.v.z.p.^ ' g.x.k.z.y.! W  .k.z.n.v.1.h u g E ~.",
"J r j ! z.z.l.z.<.W E :.x.z.x.v.x.%.Q 7.c.x.x.c.x.v.v.x.c.c.g.u 2.b.x.v.c.c.c.x.v.v.l.a./ ] h.c.x.c.y.Q R | z.b.x.k.;.g p j W ~.",
"D 0 f W l.c.c.c.<.W R -.z.z.z.z.c.#.R 5.z.l.l.z.c.b.x.k.k.z.f.y ,.c.l.x.x.x.z.z.k.z.l.a./ ' g.z.x.x.y.W T { k.b.b.c.1.j a k W ~.",
"G w g Q x.b.v.c.3.~ E -.x.c.x.l.v.$.R 5.x.c.c.v.c.v.x.z.v.b.j.i <.c.l.c.x.c.c.x.z.v.x.d.( ] h.c.z.x.i./ ! | j.x.l.z.,.d t h R ~.",
"D q f E j.x.z.k.,.E T =.z.v.v.z.z.$.E 4.z.c.v.c.x.x.x.v.b.x.d.y 1.v.z.x.x.c.c.c.c.v.z.p.^ ' h.x.c.z.r.Q E } j.c.c.c.1.g u j ~ ~.",
"S r l ! k.x.c.v.<.~ ! ;.l.z.x.x.k.=./ 6.k.z.x.l.x.z.z.c.z.h.d.f 2.v.l.z.l.z.x.x.x.x.j.a._ } h.k.c.l.e.! ! ..l.v.z.j.>.l a s Y ~.",
"j : 8 v #.o.X.X.^ v x Y @.o.O.O.@.P x ^ O.+.+.o.@.O.o.+.O.o.#., Y $.+.+.o.O.+.+.O.O.o...v B @.o.o.O.{ c b S @.O.@.o.W 0 7 7 A ~.",
"  X   : x v v l c c c x c b b c x b x v c z v x v v x c b c c & s n c z b c v v x v c b x l b c n x c z n z v b b z e o   .   ~.",
"    + v c.B.C.V.V.V.B.B.B.N.M.m.B.N.b.N.C.N.C.B.B.S.n.Z.m.m.x.p 6.n.C.m.M.B.V.n.N.Z.M.N.V.M.N.N.n.B.V.Z.B.B.M.M.m.C.%.o       ~.",
"X   X c C.A.m.C.n.B.C.V.B.C.C.V.N.C.B.V.V.M.V.N.n.V.m.A.N.S.M.p 7.M.S.B.V.C.Z.N.N.C.n.N.S.C.B.M.Z.C.m.C.m.B.N.A.Z.B.@.. O .   ~.",
"  X   0 [  .( ..{ } { ] [ } [ ` ]  .{ } [ ' } { ..{ ..] ` { ~ 6 T [ ] [ | ] [ } } [ [ | ] ' ..] { ] ] } | [ ] ] } _ S %     O ~.",
"9 - = e D S m B z e 8 h Z A C C Z g e l A V Z A N n Z N C H V = l Z C Z D V C S D B D V q e Z A Z C M 9 e p V C V Z x & @ 5 i ~.",
"A 6 h ! g.l.M.v.>.! T :.l.z.j.n.x.#.~ 1.x.l.j.l.v.b.c.v.k.z.p.g 3.k.v.l.z.z.x.l.z.g.x.y.' { p.x.z.x.u.T R o.j.c.b.z.,.l k k J ~.",
"H 7 i m | ' [ / E m x I { [ ` { | G x U  .} { } ' ] ' { { } _ > K [ } ' [ [ { ] } { } / N N )  .` { ` b m D ] ' ' ' U w q p ' ~.",
"A.s.a.u.d.s.i.g.a.d.d.p.p.f.f.p.i.f.s.a.a.i.d.i.g.p.d.u.g.a.u.p.a.j.i.i.f.p.a.d.i.d.p.s.a.i.s.a.g.i.a.p.h.i.s.a.g.a.d.h.i.n.G.~."
};
