/* XPM */
static char *result[] = {
/* columns rows colors chars-per-pixel */
"64 64 201 2 ",
"   c black",
".  c #010101",
"X  c #020202",
"o  c gray1",
"O  c #040404",
"+  c gray2",
"@  c #060606",
"#  c #070707",
"$  c gray3",
"%  c #090909",
"&  c gray5",
"*  c #101010",
"=  c #111111",
"-  c gray7",
";  c #131313",
":  c gray8",
">  c #151515",
",  c #161616",
"<  c gray9",
"1  c #181818",
"2  c #191919",
"3  c gray10",
"4  c #1B1B1B",
"5  c gray11",
"6  c #1D1D1D",
"7  c #1E1E1E",
"8  c gray12",
"9  c #202020",
"0  c gray13",
"q  c #222222",
"w  c #232323",
"e  c gray14",
"r  c #252525",
"t  c gray15",
"y  c #272727",
"u  c #282828",
"i  c gray16",
"p  c #2A2A2A",
"a  c gray17",
"s  c #2C2C2C",
"d  c #2D2D2D",
"f  c gray18",
"g  c #2F2F2F",
"h  c gray19",
"j  c #313131",
"k  c #323232",
"l  c gray20",
"z  c #343434",
"x  c #353535",
"c  c gray21",
"v  c #373737",
"b  c gray22",
"n  c #393939",
"m  c #3A3A3A",
"M  c gray23",
"N  c #3C3C3C",
"B  c gray24",
"V  c #3E3E3E",
"C  c #3F3F3F",
"Z  c gray25",
"A  c #414141",
"S  c gray26",
"D  c #434343",
"F  c #444444",
"G  c gray27",
"H  c #464646",
"J  c gray28",
"K  c #484848",
"L  c #494949",
"P  c gray29",
"I  c #4B4B4B",
"U  c #4C4C4C",
"Y  c gray30",
"T  c #4E4E4E",
"R  c gray31",
"E  c #505050",
"W  c #515151",
"Q  c gray32",
"!  c #535353",
"~  c gray33",
"^  c #555555",
"/  c #565656",
"(  c gray34",
")  c #585858",
"_  c gray35",
"`  c #5A5A5A",
"'  c #5B5B5B",
"]  c gray36",
"[  c #5D5D5D",
"{  c gray37",
"}  c #5F5F5F",
"|  c #606060",
" . c gray38",
".. c #626262",
"X. c gray39",
"o. c #646464",
"O. c #656565",
"+. c gray40",
"@. c #676767",
"#. c #686868",
"$. c DimGray",
"%. c #6A6A6A",
"&. c gray42",
"*. c #6C6C6C",
"=. c #6D6D6D",
"-. c gray43",
";. c #6F6F6F",
":. c gray44",
">. c #717171",
",. c #727272",
"<. c gray45",
"1. c #747474",
"2. c gray46",
"3. c #767676",
"4. c #777777",
"5. c gray47",
"6. c #797979",
"7. c gray48",
"8. c #7B7B7B",
"9. c #7C7C7C",
"0. c gray49",
"q. c #7E7E7E",
"w. c gray50",
"e. c #808080",
"r. c #818181",
"t. c gray51",
"y. c #838383",
"u. c #848484",
"i. c gray52",
"p. c #868686",
"a. c gray53",
"s. c #888888",
"d. c #898989",
"f. c gray54",
"g. c #8B8B8B",
"h. c gray55",
"j. c #8D8D8D",
"k. c #8E8E8E",
"l. c gray56",
"z. c #909090",
"x. c gray57",
"c. c #929292",
"v. c #939393",
"b. c gray58",
"n. c #959595",
"m. c gray59",
"M. c #979797",
"N. c #989898",
"B. c gray60",
"V. c #9B9B9B",
"C. c gray61",
"Z. c #9D9D9D",
"A. c gray62",
"S. c gray63",
"D. c #A2A2A2",
"F. c #AAAAAA",
"G. c gray68",
"H. c #AFAFAF",
"J. c gray69",
"K. c #B1B1B1",
"L. c #B2B2B2",
"P. c gray70",
"I. c #B4B4B4",
"U. c gray71",
"Y. c #B6B6B6",
"T. c #B7B7B7",
"R. c gray72",
"E. c #B9B9B9",
"W. c #BBBBBB",
"Q. c #BCBCBC",
"!. c gray77",
"~. c #C8C8C8",
"^. c gray79",
"/. c #CACACA",
"(. c gray80",
"). c #CDCDCD",
"_. c #D0D0D0",
"`. c #D2D2D2",
"'. c gray83",
"]. c #D5D5D5",
"[. c gray84",
"{. c #D8D8D8",
"}. c gray85",
"|. c gray86",
" X c gainsboro",
".X c gray88",
"XX c #E1E1E1",
"oX c #E2E2E2",
"OX c gray89",
"+X c #E4E4E4",
"@X c gray90",
"#X c #E6E6E6",
"$X c #E7E7E7",
"%X c gray91",
"&X c #E9E9E9",
"*X c #EAEAEA",
"=X c #F3F3F3",
"-X c gray98",
";X c #FEFEFE",
":X c white",
">X c None",
/* pixels */
">X>X>X>X>X>X>X>X>X>X*X+X|.#X+X>X>X>X>X>X>X>X>X>X>X>X>X>X>X>X>X>X>X>X>X>X>X>X>X>X>X>X>X>X>X>X>X>X>X>X>X>X>X>X>X>X>X X.X+X+X$X>X>X",
">X>X>X>X>X>X>X>X>X0.} G M l z _.>X>X>X>X>X>X>X>X>X>X>X>X>X>X>X>X>X>X>X>X>X>X>X>X>X>X>X>X>X>X>X>X>X>X>X>X>X>X>X>X,.m k v T +.E.>X",
">X>X>X>X>X>X>X>X>X3.L w 9 w e ).>X>X>X>X>X>X>X>X>X>X>X>X>X>X>X>X>X>X>X>X>X>X>X>X>X>X>X>X>X>X>X>X>X>X>X>X>X>X>X>XO.w w 0 N P H.:X",
">X>X>X>X>X>X>X>X>X@.F k 8 6 i (.>X>X>X>X>X>X>X>X>X>X>X>X>X>X>X>X>X>X>X>X>X>X>X>X>X>X>X>X>X>X>X>X>X>X>X>X>X>X>X>X-.9 7 8 B U G.-X",
">X>X>X>X>X>X>X>X>XZ 0 e q u q /.>X>X>X>X>X>X>X>X>X>X>X>X>X>X>X>X>X>X>X>X>X>X>X>X>X>X>X>X>X>X>X>X>X>X>X>X>X>X>X>Xo.9 y r 0 t h.=X",
">X>X>X>X>X>X>Xf.X.i 9 0 8 9 y ).>X>X>X>X>X>X>X>X>X>X>X>X>X>X>X>X>X>X>X>X>X>X>X>X>X>X>X>X>X>X>X>X>X>X>X>X>X>X>X>X*.w 0 0 8 8 G *.",
">X>X>X>X>X>X>Xn q r 5 e u 7 p ^.>X>X>X>X>X>X>X>X>X>X>X>X>X>X>X>X>X>X>X>X>X>X>X>X>X>X>X>X>X>X>X>X>X>X>X>X>X>X>X>Xo.w e 8 q w r 7 ",
">X>X>X>X>X>X>Xv 0 8 i 8 8 t e (.>X>X>X>X>X>X>X>X>X>X>X>X>X>X>X>X>X>X>X>X>X>X>X>X>X>X>X>X>X>X>X>X>X>X>X>X>X>X>X>X$.9 r 0 r 7 0 7 ",
">X>X>X>X>X>X>Xc 0 q 0 0 u 3 g /.>X>X>X>X>X>X>X>X>X>X>X>X>X>X>X>X>X>X>X>X>X>X>X>X>X>X>X>X>X>X>X>X>X>X>X>X>X>X>X>X%.e 0 e e e 0 8 ",
">X>X>X>X>Xr.K e 6 w 3 0 9 p ] .X>X>X>X>X>X>X>X>X>X>X>X>X>X>X>X>X>X>X>X>X>X>X>X>X>X>X>X>X>X>X>X>X>X>X>X>X>X>X>X>XA.A e 9 3 7 e 3 ",
">X>X>XE S N q 5 0 t q y y } h.#X>X>X>X>X>X>X>X>X>X>X>X>X>X>X>X>X>X>X>X>X>X>X>X>X>X>X>X>X>X>X>X>X>X>X>X>X>X>X>X>XW.,.C p w q u 7 ",
">X>X}.k 0 J 9 8 0 9 t 6 0 9.v..X>X>X>X>X>X>X>X>X>X>X>X>X>X>X>X>X>X>X>X>X>X>X>X>X>X>X>X>X>X>X>X>X>X>X>X>X>X>X>X>XJ.l.K 9 w q 0 9 ",
">X>X}.a a L 2 6 q q w t a 6.g.@X>X>X>X>X>X>X>X>X>X>X>X>X>X>X>X>X>X>X>X>X>X>X>X>X>X>X>X>X>X>X>X>X>X>X>X>X>X>X>X>XH.v.I t e 9 0 q ",
"| w./.m t 9 2 u w u w _ &.y.l.%X>X>X>X>X>X>X>X>X>X>X>X>X>X>X>X>X>X>X>X>X>X>X>X>X>X>X>X>X>X>X>X>X>X>X>X>X>X>X>X>XY.x.>.+.B w t w ",
"8 K ^.c ; 5 y 1 9 q t 8.n.z.z..X>X>X>X>X>X>X>X>X>X>X>X>X>X>X>X>X>X>X>X>X>X>X>X>X>X>X>X>X>X>X>X>X>X>X>X>X>X>X>X>XJ.j.k.b.E q 9 0 ",
"8 J !.c 3 r 0 e e 8 g 4.g.k.k.#X>X>X>X>X>X>X>X>X>X>X>X>X>X>X>X>X>X>X>X>X>X>X>X>X>X>X>X>X>X>X>X>X>X>X>X>X>X>X>X>XK.z.j.j.R e 6 r ",
"0 K !.n 4 5 q e q 0 s 9.g.k.c.OX>X>X>X>X>X>X>X>X>X>X>X>X>X>X>X>X>X>X>X>X>X>X>X>X>X>X>X>X>X>X>X>X>X>X>X>X>X>X>X>XL.j.z.j.W w 0 0 ",
"8 K (.g 7 q r 9 0 7 i 8.h.l.x.+X>X>X>X>X>X>X>X>X>X>X>X>X>X>X>X>X>X>X>X>X>X>X>X>X>X>X>X>X>X>X>X>X>X>X>X>X>X>X>X>XP.k.z.j.E 9 8 0 ",
"7 H ~.m 8 q 8 w t 9 u 8.k.k.l.+X>X>X>X>X>X>X>X>X>X>X>X>X>X>X>X>X>X>X>X>X>X>X>X>X>X>X>X>X>X>X>X>X>X>X>X>X>X>X>X>XL.j.z.j.E 0 0 r ",
"8 b D./ 9 e 2 t r 0 u 7.k.k.j.+X>X>X>X>X>X>X>X>X>X>X>X>X>X>X>X>X>X>X>X>X>X>X>X>X>X>X>X>X>X>X>X>X>X>X>X>X>X>X>X>XL.h.l.h.E 0 0 e ",
"q u 4.$.w t 7 q 8 e a 6.j.l.k.#X>X>X>X>X>X>X>X>X>X>X>X>X>X>X>X>X>X>X>X>X>X>X>X>X>X>X>X>X>X>X>X>X>X>X>X>X>X>X>X>XI.j.k.g.Q r 0 6 ",
"0 u *.&.q 7 r 0 w l M q.j.l.k.+X>X>X>X>X>X>X>X>X>X>X>X>X>X>X>X>X>X>X>X>X>X>X>X>X>X>X>X>X>X>X>X>X>X>X>X>X>X>X>X>XP.j.k.j.] x d 9 ",
"9 p o.[ 5 6 w q u F Y u.h.z.l.oX>X>X>X>X>X>X>X>X>X>X>X>X>X>X>X>X>X>X>X>X>X>X>X>X>X>X>X>X>X>X>X>X>X>X>X>X>X>X>X>XL.j.j.l.+.H m e ",
"8 0 P K 3 p 6 0 w J ! u.f.z.x.OX>X>X>X>X>X>X>X>X>X>X>X>X>X>X>X>X>X>X>X>X>X>X>X>X>X>X>X>X>X>X>X>X>X>X>X>X>X>X>X>XP.k.j.l.$.U M 7 ",
"0 0 Y G 3 w w q i G Y i.j.g.b.#X>X>X>X>X>X>X>X>X>X>X>X>X>X>X>X>X>X>X>X>X>X>X>X>X>X>X>X>X>X>X>X>X>X>X>X>X>X>X>X>XU.f.l.h.#.R l r ",
"8 9 U L 0 q 4 0 w G Q i.k.g.v.$X>X>X>X>X>X>X>X>X>X>X>X>X>X>X>X>X>X>X>X>X>X>X>X>X>X>X>X>X>X>X>X>X>X>X>X>X>X>X>X>XH.g.k.h.*.E z 9 ",
"0 q P J 9 q e K H T R r.z.k.l.oX>X>X>X>X>X>X>X>X>X>X>X>X>X>X>X>X>X>X>X>X>X>X>X>X>X>X>X>X>X>X>X>X>X>X>X>X>X>X>X>XI.v.x.k.#.H G K ",
"0 r P G 5 0 k 6.e.] R r.x.k.x.OX>X>X>X>X>X>X>X>X>X>X>X>X>X>X>X>X>X>X>X>X>X>X>X>X>X>X>X>X>X>X>X>X>X>X>X>X>X>X>X>XH.j.f.k.*.Y -.x.",
"7 r I K 7 9 g i.j.( E r.h.h.v.+X>X>X>X>X>X>X>X>X>X>X>X>X>X>X>X>X>X>X>X>X>X>X>X>X>X>X>X>X>X>X>X>X>X>X>X>X>X>X>X>XR.z.j.j.$.L =.k.",
"9 e L K 9 w p w.i.E ! t.x.l.l.OX>X>X>X>X>X>X>X>X>X>X>X>X>X>X>X>X>X>X>X>X>X>X>X>X>X>X>X>X>X>X>X>X>X>X>X>X>X>X>X>XH.d.v.k.@.U :.g.",
"q e K H 6 t s r.s.( ^ 0.h.<.&. X>X>X>X>X>X>X>X>X>X>X>X>X>X>X>X>X>X>X>X>X>X>X>X>X>X>X>X>X>X>X>X>X>X>X>X>X>X>X>X>XZ.=.p.f.O.I :.k.",
"8 e I J 3 r s r.i./ U $.%.z d /.>X>X>X>X>X>X>X>X>X>X>X>X>X>X>X>X>X>X>X>X>X>X>X>X>X>X>X>X>X>X>X>X>X>X>X>X>X>X>X>X&.y Y ;.| P =.l.",
"w e P H 7 9 l 8.-.H M u y 7.x.OX>X>X>X>X>X>X>X>X>X>X>X>X>X>X>X>X>X>X>X>X>X>X>X>X>X>X>X>X>X>X>X>X>X>X>X>X>X>X>X>XP.f.T t j M _ r.",
"8 0 I P 3 w w } k 9 y 5.k.n.B.#X>X>X>X>X>X>X>X>X>X>X>X>X>X>X>X>X>X>X>X>X>X>X>X>X>X>X>X>X>X>X>X>X>X>X>X>X>X>X>X>XQ.m.N.d.P e 0 K ",
"1 5 N Z 4 < 6 h q.a.z.M.x.y.0..X>X>X>X>X>X>X>X>X>X>X>X>X>X>X>X>X>X>X>X>X>X>X>X>X>X>X>X>X>X>X>X>X>X>X>X>X>X>X>X>XD.8.h.n.M.j.f.' ",
"# O       : 6.f.n.B.x.y.0.g y ^.>X>X>X>X>X>X>X>X>X>X>X>X>X>X>X>X>X>X>X>X>X>X>X>X>X>X>X>X>X>X>X>X>X>X>X>X>X>X>X>X#.e [ 7.h.k.b.v.",
"    . . + > d.v.i.3.9.h t <.a..X>X>X>X>X>X>X>X>X>X>X>X>X>X>X>X>X>X>X>X>X>X>X>X>X>X>X>X>X>X>X>X>X>X>X>X>X>X>X>X>XF.g.M u ) u.e.d.",
"+   .     1 #.4.g 0 8 %.y.a.u.&X>X>X>X>X>X>X>X>X>X>X>X>X>X>X>X>X>X>X>X>X>X>X>X>X>X>X>X>X>X>X>X>X>X>X>X>X>X>X>X>XP.p.s.e.D 3 6 E ",
"    + +   . p i o.Q L w.d.n.x.@X>X>X>X>X>X>X>X>X>X>X>X>X>X>X>X>X>X>X>X>X>X>X>X>X>X>X>X>X>X>X>X>X>X>X>X>X>X>X>X>XP.z.x.g.$.S | Q ",
"@ o $ o $ - &.w.s.( U y.m.s.b..X>X>X>X>X>X>X>X>X>X>X>X>X>X>X>X>X>X>X>X>X>X>X>X>X>X>X>X>X>X>X>X>X>X>X>X>X>X>X>X>XJ.l.j.k.#.I :.y.",
"w 5 S C 1 z e.l.p./ W t.k.k.z.+X>X>X>X>X>X>X>X>X>X>X>X>X>X>X>X>X>X>X>X>X>X>X>X>X>X>X>X>X>X>X>X>X>X>X>X>X>X>X>X>XP.j.l.j.#.Y -.k.",
"u q L G 6 b t.l.p./ W t.k.k.z.+X>X>X>X>X>X>X>X>X>X>X>X>X>X>X>X>X>X>X>X>X>X>X>X>X>X>X>X>X>X>X>X>X>X>X>X>X>X>X>X>XP.j.l.j.#.Y -.k.",
"i w I K 8 b r.j.p./ W t.k.k.z.+X>X>X>X>X>X>X>X>X>X>X>X>X>X>X>X>X>X>X>X>X>X>X>X>X>X>X>X>X>X>X>X>X>X>X>X>X>X>X>X>XP.j.l.j.#.Y -.k.",
"y q P J 8 b r.j.p./ W t.k.k.z.+X>X>X>X>X>X>X>X>X>X>X>X>X>X>X>X>X>X>X>X>X>X>X>X>X>X>X>X>X>X>X>X>X>X>X>X>X>X>X>X>XP.j.l.j.#.Y -.k.",
"u q P J 8 n t.l.p./ W t.k.k.z.+X>X>X>X>X>X>X>X>X>X>X>X>X>X>X>X>X>X>X>X>X>X>X>X>X>X>X>X>X>X>X>X>X>X>X>X>X>X>X>X>XP.j.l.j.#.Y -.k.",
"p w P J 7 b t.l.p./ W t.k.k.z.+X>X>X>X>X>X>X>X>X>X>X>X>X>X>X>X>X>X>X>X>X>X>X>X>X>X>X>X>X>X>X>X>X>X>X>X>X>X>X>X>XP.j.l.j.#.Y -.k.",
"i w P H 7 v r.j.p./ W t.k.k.z.+X>X>X>X>X>X>X>X>X>X>X>X>X>X>X>X>X>X>X>X>X>X>X>X>X>X>X>X>X>X>X>X>X>X>X>X>X>X>X>X>XP.j.l.j.#.Y -.k.",
"u w I K 9 n t.l.p./ W t.k.k.z.+X>X>X>X>X>X>X>X>X>X>X>X>X>X>X>X>X>X>X>X>X>X>X>X>X>X>X>X>X>X>X>X>X>X>X>X>X>X>X>X>XP.j.l.j.#.Y -.k.",
"i w P J 8 b t.k.d./ E e.z.z.g.%X>X>X>X>X>X>X>X>X>X>X>X>X>X>X>X>X>X>X>X>X>X>X>X>X>X>X>X>X>X>X>X>X>X>X>X>X>X>X>X>XH.g.x.n.+.K 2.h.",
"i w P J 8 b t.k.q.( ~ q.g.c.x.oX>X>X>X>X>X>X>X>X>X>X>X>X>X>X>X>X>X>X>X>X>X>X>X>X>X>X>X>X>X>X>X>X>X>X>X>X>X>X>X>XT.v.s.s.%.J $.z.",
"i w P J 8 b t.k.l.` T y.z.j.z.OX>X>X>X>X>X>X>X>X>X>X>X>X>X>X>X>X>X>X>X>X>X>X>X>X>X>X>X>X>X>X>X>X>X>X>X>X>X>X>X>XG.j.c.x.#.W 4.f.",
"i w P J 8 b t.k.w.~ E i.j.s.z.#X>X>X>X>X>X>X>X>X>X>X>X>X>X>X>X>X>X>X>X>X>X>X>X>X>X>X>X>X>X>X>X>X>X>X>X>X>X>X>X>XE.a.k.x. .H :.g.",
"i w P J 8 b t.k.k.) U r.z.h.k.#X>X>X>X>X>X>X>X>X>X>X>X>X>X>X>X>X>X>X>X>X>X>X>X>X>X>X>X>X>X>X>X>X>X>X>X>X>X>X>X>XL.z.j.s.%.W -.z.",
"i w P J 8 b t.k.y.( Q q.x.b.f.XX>X>X>X>X>X>X>X>X>X>X>X>X>X>X>X>X>X>X>X>X>X>X>X>X>X>X>X>X>X>X>X>X>X>X>X>X>X>X>X>XJ.d.c.l.@.I &.z.",
"i w P J 8 b t.k.h.U ! g.r.R S ].>X>X>X>X>X>X>X>X>X>X>X>X>X>X>X>X>X>X>X>X>X>X>X>X>X>X>X>X>X>X>X>X>X>X>X>X>X>X>X>X8.S @.x.:.U %.l.",
"i w P J 8 b t.k.a.' J C C R ^ '.>X>X>X>X>X>X>X>X>X>X>X>X>X>X>X>X>X>X>X>X>X>X>X>X>X>X>X>X>X>X>X>X>X>X>X>X>X>X>X>Xs.! H Z C T <.h.",
"u r J L 7 z r.a.I p y J E d.x.%X>X>X>X>X>X>X>X>X>X>X>X>X>X>X>X>X>X>X>X>X>X>X>X>X>X>X>X>X>X>X>X>X>X>X>X>X>X>X>X>XW.n.O.W b 9 n %.",
"r p J J e f S K J Y Y s.B.m.S.OX>X>X>X>X>X>X>X>X>X>X>X>X>X>X>X>X>X>X>X>X>X>X>X>X>X>X>X>X>X>X>X>X>X>X>X>X>X>X>X>XU.N.N.v.%.U F H ",
"= , r 0 * 4 A I k.M.N.N.j._ ~ [.>X>X>X>X>X>X>X>X>X>X>X>X>X>X>X>X>X>X>X>X>X>X>X>X>X>X>X>X>X>X>X>X>X>X>X>X>X>X>X>Xi.E 0.x.B.V.N.,.",
"    o   X : f.N.m.l.n.| Y G C `.>X>X>X>X>X>X>X>X>X>X>X>X>X>X>X>X>X>X>X>X>X>X>X>X>X>X>X>X>X>X>X>X>X>X>X>X>X>X>X>X9.C I E 3.z.m.n.",
"X   .   . & t.k.| [ Q B G 8.x.+X>X>X>X>X>X>X>X>X>X>X>X>X>X>X>X>X>X>X>X>X>X>X>X>X>X>X>X>X>X>X>X>X>X>X>X>X>X>X>X>XL.a...D G ' ) 4.",
"    .   # ; P _ c 5 y 9.g.@.} {.>X>X>X>X>X>X>X>X>X>X>X>X>X>X>X>X>X>X>X>X>X>X>X>X>X>X>X>X>X>X>X>X>X>X>X>X>X>X>X>Xb.} 7.p.) 3 i P ",
"O . O     O j V w._ L | } %.1.>X>X>X>X>X>X>X>X>X>X>X>X>X>X>X>X>X>X>X>X>X>X>X>X>X>X>X>X>X>X>X>X>X>X>X>X>X>X>X>X>XN.*.%.} / L :.{ ",
"* % , 1 * 8 w.s.o.Z D _ >. X:X>X>X>X>X>X>X>X>X>X>X>X>X>X>X>X>X>X>X>X>X>X>X>X>X>X>X>X>X>X>X>X>X>X>X>X>X>X>X>X>X>X>X;XC.$.I m Y w."
};
