/* XPM */
static char *result[] = {
/* columns rows colors chars-per-pixel */
"64 64 247 2 ",
"   c #000300",
".  c #030B01",
"X  c #0A0E05",
"o  c #051504",
"O  c #1A1807",
"+  c #1A1D15",
"@  c #100E00",
"#  c #2B1C07",
"$  c #2A1910",
"%  c #331C14",
"&  c #1A230D",
"*  c #1F290A",
"=  c #0C2C13",
"-  c #1C2413",
";  c #1D2B13",
":  c #1C2619",
">  c #163419",
",  c #0D2911",
"<  c #26260B",
"1  c #372B07",
"2  c #29330A",
"3  c #242B14",
"4  c #2B2B13",
"5  c #252C1A",
"6  c #2A2E1D",
"7  c #272418",
"8  c #352917",
"9  c #2B3214",
"0  c #25311B",
"q  c #2A3518",
"w  c #34341D",
"e  c #333A1C",
"r  c #3B3B1C",
"t  c #373414",
"y  c #1C3F27",
"u  c #292B23",
"i  c #3A2922",
"p  c #2C3321",
"a  c #2A3625",
"s  c #333C23",
"d  c #3B3D24",
"f  c #353C2A",
"g  c #373728",
"h  c #373D36",
"j  c #46271B",
"k  c #433B1A",
"l  c #403C17",
"z  c #4A340E",
"x  c #452D26",
"c  c #5A2F29",
"v  c #463C29",
"b  c #5C3933",
"n  c #583425",
"m  c #643A37",
"M  c #66342D",
"N  c #35431A",
"B  c #3D4324",
"V  c #3D452C",
"C  c #39452A",
"Z  c #3C4634",
"A  c #484318",
"S  c #4C4F15",
"D  c #665412",
"F  c #434323",
"G  c #4B4322",
"H  c #414B25",
"J  c #43442C",
"K  c #4B452A",
"L  c #444C2C",
"P  c #4A4D2C",
"I  c #4C4D25",
"U  c #524D2D",
"Y  c #584B29",
"T  c #45512C",
"R  c #4B532D",
"E  c #4B5A2F",
"W  c #53522F",
"Q  c #555B29",
"!  c #444336",
"~  c #4A4435",
"^  c #444B33",
"/  c #4B4D34",
"(  c #434C3C",
")  c #4B4E3A",
"_  c #564937",
"`  c #465233",
"'  c #4C5432",
"]  c #4D5935",
"[  c #4D533C",
"{  c #4D5A3B",
"}  c #455439",
"|  c #525434",
" . c #535A35",
".. c #52543B",
"X. c #535B3A",
"o. c #595536",
"O. c #674537",
"+. c #61583B",
"@. c #755B31",
"#. c #56623E",
"$. c #5B653D",
"%. c #69683B",
"&. c #6B723B",
"*. c #474F41",
"=. c #534C43",
"-. c #4D5344",
";. c #4E5849",
":. c #525442",
">. c #545A43",
",. c #535D4B",
"<. c #5A5A44",
"1. c #545955",
"2. c #77494A",
"3. c #665745",
"4. c #724D49",
"5. c #5B6443",
"6. c #5B6547",
"7. c #636D4C",
"8. c #676647",
"9. c #766949",
"0. c #63714E",
"q. c #777749",
"w. c #6B6453",
"e. c #656B58",
"r. c #796D5B",
"t. c #766954",
"y. c #657253",
"u. c #6A7455",
"i. c #6B7458",
"p. c #78785A",
"a. c #797868",
"s. c #737274",
"d. c #6D776B",
"f. c #57786F",
"g. c #8C6739",
"h. c #8E534E",
"j. c #89535A",
"k. c #864A44",
"l. c #8C6644",
"z. c #88794A",
"x. c #86755B",
"c. c #977A55",
"v. c #956C4C",
"b. c #A7794A",
"n. c #A57C56",
"m. c #B27C50",
"M. c #837C64",
"N. c #8F7961",
"B. c #967C65",
"V. c #778055",
"C. c #788269",
"Z. c #6F8A76",
"A. c #9B843E",
"S. c #878856",
"D. c #8E8C53",
"F. c #A78246",
"G. c #B5834B",
"H. c #AA8657",
"J. c #B88B56",
"K. c #B8935B",
"L. c #A69858",
"P. c #898966",
"I. c #968769",
"U. c #9A9566",
"Y. c #818B72",
"T. c #948E74",
"R. c #979578",
"E. c #8C9B70",
"W. c #A28A66",
"Q. c #A6936D",
"!. c #A49474",
"~. c #A7987A",
"^. c #B49879",
"/. c #A28678",
"(. c #BBA768",
"). c #A7A476",
"_. c #B7A174",
"`. c #ADB27A",
"'. c #94A271",
"]. c #CBB17F",
"[. c #C8A976",
"{. c #979888",
"}. c #8D978E",
"|. c #A99D84",
" X c #B59B84",
".X c #8EAB92",
"XX c #AAA585",
"oX c #B6AA89",
"OX c #B7B789",
"+X c #BBB593",
"@X c #B2B095",
"#X c #B7BDA5",
"$X c #C6B98A",
"%X c #C7BC98",
"&X c #D1BC9D",
"*X c #CFB087",
"=X c #BBCA8C",
"-X c #BAC6AD",
";X c #BFC9B4",
":X c #A2C2B5",
">X c #C9C998",
",X c #D8C89B",
"<X c #D8D399",
"1X c #D0C48B",
"2X c #E2D19B",
"3X c #CCC3A5",
"4X c #C8C5AB",
"5X c #DBCDA3",
"6X c #D4CBA6",
"7X c #CED2A6",
"8X c #DAD4A6",
"9X c #DDD3AC",
"0X c #D9D9AA",
"qX c #C4CDB6",
"wX c #D3C9B6",
"eX c #DBD6B8",
"rX c #CED6BE",
"tX c #E4CEA9",
"yX c #E4D4A5",
"uX c #E2DAA5",
"iX c #E4D5AB",
"pX c #EBD4AC",
"aX c #E4DBAC",
"sX c #EBDBAD",
"dX c #EAD7A6",
"fX c #F3D8A8",
"gX c #E5DDB3",
"hX c #E9DBB4",
"jX c #E8D8B4",
"kX c #F2D9B4",
"lX c #DEE0B2",
"zX c #DFE4AE",
"xX c #F0E2AE",
"cX c #E8E2BA",
"vX c #E6E5B7",
"bX c #EAE2B0",
"nX c #CED9C3",
"mX c #D5DBC9",
"MX c #D0D2CA",
"NX c #E4DDC0",
"BX c #DEE6D3",
"VX c #DAE2CE",
"CX c #EAE5C5",
"ZX c #F3EFC4",
"AX c #F1E9D6",
"SX c #FCF3EE",
"DX c None",
/* pixels */
"DXDXDXDXDXDXDXDXDXDXDXDXDXDXDXDXDXDXDXDXDXDXDXDXDXDXDXDXDXDXDXDXDXDXDXDXDXDXDXDXDXDXDXDXDXDXDXDXDXDXDXDXDXDXDXDXDXDXDXDXDXDXDXDX",
"DXDXDXDXDXDXDXDXDXDXDXDXDXDXDXDXDXDXDXDXDXDXDXDXDXDXDXDXDXDXDXDXDXDXDXDXDXDXDXDXDXDXDXDXDXDXDXDXDXDXDXDXDXDXDXDXDXDXDXDXDXDXDXDX",
"DXDXDXDXDXDXDXDXDXDXDXDXDXDXDXDXDXDXDXDXDXDXDXDXDXDXDXDXDXDXDXDXDXDXDXDXDXDXDXDXDXDXDXDXDXDXDXDXDXDXDXDXDXDXDXDXDXDXDXDXDXDXDXDX",
"DXDXDXDXDXDXDXDXDXDXDXDXDXDXDXDXDXBXDXDXDXDXDXDXDXDXDXDXDXDXDXDXDXDXDXDXDXDXDXDXDXVX{.DXDXDXDXDXDXDXDXDXDXDXDXDXDXDXDXDXDXDXDXDX",
"DXDXDXDXDXDXDXDXDXDXDXDXDXDXDXd.#.y.qXDXDXDXDXDXDXDXDXDXDXDXDXDXDXDXDXDXDXDXDXDXBXY.6.` DXDXDXDXDXDXDXDXDXDXDXDXDXDXDXDXDXDXDXDX",
"DXDXDXDXDXDXDXDXDXDXDXDXDXDXDX[ Z 7.i.qXDXDXDXDXDXDXDXDXDXDXDXDXDXDXDXDXDXDXDXVXC.7.} C DXDXDXDXDXDXDXDXDXDXDXDXDXDXDXDXDXDXDXDX",
"DXDXDXDXDXDXDXDXDXDXDXDXDXDXe.f T ' 7.d.qXDXDXDXDXDXDXDXDXDXDXDXDXDXDXDXDXDXmXY.7.#.` J ^ DXDXDXDXDXDXDXDXDXDXDXDXDXDXDXDXDXDXDX",
"DXDXDXDXDXDXDXDXDXDXDXDXDXDX6.Z T #.X.7.C.qXDXDXDXDXDXDXDXDXDXDXDXDXDXDXDXVXC.i.7.` ' } C DXDXDXDXDXDXDXDXDXDXDXDXDXDXDXDXDXDXDX",
"DXDXDXDXDXDXDXDXDXDXDXDXDXDXZ ^ ' E ] 5.0.d.;XDXDXDXDXDXDXDXDXDXDXDXDXDXnXZ.i.7.E ] ] T g DXDXDXDXDXDXDXDXDXDXDXDXDXDXDXDXDXDXDX",
"DXDXDXDXDXDXDXDXDXDXDXDXDX,.q C ] R T ] y.i.C.#X-XqXnXmXmXrXqX-X;X;X-X-XE.0.y.{ ] H  .L p X DXDXDXDXDXDXDXDXDXDXDXDXDXDXDXDXDXDX",
"DXDXDXDXDXDXDXDXDXDXDXDXDX;.; C ' ] ' ' 5.u.6.i.e.u.i.i.u.u.u.7.0.y.y.y.0.0.6.] T  .[ [ p $ DXDXDXDXDXDXDXDXDXDXDXDXDXDXDXDXDXDX",
"DXDXDXDXDXDXDXDXDXDXDXDXDX6.; ` L  .T E ] 0.i.5.5.5.5.X.$.$.$.$.6.6.#.6.0.0.#.] ] R R / u g DXDXDXDXDXDXDXDXDXDXDXDXDXDXDXDXDXDX",
"DXDXDXDXDXDXDXDXDXDXDXDXDX1.3 Z ] ' B L $.$.#.] ' ] ] ] ' ' E E E C ] X.] #.#. .R R ` ` 6 p DXDXDXDXDXDXDXDXDXDXDXDXDXDXDXDXDXDX",
"DXDXDXDXDXDXDXDXDXDXDXDXDX,.; N L B ' ' X.] T R ' T R T R ' ' W E E ' R ' ] ] ' N ] ` ` a $ DXDXDXDXDXDXDXDXDXDXDXDXDXDXDXDXDXDX",
"DXDXDXDXDXDXDXDXDXDXDXDXDX;.; 0 e J 5. .T E ] R T E ' ] | | / R R X.R P X.X.T ' R H L s 5 . DXDXDXDXDXDXDXDXDXDXDXDXDXDXDXDXDXDX",
"DXDXDXDXDXDXDXDXDXDXDXDXDX-.5 3 2 8.X.P | ' T ] R R ' R ' ' | [ R Q R  .R P | ] X.] B 3 5   DXDXDXDXDXDXDXDXDXDXDXDXDXDXDXDXDXDX",
"DXDXDXDXDXDXDXDXDXDXDXDXDXDX} 0 [ ] | | P W o.R X.8.7.7.8.5.8.8.8.7.X.'  .R ' R ' 8.f 3 X DXDXDXDXDXDXDXDXDXDXDXDXDXDXDXDXDXDXDX",
"DXDXDXDXDXDXDXDXDXDXDXDXDXDXe.O L ' X.P W W o.8.<./ L B $.T.I.9.L P | 6.|  .' | X. .[ 6   DXDXDXDXDXDXDXDXDXDXDXDXDXDXDXDXDXDXDX",
"DXDXDXDXDXDXDXDXDXDXDXDXDXDX6.s T ' E I  .%.9.I.I.w.V / P.I.B.I.3.v v ) <.<.X.` L ] ' V . DXDXDXDXDXDXDXDXDXDXDXDXDXDXDXDXDXDXDX",
"DXDXDXDXDXDXDXDXDXDXDXDXDX^ ! ` ] ] R Q %.q.c.H.W.I.p.S.R.U.W.W.x.+.K i ~ [ >.>.] T ] ` . DXDXDXDXDXDXDXDXDXDXDXDXDXDXDXDXDXDXDX",
"DXDXDXDXDXDXDXDXDXDXDXDXDX^ d { } ` E 8.z.n.H.H.^.*XY 9.<X8X,XQ.o.t.3.~ g g J 8.] E T ] V . DXDXDXDXDXDXDXDXDXDXDXDXDXDXDXDXDXDX",
"DXDXDXDXDXDXDXDXDXDXDXDX& C { ` { ' W @.g.g.b.H.[.,X&X6XaXuXfX,X&X3X{.t.=.g ~ <. .T R R [   DXDXDXDXDXDXDXDXDXDXDXDXDXDXDXDXDXDX",
"DXDXDXDXDXDXDXDXDXDXDXDXO ` ..P ] P @.g.b.F.F.L.D.`.0X9XaXyXxXuXlX7X4XR.6.<.M.x.U o.Q P [ [   DXDXDXDXDXDXDXDXDXDXDXDXDXDXDXDXDX",
"DXDXDXDXDXDXDXDXDXDXDX  ( ..] ' | Y l.b.J.H.D D D.q.vXcXiXsXuXzXzX'.V.8. .oXwX|.K A U ..>.~ -.  DXDXDXDXDXDXDXDXDXDXDXDXDXDXDXDX",
"DXDXDXDXDXDXDXDXDXDX  u g / [ P U 1 @.m.m.F.A.L.A.Q =XzXjXgXgXlX=X0.V.'.7XZXvXeXI.d v :.:.~ *.u   DXDXDXDXDXDXDXDXDXDXDXDXDXDXDX",
"DXDXDXDXDXDXDXDXDXDXDX    5 d ] P 1 @.b.K.K.(.[.U.&.).=XcXcXgX>X`.D.S.<XbXzX7X0XP.8 ) ! v p     DXDXDXDXDXDXDXDXDXDXDXDXDXDXDXDX",
"DXDXDXDXDXDXDXDXDXDXDXDXDX    3 3 3 < Y c.H.H.].1XyXaXgX0X>X8XiXuX<XuXuX0X0X0XP.p u : u     DXDXDXDXDXDXDXDXDXDXDXDXDXDXDXDXDXDX",
"DXDXDXDXDXDXDXDXDXDXDXDXDXDXDX    5 3 < 8.!.*XpXkXiXyX8XOXQ U.jXbXaXbXuXzX7XP.q : u       DXDXDXDXDXDXDXDXDXDXDXDXDXDXDXDXDXDXDX",
"DXDXDXDXDXDXDXDXDXDXDXDXDXDXDXDXDXDX  u 1.a.~.oXtXhX0XcXbXjXtXjXpXjXjX%X).p.<.s &   . DXDXDXDXDXDXDXDXDXDXDXDXDXDXDXDXDXDXDXDXDX",
"DXDXDXDXDXDXDXDXDXDXDXDXDXDXDXDXDXDXDXDXDXd.w.r.~.~.).T.~.~. X X X|.|.r.w.7.DXDXDXDXDXDXDXDXDXDXDXDXDXDXDXDXDXDXDXDXDXDXDXDXDXDX",
"DXDXDXDXDXDXDXDXDXDXDXDXDXDXDXDXDXDXDXDXDXDXDX{.6 # # j 8 % $ i % O + a.DXDXDXDXDXDXDXDXDXDXDXDXDXDXDXDXDXDXDXDXDXDXDXDXDXDXDXDX",
"DXDXDXDXDXDXDXDXDXDXDXDXDXDXDXDXDXDXDXDXDXDX{.p 8 x b _ c i x m _ x i 7 s.DXDXDXDXDXDXDXDXDXDXDXDXDXDXDXDXDXDXDXDXDXDXDXDXDXDXDX",
"DXDXDXDXDXDXDXDXDXDXDXDXDXDXDXDXDXDXDXDXDX}.0 6 j 2.j.2.b 4.m m h.k.x u u s.DXDXDXDXDXSXDXDXDXDXDXDXDXDXDXDXDXDXDXDXDXDXDXDXDXDX",
"DXDXDXDXDXDXDXDXDXDXDXDXDXDXDXDXDXDXDXDXDXa q $ c j.j.M O./.4.c k.h.b i u + s.DXDXDXDXAXAXCXDXDXDXDXDXDXDXDXDXDXDXDXDXDXDXDXDXDX",
"DXDXDXDXDXDXDXDXDXDXDXDXDXDXDXDXDXDXDXDXh : 0 w i 2.2.b t.I.B.m M k.v 7 6 7 7 MXDXDXDXDXCXbXDXDXDXDXDXDXDXDXDXDXDXDXDXDXDXDXDXDX",
"DXDXDXDXDXDXDXDXDXDXDXDXDXDXDXDXDXDXDXDX*.C s 4 % j c l.~.%X^.c.m j x 6 s L g i.DXDXDXDX>X<XDXDXDXDXDXDXDXDXDXDXDXDXDXDXDXDXDXDX",
"DXDXDXDXDXDXDXDXDXDXDXDXDXDXDXDXDXDXDXX ( } [ J 8 j 9.^.5XiXyX[.v.n # F P R ' 6 VXDXDXDX1X<XDXDXDXDXDXDXDXDXDXDXDXDXDXDXDXDXDXDX",
"DXDXDXDXDXDXDXDXDXDXDXDXDXDXDXDXDXDXDXJ J >.} ^ j 9.Q.5X8XuXkX*Xn.h.z l W  .P ^ 1.DXDXI.uXDXDXDXDXDXDXDXDXDXDXDXDXDXDXDXDXDXDXDX",
"DXDXDXDXDXDXDXDXDXDXDXDXDXDXDXDXDXDX@ K o./ ~ v t.R.5XyXdXfX&X[.m.v.g.z G / P / 7 3.w.q.L.DXDXDXDXDXDXDXDXDXDXDXDXDXDXDXDXDXDXDX",
"DXDXDXDXDXDXDXDXDXDXDXDXDXDXDXDXDX  ~ o.U ..K w !.,XyXsXdXfX].G.J.G.b.z k W ....~ 7 t.x.9.DXDXDXDXDXDXDXDXDXDXDXDXDXDXDXDXDXDXDX",
"DXDXDXDXDXDXDXDXDXDXDXDXDXDXDXDXDX- J o.Y o.v K 3X9XaXsXaXyX2XK.G.G.G.D v | ...._ 7 r.t.DXDXDXDXDXDXDXDXDXDXDXDXDXDXDXDXDXDXDXDX",
"DXDXDXDXDXDXDXDXDXDXDXDXDXDXDXDXDX*.K | U K ~ @X3XOXuXuXhX<X2XfX*XJ.K.W.G d ....~ 4 b wXDXDXDXDXDXDXDXDXDXDXDXDXDXDXDXDXDXDXDXDX",
"DXDXDXDXDXDXDXDXDXDXDXDXDXDXDXDXa a J  .P W k 3X6X~.7XvX0X~.$XxX,X_.*X,Xo.~ [ ` / s g DXDXDXDXDXDXDXDXDXDXDXDXDXDXDXDXDXDXDXDXDX",
"DXDXDXDXDXDXDXDXDXDXDXDXDXDXDXDX*.5 Z E o.A t eX5XS.q.cXgXS.+XZXU.q.$XiX+.J / { / 6 p MXDXDXDXDXDXDXDXDXDXDXDXDXDXDXDXDXDXDXDXDX",
"DXDXDXDXDXDXDXDXDXDXDXDXDXDXDX;.3 s J ] W I A $XjXoX9.hX%Xr P.ZXP.E.iXcX+.J { } ` e 4 -.DXDXDXDXDXDXDXDXDXDXDXDXDXDXDXDXDXDXDXDX",
"DXDXDXDXDXDXDXDXDXDXDXDXDXDXh g w H [ ' R A A ^.5X&XP.x.XXt p.).p.OXiXpX8.r { T / ] e 3 [ DXDXDXDXDXDXDXDXDXDXDXDXDXDXDXDXDXDXDX",
"DXDXDXDXDXDXDXDXDXDXDXDXDXg g J L | ) _ Q 1 @.D.^.kX&Xc._ k K t.oXjXfXkX^.d v { L | k r q Z DXDXDXDXDXDXDXDXDXDXDXDXDXDXDXDXDXDX",
"DXDXDXDXDXDXDXDXDXDXDXDX3 ! ) / | P d W A 1 z.[.tXpXkX3XQ.~.R.+XjXiXkXtXoXr J L d U | W T a 1.DXDXDXDXDXDXDXDXDXDXDXDXDXDXDXDXDX",
"DXDXDXDXDXDXDXDXDXDXDX7 V ) ^ [ E W R | U 1 I.tXpXsXyXpXiX8XhX9XjXkXiXgXoXr v | P o.P R R ^ } 5 ,.DXDXDXDXDXDXDXDXDXDXDXDXDXDXDX",
"DXDXDXDXDXDXDXDXDX  f =.[  .e P E H P | U 8 T.iXpXyXxXdXsXaX9X9X%X9XjX6XoXA F R R P | ' e L P X.V a   DXDXDXDXDXDXDXDXDXDXDXDXDX",
"DXDXDXDXDXDXDXDX  :.:./ L P  .R ' C / ] P 8 I.iXhXyXdXsXjX6X3X~.9.oXjXCXXXt k  .R e L T ] ] R ` [ -.5 DXDXDXDXDXDXDXDXDXDXDXDXDX",
"DXDXDXDXDXDXDXDXh ! ,.! J H P  .H L ` / / t t.0XgXaXjXgXCX3XM.r.p.oXCXeXP.F / ]  .[ / ` [ J B V -.Z Z + DXDXDXDXDXDXDXDXDXDXDXDX",
"DXDXDXDXDXDXDXDXDX    s e R I B q T { ( ' 2 N >X8X0XeXeXeX@Xr.a.r.T.wXVXo.4 J / / ` 6 d ( -.f a f *.DXDXDXDXDXDXDXDXDXDXDXDXDXDX",
"DXDXDXDXDXDXDXDXDXDXDX  < r H 2 2 N C Z V 2 2 =XzXvXeXXXe.O i =.w.M.@X4X..3 d V V B a 0 C C 0 u d.DXDXDXDXDXDXDXDXDXDXDXDXDXDXDX",
"DXDXDXDXDXDXDXDXDXDXDXDX< 9 9 * 3 ; 0 0 6 3 N D.=X7X-XDXDXDXDXDX=.s.{.{.. & q > > > > = = y Z.DXDXDXDXDXDXDXDXDXDXDXDXDXDXDXDXDX",
"DXDXDXDXDXDXDXDXDXDXDXDXDXDX>. .N ; - - * 9 N N E.`.R.DXDXDXDXDXX 1.s.h DX, o o = > > .X.XDXDXDXDXDXDXDXDXDXDXDXDXDXDXDXDXDXDXDX",
"DXDXDXDXDXDXDXDXDXDXDXDXDXDXDXDXDX$.{ DXDXDXDXS =X=X.XDXDXDXDXDXDX.X:XDXDXDXDXDXDXDXDXDXDXDXDXDXDXDXDXDXDXDXDXDXDXDXDXDXDXDXDXDX",
"DXDXDXDXDXDXDXDXDXDXDXDXDXDXDXDXDXDXDXDXDXDXDXDX&.%.DXDXDXDXDXDXDXf.Z.DXDXDXDXDXDXDXDXDXDXDXDXDXDXDXDXDXDXDXDXDXDXDXDXDXDXDXDXDX",
"DXDXDXDXDXDXDXDXDXDXDXDXDXDXDXDXDXDXDXDXDXDXDXDXDXDXDXDXDXDXDXDXDXDXDXDXDXDXDXDXDXDXDXDXDXDXDXDXDXDXDXDXDXDXDXDXDXDXDXDXDXDXDXDX",
"DXDXDXDXDXDXDXDXDXDXDXDXDXDXDXDXDXDXDXDXDXDXDXDXDXDXDXDXDXDXDXDXDXDXDXDXDXDXDXDXDXDXDXDXDXDXDXDXDXDXDXDXDXDXDXDXDXDXDXDXDXDXDXDX",
"DXDXDXDXDXDXDXDXDXDXDXDXDXDXDXDXDXDXDXDXDXDXDXDXDXDXDXDXDXDXDXDXDXDXDXDXDXDXDXDXDXDXDXDXDXDXDXDXDXDXDXDXDXDXDXDXDXDXDXDXDXDXDXDX",
"DXDXDXDXDXDXDXDXDXDXDXDXDXDXDXDXDXDXDXDXDXDXDXDXDXDXDXDXDXDXDXDXDXDXDXDXDXDXDXDXDXDXDXDXDXDXDXDXDXDXDXDXDXDXDXDXDXDXDXDXDXDXDXDX",
"DXDXDXDXDXDXDXDXDXDXDXDXDXDXDXDXDXDXDXDXDXDXDXDXDXDXDXDXDXDXDXDXDXDXDXDXDXDXDXDXDXDXDXDXDXDXDXDXDXDXDXDXDXDXDXDXDXDXDXDXDXDXDXDX",
"DXDXDXDXDXDXDXDXDXDXDXDXDXDXDXDXDXDXDXDXDXDXDXDXDXDXDXDXDXDXDXDXDXDXDXDXDXDXDXDXDXDXDXDXDXDXDXDXDXDXDXDXDXDXDXDXDXDXDXDXDXDXDXDX"
};
