/* XPM */
static char *result[] = {
/* columns rows colors chars-per-pixel */
"64 64 221 2 ",
"   c #010400",
".  c #060A00",
"X  c #0B0600",
"o  c #100000",
"O  c #0B1308",
"+  c #1A1A0C",
"@  c #121A0B",
"#  c #131E14",
"$  c #221A0D",
"%  c #271B16",
"&  c #16220B",
"*  c #1E230D",
"=  c #1B2513",
"-  c #1C2A13",
";  c #1C271C",
":  c #26250C",
">  c #2A280C",
",  c #362D0D",
"<  c #213F00",
"1  c #232315",
"2  c #2B2314",
"3  c #242D15",
"4  c #222619",
"5  c #242C1B",
"6  c #292E1B",
"7  c #2B2E15",
"8  c #362817",
"9  c #243116",
"0  c #2B3115",
"q  c #24311B",
"w  c #2B341C",
"e  c #2D3A1B",
"r  c #3C3212",
"t  c #33351B",
"y  c #343B1D",
"u  c #393919",
"i  c #001439",
"p  c #002034",
"a  c #1C3230",
"s  c #1A332F",
"d  c #2A2E21",
"f  c #2B3421",
"g  c #28352C",
"h  c #343B24",
"j  c #393E25",
"k  c #3B3D2C",
"l  c #343728",
"z  c #283634",
"x  c #393D33",
"c  c #3F2E24",
"v  c #442F10",
"b  c #46391B",
"n  c #473629",
"m  c #483634",
"M  c #3A421D",
"N  c #33411E",
"B  c #344124",
"V  c #3C4523",
"C  c #3C442B",
"Z  c #3E4A2C",
"A  c #3E4A24",
"S  c #3C4534",
"D  c #3F4D33",
"F  c #5F481C",
"G  c #434619",
"H  c #414623",
"J  c #434A26",
"K  c #41452D",
"L  c #454C2C",
"P  c #494E2D",
"I  c #51432B",
"U  c #5B4827",
"Y  c #46512D",
"T  c #4B532E",
"R  c #50542F",
"E  c #535C2F",
"W  c #434535",
"Q  c #444B33",
"!  c #494D34",
"~  c #4B4E38",
"^  c #47493A",
"/  c #574A36",
"(  c #465332",
")  c #4D5432",
"_  c #4E5934",
"`  c #465339",
"'  c #4C543A",
"]  c #4F5A3B",
"[  c #515534",
"{  c #525934",
"}  c #515539",
"|  c #5D553C",
" . c #535B3A",
".. c #5C5A35",
"X. c #685B2B",
"o. c #72542E",
"O. c #57613B",
"+. c #69673B",
"@. c #736439",
"#. c #1A264C",
"$. c #126D72",
"%. c #5D4A44",
"&. c #4C5942",
"*. c #535444",
"=. c #585D43",
"-. c #685E43",
";. c #5B6345",
":. c #5A6847",
">. c #5D664A",
",. c #5F684C",
"<. c #576041",
"1. c #616A4D",
"2. c #6C6445",
"3. c #756A48",
"4. c #7B7449",
"5. c #626652",
"6. c #656D53",
"7. c #64655A",
"8. c #6A6858",
"9. c #6B735B",
"0. c #687257",
"q. c #7A7753",
"w. c #706B4B",
"e. c #4E5474",
"r. c #706D65",
"t. c #8D6E37",
"y. c #9F6F41",
"u. c #8A774B",
"i. c #98754A",
"p. c #857553",
"a. c #9A825D",
"s. c #8A8653",
"d. c #B5874E",
"f. c #A58951",
"g. c #B98957",
"h. c #AC8D54",
"j. c #8A8366",
"k. c #978867",
"l. c #979865",
"z. c #98937B",
"x. c #8B946C",
"c. c #A88D66",
"v. c #A69866",
"b. c #B29769",
"n. c #B98C63",
"m. c #90AE72",
"M. c #A8A26C",
"N. c #ACA47B",
"B. c #A5AF7D",
"V. c #A5B877",
"C. c #B4A876",
"Z. c #C1965F",
"A. c #C69D6F",
"S. c #C5A475",
"D. c #ABC57C",
"F. c #3FA39D",
"G. c #788D84",
"H. c #56B3A9",
"J. c #979C86",
"K. c #A49C85",
"L. c #9AA28D",
"P. c #9FA893",
"I. c #ABA984",
"U. c #B5A888",
"Y. c #ACB186",
"T. c #B9B495",
"R. c #B0B393",
"E. c #B5BAA8",
"W. c #C8B48C",
"Q. c #D4B884",
"!. c #C1AE90",
"~. c #C3B995",
"^. c #C8BB9A",
"/. c #D5BE95",
"(. c #C4BCA5",
"). c #B9C5A8",
"_. c #BDC4B1",
"`. c #B3CBBD",
"'. c #CBC399",
"]. c #DECF98",
"[. c #C0D99F",
"{. c #D1C186",
"}. c #C4C1A3",
"|. c #DDCCA2",
" X c #D4C9A5",
".X c #CFD5A0",
"XX c #D6D7A9",
"oX c #C4C8B5",
"OX c #DDDDBC",
"+X c #D6D4B6",
"@X c #ECD5A3",
"#X c #EBD8A4",
"$X c #E8D8AA",
"%X c #E8DAB6",
"&X c #ECD3A8",
"*X c #D3E3A4",
"=X c #DBE8AD",
"-X c #D8E6B9",
";X c #D8F6BF",
":X c #E5E6AD",
">X c #E6E2BC",
",X c #AEE9EB",
"<X c #DADAC7",
"1X c #C4D6C0",
"2X c #D3E5CE",
"3X c #E8E6C5",
"4X c #F3ECCA",
"5X c #F8F2CC",
"6X c #E5ECDC",
"7X c #E9EDDD",
"8X c #E6E6D7",
"9X c #F3F3D4",
"0X c #FBF8D7",
"qX c #E5F2C2",
"wX c #E8EAE4",
"eX c #FEFEE4",
"rX c #FCFDEB",
"tX c #F4FBEA",
"yX c #FCFEF2",
"uX c #EBF4E3",
"iX c None",
/* pixels */
"iXiXiXiXiXiXiXiXiXiXiXiXiXiXiXiXiXiXiXiXiXiXiXiXiXiXiXiXiXiXiXiXiXiXiXiXiXiXiXiXiXiXiXiXiXiXiXiXiXiXiXiXiXiXiXiXiXiXiXiXiXiXiXiX",
"iXiXiXiXiXiXiXiXiXiXiXiXiXiXiXiXiXiXiXiXiXiXiXiXiXiXiXiXiXiXiXiXiXiXiXiXiXiXiXiXiXiXiXiXiXiXiXiXiXiXiXiXiXiXiXiXiXiXiXiXiXiXiXiX",
"iXiXiXiXiXiXiXiXiXiXiXiXiXiXiXiXiXiXiXiXiXiXiXiXiXiXiXiXiXiXiXiXiXiXiXiXiXiXiXiXiXiXiXiXiXiXiXiXiXiXiXiXiXiXiXiXiXiXiXiXiXiXiXiX",
"iXiXiXiXiXiXiXiXiXiXiXiXiXiXiXiXiXiXiXiXiXiXiXiXiXiXiXiXiXiXiXiXiXiXiXiXiXiXiXiXiXiXiXiXiXiXiXiXiXiXiXiXiXiXiXiXiXiXiXiXiXiXiXiX",
"iXiXiXiXiXiXiXiXiXiXiXiXiXiXiXiXiXiXiXiXiXiXiXiXiXiXiXiXiXiXiXiXiXiXiXiXiXiXiXiXiXiXiXiXiXiXiXiXiXiXiXiXiXiXiXiXiXiXiXiXiXiXiXiX",
"iXiXiXiXiXiXiXiXiXiXiXiXiXiXiXiXiXiXiXiXiX).).R.).uXiXiXiXiXiXiXiXiXiXiXiXiXiXiXiXiXiXiXiXiXiXiXiXiXiXiXiXiXiXiXiXiXiXiXiXiXiXiX",
"iXiXiXiXiXiXiXiXiXiXiXiXiXiXiXiXiXiX- &.&.:.:.O.>.J._.wXiXiXiXiXiXiXiXiXiXiXiXiXiXiXiXiXiXiXiXiXiXiXiXiXiXiXiXiXiXiXiXiXiXiXiXiX",
"iXiXiXiXiXiXiXiXiXiXiXiXiXiXiXiXiXiX- D ` ] ( O.>.;.,.J.oX8XiXiXiXiXiXiXiXiXiXiXiXiXiXiXiXiXiXiXiXiXiXiXiXiXiXiXiXiXiXiXiXiXiXiX",
"iXiXiXiXiXiXiXiXiXiXiXiXiXiXiXiXiXiX@ k L ' ) _ ) <.;.=.8.J.).7XiXiXiXiXiXiXiXiXiXiXiXiXiXiXiXiXiXiXiXiXiXiXiXiXiXiXiXiXiXiXiXiX",
"iXiXiXiXiXiXiXiXiXiXiXiXiXiXiXiXiXiXiXl k L { Y _ ( ' ;.=.1.6.J.E.7XiXiXiXiXiXiXiXiXiXiXiXiXiXiXiXiXiXiXiXiXiXiXiXiXiXiXiXiXiXiX",
"iXiXiXiXiXiXiXiXiXiXiXiXiXiXiXiXiXiXiXS * K ! [ T ) ) Y ) <. .:.1.P._._._.6XiXiXiXiXiXiXiXiXiXiXiXiXiXiXiXiXiXiXiXiXiXiXiXiXiXiX",
"iXiXiXiXiXiXiXiXiXiXiXiXiXiXiXiXiXiXiXiXl 3 t J ) ) ( _ _ { L T :.9.9.9.9.L.oX6XiXiXiXiXiXiXiXiXiXiXiXiXiXiXiXiXiXiXiXiXiXiXiXiX",
"iXiXiXiXiXiXiXiXiXiXiXiXiXiXiXiXiXiXiXiXW 7 0 3 h A ) ( T L M y { 1.<.:.>.,.0.J.oXuXiXiXiXiXiXiXiXiXiXiXiXiXiXiXiXiXiXiXiXiXiXiX",
"iXiXiXiXiXiXiXiXiXiXiXiXiXiXiXiXiXiXiXiXiXh 3 e 0 3 e L ) H H ) ) _ T _ ( _ _ 6.0.P.tXiXiXiXiXiXiXiXiXiXiXiXiXiXiXiXiXiXiXiXiXiX",
"iXiXiXiXiXiXiXiXiXiXiXiXiXiXiXiXiXiXiXiXiX&.3 * 0 9 w e K T  .) _ Y T { Y _ _ ( ] ,.L.yXiXiXiXiXiXiXiXiXiXiXiXiXiXiXiXiXiXiXiXiX",
"iXiXiXiXiXiXiXiXiXiXiXiXiXiXiXiXiXiXiXiXiX4 4 w 3 3 h L } T [ ) Y _ T T _ T T T { 1.9.E.iXiXiXiXiXiXiXiXiXiXiXiXiXiXiXiXiXiXiXiX",
"iXiXiXiXiXiXiXiXiXiXiXiXiXiXiXiXiXiXiXiXiXO 6 7 t j L ) [ T T T ) ) P R E T E O.2.p.z.2XiXiXiXiXiXiXiXiXiXiXiXiXiXiXiXiXiXiXiXiX",
"iXiXiXiXiXiXiXiXiXiXiXiXiXiXiXiXiXiXiXiXiXiXl w Q ! [ ) [ T T [ ` [ R [ E O.+.4.l.B.oXtXiXiXiXiXiXiXiXiXiXiXiXiXiXiXiXiXiXiXiXiX",
"iXiXiXiXiXiXiXiXiXiXiXiXiXiXiXiXiXiXiXiXiXiX~ Q } } [ ) T T [ ) P ) ) ..+.s.N.I.'.>X}._.iXiXiXiXiXiXiXiXiXiXiXiXiXiXiXiXiXiXiXiX",
"iXiXiXiXiXiXiXiXiXiXiXiXiXiXiXiXiXiXiXiXiXX W ~ ) ) T ) ) [ [ ) ] [ [ 2.l.'.$X X~.I.R.+XiXiXiXiXiXiXiXiXiXiXiXiXiXiXiXiXiXiXiXiX",
"iXiXiXiXiXiXiXiXiXiXiXiXiXiXiXiXiXiXiXiXiX@ K ) ) T [ T [ ) ) ) ) Y [ 3.M.#X$X'.p.+.I.9XiXiXiXiXiXiXiXiXiXiXiXiXiXiXiXiXiXiXiXiX",
"iXiXiXiXiXiXiXiXiXiXiXiXiXiXiXiXiXiXiXiX. 1 K } _ _ ) [ ) ) ) ) _ ) +.u.v.Q.|.>XXX=XXX3XiXiXiXiXiXiXiXiXiXiXiXiXiXiXiXiXiXiXiXiX",
"iXiXiXiXiXiXiXiXiXiXiXiXiXiXiXiXiXiXiXiX  t [ L R R T T ) ) ) _ Y T X.u.h.f.v.'.Y.V.-XqXiXiXiXiXiXiXiXiXiXiXiXiXiXiXiXiXiXiXiXiX",
"iXiXiXiXiXiXiXiXiXiXiXiXiXiXiXiXiXiXiX  w ! J  .T [ T [ ) ) ) _ J G X.f.h.t.F 4.+.x.*X=XiXiXiXiXiXiXiXiXiXiXiXiXiXiXiXiXiXiXiXiX",
"iXiXiXiXiXiXiXiXiXiXiXiXiXiXiXiXiXiX  k ' ' L { R E T T T ) { K G X.t.d.Z.A.b.v.X.l.*XiXiXiXiXiXiXiXiXiXiXiXiXiXiXiXiXiXiXiXiXiX",
"iXiXiXiXiXiXiXiXiXiXiXiXiXiXiXiXiXiXd d C Q  .T T T T R ) T P H ..@.y.d.Z.g.b.M.s.M.=XV.iX;XiXiXiXiXiXiXiXiXiXiXiXiXiXiXiXiXiXiX",
"iXiXiXiXiXiXiXiXiXiXiXiXiXiXiXiXiX  = d 6 j  .) T T { { T T H P w.i.d.Z.Z.S.{.{.].#X:XV.N m.iXiXiXiXiXiXiXiXiXiXiXiXiXiXiXiXiXiX",
"iXiXiXiXiXiXiXiXiXiXiXiXiXiXiXiXiXiX. d w 7 j K ) ) T T [ [ J P > b o.y.Z.S.@X@X@X@X:X*XD.[.iXiXiXiXiXiXiXiXiXiXiXiXiXiXiXiXiXiX",
"iXiXiXiXiXiXiXiXiXiXiXiXiXiXiXiXiXiXiX  d 5 w 6 j ` ` ) [ ) ) P r r U i.S.|.@X@X%X#X$X*XV.-XiXiXiXiXiXiXiXiXiXiXiXiXiXiXiXiXiXiX",
"iXiXiXiXiXiXiXiXiXiXiXiXiXiXiXiXiXiXiXiXiX  4 d w W L ! P P  .{ [ b , U k.W.@X&X$X%XXX.XiXiXiXiXiXiXiXiXiXiXiXiXiXiXiXiXiXiXiXiX",
"iXiXiXiXiXiXiXiXiXiXiXiXiXiXiXiXiXiXiXiXiXiX    4 4 7 w B L Q V ' W 0 0 P 4.N.|. X'.iXiXiXiXiXiXiXiXiXiXiXiXiXiXiXiXiXiXiXiXiXiX",
"iXiXiXiXiXiXiXiXiXiXiXiXiXiXiXiXiXiXiXiXiXiXiXiX  . 1 6 3 7 3 3 - 3 3 - * : / iXiXiXiXiXiXiXiXiXiXiXiXiXiXiXiXiXiXiXiXiXiXiXiXiX",
"iXiXiXiXiXiXiXiXiXiXiXiXiXiXiXiXiXiXiXiXiXiXiXiXiXiX      = & = & & + + 4 + iXiXiXiXiXiXiXiXiXiXiXiXiXiXiXiXiXiXiXiXiXiXiXiXiXiX",
"iXiXiXiXiXiXiXiXiXiXiXiXiXiXiXiXiXiXiXiXiXiXiXiXiXiXiXiX  ; d - 9 - 6 1 % m o iXiXiXiXiXiXiXiXiXiXiXiXiXiXiXiXiXiXiXiXiXiXiXiXiX",
"iXiXiXiXiXiXiXiXiXiXiXiXiXiXiXiXiXiXiXiXiXiXiXiXiXiXiXiX  ; w q 9 9 3 1 % m %.o iXiXiXiXiXiXiXiXiXiXiXiXiXiXiXiXiXiXiXiXiXiXiXiX",
"iXiXiXiXiXiXiXiXiXiXiXiXiXiXiXiXiXiXiXiXiXiXiXiXiXiXiX. 4 q 6 3 9 e 6 + % 8 m %.m iXiXiXiXiXiXiXiXiXiXiXiXiXiXiXiXiXiXiXiXiXiXiX",
"iXiXiXiXiXiXiXiXiXiXiXiXiXiXiXiXiXiXiXiXiXiXiXiXiXiXiX  6 9 e 9 B Z 1 2 8 c 8 n / iXiXiXiXiXiXiXiXiXiXiXiXiXiXiXiXiXiXiXiXiXiXiX",
"iXiXiXiXiXiXiXiXiXiXiXiXiXiXiXiXiXiXiXiXiXiXiXiXiXiX  4 f 0 Z e L Q j $ % c n n iXiXiXiXiXiXiXiXiXiXiXiXiXiXiXiXiXiXiXiXiXiXiXiX",
"iXiXiXiXiXiXiXiXiXiXiXiXiXiXiXiXiXiXiXiXiXiXiXiXiX  f 3 C &.V N B ) j 2 8 3.U.U.iXiXiXiXiXiXiXiXiXiXiXiXiXiXiXiXiXiXiXiXiXiXiXiX",
"iXiXiXiXiXiXiXiXiXiXiXiXiXiXiXiXiXiXiXiXiXiXiXiXiXl k k C ) V A ( ] l % -.z.(.!.iXiXiXiXiXiXiXiXiXiXiXiXiXiXiXiXiXiXiXiXiXiXiXiX",
"iXiXiXiXiXiXiXiXiXiXiXiXiXiXiXiXiXiXiXiXiXiXiXiX4 x *.! ) ) M A _ ( w 1 w.(.3X XiXiXiXiXiXiXiXiXiXiXiXiXiXiXiXiXiXiXiXiXiXiXiXiX",
"iXiXiXiXiXiXiXiXiXiXiXiXiXiXiXiXiXiXiXiXiXiXiXiX*.^ Q !  .[ V T ( ( y > j.%X4X4XiXiXiXiXiXiXiXiXiXiXiXiXiXiXiXiXiXiXiXiXiXiXiXiX",
"iXiXiXiXiXiXiXiXiXiXiXiXiXiXiXiXiXiXiXiXiXiXiX*.W ! } ! } [ V A _  .> : | T.%X5X0X0XiXiXiXiXiXiXiXiXiXiXiXiXiXiXiXiXiXiXiXiXiXiX",
"iXiXiXiXiXiXiXiXiXiXiXiXiXiXiXiXiXiXiXiXiXiXiX*.K ' | P P [ T T ( Y t : n 2.~.|.5XeXrXiXiXiXiXiXiXiXiXiXiXiXiXiXiXiXiXiXiXiXiXiX",
"iXiXiXiXiXiXiXiXiXiXiXiXiXiXiXiXiXiXiXiXiXiX7.! [ [ [ R ) ) ) [ _ T , , n +.k.^.3X4XtXiXiXiXiXiXiXiXiXiXiXiXiXiXiXiXiXiXiXiXiXiX",
"iXiXiXiXiXiXiXiXiXiXiXiXiXiXiXiXiXiXiXiX<X7.~ Q [ P ! [ [ ) T T { P t 2 p.k.3.N.%X}.+XiXiXiXiXiXiXiXiXiXiXiXiXiXiXiXiXiXiXiXiXiX",
"iXiXiXiXiXiXiXiXiXiXiXiXiXiXiXiXiXiXiXwX7.W ~ [ ! [ [ T T )  .) ) { r | (. Xp.p.~.I.E.iXiXiXiXiXiXiXiXiXiXiXiXiXiXiXiXiXiXiXiXiX",
"iXiXiXiXiXiXiXiXiXiXiXrXrXiXiXiXiXiXwX7.^ } ! [ R R R [ ) ) [ P ) ) , -.!.%XU.| j.z.E.iXiXiXiXiXiXiXiXiXiXiXiXiXiXiXiXiXiXiXiXiX",
"iXiXiXiXiXiXiXiXeX8X-X3XOX9XeXiXiXwX7.W ' ~ P [ [ R } ! ) ' ) ` ( ) , o.c./.C.Y ( 1XiXiXiXiXiXiXiXiXiXiXiXiXiXiXiXiXiXiXiXiXiXiX",
"iXiXiXiXiXiXiXiX8X%X>X>X+X>X9XiXiX7.^ ~ ! =.u J R P } L ) _ P Y _ _ , U i.v.l.iXiXiXiXiXiXiXiXiXiXiXiXiXiXiXiXiXiXiXiXiXiXiXiXiX",
"iXiXiXiXiXiXiXiXrXiX9X<XOX+X<XiX5.D ( ( } T T T T R ! H T L H J L R b U b.W.M.iXiXiXiXiXiXiXiXiXiXiXiXiXiXiXiXiXiXiXiXiXiXiXiXiX",
"iXiXiXiXiXiXiXiXiXiXiXiXR.z.J.iXD B ] ] T 0 T T R E P J [ T H P [ R I n i.$XY.iXiXiXiXiXiXiXiXiXiXiXiXiXiXiXiXiXiXiXiXiXiXiXiXiX",
"iXiXiXiXiXiXiXiXiXiXiXiXiXr.l ^ = 9 Z D N A _ ) T R M P ! R H J P P | r a.$XY.iXiXiXiXiXiXiXiXiXiXiXiXiXiXiXiXiXiXiXiXiXiXiXiXiX",
"iXiXiXiXiXiXiXiXiXiXiXiXiXiXr.x S d q f Z Y Y _ ) P y L ! P u J  .) [ > k.>XY.-XiXiXiXiXiXiXiXiXiXiXiXiXiXiXiXiXiXiXiXiXiXiXiXiX",
"iXiXiXiXiXiXiXiXiXiXiXiXiXiXiXiXiXiXS ; q Q ` ` Q C j ' } C H Q ( ` ) 0 j.XX).iXiXiXiXiXiXiXiXiXiXiXiXiXiXiXiXiXiXiXiXiXiXiXiXiX",
"iXiXiXiXiXiXiXiXiXiXiXiXiXiXiXiXiXiXiX# # f f f f 3 f S ` w C ` ` ` ~ h 9.~.<XiXiXiXiXiXiXiXiXiXiXiXiXiXiXiXiXiXiXiXiXiXiXiXiXiX",
"iXiXiXiXiXiXiXiXiXiXiXiXiXiXiXiXiXiXiXiXiX. d 4 f = w q q 9 e Z ( ` S 1 8.K.+XiXiXiXiXiXiXiXiXiXiXiXiXiXiXiXiXiXiXiXiXiXiXiXiXiX",
"iXiXiXiXiXiXiXiXiXiXiXiXiXiXiXiXiXiXiXiXiXiXiXiXiXiXO   ; ; ; g z z a a G.`.2XiXiXiXiXiXiXiXiXiXiXiXiXiXiXiXiXiXiXiXiXiXiXiXiXiX",
"iXiXiXiXiXiXiXiXiXiXiXiXiXiXiXiXiXiXiXiXiXiXiXiXiXiXiXiXiXiXe.#.#.i i p $.F.H.H.,XiXiXiXiXiXiXiXiXiXiXiXiXiXiXiXiXiXiXiXiXiXiXiX",
"iXiXiXiXiXiXiXiXiXiXiXiXiXiXiXiXiXiXiXiXiXiXiXiXiXiXiXiXiXiXiXiXiXiXiXiXiXiXiXiXiXiXiXiXiXiXiXiXiXiXiXiXiXiXiXiXiXiXiXiXiXiXiXiX",
"iXiXiXiXiXiXiXiXiXiXiXiXiXiXiXiXiXiXiXiXiXiXiXiXiXiXiXiXiXiXiXiXiXiXiXiXiXiXiXiXiXiXiXiXiXiXiXiXiXiXiXiXiXiXiXiXiXiXiXiXiXiXiXiX",
"iXiXiXiXiXiXiXiXiXiXiXiXiXiXiXiXiXiXiXiXiXiXiXiXiXiXiXiXiXiXiXiXiXiXiXiXiXiXiXiXiXiXiXiXiXiXiXiXiXiXiXiXiXiXiXiXiXiXiXiXiXiXiXiX",
"iXiXiXiXiXiXiXiXiXiXiXiXiXiXiXiXiXiXiXiXiXiXiXiXiXiXiXiXiXiXiXiXiXiXiXiXiXiXiXiXiXiXiXiXiXiXiXiXiXiXiXiXiXiXiXiXiXiXiXiXiXiXiXiX",
"iXiXiXiXiXiXiXiXiXiXiXiXiXiXiXiXiXiXiXiXiXiXiXiXiXiXiXiXiXiXiXiXiXiXiXiXiXiXiXiXiXiXiXiXiXiXiXiXiXiXiXiXiXiXiXiXiXiXiXiXiXiXiXiX"
};
