/* XPM */
static char *result[] = {
/* columns rows colors chars-per-pixel */
"64 64 211 2 ",
"   c #191E0B",
".  c #231E0C",
"X  c #241907",
"o  c #251C13",
"O  c #1C250F",
"+  c #1C290F",
"@  c #17260C",
"#  c #1C2112",
"$  c #1A2B11",
"%  c #25220A",
"&  c #222514",
"*  c #242C14",
"=  c #2B2C16",
"-  c #23261A",
";  c #252A19",
":  c #292D1D",
">  c #2D2514",
",  c #342D14",
"<  c #342515",
"1  c #2B3215",
"2  c #2C321C",
"3  c #2F3A1C",
"4  c #24301A",
"5  c #32351B",
"6  c #3B371C",
"7  c #353D1D",
"8  c #393B1D",
"9  c #393316",
"0  c #272B24",
"q  c #2B2D22",
"w  c #2E3322",
"e  c #313524",
"r  c #343C23",
"t  c #3A3E24",
"y  c #33352A",
"u  c #393D2F",
"i  c #353C2E",
"p  c #3A3D32",
"a  c #442E1C",
"s  c #46351D",
"d  c #472B27",
"f  c #413D23",
"g  c #463626",
"h  c #553F24",
"j  c #5C3C3A",
"k  c #5B3439",
"l  c #36401E",
"z  c #3D451E",
"x  c #354124",
"c  c #3B4324",
"v  c #3D422C",
"b  c #354228",
"n  c #3D4133",
"m  c #424426",
"M  c #434B25",
"N  c #43442C",
"B  c #444B2B",
"V  c #4A4E2D",
"C  c #4B442A",
"Z  c #514E2D",
"A  c #47512E",
"S  c #4B532D",
"D  c #4B5226",
"F  c #50512F",
"G  c #51582F",
"H  c #505D27",
"J  c #414435",
"K  c #454D33",
"L  c #4A4D33",
"P  c #424539",
"I  c #464A3B",
"U  c #484D3D",
"Y  c #584B34",
"T  c #4D5333",
"R  c #4D533A",
"E  c #495538",
"W  c #525434",
"Q  c #525935",
"!  c #51553B",
"~  c #545A3C",
"^  c #595D3A",
"/  c #5A5339",
"(  c #604D38",
")  c #695A3B",
"_  c #5A613A",
"`  c #73643A",
"'  c #646C3B",
"]  c #454944",
"[  c #515544",
"{  c #5A5E43",
"}  c #545C46",
"|  c #5C5E50",
" . c #6A4849",
".. c #675C43",
"X. c #705B46",
"o. c #7A4C56",
"O. c #5D6343",
"+. c #5F6549",
"@. c #5E6155",
"#. c #5F6259",
"$. c #616745",
"%. c #626A44",
"&. c #65684D",
"*. c #68674B",
"=. c #796A4B",
"-. c #7D6649",
";. c #69704F",
":. c #77754F",
">. c #6C6C52",
",. c #656759",
"<. c #6B6D5B",
"1. c #746C51",
"2. c #6E7155",
"3. c #69725D",
"4. c #767254",
"5. c #767954",
"6. c #73795A",
"7. c #7B7559",
"8. c #686C61",
"9. c #777961",
"0. c #816B53",
"q. c #847957",
"w. c #9E737D",
"e. c #A0777D",
"r. c #7E8558",
"t. c #79844A",
"y. c #7D8166",
"u. c #7E8274",
"i. c #95845C",
"p. c #828564",
"a. c #8C8964",
"s. c #94866B",
"d. c #90976E",
"f. c #868876",
"g. c #988572",
"h. c #97977C",
"j. c #A99B7A",
"k. c #B69E7E",
"l. c #B29D70",
"z. c #A7896D",
"x. c #96A56E",
"c. c #B7A074",
"v. c #A6A37A",
"b. c #858A83",
"n. c #8C9381",
"m. c #9C9783",
"M. c #AC9E85",
"N. c #B19B83",
"B. c #ADA483",
"V. c #ACA889",
"C. c #B4AB8E",
"Z. c #BAAC8C",
"A. c #B5A584",
"S. c #B6BD8D",
"D. c #B9B48D",
"F. c #BDA79C",
"G. c #B4B393",
"H. c #BCB191",
"J. c #B9B899",
"K. c #A9AFA3",
"L. c #C0A983",
"P. c #C0AF91",
"I. c #C7B796",
"U. c #D6BF93",
"Y. c #C2A9A2",
"T. c #BDC48E",
"R. c #BDC997",
"E. c #C9C49D",
"W. c #D9D29E",
"Q. c #C6D499",
"!. c #E4CE9D",
"~. c #C8C7A7",
"^. c #D2C4AA",
"/. c #D9CCA9",
"(. c #DDCAA7",
"). c #DED2AC",
"_. c #DCDCA9",
"`. c #DCD4B4",
"'. c #D7D6B8",
"]. c #CFC9BB",
"[. c #E4D5AB",
"{. c #E4DDAE",
"}. c #E7D7A7",
"|. c #E3D5B4",
" X c #E5DAB3",
".X c #E4DDBD",
"XX c #EBDBB8",
"oX c #E3E5AC",
"OX c #E2E2BE",
"+X c #EAE4B8",
"@X c #E7E6B4",
"#X c #F3E4BA",
"$X c #F1FBBF",
"%X c #D2D0C2",
"&X c #F1C8D2",
"*X c #E9DCCB",
"=X c #EBE4C4",
"-X c #E9E8C8",
";X c #EFF2C3",
":X c #FFF1CD",
">X c #F6EDD4",
",X c #F3EEDA",
"<X c #F8E8D4",
"1X c #FDFDD4",
"2X c #F5F2DD",
"3X c #FCF9DB",
"4X c #FEFCE4",
"5X c #FFFEEB",
"6X c #F9F5E0",
"7X c #FFFFF3",
"8X c None",
/* pixels */
"8X8X8X8X8X8X8X8X8X8X8X8X8X8X8X8X8X8X8X8X8X8X8X8X8X8X8X8X8X8X8X8X8X8X8X8X8X8X8X8X8X8X8X8X8X8X8X8X8X8X8X8X8X8X8X8X8X8X8X8X8X8X8X8X",
"8X8X8X8X8X8X8X8X8X8X8X8X8X8X8X8X8X8X8X8X8X8X8X8X8X8X8X8X8X8X8X8X8X8X8X8X8X8X8X8X8X8X8X8X8X8X8X8X8X8X8X8X8X8X8X8X8X8X8X8X8X8X8X8X",
"8X8X8X8X8X8X8X8X8X8X8X8X8X8X8X8X8X8X8X8X8X8X8X8X8X8X8X8X8X8X8X8X8X8X8X8X8X8X8X8X8X8X8X8X8X8X8X8X8X8X8X8X8X8X8X8X8X8X8X8X8X8X8X8X",
"8X8X8X8X8X8X8X8X8X8X8X8X8X8X8X8X8X8X8X8X8X8X8X8X8X8X8X8X8X8X8X8X8X8X8X8X8X8X8X8X8X8X8X8X8X8X8X8X8X8X8X8X8X8X8X8X8X8X8X8X8X8X8X8X",
"8X8X8X8X8X8X8X8X8X8X8X8X8X8X8X8X8X8X8X8X8X8X8X8X8X8X8X8X8X8X8X8X8X8X8X8X8X6.+.;.3.3.<.8X8X8X8X8X8X8X8X8X8X8X8X8X8X8X8X8X8X8X8X8X",
"8X8X8X8X8X8X8X8X8X8X8X8X8X8X8X8X8X8X8X8X8X8X8X8X8X8X8X8X8X8X8X8X8X8X8Xr.%.%.O.~ K } e I 8X8X8X8X8X8X8X8X8X8X8X8X8X8X8X8X8X8X8X8X",
"8X8X8X8X8X8X8X8X8X8X8X8X8X8X8X8X8X8X8X8X8X8X8X8X8X8X8X8X8X8X8X8X8Xy._ O.O.S A T E K e I 8X8X8X8X8X8X8X8X8X8X8X8X8X8X8X8X8X8X8X8X",
"8X8X8X8X8X8X8X8X8X8X8X8X8X8X8X8X8X8X8X8X8X8X8X8X8X8X8X8X8X8X8X9.O.{ +.Q G G S T K t n 8X8X8X8X8X8X8X8X8X8X8X8X8X8X8X8X8X8X8X8X8X",
"8X8X8X8X8X8X8X8X8X8X8X8X8X8X8X8X8X8X8X8X8X8X8X8X8X8X8X8X8X6._ O.+.T T W S G G A b # P 8X8X8X8X8X8X8X8X8X8X8X8X8X8X8X8X8X8X8X8X8X",
"8X8X8X8X8X8X8X8X8X8X8X8X8X8X8X8X8X8X8X8X8X8X8X8X8X8XO.;.2.%._ z T R R R W V b r * I 8X8X8X8X8X8X8X8X8X8X8X8X8X8X8X8X8X8X8X8X8X8X",
"8X8X8X8X8X8X8X8X8X8X8X8X8X8X8X8X8X8X8X8X8X8X8X8X~ { O.O.O._ M z 8 T R V c 3 * w ; y 8X8X8X8X8X8X8X8X8X8X8X8X8X8X8X8X8X8X8X8X8X8X",
"8X8X8X8X8X8X8X8X8X8X8X8X8X8X8X8X8X8X8X8X8Xf.O.O.Q O.S M S G S T B V z 3 3 1 * - n 8X8X8X8X8X8X8X8X8X8X8X8X8X8X8X8X8X8X8X8X8X8X8X",
"8X8X8X8X8X8X8X8X8X8X8X8X8X8X8X8X8X8X8X8Xf.&.Q G S V D Q T A G A R V c 3 * 1 3 $ w 8X8X8X8X8X8X8X8X8X8X8X8X8X8X8X8X8X8X8X8X8X8X8X",
"8X8X8X8X8X8X8X8X8X8X8X8X8X8X8X8X8X8X8X8X6.2.%.S G G S A Q W Q A S A T B 1 * ; ; - 8X8X8X8X8X8X8X8X8X8X8X8X8X8X8X8X8X8X8X8X8X8X8X",
"8X8X8X8X8X8X8X8X8X8X8X8X8X8X8X8X8X8X8X8X~.y.r.O._ D G Q A B R R Q S T A M c w ; 0 8X8X8X8X8X8X8X8X8X8X8X8X8X8X8X8X8X8X8X8X8X8X8X",
"8X8X8X8X8X8X8X8X8X8X8X8X8X8X8X8X8X8X8X8XJ.~.D.a.5.;.~ A ! [ K W T T T T R A v I 8X8X8X8X8X8X8X8X8X8X8X8X8X8X8X8X8X8X8X8X8X8X8X8X",
"8X8X8X8X8X8X8X8X8X8X8X8X8X8X8X8X8X8X8X2XC.OX).B.7...{ ~ E R T W T T T W S R T J - 8X8X8X8X8X8X8X8X8X8X8X8X8X8X8X8X8X8X8X8X8X8X8X",
"8X8X8X8X8X8X8X8X8X8X8X8X8X8X8X8X8X8X8X6XJ.) 0.P.Z.>.2.[ R T Z W T T G S S W L N | 8X8X8X8X8X8X8X8X8X8X8X8X8X8X8X8X8X8X8X8X8X8X8X",
"8X8X8X8X8X8X8X8X8X8X8X8X8X8X8X8X8X8X8X4X`.E.I.).V.;.[ +.~ T ^ V W T W T W G L N & y 8X8X8X8X8X8X8X8X8X8X8X8X8X8X8X8X8X8X8X8X8X8X",
"8X8X8X8X8X8X8X8X8X8X8X8X8X8X8X8X8X8X8X4XOX~.v.E.:.5.y.r.A T V D T T T Q S S T B w ,.8X8X8X8X8X8X8X8X8X8X8X8X8X8X8X8X8X8X8X8X8X8X",
"8X8X8X8X8X8X8X8X8X8X8X8X8X8X8X8X8X8X8X3X'.S._ p.D d.~.h._ M A S W W T W S W W T v e ,.8X8X8X8X8X8X8X8X8X8X8X8X8X8X8X8X8X8X8X8X8X",
"8X8X8X8X8X8X8X8X8X8X8X8X8X8X8X8X8X8X8X1X_.T.H x.R.-XOXT.5.M M A T V T F S W T T K U u ] 8X8X8X8X8X8X8X8X8X8X8X8X8X8X8X8X8X8X8X8X",
"8X8X8X8X8X8X8X8X8X8X8X8X8X8X8X8X8X8X^.V.@XT.t.Q.1X;X=X.XV.r.M M T V W W A S T T L N : 0 0 8X8X8X8X8X8X8X8X8X8X8X8X8X8X8X8X8X8X8X",
"8X8X8X8X8X8X8X8X8X8X8X8X8X8X8X8X8X8Xh i.@X_.oX$X@XoX X/.B.7.O.c V V T W T T T T v ; : - ] 8X8X8X8X8X8X8X8X8X8X8X8X8X8X8X8X8X8X8X",
"8X8X8X8X8X8X8X8X8X8X8X8X8X8X8X8X8X8Xz.XX}.}.oX_.}.{.(.A.0.a 8 B V ^ V W T R c t = 2 - I 8X8X8X8X8X8X8X8X8X8X8X8X8X8X8X8X8X8X8X8X",
"8X8X8X8X8X8X8X8X8X8X8X8X8X8X8X8X8X8XL.I.}.#XW.{.[./.k.0.s s N T L T ~ L L t 2 : * ; I 8X8X8X8X8X8X8X8X8X8X8X8X8X8X8X8X8X8X8X8X8X",
"8X8X8X8X8X8X8X8X8X8X8X8X8X8X8X8X8X8X8XP.I.[. X|./.c.-.h , C R ~ R T t K t ; * & J u.8X8X8X8X8X8X8X8X8X8X8X8X8X8X8X8X8X8X8X8X8X8X",
"8X8X8X8X8X8X8X8X8X8X8X8X8X8X8X8X8X8X8X8X^.=XH.H.s.W 6 > e t b b r c 2 ; - q p f.8X8X8X8X8X8X8X8X8X8X8X8X8X8X8X8X8X8X8X8X8X8X8X8X",
"8X8X8X8X8X8X8X8X8X8X8X8X8X8X8X8X8X8X8X8X8X8X`.N.t X .   + + $ @ + * # # i b.8X8X8X8X8X8X8X8X8X8X8X8X8X8X8X8X8X8X8X8X8X8X8X8X8X8X",
"8X8X8X8X8X8X8X8X8X8X8X8X8X8X8X8X8X8X8X8X8X8X8XY.g o & # @ $ $ $ + + n.K.b.8X8X8X8X8X8X8X8X8X8X8X8X8X8X8X8X8X8X8X8X8X8X8X8X8X8X8X",
"8X8X8X8X8X8X8X8X8X8X8X8X8X8X8X8X8X8X8X8X8X8X&Xe. .d o : ; 4 ; 1 * r 3.8X8X8X8X8X8X8X8X8X8X8X8X8X8X8X8X8X8X8X8X8X8X8X8X8X8X8X8X8X",
"8X8X8X8X8X8X8X8X8X8X8X8X8X8X8X8X8X8X8X8X8X8Xe.o.k d o o 3 $ 2 * * $ i 8X8X8X8X8X8X8X8X8X8X8X8X8X8X8X8X8X8X8X8X8X8X8X8X8X8X8X8X8X",
"8X8X8X8X8X8X8X8X8X8X8X8X8X8X8X8X8X8X8X8X8X8X .j d < o * 1 b l 1 * 3 $ 8.8X8X8X8X8X8X8X8X8X8X8X8X8X8X8X8X8X8X8X8X8X8X8X8X8X8X8X8X",
"8X8X8X8X8X8X8X8X8X8X8X8X8X8X8X8X8X8X8X8X8X8Xj g a a > > b v l z 5 $ w n 8X8X8X8X8X8X8X8X8X8X8X8X8X8X8X8X8X8X8X8X8X8X8X8X8X8X8X8X",
"8X8X8X8X8X8X8X8X8X8X8X8X8X8X8X8X8X8X8X8X8X8XF.w.j.) % . A E b v A B 3 4 #.8X8X8X8X8X8X8X8X8X8X8X8X8X8X8X8X8X8X8X8X8X8X8X8X8X8X8X",
"8X8X8X8X8X8X8X8X8X8X8X8X8X8X8X8X8X8X8X8X8X8X<XN.c.X.g > v E v l T v b n P 8X8X8X8X8X8X8X8X8X8X8X8X8X8X8X8X8X8X8X8X8X8X8X8X8X8X8X",
"8X8X8X8X8X8X8X8X8X8X8X8X8X8X8X8X8X8X8X8X8X8X*XP.U.i.( X t T R w M A R R n @.8X8X8X8X8X8X8X8X8X8X8X8X8X8X8X8X8X8X8X8X8X8X8X8X8X8X",
"8X8X8X8X8X8X8X8X8X8X8X8X8X8X8X8X8X8X8X8X8X8X4X:X!.c.X.a f T E E A ^ V L R [ 8X8X8X8X8X8X8X8X8X8X8X8X8X8X8X8X8X8X8X8X8X8X8X8X8X8X",
"8X8X8X8X8X8X8X8X8X8X8X8X8X8X8X8X8X8X8X8X8X7X4X:X!.l.( X t ! L r D D T W ! u @.8X8X8X8X8X8X8X8X8X8X8X8X8X8X8X8X8X8X8X8X8X8X8X8X8X",
"8X8X8X8X8X8X8X8X8X8X8X8X8X8X8X8X8X8X8X8X8X4X<X}.L.` < X m T T T T W T Q L L U 8X8X8X8X8X8X8X8X8X8X8X8X8X8X8X8X8X8X8X8X8X8X8X8X8X",
"8X8X8X8X8X8X8X8X8X8X8X8X8X8X8X8X8X8X8X8X4X=X>XI.i.` C O m S V Q F W V W R R I [ 8X8X8X8X8X8X8X8X8X8X8X8X8X8X8X8X8X8X8X8X8X8X8X8X",
"8X8X8X8X8X8X8X8X8X8X8X8X8X8X8X8X8X8X8X8X>Xv.|.A.=.j.a.9 7 W / Z W W F L W T I I | 8X8X8X8X8X8X8X8X8X8X8X8X8X8X8X8X8X8X8X8X8X8X8X",
"8X8X8X8X8X8X8X8X8X8X8X8X8X8X8X8X8X8X8X8X'.s.I.X.s.`.G.M t L / F Y T Q V W R [ K n @.8X8X8X8X8X8X8X8X8X8X8X8X8X8X8X8X8X8X8X8X8X8X",
"8X8X8X8X8X8X8X8X8X8X8X8X8X8X8X8X8X8X8X8X8Xq.0.Y Z..XG.V c S F F W T Q W S T ! R [ u 8.].8X8X8X5X,X>X2X,X8X8X8X8X8X8X8X8X8X8X8X8X",
"8X8X8X8X8X8X8X8X8X8X8X8X8X8X8X8X8X8X8X8X8X8X*.g.Z.|.G.N 8 S F F W V V Q V S A B R [ J ,.%X8X5X2X=X`.*X=X2X8X8X8X8X8X8X8X8X8X8X8X",
"8X8X8X8X8X8X8X8X8X8X8X8X8X8X8X8X8X8X8X8X8X8X8X^.Z.XXC.V l W G M L V M W S Q V c L R L u <.'.4X%X`. X.X'.8X8X8X8X8X8X8X8X8X8X8X8X",
"8X8X8X8X8X8X8X8X8X8X8X8X8X8X8X8X8X8X8X8X8X8X8XI.Z.}.g.C V D A c V L M M S G S A v R W R = m.~.C.D.+X3X8X8X8X8X8X8X8X8X8X8X8X8X8X",
"8X8X8X8X8X8X8X8X8X8X8X8X8X8X8X8X8X8X8X8X8X8X8X8Xa.I.1.f W D T c V W S z M S G A c v R N = Y ! Y B.8X8X8X8X8X8X8X8X8X8X8X8X8X8X8X",
"8X8X8X8X8X8X8X8X8X8X8X8X8X8X8X8X8X8X8X8X8X8X8X8Xq.B.1.t W Q L 5 A A A 7 A G A R K x r = ; : : P 8X8X8X8X8X8X8X8X8X8X8X8X8X8X8X8X",
"8X8X8X8X8X8X8X8X8X8X8X8X8X8X8X8X8X8X8X8X8X8X8X8XY V.4.6 V T T B l A T v r R E R n e ; ] 8X8X8X8X8X8X8X8X8X8X8X8X8X8X8X8X8X8X8X8X",
"8X8X8X8X8X8X8X8X8X8X8X8X8X8X8X8X8X8X8X8X8X8X8X8X8X{ f N W ! B T 1 R T 3 3 : 2 2 e : & 8X8X8X8X8X8X8X8X8X8X8X8X8X8X8X8X8X8X8X8X8X",
"8X8X8X8X8X8X8X8X8X8X8X8X8X8X8X8X8X8X8X8X8X8X8X8X8X5 6 = K B ~ 3 * 5 = & 2 : w e   8X8X8X8X8X8X8X8X8X8X8X8X8X8X8X8X8X8X8X8X8X8X8X",
"8X8X8X8X8X8X8X8X8X8X8X8X8X8X8X8X8X8X8X8X8X8X8X8X8X*.>.5 % e e ; w : y - 8X8X8X8X8X8X8X8X8X8X8X8X8X8X8X8X8X8X8X8X8X8X8X8X8X8X8X8X",
"8X8X8X8X8X8X8X8X8X8X8X8X8X8X8X8X8X8X8X8X8X8X8Xm.h.9...e e q y p 8X8X8X8X8X8X8X8X8X8X8X8X8X8X8X8X8X8X8X8X8X8X8X8X8X8X8X8X8X8X8X8X",
"8X8X8X8X8X8X8X8X8X8X8X8X8X8X8X8X8X8X8X8X8X8X8X8X8X8X8X8X8X8X8X8X8X8X8X8X8X8X8X8X8X8X8X8X8X8X8X8X8X8X8X8X8X8X8X8X8X8X8X8X8X8X8X8X",
"8X8X8X8X8X8X8X8X8X8X8X8X8X8X8X8X8X8X8X8X8X8X8X8X8X8X8X8X8X8X8X8X8X8X8X8X8X8X8X8X8X8X8X8X8X8X8X8X8X8X8X8X8X8X8X8X8X8X8X8X8X8X8X8X",
"8X8X8X8X8X8X8X8X8X8X8X8X8X8X8X8X8X8X8X8X8X8X8X8X8X8X8X8X8X8X8X8X8X8X8X8X8X8X8X8X8X8X8X8X8X8X8X8X8X8X8X8X8X8X8X8X8X8X8X8X8X8X8X8X",
"8X8X8X8X8X8X8X8X8X8X8X8X8X8X8X8X8X8X8X8X8X8X8X8X8X8X8X8X8X8X8X8X8X8X8X8X8X8X8X8X8X8X8X8X8X8X8X8X8X8X8X8X8X8X8X8X8X8X8X8X8X8X8X8X",
"8X8X8X8X8X8X8X8X8X8X8X8X8X8X8X8X8X8X8X8X8X8X8X8X8X8X8X8X8X8X8X8X8X8X8X8X8X8X8X8X8X8X8X8X8X8X8X8X8X8X8X8X8X8X8X8X8X8X8X8X8X8X8X8X",
"8X8X8X8X8X8X8X8X8X8X8X8X8X8X8X8X8X8X8X8X8X8X8X8X8X8X8X8X8X8X8X8X8X8X8X8X8X8X8X8X8X8X8X8X8X8X8X8X8X8X8X8X8X8X8X8X8X8X8X8X8X8X8X8X",
"8X8X8X8X8X8X8X8X8X8X8X8X8X8X8X8X8X8X8X8X8X8X8X8X8X8X8X8X8X8X8X8X8X8X8X8X8X8X8X8X8X8X8X8X8X8X8X8X8X8X8X8X8X8X8X8X8X8X8X8X8X8X8X8X",
"8X8X8X8X8X8X8X8X8X8X8X8X8X8X8X8X8X8X8X8X8X8X8X8X8X8X8X8X8X8X8X8X8X8X8X8X8X8X8X8X8X8X8X8X8X8X8X8X8X8X8X8X8X8X8X8X8X8X8X8X8X8X8X8X",
"8X8X8X8X8X8X8X8X8X8X8X8X8X8X8X8X8X8X8X8X8X8X8X8X8X8X8X8X8X8X8X8X8X8X8X8X8X8X8X8X8X8X8X8X8X8X8X8X8X8X8X8X8X8X8X8X8X8X8X8X8X8X8X8X",
"8X8X8X8X8X8X8X8X8X8X8X8X8X8X8X8X8X8X8X8X8X8X8X8X8X8X8X8X8X8X8X8X8X8X8X8X8X8X8X8X8X8X8X8X8X8X8X8X8X8X8X8X8X8X8X8X8X8X8X8X8X8X8X8X"
};
