/* XPM */
static char *result[] = {
/* columns rows colors chars-per-pixel */
"64 64 196 2 ",
"   c #1E1E04",
".  c #1C1F0E",
"X  c #231D0D",
"o  c #281C0E",
"O  c #251F12",
"+  c #2B1F11",
"@  c #1C200F",
"#  c #1C2413",
"$  c #1D2C14",
"%  c #1F2A19",
"&  c #1E3015",
"*  c #22230C",
"=  c #212B0D",
"-  c #262408",
";  c #222513",
":  c #2C2514",
">  c #242C14",
",  c #2A2D15",
"<  c #232719",
"1  c #242C1A",
"2  c #2A2D1B",
"3  c #302C13",
"4  c #243215",
"5  c #2B3315",
"6  c #25331A",
"7  c #2B331B",
"8  c #2C381D",
"9  c #2B391A",
"0  c #333014",
"q  c #32341B",
"w  c #343C1D",
"e  c #3B3516",
"r  c #242922",
"t  c #2B2E21",
"y  c #322921",
"u  c #2D3322",
"i  c #2D3824",
"p  c #253220",
"a  c #323422",
"s  c #3B3525",
"d  c #353B23",
"f  c #3B3D24",
"g  c #34362F",
"h  c #343A2A",
"j  c #3B3C2A",
"k  c #39352C",
"l  c #3B3D31",
"z  c #323230",
"x  c #433818",
"c  c #402F28",
"v  c #462D26",
"b  c #43322B",
"n  c #423725",
"m  c #433B35",
"M  c #5C3B36",
"N  c #683F3D",
"B  c #39411E",
"V  c #374022",
"C  c #3C4424",
"Z  c #3F4927",
"A  c #3D442C",
"S  c #3D492B",
"D  c #3D4233",
"F  c #3E4936",
"G  c #424524",
"H  c #42452C",
"J  c #444C2C",
"K  c #4A4E2C",
"L  c #494225",
"P  c #544E29",
"I  c #47512D",
"U  c #4C522E",
"Y  c #4C592E",
"T  c #52532D",
"R  c #51582F",
"E  c #58542F",
"W  c #434633",
"Q  c #454C33",
"!  c #494E33",
"~  c #43453B",
"^  c #45493B",
"/  c #4A4D3B",
"(  c #514B3C",
")  c #584839",
"_  c #465233",
"`  c #4D5432",
"'  c #4E5933",
"]  c #4D533A",
"[  c #48553B",
"{  c #515433",
"}  c #525935",
"|  c #52563B",
" . c #535A3A",
".. c #595D3B",
"X. c #5A5638",
"o. c #60522F",
"O. c #61423D",
"+. c #615B35",
"@. c #5A633D",
"#. c #474B41",
"$. c #4B4F42",
"%. c #5D4640",
"&. c #4E5042",
"*. c #4E5B46",
"=. c #525343",
"-. c #535A42",
";. c #535648",
":. c #565948",
">. c #575A55",
",. c #784F4D",
"<. c #685F40",
"1. c #675048",
"2. c #6B584C",
"3. c #73564E",
"4. c #645E53",
"5. c #7D5753",
"6. c #576042",
"7. c #5A6444",
"8. c #5F6947",
"9. c #5D6649",
"0. c #5F684A",
"q. c #5F6255",
"w. c #666A42",
"e. c #626D4C",
"r. c #6F6C4B",
"t. c #726D4B",
"y. c #67724F",
"u. c #616356",
"i. c #666E56",
"p. c #64655C",
"a. c #64685C",
"s. c #6A6C5A",
"d. c #6F6657",
"f. c #776E5B",
"g. c #796E52",
"h. c #6A7356",
"j. c #6B745B",
"k. c #6B7556",
"l. c #7D7C55",
"z. c #797954",
"x. c #6A6B61",
"c. c #726D62",
"v. c #6E7361",
"b. c #7B7363",
"n. c #727B60",
"m. c #73736A",
"M. c #7A786A",
"N. c #7C7E71",
"B. c #8A7D5D",
"V. c #837E75",
"C. c #82845D",
"Z. c #8D8260",
"A. c #8F856C",
"S. c #86816D",
"D. c #948C6A",
"F. c #918666",
"G. c #9B946E",
"H. c #95966C",
"J. c #83847B",
"K. c #86897C",
"L. c #978D73",
"P. c #9C9473",
"I. c #9E9971",
"U. c #A69D7B",
"Y. c #868781",
"T. c #8D9384",
"R. c #919485",
"E. c #94968C",
"W. c #969C88",
"Q. c #989D8A",
"!. c #A29E95",
"~. c #9DA78D",
"^. c #9EA599",
"/. c #ACAC83",
"(. c #A3AC94",
"). c #A1A49A",
"_. c #A3AA9C",
"`. c #A6A999",
"'. c #BBB992",
"]. c #ABAEA1",
"[. c #AEB5A6",
"{. c #B7B8B1",
"}. c #CECDA1",
"|. c #D9D5AE",
" X c #DDDBB3",
".X c #DFD7B2",
"XX c #E1DCB4",
"oX c #E5DEB9",
"OX c #E8E9BF",
"+X c #C7C9C1",
"@X c #CFD7C8",
"#X c #D5DBCB",
"$X c #DEE7D5",
"%X c #E8E9C1",
"&X c #F7F9D1",
"*X c None",
/* pixels */
"*X*X*X*X*X*X*X*X*X*X*X*X*X*X*X*X*X*X*X*X*X*X*X*X*X*X*X*X*X*X*X*X*X*X*X*X*X*X*X*X*X*X*X*X*X*X*X*X*X*X*X*X*X*X*X*X*X*X*X*X*X*X*X*X",
"*X*X*X*X*X*X*X*X*X*X*X*X*X*X*X*X*X*X*X*X*X*X*X*X*X*X*X*X*X*X*X*X*X*X*X*X*X*X*X*X*X*X*X*X*X*X*X*X*X*X*X*X*X*X*X*X*X*X*X*X*X*X*X*X",
"*X*X*X*X*X*X*X*X*X*X*X*X*X*X*X*X*X*X*X*X*X*X*X*X*X*X*X*X*X*X*X*X*X*X*X*X*X*X*X*X*X*X*X*X*X*X*X*X*X*X*X*X*X*X*X*X*X*X*X*X*X*X*X*X",
"*X*X*X*X*X*X*X*X*X*X*X*X*X*X*X*X*X*X*X*X*X*X*X*X*X*X*X*X*X*X*X*X*X*X*X*X*X*X*X*X*X*X*X*X*X*X*X*X*X*X*X*X*X*X*X*X*X*X*X*X*X*X*X*X",
"*X*X*X*X*X*X*X*X*X*X*X*X*X*X*X*X*X;.x.*X*X*X*X*X*X*X*X*X*X*X*X*X*X*X*X*X*X*X*X*X*X*XW.v.u.*X*X*X*X*X*X*X*X*X*X*X*X*X*X*X*X*X*X*X",
"*X*X*X*X*X*X*X*X*X*X*X*X*X*X*X*X*Xh q.j.(.*X*X*X*X*X*X*X*X*X*X*X*X*X*X*X*X*X*X*X*X~.s./ l *X*X*X*X*X*X*X*X*X*X*X*X*X*X*X*X*X*X*X",
"*X*X*X*X*X*X*X*X*X*X*X*X*X*X*X*X&.S _ -.n._.*X*X*X*X*X*X*X*X*X*X*X*X*X*X*X*X*X*XW.k.-.-.^ &.*X*X*X*X*X*X*X*X*X*X*X*X*X*X*X*X*X*X",
"*X*X*X*X*X*X*X*X*X*X*X*X*X*X*X*Xu ` ]  .h.j.*X*X*X*X*X*X*X*X*X*X*X*X*X*X*X*X*X~.k.y.' ` W ^ *X*X*X*X*X*X*X*X*X*X*X*X*X*X*X*X*X*X",
"*X*X*X*X*X*X*X*X*X*X*X*X*X*X*X*Xd J _ }  .8.l.*X*X*X*X*X*X*X*X*X*X*X*X*X*X*X(.y.y.Y ' [ Q W *X*X*X*X*X*X*X*X*X*X*X*X*X*X*X*X*X*X",
"*X*X*X*X*X*X*X*X*X*X*X*X*X*X*Xl 7 ` ' I _ @.e.k.*X*X*X*X*X*X*X*X*X*X#X$X#X~.k.y.' Y Y I ` ; &.*X*X*X*X*X*X*X*X*X*X*X*X*X*X*X*X*X",
"*X*X*X*X*X*X*X*X*X*X*X*X*X*X*Xu 5 ` ' _ Y Y  .7.0.j.v.j.j.j.i.h.j.v.h.i.h.0.@.@.I Y ' I ] 7 l *X*X*X*X*X*X*X*X*X*X*X*X*X*X*X*X*X",
"*X*X*X*X*X*X*X*X*X*X*X*X*X*X*Xl 5 ` I I ' I } } @.e.0.-.7.9.7.8.6.9.9.7.0.7.' J Y Y I I J 7 #.*X*X*X*X*X*X*X*X*X*X*X*X*X*X*X*X*X",
"*X*X*X*X*X*X*X*X*X*X*X*X*X*X*Xu q ] ` ` { Y } J I ` ` ` ` { ` ` ` ' ` ` ` I _ } Y Y I  .[ # F *X*X*X*X*X*X*X*X*X*X*X*X*X*X*X*X*X",
"*X*X*X*X*X*X*X*X*X*X*X*X*X*X*Xl 2 H ] ` J B I U ` ` ' ` ` Y U I I { } ` ` ` ' _ Z B I ' / u ~ *X*X*X*X*X*X*X*X*X*X*X*X*X*X*X*X*X",
"*X*X*X*X*X*X*X*X*X*X*X*X*X*X*Xg < 2 d C f 5 C } ` ` ` ` ` { R T R U U T ` ` ` ` Z 9 B d u p ~ *X*X*X*X*X*X*X*X*X*X*X*X*X*X*X*X*X",
"*X*X*X*X*X*X*X*X*X*X*X*X*X*X*Xg t > 7 0 H I ` ` ` ` ` ` ` U Y U T U T Y I ` ` ' U Z 5 5 2 < ~ *X*X*X*X*X*X*X*X*X*X*X*X*X*X*X*X*X",
"*X*X*X*X*X*X*X*X*X*X*X*X*X*X*X*X7 : q ! ` ` | ! ` ` { { ` ` { { { { { ` ` ` ` ` ' I H 5 $ l *X*X*X*X*X*X*X*X*X*X*X*X*X*X*X*X*X*X",
"*X*X*X*X*X*X*X*X*X*X*X*X*X*X*X*X2 5 C ` ` ` { { ` { Y ` ` { ! { ! { { { ` { Y U I ` ` Q a W *X*X*X*X*X*X*X*X*X*X*X*X*X*X*X*X*X*X",
"*X*X*X*X*X*X*X*X*X*X*X*X*X*X*X*Xd C _  .' _ ` ` Y ` ` ` ` { ` ` T ` ` ` ` ` U { ` } ` ! H $.*X*X*X*X*X*X*X*X*X*X*X*X*X*X*X*X*X*X",
"*X*X*X*X*X*X*X*X*X*X*X*X*X*X*X&.Q _ [ _ ` ` ` ` ` ` ` ` ` ` ` ` ` ` ` ` ` ` ` ` ` U { ..( j u.*X*X*X*X*X*X*X*X*X*X*X*X*X*X*X*X*X",
"*X*X*X*X*X*X*X*X*X*X*X*X*X*X*XD Q ] ` ! ` ` ` ` ! ` ` ` _ ' _ ` ` ` ` ` ! T { T T T ! K ' &.^ *X*X*X*X*X*X*X*X*X*X*X*X*X*X*X*X*X",
"*X*X*X*X*X*X*X*X*X*X*X*X*X*XF u H ` { ` ` ` ` { P { ` ` ` ` _ ` ` ` ` ` { { T T T } ` { [ _ h *.*X*X*X*X*X*X*X*X*X*X*X*X*X*X*X*X",
"*X*X*X*X*X*X*X*X*X*X*X*X*X#.u 1 d J ` { { ! ` { ! E T { ` { ` ` ` { T { T { { T } I J ` S & p p >.*X*X*X*X*X*X*X*X*X*X*X*X*X*X*X",
"*X*X*X*X*X*X*X*X*X*X*X*X^ r t < > w A K { { { { { { { { { ` ( { { ` { ` { { { { G J I 4 & i & & r ;.*X*X*X*X*X*X*X*X*X*X*X*X*X*X",
"*X*X*X*X*X*X*X*X*X*X*X*Xu t r p 6 & & 9 S H J ` ` ` { X.{ ! X.{ K ` `  .H ` J J w = 5 4 4 6 % 1 r z *X*X*X*X*X*X*X*X*X*X*X*X*X*X",
"*X*X*X*X*X*X*X*X*X*X*X*X*X*Xu # 6 $ 4 & 6 9 4 w H H C A J J H G ! V Z S 8 7 > > = 7 = 4 6 > % h >.*X*X*X*X*X*X*X*X*X*X*X*X*X*X*X",
"*X*X*X*X*X*X*X*X*X*X*X*X*X*X*X*X1 t 6 6 $ & 6 6 4 4 6 6 & & 4 4 4 4 4 6 i $ > 5 ; w 1 1 < a *X*X*X*X*X*X*X*X*X*X*X*X*X*X*X*X*X*X",
"*X*X*X*X*X*X*X*X*X*X*X*X*X*X*X*X*X*X% % # % 1 & & & 6 & 6 6 6 $ 4 4 > > # 1 i $ < # . a *X*X*X*X*X*X*X*X*X*X*X*X*X*X*X*X*X*X*X*X",
"*X*X*X*X*X*X*X*X*X*X*X*X*X*X*X*X*X*X*X*X*XT.*.% # & u > 6 6 1 7 , 2 t u 6 # # a.*X*X*X*X*X*X*X*X*X*X*X*X*X*X*X*X*X*X*X*X*X*X*X*X",
"*X*X*X*X*X*X*X*X*X*X*X*X*X*X*X*X*X*X*X*X*X*X*X)._.F ; X X X + o + o O O >.).^.*X*X*X*X*X*X*X*X*X*X*X*X*X*X*X*X*X*X*X*X*X*X*X*X*X",
"*X*X*X*X*X*X*X*X*X*X*X*X*X*X*X*X*X*X*X*X*X*X*X*X!.m v ) O.M N M M ) %.c m {.*X*X*X*X*X*X*X*X*X*X*X*X*X*X*X*X*X*X*X*X*X*X*X*X*X*X",
"*X*X*X*X*X*X*X*X*X*X*X*X*X*X*X*X*X*X*X*X*X*X*X).k 2 b v ,.5.,.5.3.1.v b y l {.*X*X*X*X*X*X*X*X*X*X*X*X*X*X*X*X*X*X*X*X*X*X*X*X*X",
"*X*X*X*X*X*X*X*X*X*X*X*X*X*X*X*X*X*X*X*X*X*X_.h 2 t < 2 s s s f n a 2 : i 1 D {.*X*X*X*X*X*X*X*X*X*X*X*X*X*X*X*X*X*X*X*X*X*X*X*X",
"*X*X*X*X*X*X*X*X*X*X*X*X*X*X*X*X*X*X*X*X*X[.h 1 ; 2 7 7 7 6 > > > > 7 6 6 4 % D +X*X*X*X*X*X*X*X*X*X*X*X*X*X*X*X*X*X*X*X*X*X*X*X",
"*X*X*X*X*X*X*X*X*X*X*X*X*X*X*X*X*X*X*X*X*XT.1 > u 4 > 4 2 6 7 5 4 7 4 4 $ 9 i # ].*X*X*X*X*X*X*X*X*X*X*X*X*X*X*X*X*X*X*X*X*X*X*X",
"*X*X*X*X*X*X*X*X*X*X*X*X*X*X*X*X*X*X*X*X*XS H ] ` d 7 5 , = 4 = , 5 5 5 7 C S ^ l *X*X*X*X*X*X*X*X*X*X*X*X*X*X*X*X*X*X*X*X*X*X*X",
"*X*X*X*X*X*X*X*X*X*X*X*X*X*X*X*X*X*X*X*XR.d | ! ` I J J w q 9 q q w J K ` ` ! | a `.*X*X*X*X*X*X*X*X*X*X*X*X*X*X*X*X*X*X*X*X*X*X",
"*X*X*X*X*X*X*X*X*X*X*X*X*X*X*X*X*X*X*X*Xq ` {  .` U ' } ` I U U ` J ..{ K U ` | Q j *X*X*X*X*X*X*X*X*X*X*X*X*X*X*X*X*X*X*X*X*X*X",
"*X*X*X*X*X*X*X*X*X*X*X*X*X*X*X*X*X*X*XE.a -.K Y } T U I ` { ` ` } ` Y @.z.w.} ` | ; `.*X*X*X*X*X*X*X*X*X*X*X*X*X*X*X*X*X*X*X*X*X",
"*X*X*X*X*X*X*X*X*X*X*X*X*X*X*X*X*X*X*X2 =.J { T I R T U { ` ` { I {  ./.&X'.w.K | | u *X*X*X*X*X*X*X*X*X*X*X*X*X*X*X*X*X*X*X*X*X",
"*X*X*X*X*X*X*X*X*X*X*X*X*X*X*X*X*X*X*Xt / { ` T Y K U { { ` { { ` { C.%X XOXH.P Y ! 7 #X*X*X*X*X*X*X*X*X*X*X*X*X*X*X*X*X*X*X*X*X",
"*X*X*X*X*X*X*X*X*X*X*X*X*X*X*X*X*X*XJ.1 =.| I ` { U T ` ` ` ` { T K l..XXX}.C.R R ..2 R.*X*X*X*X*X*X*X*X*X*X*X*X*X*X*X*X*X*X*X*X",
"*X*X*X*X*X*X*X*X*X*X*X*X*X*X*X*X*X*X# a / ` ..` { ` { ` { ` { ! { Y l.|.OXU.+.T I Q a u *X*X*X*X*X*X*X*X*X*X*X*X*X*X*X*X*X*X*X*X",
"*X*X*X*X*X*X*X*X*X*X*X*X*X*X*X*X*XN.; j | ! ` ` ` ` | ` ` ` { ` { T l. XXXI.P T .. .> i J.*X*X*X*X*X*X*X*X*X*X*X*X*X*X*X*X*X*X*X",
"*X*X*X*X*X*X*X*X*X*X*X*X*X*X*X*Xs.2 7 S ` ` U { ` ` ` ` ! ` ` ` U P z. X|.H.P T I ' S 6 i N.*X*X*X*X*X*X*X*X*X*X*X*X*X*X*X*X*X*X",
"*X*X*X*X*X*X*X*X*X*X*X*X*X*X*Xa.h H J ' ` ` ` I ` ` ] { { ` U ` U U B.oXXXG.E K ` Q [ F p t N.*X*X*X*X*X*X*X*X*X*X*X*X*X*X*X*X*X",
"*X*X*X*X*X*X*X*X*X*X*X*X*X*Xx.^ W J ..C U } ` ` { ` ! ` } { ` T T T l.|.oXG.P L G *.*.S D F p N.*X*X*X*X*X*X*X*X*X*X*X*X*X*X*X*X",
"*X*X*X*X*X*X*X*X*X*X*X*X*X=.^ ] ` I R } Y U } _ U J H ` { ` { { T P t.'.XXD.E K { ` [ [  .Q Q W $.Y.*X*X*X*X*X*X*X*X*X*X*X*X*X*X",
"*X*X*X*X*X*X*X*X*X*X*X*XW H ! { ` T ` Y U ` ' _ I _ J { ! X.! K P +.Z.U.U.g.T { ` ' I ] ` { ! ! W ^ / R.*X*X*X*X*X*X*X*X*X*X*X*X",
"*X*X*X*X*X*X*X*X*X*X*Xj | ` ..J { } Y J C C _ _ Z Z  .` | Q ! e x o.B.D.D.r.{ { ` w I '  .K -.{ ] Q m ^ Q.*X*X*X*X*X*X*X*X*X*X*X",
"*X*X*X*X*X*X*X*X*X*Xl / Q w J | J { ` K G S } I J ! ` ] { K 3 - x B.U.Z.t.X.K } ` ! ] _ J V J ! :.^ | W #.*X*X*X*X*X*X*X*X*X*X*X",
"*X*X*X*X*X*X*X*X*X*X#.a 2 W ! ! { ` J ` I ` ] B 4 ` ! ! J , - G B.F.D.+.0 w { J ' ! V H ` ` f Q W W W ~ E.*X*X*X*X*X*X*X*X*X*X*X",
"*X*X*X*X*X*X*X*X*X*X*X*X^ 2 q W ! A f H H ! d 5 V H q * q - j ( D.L.B.v - - = A Q ! Q d j W A 7 q $.K.*X*X*X*X*X*X*X*X*X*X*X*X*X",
"*X*X*X*X*X*X*X*X*X*X*X*X*Xm.~ a > : * q 2 5 > > ; , ; * o H S.L.B.U.A.X.3 X * q < 2 7 $ 7 7 2 / M.*X*X*X*X*X*X*X*X*X*X*X*X*X*X*X",
"*X*X*X*X*X*X*X*X*X*X*X*X*X*X*Xa.;.;.< 2 > ; < ; @ ; * 2 a d.M.f.f.f.2.q : : u u t t # t $.$.N.*X*X*X*X*X*X*X*X*X*X*X*X*X*X*X*X*X",
"*X*X*X*X*X*X*X*X*X*X*X*X*X*X*X*X*X*Xx.u.a.p.u.^ W ^ =.l 4.M.c.b.d.s ( ( W =.x.q.p.>.x.m.*X*X*X*X*X*X*X*X*X*X*X*X*X*X*X*X*X*X*X*X",
"*X*X*X*X*X*X*X*X*X*X*X*X*X*X*X*X*X*X*X*X*X*X*X*Xm.x.p.V.*X*X*X*X*XV.4.b.M.*X*X*X*X*X*X*X*X*X*X*X*X*X*X*X*X*X*X*X*X*X*X*X*X*X*X*X",
"*X*X*X*X*X*X*X*X*X*X*X*X*X*X*X*X*X*X*X*X*X*X*X*X*X*X*X*X*X*X*X*X*X*X*XJ.*X*X*X*X*X*X*X*X*X*X*X*X*X*X*X*X*X*X*X*X*X*X*X*X*X*X*X*X",
"*X*X*X*X*X*X*X*X*X*X*X*X*X*X*X*X*X*X*X*X*X*X*X*X*X*X*X*X*X*X*X*X*X*X*X*X*X*X*X*X*X*X*X*X*X*X*X*X*X*X*X*X*X*X*X*X*X*X*X*X*X*X*X*X",
"*X*X*X*X*X*X*X*X*X*X*X*X*X*X*X*X*X*X*X*X*X*X*X*X*X*X*X*X*X*X*X*X*X*X*X*X*X*X*X*X*X*X*X*X*X*X*X*X*X*X*X*X*X*X*X*X*X*X*X*X*X*X*X*X",
"*X*X*X*X*X*X*X*X*X*X*X*X*X*X*X*X*X*X*X*X*X*X*X*X*X*X*X*X*X*X*X*X*X*X*X*X*X*X*X*X*X*X*X*X*X*X*X*X*X*X*X*X*X*X*X*X*X*X*X*X*X*X*X*X",
"*X*X*X*X*X*X*X*X*X*X*X*X*X*X*X*X*X*X*X*X*X*X*X*X*X*X*X*X*X*X*X*X*X*X*X*X*X*X*X*X*X*X*X*X*X*X*X*X*X*X*X*X*X*X*X*X*X*X*X*X*X*X*X*X",
"*X*X*X*X*X*X*X*X*X*X*X*X*X*X*X*X*X*X*X*X*X*X*X*X*X*X*X*X*X*X*X*X*X*X*X*X*X*X*X*X*X*X*X*X*X*X*X*X*X*X*X*X*X*X*X*X*X*X*X*X*X*X*X*X",
"*X*X*X*X*X*X*X*X*X*X*X*X*X*X*X*X*X*X*X*X*X*X*X*X*X*X*X*X*X*X*X*X*X*X*X*X*X*X*X*X*X*X*X*X*X*X*X*X*X*X*X*X*X*X*X*X*X*X*X*X*X*X*X*X"
};
