/* XPM */
static char *result[] = {
/* columns rows colors chars-per-pixel */
"64 64 203 2 ",
"   c #C71D15",
".  c #C71B19",
"X  c #CA211A",
"o  c #CE3114",
"O  c #D33910",
"+  c #D9371D",
"@  c #CE2220",
"#  c #CE2929",
"$  c #D42C28",
"%  c #DB2D2C",
"&  c #D83522",
"*  c #DC3434",
"=  c #D43A39",
"-  c #E33837",
";  c #B36700",
":  c #B56900",
">  c #BA6C00",
",  c #BC710A",
"<  c #BE7716",
"1  c #BA771B",
"2  c #BE7B1E",
"3  c #BB7B22",
"4  c #BD7E28",
"5  c #D7460D",
"6  c #D54C09",
"7  c #D94B0C",
"8  c #DC5409",
"9  c #DE580D",
"0  c #D94312",
"q  c #E15F07",
"w  c #C06F00",
"e  c #C47201",
"r  c #CB7601",
"t  c #CD7904",
"y  c #CC7B0B",
"u  c #D37A00",
"i  c #DA7E00",
"p  c #D27E0A",
"a  c #DC7F0D",
"s  c #CB7E12",
"d  c #C27C1D",
"f  c #E26407",
"g  c #E56906",
"h  c #E97005",
"j  c #ED7B03",
"k  c #F27E0F",
"l  c #EE6F14",
"z  c #E9701F",
"x  c #DB4B21",
"c  c #F35F2E",
"v  c #E57926",
"b  c #F47622",
"n  c #F87136",
"m  c #CF4141",
"M  c #D44342",
"N  c #DB4444",
"B  c #D44F4F",
"V  c #DB4949",
"C  c #D35151",
"Z  c #EB4545",
"A  c #E94848",
"S  c #F04D4D",
"D  c #E05046",
"F  c #EA5957",
"G  c #F05252",
"H  c #DF6558",
"J  c #E27440",
"K  c #F97843",
"L  c #FE7B4B",
"P  c #F8765B",
"I  c #DF6E6E",
"U  c #DF7373",
"Y  c #EC6565",
"T  c #F16262",
"R  c #F46C6B",
"E  c #FB7A69",
"W  c #F67373",
"Q  c #F67B7B",
"!  c #F97B7B",
"~  c #DE8000",
"^  c #D6820D",
"/  c #DD850C",
"(  c #CD831C",
")  c #D08112",
"_  c #D5861A",
"`  c #DD8B1B",
"'  c #E38300",
"]  c #EA8600",
"[  c #ED8900",
"{  c #EA860A",
"}  c #E98B0A",
"|  c #F38C01",
" . c #F38108",
".. c #F5940E",
"X. c #EA931D",
"o. c #F49716",
"O. c #CC8523",
"+. c #C38228",
"@. c #C98628",
"#. c #DA8C21",
"$. c #D18C2C",
"%. c #C88E3D",
"&. c #D39135",
"*. c #FA8128",
"=. c #EC9721",
"-. c #E8992C",
";. c #F49F2B",
":. c #ECA33D",
">. c #F7A534",
",. c #F3A43B",
"<. c #C89248",
"1. c #D69A47",
"2. c #D29B4D",
"3. c #CB9853",
"4. c #D79F51",
"5. c #D19E59",
"6. c #F18C44",
"7. c #FF8253",
"8. c #DAA04F",
"9. c #D9A151",
"0. c #D6A45E",
"q. c #DAA65E",
"w. c #DDA95F",
"e. c #E8A549",
"r. c #F7AC45",
"t. c #F0AE53",
"y. c #F2B259",
"u. c #F78864",
"i. c #FD8C79",
"p. c #D1A76C",
"a. c #D6A869",
"s. c #DEAE6D",
"d. c #DBB178",
"f. c #F2B769",
"g. c #E1B473",
"h. c #F3BE76",
"j. c #FAC47A",
"k. c #E98787",
"l. c #FA8383",
"z. c #FB8989",
"x. c #FF9C89",
"c. c #ED9898",
"v. c #FC9494",
"b. c #FB9999",
"n. c #DAB584",
"m. c #DEBB8C",
"M. c #DFBF92",
"N. c #E6BE87",
"B. c #E1BD8B",
"V. c #F1A7A7",
"C. c #FEA7A7",
"Z. c #F5AFAF",
"A. c #FEAEAE",
"S. c #F0B1AF",
"D. c #FEB5B5",
"F. c #F5BBBB",
"G. c #F9BBBB",
"H. c #EDC288",
"J. c #F6C58B",
"K. c #E5C393",
"L. c #EECA97",
"P. c #E3C69F",
"I. c #F3C893",
"U. c #F3CD9B",
"Y. c #F9D199",
"T. c #E3C7A2",
"R. c #E4C9A5",
"E. c #E9CCA4",
"W. c #E6CEAE",
"Q. c #E8CFAE",
"!. c #EAD1AE",
"~. c #F5D4A7",
"^. c #F3D4AA",
"/. c #F6C8B8",
"(. c #EDD4B1",
"). c #ECD7BA",
"_. c #F6DBB8",
"`. c #F9C8C7",
"'. c #EEDEC9",
"]. c #F1DEC3",
"[. c #F9DEC4",
"{. c #FFD4D4",
"}. c #FEDBD5",
"|. c #FFDCDC",
" X c #F2E2CD",
".X c #FAE5CA",
"XX c #F3E6D2",
"oX c #FDE2D7",
"OX c #F6E8D6",
"+X c #FCEBD7",
"@X c #F6ECDE",
"#X c #FAECDD",
"$X c #FFE4E4",
"%X c #F7EEE3",
"&X c #FCEBE4",
"*X c #FFECEC",
"=X c #F7F0E6",
"-X c #F9F0E6",
";X c #FBF3EC",
":X c #F4F4F4",
">X c #FFF4F4",
",X c #FCF9F5",
"<X c #FFFFFF",
/* pixels */
"<X<X<X<X<X<X<X<X<X<X<X<X<X<X<X<X<X<X<X<X<X<X<X<X<X<X<X<X<X<X<X<X<X<X<X<X<X<X<X<X<X<X<X<X<X<X<X<X<X<X<X<X<X<X<X<X<X<X<X<X<X<X<X<X",
"<X<X<X<X<X<X<X<X<X<X<X<X<X<X<X<X<X<X<X<X<X<X<X<X<X<X<X<X<X<X<X<X<X<X<X<X<X<X<X<X<X<X<X<X<X<X<X<X<X<X<X<X<X<X<X<X<X<X<X<X<X<X<X<X",
"<X<X<X<X<X<X<X<X<X<X<X<X<X<X<X<X<X<X<X<X<X<X<X<X<X<X<X<X<X<X<X<X<X<X<X<X<X<X<X<X<X<X<X<X<X<X<X<X<X<X<X<X<X<X<X<X<X<X<X<X<X<X<X<X",
"<X<X<X<X<X<X<X<X<X<X<X<X<X<X<X<X<X<X<X<X<X<X<X<X<X<X<X<X<X<X<X<X<X<X<X<X<X<X<X<X<X<X<X<X<X<X<X<X<X<X<X<X<X<X<X<X<X<X<X<X<X<X<X<X",
"<X<X<X<X<X<X<X<X<X<X<X<X<X<X<X<X<X<X<X<X<X<X<X<X<X<X<X<X<X<X<X<X<X<X<X<X<X<X<X<X<X<X<X<X<X<X<X<X<X<X<X<X<X<X<X<X<X<X<X<X<X<X<X<X",
"<X<X<X<X<X<X<X<X<X<X<X<X<X<X<X<X<X<X<X<X<X<X<X<X<X<X<X<X<X<X<X<X<X<X<X<X<X<X<X<X<X<X<X<X<X<X<X<X<X<X<X<X<X<X<X<X<X<X<X<X<X<X<X<X",
"<X<X<X<X<X<X<X<X<X<X<X<X<X<X<X<X<X<X<X<X<X<X<X<X<X<X<X<X<X<X<X<X<X<X<X<X<X<X<X<X<X<X<X<X<X<X<X<X<X<X<X<X<X<X<X<X<X<X<X<X<X<X<X<X",
"<X<X<X<X<X<X<X<X<X<X<X<X<X<X<X<X<X<X>X>X>X,X<X<X<X<X<X<X<X<X<X<X<X<X<X<X<X<X<X<X<X<X<X<X<X<X<X<X<X<X<X<X<X<X<X<X<X<X<X<X<X<X<X<X",
"<X<X<X<X<X<X<X<X<X<X<X<X<X<X<X<X<X<X>X$X*X>X<X<X<X:X'.T.P.P.P.T.P.P.T.P.P.P.P.P.T.'.>X<X<X<X<X<X<X<X<X<X<X<X<X<X<X<X<X<X<X<X<X<X",
"<X<X<X<X<X<X<X<X<X<X<X<X<X<X<X<X<X<X*X|.|.>X>X<X<X=Xn.4 3 3 3 3 2 d d d d d d d 2 n.;X,X<X,X<X<X<X<X<X<X<X<X<X<X<X<X<X<X<X<X<X<X",
"<X<X<X<X<X<X<X<X<X<X<X<X<X<X<X<X<X>X*X|.$X*X>X,X>X*XT.p.p.p.p.5.( r u i u u u u r <.n.K.P. X<X<X<X<X<X<X<X<X<X<X<X<X<X<X<X<X<X<X",
"<X<X<X<X<X<X<X<X<X<X<X<X<X,X,X<X,X>X*X*X*X*X>X*X*X$X&X=X=X%X=X_.e.} [ [ [ [ j ] ' p < 1 +.m.;X,X<X<X<X<X<X<X<X<X<X<X<X<X<X<X<X<X",
"<X<X<X<X<X<X<X<X<X<X<X<X%XT.R.=X>X*X*X*X*X*X*X$X|.|.$X*X>X>X<X&XY.y.o.j f q q f ] ' u u p 1.B. X<X<X<X<X<X<X<X<X<X<X<X<X<X<X<X<X",
"<X<X<X<X<X<X<X<X<X<X<X,X).<.3. X>X$X$X$X|.|.$X$X|.{.|.*X*X>X*X>X;X_.,.g o .   5 j | | ] ' p O.M.;X,X<X<X<X<X<X<X<X<X<X<X<X<X<X<X",
"<X<X<X<X<X<X<X<X<X<X=XT.0.( 1. X>X|.{.|.|.{.|.$X|.|.$X$X*X*X*X*X>X/.J 0 $ % $ + 7 g | | ] ~ / 1.m. X<X<X<X<X<X<X<X<X<X<X<X<X<X<X",
"<X<X<X<X<X<X<X<X<X<XXX3., i r._.&X{.{.`.{.{.{.$X$X$X*X*X*X>X*X*X$XS.M @ - Z Z % X 7 j  .] [ [ p +.R.<X<X<X<X<X<X<X<X<X<X<X<X<X<X",
"<X<X<X<X<X<X<X<X<X<XXX<.> i X.y.L.oX$X|.|.|.|.*X*X*X$X*X$X$X$X$X|.V.m # F R Q F * + 7 f ] [ [ u 2 T.<X<X<X<X<X<X<X<X<X<X<X<X<X<X",
"<X<X<X<X<X<X<X<X,X:X).<.> ~ [ ] t.+X>X$X$X$X*X*X:X*X$X$X$X$X$X|.{.V.B = Y Q v.W S $ X 6 j | [ r 1 m.-X,X<X<X<X<X<X<X<X<X<X<X<X<X",
"<X<X<X<X<X<X<X<X;XM.2.( r ' ] ] t.+X>X$X$X*X*X*X*X$X$X|.|.{.{.{.{.G.c.I V m V F T N . 6 ' [ ] r , %.d. X<X<X<X<X<X<X<X<X<X<X<X<X",
"<X<X<X<X<X<X<X<X@X5.> t ~ ' } X.f.+X;X$X$X*X*X*X*X$X$X$X{.{.{.`.`.`.F.k.= . . = Y D o 8 ' ] ] r : > +.Q.<X<X<X<X<X<X<X<X<X<X<X<X",
"<X<X<X<X<X<X<X<X@X5.> u ~ [ >.J._.}.|.{.|.$X*X$X*X*X$X$X|.|.|.{.{.Z.I N * % - % = x f j | | [ r > > +.!.<X<X<X<X<X<X<X<X<X<X<X<X",
"<X<X<X<X<X<X<X<X@X5., ~ [ [ r..X>X{.{.{.{.|.$X|.$X*X$X$X$X$X$X}.G.k.= % A G S - X 0 h  .| | [ u > : +.!.<X<X<X<X<X<X<X<X<X<X<X<X",
"<X<X<X<X<X<X<X<X@X5.> ~ ' | r..X>X$X|.|.{.{.{.{.|.$X$X*X*X*X$X`.U M * A ! l.W G - & O f | | ' u > : 4 W.<X<X<X<X<X<X<X<X<X<X<X<X",
"<X<X<X<X<X<X<X<X@X5.> ~ ' [ >.U..X$X*X$X|.{.{.{.|.$X$X*X$X$X$XF.B @ N R b.b.z.R G *   6  .[ ' r : ; 4 W.<X<X<X<X<X<X<X<X<X<X<X<X",
"<X<X<X<X<X<X<X<X@X5.> r ~ [ ..;.h.#X>X*X*X|.|.|.$X$X|.{.{.}.$X`.C # F z.Z.C.z.! W N . 7 ] ] ' r > ; 4 W.<X<X<X<X<X<X<X<X<X<X<X<X",
"<X<X<X<X<X<X<X<X@X5.> r ~ ] [ [ ,.Y..X*X*X*X$X$X|.|.{.{.|.|.*X`.H * R v.D.A.v.z.i.G & 9 ' ] ] r : : 4 W.<X<X<X<X<X<X<X<X<X<X<X<X",
"<X<X<X<X<X<X<X<X@X5.> r ~ [ | | ..;.j.-X,X<X*X$X{.{.|.$X*X,X,X}.u.K R v.D.D.C.v.l.P c l { [ [ u > > +.W.<X<X<X<X<X<X<X<X<X<X<X<X",
"<X<X<X<X<X<X<X<X@X0.> u ~ [ [ ] | | ,.I.^.^.[.&X$X$X$X$X.X~.^.J.6.n P i.x.x.x.i.E L b k [ | | u : > +.!.<X<X<X<X<X<X<X<X<X<X<X<X",
"<X<X<X<X<X<X<X<X@X5.w i ' ' ~ ~ ' | } ` #.-.H.;X,X<X,X&Xh.=.=.X.a z K L L L 7.L n b  .} | | | u > > +.Q.<X<X<X<X<X<X<X<X<X<X<X<X",
"<X<X<X<X<X<X<X<X@X5.> i ' ' ~ ~ ~ ] ~ u u ^ e.I.U.U.L.H.:.[ [ ] i y v v z b *.b b  .| | | [ ' r > > +.!.<X<X<X<X<X<X<X<X<X<X<X<X",
"<X<X<X<X<X<X<X<X@X5.w i ' ' ' j ~ i r r u i { ` ` ` _ _ } | | [ i r r t u a | | | | | | | ' u e > > +.W.<X<X<X<X<X<X<X<X<X<X<X<X",
"<X<X<X<X<X<X<X<X@X5.> r i r i i ~ t u r u u u u i u u r ~ ' | | i r u r r i [ } ] [ | [ [ ' u e : : +.W.<X<X<X<X<X<X<X<X<X<X<X<X",
"<X<X<X<X<X<X<X<X@X5.> > > > e r u u u i u r u r u r r u u i [ [ i i u u u i ' ~ i i j ' ' ~ u w > ; 4 W.<X<X<X<X<X<X<X<X<X<X<X<X",
"<X<X<X<X<X<X<X<X@X5.: : : > e u i i i i i u u u u u i i u i ' [ ~ i i ~ ~ ~ ' ~ u i i ~ ' u e > ; ; 4 W.<X<X<X<X<X<X<X<X<X<X<X<X",
"<X<X<X<X<X<X<X<X@X5.: : : : > r u i ' ' j ~ i u u i i ' i u ~ ' ' ' ' ' ' ' ' i i r i i ~ r > : ; ; 4 W.<X<X<X<X<X<X<X<X<X<X<X<X",
"<X<X<X<X<X<X<X<X#X0.e e > > > e e r r r r i i u i i ~ ' i i ~ ' ' ' i i i i i i u u w e r e > > > > +.W.<X<X<X<X<X<X<X<X<X<X<X<X",
"<X<X<X<X<X<X<X<X#Xq.r r e > > > > > > > w u u i i i ' i i r ~ ' j i i u u r u u u e > > > > > e r e @.(.<X<X<X<X<X<X<X<X<X<X<X<X",
"<X<X<X<X<X<X<X<X@Xq.e t t e > > : > > > > w w w e e r r e e e r r e w w e e e w e > > > > > e t y r $.!.<X<X<X<X<X<X<X<X<X<X<X<X",
"<X<X<X<X<X<X<X<X=Xs.( ) y t > : > > : : > > : > > > > > > : > > : > > > > > > : : > > > > e e t ^ ( <.(.<X<X<X<X<X<X<X<X<X<X<X<X",
"<X<X<X<X<X<X<X<X,X].B.&.r r e e w w w : : : > > > : : ; ; ; ; ; : > > > : : : ; ; > w e e e e r ( s.!.-X<X<X<X<X<X<X<X<X<X<X<X<X",
"<X<X<X<X<X<X<X<X<X<XXX2.e e e t r r e : > > > > > > > ; : : > ; > > > e > > > ; ; > t r t r e e O.E.<X<X<X<X<X<X<X<X<X<X<X<X<X<X",
"<X<X<X<X<X<X<X<X<X<XXX4.e r t t p r r t e e e e e e e e e > e > e e t y y r > e e e r t t t e e O.E.<X<X<X<X<X<X<X<X<X<X<X<X<X<X",
"<X<X<X<X<X<X<X<X<X<X#Xg.$.y t p p r p ^ p e r t r r r t t t t t t t ^ ^ ^ ) e r t t r t p t t O.4.(.<X<X<X<X<X<X<X<X<X<X<X<X<X<X",
"<X<X<X<X<X<X<X<X<X<X,X XK.$.e t t p ^ ^ t t r y t ^ p p ^ ^ ^ t ^ ^ ^ ^ ^ ) r r ^ t r t t t s s..X-X<X<X<X<X<X<X<X<X<X<X<X<X<X<X",
"<X<X<X<X<X<X<X<X<X<X<X<XOXg.$.) t t ^ ^ t r t p ) ^ ) ^ ^ ^ ^ ^ ^ ^ ^ p ^ t e t t t r r y @.9.!.,X<X<X<X<X<X<X<X<X<X<X<X<X<X<X<X",
"<X<X<X<X<X<X<X<X<X<X<X<X,XOXK.$.t t t r t e e t r t t t ^ ^ ^ ^ ^ ^ t t t e e r t r e e ) s. X=X<X<X<X<X<X<X<X<X<X<X<X<X<X<X<X<X",
"<X<X<X<X<X<X<X<X<X<X<X<X<X<X Xg.9.9.&.y e e e t r r e r p ^ ^ p p t t t r e e r e @.8.9.q.(.,X<X<X<X<X<X<X<X<X<X<X<X<X<X<X<X<X<X",
"<X<X<X<X<X<X<X<X<X<X<X<X<X<X,X#XOXOXN.( t e e e , e e e e t t r t t t e e e e e , w.].XXOX;X,X<X<X<X<X<X<X<X<X<X<X<X<X<X<X<X<X<X",
"<X<X<X<X<X<X<X<X<X<X<X<X<X<X<X<X<X<X].g.q.q.q.q.0.0.a.q.q.w.w.w.w.w.w.w.0.q.q.q.a.E.,X<X<X<X<X<X<X<X<X<X<X<X<X<X<X<X<X<X<X<X<X<X",
"<X<X<X<X<X<X<X<X<X<X<X<X<X<X<X<X<X<X<X<X<X<X<X<X<X<X<X<X<X<X<X<X<X<X<X<X<X<X<X<X,X<X<X<X<X<X<X<X<X<X<X<X,X:X<X<X<X<X<X<X<X<X<X<X",
"<X<X<X<X<X<X<X<X<X<X<X<X<X<X<X<X<X<X<X<X<X<X<X<X<X<X<X<X<X<X<X<X<X<X<X<X<X<X<X<X<X<X<X<X<X<X<X<X<X<X<X<X<X<X<X<X<X<X<X<X<X<X<X<X",
"<X<X<X<X<X<X<X<X<X<X<X<X<X<X<X<X<X<X<X<X<X<X<X<X<X<X<X<X<X<X<X<X<X<X<X<X<X<X<X<X<X<X<X<X<X<X<X<X<X<X<X<X<X<X<X<X<X<X<X<X<X<X<X<X",
"<X<X<X<X<X<X<X<X<X<X<X<X<X<X<X<X<X<X<X<X<X<X<X<X<X<X<X<X<X<X<X<X<X<X<X<X<X<X<X<X<X<X<X<X<X<X<X<X<X<X<X<X<X<X<X<X<X<X<X<X<X<X<X<X",
"<X<X<X<X<X<X<X<X<X<X<X<X<X<X<X<X<X<X<X<X<X<X<X<X<X<X<X<X<X<X<X<X<X<X<X<X<X<X<X<X<X<X<X<X<X<X<X<X<X<X<X<X<X<X<X<X<X<X<X<X<X<X<X<X",
"<X<X<X<X<X<X<X<X<X<X<X<X<X<X<X<X<X<X<X<X<X<X<X<X<X<X<X<X<X<X<X<X<X<X<X<X<X<X<X<X<X<X<X<X<X<X<X<X<X<X<X<X<X<X<X<X<X<X<X<X<X<X<X<X",
"<X<X<X<X<X<X<X<X<X<X<X<X<X<X<X<X<X<X<X<X<X<X<X<X<X<X<X<X<X<X<X<X<X<X<X<X<X<X<X<X<X<X<X<X<X<X<X<X<X<X<X<X<X<X<X<X<X<X<X<X<X<X<X<X",
"<X<X<X<X<X<X<X<X<X<X<X<X<X<X<X<X<X<X<X<X<X<X<X<X<X<X<X<X<X<X<X<X<X<X<X<X<X<X<X<X<X<X<X<X<X<X<X<X<X<X<X<X<X<X<X<X<X<X<X<X<X<X<X<X",
"<X<X<X<X<X<X<X<X<X<X<X<X<X<X<X<X<X<X<X<X<X<X<X<X<X<X<X<X<X<X<X<X<X<X<X<X<X<X<X<X<X<X<X<X<X<X<X<X<X<X<X<X<X<X<X<X<X<X<X<X<X<X<X<X",
"<X<X<X<X<X<X<X<X<X<X<X<X<X<X<X<X<X<X<X<X<X<X<X<X<X<X<X<X<X<X<X<X<X<X<X<X<X<X<X<X<X<X<X<X<X<X<X<X<X<X<X<X<X<X<X<X<X<X<X<X<X<X<X<X",
"<X<X<X<X<X<X<X<X<X<X<X<X<X<X<X<X<X<X<X<X<X<X<X<X<X<X<X<X<X<X<X<X<X<X<X<X<X<X<X<X<X<X<X<X<X<X<X<X<X<X<X<X<X<X<X<X<X<X<X<X<X<X<X<X",
"<X<X<X<X<X<X<X<X<X<X<X<X<X<X<X<X<X<X<X<X<X<X<X<X<X<X<X<X<X<X<X<X<X<X<X<X<X<X<X<X<X<X<X<X<X<X<X<X<X<X<X<X<X<X<X<X<X<X<X<X<X<X<X<X",
"<X<X<X<X<X<X<X<X<X<X<X<X<X<X<X<X<X<X<X<X<X<X<X<X<X<X<X<X<X<X<X<X<X<X<X<X<X<X<X<X<X<X<X<X<X<X<X<X<X<X<X<X<X<X<X<X<X<X<X<X<X<X<X<X",
"<X<X<X<X<X<X<X<X<X<X<X<X<X<X<X<X<X<X<X<X<X<X<X<X<X<X<X<X<X<X<X<X<X<X<X<X<X<X<X<X<X<X<X<X<X<X<X<X<X<X<X<X<X<X<X<X<X<X<X<X<X<X<X<X",
"<X<X<X<X<X<X<X<X<X<X<X<X<X<X<X<X<X<X<X<X<X<X<X<X<X<X<X<X<X<X<X<X<X<X<X<X<X<X<X<X<X<X<X<X<X<X<X<X<X<X<X<X<X<X<X<X<X<X<X<X<X<X<X<X"
};
