/* XPM */
static char *result[] = {
/* columns rows colors chars-per-pixel */
"64 64 232 2 ",
"   c #190E1A",
".  c #18191C",
"X  c #180F08",
"o  c #241B1B",
"O  c #18271B",
"+  c #21241A",
"@  c #1D152D",
"#  c #1B1925",
"$  c #1D1933",
"%  c #1B0D29",
"&  c #251D24",
"*  c #241B2D",
"=  c #231926",
"-  c #211633",
";  c #241B34",
":  c #251B3B",
">  c #291D3C",
",  c #281938",
"<  c #1B2823",
"1  c #1B2438",
"2  c #2B222B",
"3  c #272527",
"4  c #3B3829",
"5  c #2B2333",
"6  c #2B233B",
"7  c #282738",
"8  c #32273B",
"9  c #2B3638",
"0  c #3B3839",
"q  c #2C332B",
"w  c #423C36",
"e  c #433D2D",
"r  c #324238",
"t  c #5B5B11",
"y  c #446A12",
"u  c #6E681D",
"i  c #484835",
"p  c #475437",
"a  c #4E4932",
"s  c #587826",
"d  c #7D782C",
"f  c #625E38",
"g  c #2B1D44",
"h  c #281A46",
"j  c #301E4F",
"k  c #2D2243",
"l  c #2D244B",
"z  c #292746",
"x  c #312645",
"c  c #342C44",
"v  c #33264C",
"b  c #352B4C",
"n  c #3A2D4E",
"m  c #3A2E42",
"M  c #37314B",
"N  c #3C334C",
"B  c #3B3646",
"V  c #332653",
"C  c #352B54",
"Z  c #3A2D54",
"A  c #362B5B",
"S  c #3B2D5B",
"D  c #36265B",
"F  c #3C3254",
"G  c #3C325B",
"H  c #393654",
"J  c #2D2D53",
"K  c #3C2C62",
"L  c #3A2A64",
"P  c #3D3262",
"I  c #3F3569",
"U  c #1F2643",
"Y  c #423C4C",
"T  c #453A48",
"R  c #402D5C",
"E  c #423455",
"W  c #453D53",
"Q  c #42345D",
"!  c #473F59",
"~  c #412D63",
"^  c #422D6C",
"/  c #433363",
"(  c #44326B",
")  c #4D3C6B",
"_  c #493369",
"`  c #513B66",
"'  c #432E71",
"]  c #463273",
"[  c #4C3974",
"{  c #523D7B",
"}  c #344649",
"|  c #374858",
" . c #36525D",
".. c #544747",
"X. c #5D5B4B",
"o. c #4B445A",
"O. c #484353",
"+. c #57495A",
"@. c #455559",
"#. c #52544F",
"$. c #655B4F",
"%. c #696558",
"&. c #7E7B55",
"*. c #777557",
"=. c #736F4D",
"-. c #584765",
";. c #5A5666",
":. c #584775",
">. c #4F4C69",
",. c #625B6B",
"<. c #645E74",
"1. c #664E72",
"2. c #586878",
"3. c #4F6270",
"4. c #6B6775",
"5. c #736C6C",
"6. c #847929",
"7. c #817D57",
"8. c #857D63",
"9. c #84757C",
"0. c #8B7477",
"q. c #76923F",
"w. c #5A852C",
"e. c #798356",
"r. c #8D8837",
"t. c #8E8C4A",
"y. c #95974A",
"u. c #858758",
"i. c #9A9656",
"p. c #8E934C",
"a. c #A19B4A",
"s. c #A69F5A",
"d. c #8DA852",
"f. c #ABA759",
"g. c #B1B05B",
"h. c #8A8463",
"j. c #888664",
"k. c #938A68",
"l. c #989769",
"z. c #8D8878",
"x. c #9A8A75",
"c. c #95946C",
"v. c #A29D68",
"b. c #A99879",
"n. c #B49F74",
"m. c #98BA62",
"M. c #ABA566",
"N. c #B5AA68",
"B. c #BAB96A",
"V. c #AAA977",
"C. c #B5A676",
"Z. c #B7B877",
"A. c #ABB569",
"S. c #C3BE76",
"D. c #B5C878",
"F. c #A8CA72",
"G. c #C2C36C",
"H. c #C7C878",
"J. c #D4D47B",
"K. c #D1CF7B",
"L. c #523C86",
"P. c #563C8E",
"I. c #5A4685",
"U. c #5E4692",
"Y. c #624B8C",
"T. c #634999",
"R. c #685893",
"E. c #6B7B88",
"W. c #797687",
"Q. c #776599",
"!. c #6E6292",
"~. c #664AA2",
"^. c #7257A4",
"/. c #7B64A9",
"(. c #5D7388",
"). c #817387",
"_. c #856DAB",
"`. c #876CB8",
"'. c #9C8883",
"]. c #928E91",
"[. c #A89682",
"{. c #A3928F",
"}. c #A6A581",
"|. c #BBB78C",
" X c #B7B394",
".X c #B0AA8A",
"XX c #ABABAD",
"oX c #BCB6A0",
"OX c #C3BA8B",
"+X c #BCD083",
"@X c #BEE089",
"#X c #CAC988",
"$X c #CCD086",
"%X c #D8D786",
"&X c #D9D895",
"*X c #D0CD95",
"=X c #E1DB9A",
"-X c #C9E58D",
";X c #DDE38A",
":X c #DAE594",
">X c #D9F39C",
",X c #CBE79C",
"<X c #E4E38B",
"1X c #E8E997",
"2X c #EAF99A",
"3X c #FBFC9E",
"4X c #F4F69A",
"5X c #DBD9A6",
"6X c #D6F3A2",
"7X c #E8E9A6",
"8X c #EBFEA5",
"9X c #EEFEAB",
"0X c #EBF6AB",
"qX c #F5FDA5",
"wX c #FBFDA4",
"eX c #F5FDAC",
"rX c #FDFEAB",
"tX c #F6F5A7",
"yX c #F5FEB2",
"uX c #FCFDB3",
"iX c #FCFDBA",
"pX c #F6F8B7",
"aX c #EEEFAE",
"sX c #E5DCA5",
"dX c #BDABD9",
"fX c #C1BCC7",
"gX c #C4B2DC",
"hX c #FDFBC4",
"jX c #DACBF1",
"kX c #FEF0FF",
"lX c #C7C2C9",
"zX c None",
/* pixels */
"zXzXzXzXzXzXzXzXzXzXzXzXzXzXzXzXzXzXzXzXzXzXzXzXzXzXzXzXzXzXzXzXzXzXzXzXzXzXzXzXzXzXzXzXzXzXzXzXzXzXzXzXzXzXzXzXzXzXzXzXzXzXzXzX",
"zXzXzXzXzXzXzXzXzXzXzXzXzXzXzXzXzXzXzXzXzXzXzXzXzXzXzXzXzXzXzXzXzXzXzXzXzXzXzXzXzXzXzXzXzXzXzXzXzXzXzXzXzXzXzXzXzXzXzXzXzXzXzXzX",
"zXzXzXzXzXzXzXzXzXzXzXzXzXzXzXzXzXzXzXzXzXzXzXzXzXzXzXzXzXzXzXzXzXzXzXzXzXzXzXzXzXzXzXzXzXzXzXzXzXzXzXzXzXzXzXzXzXzXzXzXzXzXzXzX",
"zXzXzXzXzXzXzXzXzXzXzXzXzXzXzXzXzXzXzXzXzXzXzXzXzXzXzXzXzXzXzXzXzXzXzXzXzXzXzXzXzXzXzXzXzXzXzXzXzXzXzXzXzXzXzXzXzXzXzXzXzXzXzXzX",
"zXzXzXzXzXzXzXzXzXzXzXzXzXzXzXzX:.Q.zXzXzXzXzXzXzXzXzXzXzXzXzXzXzXzXzXzXzXzXzXzXzXzXzXR.>.zXzXzXzXzXzXzXzXzXzXzXzXzXzXzXzXzXzXzX",
"zXzXzXzXzXzXzXzXzXzXzXzXzXzXzXo.L Y.Q.jXzXzXzXzXzXzXzXzXzXzXzXzXzXzXzXzXzXzXzXzXzXzX!.:.V zXzXzXzXzXzXzXzXzXzXzXzXzXzXzXzXzXzXzX",
"zXzXzXzXzXzXzXzXzXzXzXzXzXzX,.N ~ ' I.Q.jXzXzXzXzXzXzXzXzXzXzXzXzXzXzXzXzXzXzXzXzXR.U.( V v zXzXzXzXzXzXzXzXzXzXzXzXzXzXzXzXzXzX",
"zXzXzXzXzXzXzXzXzXzXzXzXzXzXO.c S ( I.I.Q.jXzXzXzXzXzXzXzXzXzXzXzXzXzXzXzXzXzXzXR.R.[ L Q 6 zXzXzXzXzXzXzXzXzXzXzXzXzXzXzXzXzXzX",
"zXzXzXzXzXzXzXzXzXzXzXzXzXzXO.x S S ^ Y.I.Q.jXzXzXzXzXzXzXzXzXzXzXzXzXzXzXzXgXQ.Y.{ I L A c ,.zXzXzXzXzXzXzXzXzXzXzXzXzXzXzXzXzX",
"zXzXzXzXzXzXzXzXzXzXzXzXzX4.6 x Q S ^ K L.R./.jXkXkXzXzXzXzXzXzXzXzXzXzXzXdX/.U.L.] ^ L F k k zXzXzXzXzXzXzXzXzXzXzXzXzXzXzXzXzX",
"zXzXzXzXzXzXzXzXzXzXzXzXzXB 6 n F b V / I.T.T./.`._._._.`.`.`.`.`.`._.`.`.^.T.~.L.^ K n N c $ ;.zXzXzXzXzXzXzXzXzXzXzXzXzXzXzXzX",
"zXzXzXzXzXzXzXzXzXzXzXzXzXW ; c n F G A ^ Y.T.U.T.Y.Y.Y.Y.T.~.~.P.T.~.T.U.~.~.P.] D S Z H c 6 <.zXzXzXzXzXzXzXzXzXzXzXzXzXzXzXzX",
"zXzXzXzXzXzXzXzXzXzXzXzXzXW - Z G F A S K L.T.L.] ( / / / / _ ] L.] ] ' ^ { I.:.~ S Q Z n v : 1.zXzXzXzXzXzXzXzXzXzXzXzXzXzXzXzX",
"zXzXzXzXzXzXzXzXzXzXzXzXzXo.> C C G j S :.[ ( L ~ ~ E E E R S R D R A A ( _ ( ) ) S S V A v g <.zXzXzXzXzXzXzXzXzXzXzXzXzXzXzXzX",
"zXzXzXzXzXzXzXzXzXzXzXzXzXO., : D j ) ( L ' D / S A D S S Z Z n n H A A K K S / ~ C C S Q v - <.zXzXzXzXzXzXzXzXzXzXzXzXzXzXzXzX",
"zXzXzXzXzXzXzXzXzXzXzXzXzXH , h h >.[ K L K K S Q R S K K K R R F C G I K L S A S / ( V V x - <.zXzXzXzXzXzXzXzXzXzXzXzXzXzXzXzX",
"zXzXzXzXzXzXzXzXzXzXzXzXzXO.; > j { _ K P A K P ~ R R _ R ~ _ ~ S R ^ ^ ~ S C F C P ) ] h g @ 4.zXzXzXzXzXzXzXzXzXzXzXzXzXzXzXzX",
"zXzXzXzXzXzXzXzXzXzXzXzXzXfXB , / _ ~ S C G P C R ` ` -.1.` ` -.1.-.` _ R Q G C H G _ ) j > -.zXzXzXzXzXzXzXzXzXzXzXzXzXzXzXzXzX",
"zXzXzXzXzXzXzXzXzXzXzXzXzXzXY @ ~ ~ E E S A A -.-.0.[.0.0.0.n.k.k.x.'.0.` _ ~ L P S / ` n % ,.zXzXzXzXzXzXzXzXzXzXzXzXzXzXzXzXzX",
"zXzXzXzXzXzXzXzXzXzXzXzXzXzXo.k V R E C Z o.-.9.[.[.n.n.S.N.f.N.N.C.n.n.).9.:.` ~ S R Q Z > 4.zXzXzXzXzXzXzXzXzXzXzXzXzXzXzXzXzX",
"zXzXzXzXzXzXzXzXzXzXzXzXzXW.M x Z Z G Z o.5.b.b.n.S.N.N.g.f.f.f.f.s.g.S.n.b.0.9.` ~ ~ ~ G J M zXzXzXzXzXzXzXzXzXzXzXzXzXzXzXzXzX",
"zXzXzXzXzXzXzXzXzXzXzXzXzXo.8 Q Q A L ` 9.[.M.M.f.K.r.6.g.<X<X<Xf.6.r.f.f.n.C.[.5.` R D A G b <.zXzXzXzXzXzXzXzXzXzXzXzXzXzXzXzX",
"zXzXzXzXzXzXzXzXzXzXzXzXW.H b C A K L :.{.b.N.J.<X4XJ.H.<X3XwXrX<XG.K.<XS.f.N.n.0.-.R Z P P j Q zXzXzXzXzXzXzXzXzXzXzXzXzXzXzXzX",
"zXzXzXzXzXzXzXzXzXzXzXzXH H C G P G E ,.x.M.J.2X3XwXqXeXwXrXrXtXtXeXrX4X4X<XS.S.0.T T C G A S j H zXzXzXzXzXzXzXzXzXzXzXzXzXzXzX",
"zXzXzXzXzXzXzXzXzXzXzXM b G A G S N 5.h.OXsXv.y.A.d.@X0X9X9XrXrXyXpXF.d.m.d.B.=XOX$.8 V S n E T 8 B zXzXzXzXzXzXzXzXzXzXzXzXzXzX",
"zXzXzXzXzXzXzXzXzXzX7 5 M C C P C 7 8.&XpXhX&Xy.d.y d.,XyXqXwXqXpX,Xe.s r.d.:XuX7X.XT w Q R n T B 7 0 zXzXzXzXzXzXzXzXzXzXzXzXzX",
"zXzXzXzXzXzXzXzXzXzXzX$ z l S G m 2 u.7XtXuXyX:Xm.y w.F.6X9XuXrX-Xm.s s F.>XuXrXuX5X%.5 x Z n 8 5 # zXzXzXzXzXzXzXzXzXzXzXzXzXzX",
"zXzXzXzXzXzXzXzXzXzXzXzXc $ : k 6 o a .XtXqXeXuX@XF.+X@X6XeXrXeX>X@XF.F.>X9X9XuX7Xx.w * x x > - O.zXzXzXzXzXzXzXzXzXzXzXzXzXzXzX",
"zXzXzXzXzXzXzXzXzXzXzXzXzXzXN * , 5 = a .XtXqX2X8X8X8X8X9X+Xf.J.2X9XyX9X2XeXyX7Xc.r * > - @ zXzXzXzXzXzXzXzXzXzXzXzXzXzXzXzXzXzX",
"zXzXzXzXzXzXzXzXzXzXzXzXzXzXzXzXc ; @ # i V.0XeX9XyXeXpXuX$XA.;XeX9X0XiXuXiX6Xc.4 . = - zXzXzXzXzXzXzXzXzXzXzXzXzXzXzXzXzXzXzXzX",
"zXzXzXzXzXzXzXzXzXzXzXzXzXzXzXzXzX].].].].%.*.u.5XhXhXpXpXuXaXyXyXyXiXhX|.e.%.5.zXzXzXzXzXzXzXzXzXzXzXzXzXzXzXzXzXzXzXzXzXzXzXzX",
"zXzXzXzXzXzXzXzXzXzXzXzXzXzXzXzXzXzXzXzXzXXX].z.z.*.8.j.u.u.u.u.u.e.h.8.z.{.zXzXzXzXzXzXzXzXzXzXzXzXzXzXzXzXzXzXzXzXzXzXzXzXzXzX",
"zXzXzXzXzXzXzXzXzXzXzXzXzXzXzXzXzXzXzXzXzXzXzXXX9 < # 3 3 + O < O < O . >.lXzXzXzXzXzXzXzXzXzXzXzXzXzXzXzXzXzXzXzXzXzXzXzXzXzXzX",
"zXzXzXzXzXzXzXzXzXzXzXzXzXzXzXzXzXzXzXzXzXzXXX} 1 U }  .} 7 < 9 }  .| 1 $ >.fXzXzXzXzXzXzXzXzXzXzXzXzXzXzXzXzXzXzXzXzXzXzXzXzXzX",
"zXzXzXzXzXzXzXzXzXzXzXzXzXzXzXzXzXzXzXzXzXXXH 1 1 | (.(.} #.%.}  .(.2.| $ @ ;.lXzXzXzXzXzXzXzXzXzXzXzXzXzXzXzXzXzXzXzXzXzXzXzXzX",
"zXzXzXzXzXzXzXzXzXzXzXzXzXzXzXzXzXzXzXzXzXT k $ U 2.e. .q e.}.X.r 3.E.>.M 7 $ +.zXzXzXzXzXzXhXzXzXzXzXzXzXzXzXzXzXzXzXzXzXzXzXzX",
"zXzXzXzXzXzXzXzXzXzXzXzXzXzXzXzXzXzXzXzX+., > h U >.@.r p u.V.u.#.r ;.O.1 6 ; @ ].zXzXzXzXzX7XiXzXzXzXzXzXzXzXzXzXzXzXzXzXzXzXzX",
"zXzXzXzXzXzXzXzXzXzXzXzXzXzXzXzXzXzXzXzXY l h V z z q p u.+X$XZ.e.r q 0 - 6 b k ;.zXzXzXzXzXzXuXzXzXzXzXzXzXzXzXzXzXzXzXzXzXzXzX",
"zXzXzXzXzXzXzXzXzXzXzXzXzXzXzXzXzXzXzX+.c J I V 6 . p u.Z.7XqX;XA.e.r + 5 8 M C 6 4.zXzXzXzX#X7XzXzXzXzXzXzXzXzXzXzXzXzXzXzXzXzX",
"zXzXzXzXzXzXzXzXzXzXzXzXzXzXzXzXzXzXzXB z P L C 5 i u.H.1XrXwXrX:XZ.=.4 3 M G G k <.zXzXzXzX&XzXzXzXzXzXzXzXzXzXzXzXzXzXzXzXzXzX",
"zXzXzXzXzXzXzXzXzXzXzXzXzXzXzXzXzXzXO.m C G A c w h.S.4X4XwXwXwXuX7XV.&.w 6 R A S : #.zXzXf.*XzXzXzXzXzXzXzXzXzXzXzXzXzXzXzXzXzX",
"zXzXzXzXzXzXzXzXzXzXzXzXzXzXzXzXzXzXO.b A G G # *.OX4X4X4XrXtXrXeXrX&XZ.X.6 Z / P b q a p.i.zXzXzXzXzXzXzXzXzXzXzXzXzXzXzXzXzXzX",
"zXzXzXzXzXzXzXzXzXzXzXzXzXzXzXzXzX@.8 n S R Z o i.:XwX3X3XwXrXwXrXrXrX1X=.& b C C F 8 a l.zXzXzXzXzXzXzXzXzXzXzXzXzXzXzXzXzXzXzX",
"zXzXzXzXzXzXzXzXzXzXzXzXzXzXzXzXzXo.c Z / E m ..*X1X2X3XrXrXuXtXwX4X1XaX}.i c / K Q 5 i c.zXzXzXzXzXzXzXzXzXzXzXzXzXzXzXzXzXzXzX",
"zXzXzXzXzXzXzXzXzXzXzXzXzXzXzXzXzXH b v R E    XpXH.J.qXuXaX=XtXwX3XK.%XiXz.5 b P C 6 & z.zXzXzXzXzXzXzXzXzXzXzXzXzXzXzXzXzXzXzX",
"zXzXzXzXzXzXzXzXzXzXzXzXzXzXzXzXO.: b F S E &  XuXG.G.4XiX*Xf.%X3X1XS.$XiXk.& F A G b = W.zXzXzXzXzXzXzXzXzXzXzXzXzXzXzXzXzXzXzX",
"zXzXzXzXzXzXzXzXzXzXzXzXzXzXzXzXE , C E C M o  XpX%Xr.OXhX|.y.%XiXs.t.%XpXj.2 E D / x * ;.zXzXzXzXzXzXzXzXzXzXzXzXzXzXzXzXzXzXzX",
"zXzXzXzXzXzXzXzXzXzXzXzXzXzXzXB , v b M G 8 o |.rXrXy.N.aXv.t B.7Xs.B.rXiXj.2 n R S v > - ;.zXzXzXzXzXzXzXzXzXzXzXzXzXzXzXzXzXzX",
"zXzXzXzXzXzXzXzXzXzXzXzXzXzXB ; x Z E Z E 8 4 OXrXwX%Xr.N.t.t a.a.y.=XuXpXv.w x E R Q V h : +.zXzXzXzXzXzXzXzXzXzXzXzXzXzXzXzXzX",
"zXzXzXzXzXzXzXzXzXzXzXzXzXW 7 F A S V n Z 2 *.7XrX3XuX%Xt.u u 6.a.;XrXeXrX*X$.6 n v Z C A j 6 +.zXzXzXzXzXzXzXzXzXzXzXzXzXzXzXzX",
"zXzXzXzXzXzXzXzXzXzXzXzXo.b F C S A C C E o 8.&XwXwXrXtX$XS.B.B.%X3XwXrXrX*X%.& E v b C L S c 5 ;.zXzXzXzXzXzXzXzXzXzXzXzXzXzXzX",
"zXzXzXzXzXzXzXzXzXzXO.; l C Z A A P D S n o 7.=XqXrXtXuXwXrXrXrXwXwXwXwXwX*X%.* m n F G S C Z b 8 ; zXzXzXzXzXzXzXzXzXzXzXzXzXzX",
"zXzXzXzXzXzXzXzXY - b Z Z / j A A G L S n & &.7XrXrXrXrX3XwXwXwXwXwXrX3XrX&XX.5 N F b C P V J C M C M # zXzXzXzXzXzXzXzXzXzXzXzX",
"zXzXzXzXzXzXzXB c N F Z V D I A S C A P N # 7.:XpXrXrX4XwXwXtXrXrXwXwXwXqX&XX.6 F F x l P K L A G M H M c zXzXzXzXzXzXzXzXzXzXzX",
"zXzXzXzXzXzXzXm 8 N Z v S A D P Z v S C n * $.sXiXtXrXwX3X3XrXrXuXrXwXqXqX#XX.k C G G C K K L D z A b M c 0 zXzXzXzXzXzXzXzXzXzX",
"zXzXzXzXzXzXzX,.Y M c g v C Q V k v G S n 8 o |.pXwXwXwXtX4X0XaXtXeXwXwXuXu.& k G A G V l A L K J : M c O.zXzXzXzXzXzXzXzXzXzXzX",
"zXzXzXzXzXzXzXzXzX,.W 6 ; k b k : M C C n 8 X .XpXwX4X3XB.a.l.M.#XrXwXtXrX7.= g C C C b g h S v ; x W zXzXzXzXzXzXzXzXzXzXzXzXzX",
"zXzXzXzXzXzXzXzXzXzXzX,.W 5 > ; ; : h k % 8 o 7.=X3X3XG.t.&.&.7.i.H.rXtX$Xf = > g g g , ; 6 ; k W zXzXzXzXzXzXzXzXzXzXzXzXzXzXzX",
"zXzXzXzXzXzXzXzXzXzXzXzXzX,.B T 6 : , > 8   e 7.f.%X1Xy.zXzXzXzXV.N.4XH.M.*.2 > k - * ; 8 T T zXzXzXzXzXzXzXzXzXzXzXzXzXzXzXzXzX",
"zXzXzXzXzXzXzXzXzXzXzXzXzXzXzXzX4.N E H T T zXzXv.B.G.&.zXzXzXzXv.u.OXZ.u.}.{.T m Y T B zXzXzXzXzXzXzXzXzXzXzXzXzXzXzXzXzXzXzXzX",
"zXzXzXzXzXzXzXzXzXzXzXzXzXzXzXzXzXzXzXzXzXzXzXzX X5X5Xl.zXzXzXzX X}.5XaXV. XzXzXzXzXzXzXzXzXzXzXzXzXzXzXzXzXzXzXzXzXzXzXzXzXzXzX",
"zXzXzXzXzXzXzXzXzXzXzXzXzXzXzXzXzXzXzXzXzXzXzXzXzXj.j.zXzXzXzXzXzX Xj.*.zXzXzXzXzXzXzXzXzXzXzXzXzXzXzXzXzXzXzXzXzXzXzXzXzXzXzXzX",
"zXzXzXzXzXzXzXzXzXzXzXzXzXzXzXzXzXzXzXzXzXzXzXzXzXzXzXzXzXzXzXzXzXzXzXzXzXzXzXzXzXzXzXzXzXzXzXzXzXzXzXzXzXzXzXzXzXzXzXzXzXzXzXzX",
"zXzXzXzXzXzXzXzXzXzXzXzXzXzXzXzXzXzXzXzXzXzXzXzXzXzXzXzXzXzXzXzXzXzXzXzXzXzXzXzXzXzXzXzXzXzXzXzXzXzXzXzXzXzXzXzXzXzXzXzXzXzXzXzX"
};
