/* XPM */
static char *result[] = {
/* columns rows colors chars-per-pixel */
"64 64 212 2 ",
"   c #1B1312",
".  c #1A151A",
"X  c #181601",
"o  c #21161D",
"O  c #241C1A",
"+  c #261E13",
"@  c #39331D",
"#  c #160C28",
"$  c #1D142C",
"%  c #1C1D20",
"&  c #1F1931",
"*  c #1C1335",
"=  c #140C33",
"-  c #241B24",
";  c #21152C",
":  c #291F2A",
">  c #241A27",
",  c #211533",
"<  c #251C34",
"1  c #291D35",
"2  c #24173B",
"3  c #251A3B",
"4  c #2A1E3D",
"5  c #2A2427",
"6  c #30242E",
"7  c #363B28",
"8  c #2A2335",
"9  c #2B233C",
"0  c #2E2839",
"q  c #252234",
"w  c #31243C",
"e  c #332A3C",
"r  c #393834",
"t  c #2D3037",
"y  c #403A28",
"u  c #493B39",
"i  c #3F4133",
"p  c #615B1D",
"a  c #4B6F19",
"s  c #4C452B",
"d  c #565839",
"f  c #4E4236",
"g  c #676638",
"h  c #716C2A",
"j  c #2A1D43",
"k  c #2F1F4A",
"l  c #231947",
"z  c #2D1F50",
"x  c #2D2244",
"c  c #2E224B",
"v  c #2F2A42",
"b  c #302445",
"n  c #322A44",
"m  c #32254B",
"M  c #342A4C",
"N  c #3A2C4F",
"B  c #3A3346",
"V  c #3C344C",
"C  c #393449",
"Z  c #2E2252",
"A  c #332553",
"S  c #362A54",
"D  c #3A2E55",
"F  c #34255A",
"G  c #362B5A",
"H  c #3A2E5B",
"J  c #3C3255",
"K  c #3C315B",
"L  c #373154",
"P  c #3C2C63",
"I  c #3C2A67",
"U  c #3E3162",
"Y  c #433B4E",
"T  c #43374F",
"R  c #413355",
"E  c #433B52",
"W  c #43375D",
"Q  c #412D65",
"!  c #412E6A",
"~  c #492E63",
"^  c #423363",
"/  c #45346C",
"(  c #4A386E",
")  c #493664",
"_  c #543E63",
"`  c #4A3B74",
"'  c #493775",
"]  c #503E76",
"[  c #5F5941",
"{  c #4C435B",
"}  c #4A4758",
"|  c #514B5C",
" . c #585858",
".. c #474141",
"X. c #685B4C",
"o. c #5D655B",
"O. c #696247",
"+. c #7A784C",
"@. c #716650",
"#. c #7C7755",
"$. c #6B7047",
"%. c #524C62",
"&. c #574667",
"*. c #4F4176",
"=. c #53437A",
"-. c #554573",
";. c #5E517F",
":. c #5B5363",
">. c #685470",
",. c #6B6367",
"<. c #676070",
"1. c #786571",
"2. c #807B5D",
"3. c #847E4A",
"4. c #8A7878",
"5. c #6D8633",
"6. c #769844",
"7. c #928D3A",
"8. c #89854C",
"9. c #9B9544",
"0. c #89855A",
"q. c #95915B",
"w. c #A0955F",
"e. c #A29D49",
"r. c #8AA853",
"t. c #9DA35B",
"y. c #A5AE5D",
"u. c #9A9460",
"i. c #A49D6F",
"p. c #A19A7E",
"a. c #92B267",
"s. c #A9A774",
"d. c #B1AF76",
"f. c #BBB87B",
"g. c #B8B674",
"h. c #B9B462",
"j. c #C1BF75",
"k. c #A7C16C",
"l. c #B4C06E",
"z. c #ADC876",
"x. c #CCC67A",
"c. c #4F3B80",
"v. c #5B4D82",
"b. c #574885",
"n. c #5F5087",
"m. c #60518C",
"M. c #7C6380",
"N. c #7D6FA0",
"B. c #857B9F",
"V. c #897BA6",
"C. c #93948E",
"Z. c #A3968D",
"A. c #BAB882",
"S. c #B8A798",
"D. c #BBBB92",
"F. c #B1AB88",
"G. c #8E82A7",
"H. c #948BA8",
"J. c #9488B4",
"K. c #9792A9",
"L. c #B09AA7",
"P. c #BDBCA7",
"I. c #C1BC85",
"U. c #D0BFB7",
"Y. c #CABCA2",
"T. c #BBD284",
"R. c #C9C485",
"E. c #C7C48A",
"W. c #C7C489",
"Q. c #C0DE84",
"!. c #D8D687",
"~. c #C9C792",
"^. c #C5DF95",
"/. c #D3D293",
"(. c #DDD998",
"). c #D2CE8E",
"_. c #E2DE9A",
"`. c #DEF09C",
"'. c #DAE38A",
"]. c #E6E39B",
"[. c #E9E69B",
"{. c #F2F29C",
"}. c #D5C8A5",
"|. c #D9D9A4",
" X c #DED3B3",
".X c #E0D9A5",
"XX c #EEE9AC",
"oX c #E6E5A4",
"OX c #E9F4AA",
"+X c #FBFCA2",
"@X c #F4FEAC",
"#X c #FCFCAD",
"$X c #F8F7A6",
"%X c #F2E7BA",
"&X c #F3FCB2",
"*X c #FDFDB4",
"=X c #F3FEBB",
"-X c #FCFBBA",
";X c #F5F2B7",
":X c #EBEAB2",
">X c #A294C7",
",X c #ABA0CA",
"<X c #C0B7CA",
"1X c #E0DBD8",
"2X c #F6FCC1",
"3X c #FCFEC2",
"4X c #FEFECB",
"5X c #F5FAC9",
"6X c #F8F7DA",
"7X c #EFECDA",
"8X c #F5F5E6",
"9X c None",
/* pixels */
"9X9X9X9X9X9X9X9X9X9X9X9X9X9X9X9X9X9X9X9X9X9X9X9X9X9X9X9X9X9X9X9X9X9X9X9X9X9X9X9X9X9X9X9X9X9X9X9X9X9X9X9X9X9X9X9X9X9X9X9X9X9X9X9X",
"9X9X9X9X9X9X9X9X9X9X9X9X9X9X9X9X9X9X9X9X9X9X9X9X9X9X9X9X9X9X9X9X9X9X9X9X9X9X9X9X9X9X9X9X9X9X9X9X9X9X9X9X9X9X9X9X9X9X9X9X9X9X9X9X",
"9X9X9X9X9X9X9X9X9X9X9X9X9X9X9X9X9X9X9X9X9X9X9X9X9X9X9X9X9X9X9X9X9X9X9X9X9X9X9X9X9X9X9X9X9X9X9X9X9X9X9X9X9X9X9X9X9X9X9X9X9X9X9X9X",
"9X9X9X9X9X9X9X9X9X9X9X9X9X9X9X9X9X9X9X9X9X9X9X9X9X9X9X9X9X9X9X9X9X9X9X9X9X9X9X9X9X9X9X9X9X9X9X9X9X9X9X9X9X9X9X9X9X9X9X9X9X9X9X9X",
"9X9X9X9X9X9X9X9X9X9X9X9X9X9X9X9X9X9X9X9X9X9X9X9X9X9X9X9X9X9X9X9X9X9X9X9X9X9X9X9X9X9X9X9X9X9X9X9X9X9X9X9X9X9X9X9X9X9X9X9X9X9X9X9X",
"9X9X9X9X9X9X9X9X9X9X9X9X9X9X9X9X9X9X9XK.H.H.G.B.9X9X9X9X9X9X9X9X9X9X9X9X9X9X9X9X9X9X9X9X9X9X9X9X9X9X9X9X9X9X9X9X9X9X9X9X9X9X9X9X",
"9X9X9X9X9X9X9X9X9X9X9X9X9X9X9X9X9X9X%.J ) ` ` =.v.9X9X9X9X9X9X9X9X9X9X9X9X9X9X9X9X9X9X9X9X9X9X9X9X9X9X9X9X9X9X9X9X9X9X9X9X9X9X9X",
"9X9X9X9X9X9X9X9X9X9X9X9X9X9X9X9X9X9XV m U U I ' ` =.n.9X9X9X9X9X9X9X9X9X9X9X9X9X9X9X9X9X9X9X9X9X9X9X9X9X9X9X9X9X9X9X9X9X9X9X9X9X",
"9X9X9X9X9X9X9X9X9X9X9X9X9X9X9X9X9X9XB x J H F Q ! ' ( =.v.N.9X9X9X9X9X9X9X9X9X9X9X9X9X9X9X9X9X9X9X9X9X9X9X9X9X9X9X9X9X9X9X9X9X9X",
"9X9X9X9X9X9X9X9X9X9X9X9X9X9X9X9X9X9X9X9 x K Q Q P P ! / ( b.v.V.K.9X9X9X9X9X9X9X9X9X9X9X9X9X9X9X9X9X9X9X9X9X9X9X9X9X9X9X9X9X9X9X",
"9X9X9X9X9X9X9X9X9X9X9X9X9X9X9X9X9X9X9XB 1 x A H P H P P U ' / *.m.J.>X,X9X9X9X9X9X9X9X9X9X9X9X9X9X9X9X9X9X9X9X9X9X9X9X9X9X9X9X9X",
"9X9X9X9X9X9X9X9X9X9X9X9X9X9X9X9X9X9X9X9Xn 3 k m Q F ~ H H H H U b.m.m.m.m.J.9X9X9X9X9X9X9X9X9X9X9X9X9X9X9X9X9X9X9X9X9X9X9X9X9X9X",
"9X9X9X9X9X9X9X9X9X9X9X9X9X9X9X9X9X9X9X9XV 4 k l m k R A D c m c ' c.' ' ] ] ] V.9X9X9X9X9X9X9X9X9X9X9X9X9X9X9X9X9X9X9X9X9X9X9X9X",
"9X9X9X9X9X9X9X9X9X9X9X9X9X9X9X9X9X9X9X9X9Xn 2 j j l b A L M L D I I I I ! I ( ( -.G.9X9X9X9X9X9X9X9X9X9X9X9X9X9X9X9X9X9X9X9X9X9X",
"9X9X9X9X9X9X9X9X9X9X9X9X9X9X9X9X9X9X9X9X9XY ; 4 4 4 k m G G P P F ^ H Q ! F ! I ( -.V.9X9X9X9X9X9X9X9X9X9X9X9X9X9X9X9X9X9X9X9X9X",
"9X9X9X9X9X9X9X9X9X9X9X9X9X9X9X9X9X9X9X9X9XT 1 1 1 k m A U P I P P D H H Q Q Q Q _ &.>.<X9X9X9X9X9X9X9X9X9X9X9X9X9X9X9X9X9X9X9X9X",
"9X9X9X9X9X9X9X9X9X9X9X9X9X9X9X9X9X9X9X9X9XB < 9 c m D G U H K K L L S R Q I ) _ 1.4.Z.1X9X9X9X9X9X9X9X9X9X9X9X9X9X9X9X9X9X9X9X9X",
"9X9X9X9X9X9X9X9X9X9X9X9X9X9X9X9X9X9X9X9X9XH.n 4 D H G K U H K H K K H Q R _ 1.4.S.}.9X8X9X9X9X9X9X9X9X9X9X9X9X9X9X9X9X9X9X9X9X9X",
"9X9X9X9X9X9X9X9X9X9X9X9X9X9X9X9X9X9X9X9X9X9Xn J H L K H G K L K D G F ~ 1.Z.Y.}.XX-X~.9X9X9X9X9X9X9X9X9X9X9X9X9X9X9X9X9X9X9X9X9X",
"9X9X9X9X9X9X9X9X9X9X9X9X9X9X9X9X9X9X9X9X9XE n S J H H H G G L K K U Q >.L.%X-X(.x.g.R.9X9X9X9X9X9X9X9X9X9X9X9X9X9X9X9X9X9X9X9X9X",
"9X9X9X9X9X9X9X9X9X9X9X9X9X9X9X9X9X9X9X9X9Xq J L H H D H G J G D D H ~ 4.Y.-X#X'.y.t./.9X9X9X9X9X9X9X9X9X9X9X9X9X9X9X9X9X9X9X9X9X",
"9X9X9X9X9X9X9X9X9X9X9X9X9X9X9X9X9X9X9X9XC 9 m J K L L K L K G D D D ] L.5X@X$X@X`.`.-X9X9X9X9X9X9X9X9X9X9X9X9X9X9X9X9X9X9X9X9X9X",
"9X9X9X9X9X9X9X9X9X9X9X9X9X9X9X9X9X9X9X9Xn n S J H P H K K L J H A M >.U.-X!.k.Q.r.T.3X9X9X9X9X9X9X9X9X9X9X9X9X9X9X9X9X9X9X9X9X9X",
"9X9X9X9X9X9X9X9X9X9X9X9X9X9X9X9X9X9X9XJ 4 S L L H H H H P K H K D M X. X-Xl.5.6.a k.=X6X9X9X9X9X9X9X9X9X9X9X9X9X9X9X9X9X9X9X9X9X",
"9X9X9X9X9X9X9X9X9X9X9X9X9X9X9X9X9X9Xv v M J D K H G P H G P K A M ,.F.XX-X&X^.a.a k.2X5X9X9X9X9X9X9X9X9X9X9X9X9X9X9X9X9X9X9X9X9X",
"9X9X9X9X9X9X9X9X9X9X9X9X9X9X9X9X9Xn 9 < M M K H ^ K P G G F H J ,.Z..X*X*X*X3X^.r.z.=X|.9X9X9X9X9X9X9X9X9X9X9X9X9X9X9X9X9X9X9X9X",
"9X9X9X9X9X9X9X9X9X9X9X9X9X9X9X9X9X0 & 9 x m W S S H H U H G F V ,.p.(.{.#X#X&X=X@X@X@XR.8.9X9X9X9X9X9X9X9X9X9X9X9X9X9X9X9X9X9X9X",
"9X9X9X9X9X9X9X9X9X9X9X9X9X9X9X9X9X9Xt & 4 3 m S S H H H W K S M o @.w.).$X#X*X@X@X$X#X*XE.9X9X9X9X9X9X9X9X9X9X9X9X9X9X9X9X9X9X9X",
"9X9X9X9X9X9X9X9X9X9X9X9X9X9X9X9X9X9X9X8 < < 3 x D R H D H H H N w O O.q._.[.#X+X+X+X*XXX9X9X9X9X9X9X9X9X9X9X9X9X9X9X9X9X9X9X9X9X",
"9X9X9X9X9X9X9X9X9X9X9X9X9X9X9X9X9X9X9X9X:.< 1 3 2 m A M D J K L R w O @.i.).$X+X+X*XoX9X9X9X9X9X9X9X9X9X9X9X9X9X9X9X9X9X9X9X9X9X",
"9X9X9X9X9X9X9X9X9X9X9X9X9X9X9X9X9X9X9X9X9X9X%.9 4 3 4 b b m N S A A n . [ 8.I.XX[.9X9X9X9X9X9X9X9X9X9X9X9X9X9X9X9X9X9X9X9X9X9X9X",
"9X9X9X9X9X9X9X9X9X9X9X9X9X9X9X9X9X9X9X9X9X9X9X9X{ 9 , 2 3 2 3 3 l l * > o X [ 9X9X9X9X9X9X9X9X9X9X9X9X9X9X9X9X9X9X9X9X9X9X9X9X9X",
"9X9X9X9X9X9X9X9X9X9X9X9X9X9X9X9X9X9X9X9X9X9X9X9X9X9X| | , # 2 # * = * = . % % 9X9X9X9X9X9X9X9X9X9X9X9X9X9X9X9X9X9X9X9X9X9X9X9X9X",
"9X9X9X9X9X9X9X9X9X9X9X9X9X9X9X9X9X9X9X9X9X9X9X9X9X9X9X9XT 1 , b j x 3 * q t } 9X9X9X9X9X9X9X9X9X9X9X9X9X9X9X9X9X9X9X9X9X9X9X9X9X",
"9X9X9X9X9X9X9X9X9X9X9X9X9X9X9X9X9X9X9X9X9X9X9X9X9X9X9XY 1 w 4 2 2 2 & & 5 t o.C.9X9X9X9X9X9X9X9X9X9X9X9X9X9X9X9X9X9X9X9X9X9X9X9X",
"9X9X9X9X9X9X9X9X9X9X9X9X9X9X9X9X9X9X9X9X9X9X9X9X9X9X9XB < 3 b j x m j # i i t o.9X9X9X9X9X9X9X9X9X9X9X9X9X9X9X9X9X9X9X9X9X9X9X9X",
"9X9X9X9X9X9X9X9X9X9X9X9X9X9X9X9X9X9X9X9X9X9X9X9X9X9X| 8 , x j j m 2 4 ; 7 d 7 7 o.9X9X9X9X9X9X9X9X9X9X9X9X9X9X9X9X9X9X9X9X9X9X9X",
"9X9X9X9X9X9X9X9X9X9X9X9X9X9X9X9X9X9X9X9X9X9X9X9X9X9XT , b j A A N R w o i g $.d 9X9X9X9X9X9X9X9X9X9X9X9X9X9X9X9X9X9X9X9X9X9X9X9X",
"9X9X9X9X9X9X9X9X9X9X9X9X9X9X9X9X9X9X9X9X9X9X9X9X9X| < 9 S D H k R R 4 o s q.(.T.9X9X9X9X9X9X9X9X9X9X9X9X9X9X9X9X9X9X9X9X9X9X9X9X",
"9X9X9X9X9X9X9X9X9X9X9X9X9X9X9X9X9X9X9X9X9X9X9X9X9XY n x S S z H R m k - 6.g.|.D.9X9X9X9X9X9X9X9X9X9X9X9X9X9X9X9X9X9X9X9X9X9X9X9X",
"9X9X9X9X9X9X9X9X9X9X9X9X9X9X9X9X9X9X9X9X9X9X9X9X} B V D J H Z F A R ; u w._.#X/.9X9X9X9X9X9X9X9X9X9X9X9X9X9X9X9X9X9X9X9X9X9X9X9X",
"9X9X9X9X9X9X9X9X9X9X9X9X9X9X9X9X9X9X9X9X9X9X9X9XV n L J H H Z G ~ m 1 u I.+X*X-X9X9X9X9X9X9X9X9X9X9X9X9X9X9X9X9X9X9X9X9X9X9X9X9X",
"9X9X9X9X9X9X9X9X9X9X9X9X9X9X9X9X9X9X9X9X9X9X9X{ C m L H L K G G N R ; y 8.'.$X-X9X9X9X9X9X9X9X9X9X9X9X9X9X9X9X9X9X9X9X9X9X9X9X9X",
"9X9X9X9X9X9X9X9X9X9X9X9X9X9X9X9X9X9X9X9X9X9X9XE M L K H H H G G ~ R ; u p 9.!.$X4X9X9X9X9X9X9X9X9X9X9X9X9X9X9X9X9X9X9X9X9X9X9X9X",
"9X9X9X9X9X9X9X9X9X9X9X9X9X9X9X9X9X9X9X9X9X9X{ D S G K L G K K H k R - u h 7.h._.3X9X9X9X9X9X9X9X9X9X9X9X9X9X9X9X9X9X9X9X9X9X9X9X",
"9X9X9X9X9X9X9X9X9X9X9X9X9X9X9X9X9X9X9X9X9X%.M S K K K G G K K L ) b - s x.e.7.!.;X|.9X9X9X9X9X9X9X9X9X9X9X9X9X9X9X9X9X9X9X9X9X9X",
"9X9X9X9X9X9X9X9X9X9X9X9X9X9X9X9X9X9X9X9X%.n m W K K G K K G H L D E o 2._.{.7.e._.I.9X9X9X9X9X9X9X9X9X9X9X9X9X9X9X9X9X9X9X9X9X9X",
"9X9X9X9X9X9X9X9X9X9X9X9X8X9X9X9X9X9X9X| n L K L G K U K U L H K D n - 2.(.#Xx.h g.i.9X9X9X9X9X9X9X9X9X9X9X9X9X9X9X9X9X9X9X9X9X9X",
"9X9X9X9X9X9X9X9X5X3X@X-X3X9X9X9X9X9X%.M M K U Z K L K G H D K H G V + 2._.*XR.8.+.9X9X9X9X9X9X9X9X9X9X9X9X9X9X9X9X9X9X9X9X9X9X9X",
"9X9X9X9X9X9X9X9X4X@X-X#X-X9X9X9X9X} n S ^ Z F U K K K L D S H H P J   2.oX@XE.9X9X9X9X9X9X9X9X9X9X9X9X9X9X9X9X9X9X9X9X9X9X9X9X9X",
"9X9X9X9X9X9X9X9X6X5X4X5X;X:X9X9X..B n J L G P H G H S M D S S F P D O #.(.-XE.9X9X9X9X9X9X9X9X9X9X9X9X9X9X9X9X9X9X9X9X9X9X9X9X9X",
"9X9X9X9X9X9X9X9X9X9X9X9XD.A.d.9Xr e E S D A Z U H K M D H H F P U K e @ f.#X~.9X9X9X9X9X9X9X9X9X9X9X9X9X9X9X9X9X9X9X9X9X9X9X9X9X",
"9X9X9X9X9X9X9X9X9X9X9X9X9X+.g g + 0 w n c G G G K L c S H H A F I S E + f.*XI.9X9X9X9X9X9X9X9X9X9X9X9X9X9X9X9X9X9X9X9X9X9X9X9X9X",
"9X9X9X9X9X9X9X9X9X9X9X9X9X9X+.O. .0 9 x m D K K H S k M D S k F P P D   A.*XA.9X9X9X9X9X9X9X9X9X9X9X9X9X9X9X9X9X9X9X9X9X9X9X9X9X",
"9X9X9X9X9X9X9X9X9X9X9X9X9X9X9X9X9X9XY < x L N M D m m D D M A G F ^ R : d.-X/.9X9X9X9X9X9X9X9X9X9X9X9X9X9X9X9X9X9X9X9X9X9X9X9X9X",
"9X9X9X9X9X9X9X9X9X9X9X9X9X9X9X9X9X9X9XY 0 9 4 9 9 3 x n D x N H W A D 6 0.(.9X9X9X9X9X9X9X9X9X9X9X9X9X9X9X9X9X9X9X9X9X9X9X9X9X9X",
"9X9X9X9X9X9X9X9X9X9X9X9X9X9X9X9X9X9X9X9X9XE 8 < 8 < < 1 9 3 1 N D M M : 0.f.9X9X9X9X9X9X9X9X9X9X9X9X9X9X9X9X9X9X9X9X9X9X9X9X9X9X",
"9X9X9X9X9X9X9X9X9X9X9X9X9X9X9X9X9X9X9X9X9X9X9X9X9X9X} 8 1 < 9 1 b m 3 : F.oX9X9X9X9X9X9X9X9X9X9X9X9X9X9X9X9X9X9X9X9X9X9X9X9X9X9X",
"9X9X9X9X9X9X9X9X9X9X9X9X9X9X9X9X9X9X9X9X9X9X9X9X9X9X9X9X9X9XY 8 $ 1 $ > 9XD.D.P.8X9X9X9X9X9X9X9X9X9X9X9X9X9X9X9X9X9X9X9X9X9X9X9X",
"9X9X9X9X9X9X9X9X9X9X9X9X9X9X9X9X9X9X9X9X9X9X9X9X9X9X9X9X9X9X9X9X9X9X9X9X9X7X7X7X9X9X9X9X9X9X9X9X9X9X9X9X9X9X9X9X9X9X9X9X9X9X9X9X",
"9X9X9X9X9X9X9X9X9X9X9X9X9X9X9X9X9X9X9X9X9X9X9X9X9X9X9X9X9X9X9X9X9X9X9X9X9X9X9X9X9X9X9X9X9X9X9X9X9X9X9X9X9X9X9X9X9X9X9X9X9X9X9X9X",
"9X9X9X9X9X9X9X9X9X9X9X9X9X9X9X9X9X9X9X9X9X9X9X9X9X9X9X9X9X9X9X9X9X9X9X9X9X9X9X9X9X9X9X9X9X9X9X9X9X9X9X9X9X9X9X9X9X9X9X9X9X9X9X9X",
"9X9X9X9X9X9X9X9X9X9X9X9X9X9X9X9X9X9X9X9X9X9X9X9X9X9X9X9X9X9X9X9X9X9X9X9X9X9X9X9X9X9X9X9X9X9X9X9X9X9X9X9X9X9X9X9X9X9X9X9X9X9X9X9X",
"9X9X9X9X9X9X9X9X9X9X9X9X9X9X9X9X9X9X9X9X9X9X9X9X9X9X9X9X9X9X9X9X9X9X9X9X9X9X9X9X9X9X9X9X9X9X9X9X9X9X9X9X9X9X9X9X9X9X9X9X9X9X9X9X"
};
