/* XPM */
static char *result[] = {
/* columns rows colors chars-per-pixel */
"64 64 206 2 ",
"   c #1E0E0E",
".  c #291C17",
"X  c #301E12",
"o  c #2A1F09",
"O  c #2D250E",
"+  c #352A0C",
"@  c #14142F",
"#  c #1D142D",
"$  c #1C1026",
"%  c #1C1534",
"&  c #1D1A33",
"*  c #191A37",
"=  c #22162C",
"-  c #221C2D",
";  c #281827",
":  c #321E29",
">  c #221733",
",  c #241B34",
"<  c #2A1C35",
"1  c #24163B",
"2  c #251C3C",
"3  c #291C3C",
"4  c #2A1737",
"5  c #2D2227",
"6  c #29212E",
"7  c #352628",
"8  c #252235",
"9  c #2B2336",
"0  c #2A223C",
"q  c #2B2839",
"w  c #33243C",
"e  c #322D3D",
"r  c #312436",
"t  c #37333A",
"y  c #473922",
"u  c #554E1F",
"i  c #665D1A",
"p  c #5B503C",
"a  c #574F2A",
"s  c #635827",
"d  c #746E2A",
"f  c #6A6532",
"g  c #6F6932",
"h  c #261C41",
"j  c #2A1D43",
"k  c #2B1C4B",
"l  c #271744",
"z  c #2C1E51",
"x  c #301F55",
"c  c #262242",
"v  c #2D2243",
"b  c #2D2B45",
"n  c #2E224B",
"m  c #2F2849",
"M  c #322545",
"N  c #332B44",
"B  c #3A2C45",
"V  c #32254C",
"C  c #342B4C",
"Z  c #392B4E",
"A  c #363246",
"S  c #3A3445",
"D  c #35324C",
"F  c #3B334B",
"G  c #3E3A4D",
"H  c #332552",
"J  c #362B54",
"K  c #3A2D55",
"L  c #34255A",
"P  c #362B5A",
"I  c #3A2E5B",
"U  c #392757",
"Y  c #3B3255",
"T  c #363A53",
"R  c #3E3C52",
"E  c #3C315B",
"W  c #3F3C5A",
"Q  c #373052",
"!  c #3C2C62",
"~  c #3C2A69",
"^  c #382A62",
"/  c #3D3162",
"(  c #3F316C",
")  c #423A4D",
"_  c #453347",
"`  c #523F45",
"'  c #412F5F",
"]  c #413455",
"[  c #453C53",
"{  c #41335B",
"}  c #44385E",
"|  c #402F66",
" . c #413463",
".. c #463962",
"X. c #43346B",
"o. c #4A3868",
"O. c #443374",
"+. c #4A3978",
"@. c #3C445B",
"#. c #4D4A4F",
"$. c #514B4F",
"%. c #4A4455",
"&. c #4C445C",
"*. c #4E495B",
"=. c #53495D",
"-. c #5A545A",
";. c #5A5448",
":. c #655849",
">. c #746E4C",
",. c #797048",
"<. c #726C59",
"1. c #75735A",
"2. c #676245",
"3. c #4D4E66",
"4. c #544D63",
"5. c #554766",
"6. c #4E516A",
"7. c #5A5464",
"8. c #50546E",
"9. c #575663",
"0. c #53447C",
"q. c #61576A",
"w. c #635C6D",
"e. c #605865",
"r. c #635A71",
"t. c #62537B",
"y. c #665A76",
"u. c #656069",
"i. c #777361",
"p. c #676173",
"a. c #6F6C7C",
"s. c #686775",
"d. c #736C7D",
"f. c #7B7578",
"g. c #766C67",
"h. c #847A48",
"j. c #827565",
"k. c #8E853A",
"l. c #8C8651",
"z. c #8B8758",
"x. c #918D5E",
"c. c #989059",
"v. c #938944",
"b. c #A59959",
"n. c #AEA358",
"m. c #B3A95E",
"M. c #8E8B68",
"N. c #918861",
"B. c #9A9B69",
"V. c #989678",
"C. c #A49968",
"Z. c #A59A74",
"A. c #ADA662",
"S. c #B2A36A",
"D. c #B1A672",
"F. c #AFA879",
"G. c #4E3983",
"H. c #543D8E",
"J. c #523D82",
"K. c #563D94",
"L. c #534184",
"P. c #57418D",
"I. c #5A468C",
"U. c #5B4887",
"Y. c #5F4992",
"T. c #614E8D",
"R. c #65558C",
"E. c #68588B",
"W. c #634B9A",
"Q. c #634B95",
"!. c #695693",
"~. c #655194",
"^. c #7C7688",
"/. c #654CA0",
"(. c #857C8F",
"). c #857D92",
"_. c #87858F",
"`. c #8A8496",
"'. c #918997",
"]. c #9E9993",
"[. c #A7A585",
"{. c #BABA85",
"}. c #958CA9",
"|. c #9B96A9",
" X c #9586B7",
".X c #A39DAD",
"XX c #A59DB3",
"oX c #B0ACA0",
"OX c #ABA8B5",
"+X c #D5D3AC",
"@X c #F7FEAE",
"#X c #FAFEBD",
"$X c #F6FAB7",
"%X c #E7E9B8",
"&X c #A292C1",
"*X c #A89AC0",
"=X c #B5ACC8",
"-X c #BFB9D1",
";X c #B9B6C8",
":X c #FAFBCD",
">X c #F4F6C6",
",X c #FBFBDA",
"<X c #DACCF2",
"1X c #E4D6F7",
"2X c #F9F7E0",
"3X c None",
/* pixels */
"3X3X3X3X3X3X3X3X3X3X3X3X3X3X3X3X3X3X3X3X3X3X3X3X3X3X3X3X3X3X3X3X3X3X3X3X3X3X3X3X3X3X3X3X3X3X3X3X3X3X3X3X3X3X3X3X3X3X3X3X3X3X3X3X",
"3X3X3X3X3X3X3X3X3X3X3X3X3X3X3X3X3X3X3X3X3X3X3X3X3X3X3X3X3X3X3X3X3X3X3X3X3X3X3X3X3X3X3X3X3X3X3X3X3X3X3X3X3X3X3X3X3X3X3X3X3X3X3X3X",
"3X3X3X3X3X3X3X3X3X3X3X3X3X3X3X3X3X3X3X3X3X3X3X3X3X3X3X3X3X3X3X3X3X3X3X3X3X3X3X3X3X3X3X3X3X3X3X3X3X3X3X3X3X3X3X3X3X3X3X3X3X3X3X3X",
"3X3X3X3X3X3X3X3X3X3X3X3X3X3X3X3X3X3X3X3X3X3X3X3X3X3X3X3X3X3X3X3X3X3X3X3X3X3X3X3X3X3X3X3X3X3X3X3X3X3X3X3X3X3X3X3X3X3X3X3X3X3X3X3X",
"3X3X3X3X3X3X3X3X3X3X3X3X3X3X3X3X3X5.y.3X3X3X3X3X3X3X3X3X3X3X3X3X3X3X3X3X3X3X3X3X3X3X}.t.y.3X3X3X3X3X3X3X3X3X3X3X3X3X3X3X3X3X3X3X",
"3X3X3X3X3X3X3X3X3X3X3X3X3X3X3X3X3XM o.t.3X3X3X3X3X3X3X3X3X3X3X3X3X3X3X3X3X3X3X3X3X XR. .J 3X3X3X3X3X3X3X3X3X3X3X3X3X3X3X3X3X3X3X",
"3X3X3X3X3X3X3X3X3X3X3X3X3X3X3X3X[ Z { +.!.3X3X3X3X3X3X3X3X3X3X3X3X3X3X3X3X3X3X3X XR.O.I ] =.3X3X3X3X3X3X3X3X3X3X3X3X3X3X3X3X3X3X",
"3X3X3X3X3X3X3X3X3X3X3X3X3X3X3X3XM { I X.T.R.3X3X3X3X3X3X3X3X3X3X3X3X3X3X3X3X3X X!.L.+.! M F 3X3X3X3X3X3X3X3X3X3X3X3X3X3X3X3X3X3X",
"3X3X3X3X3X3X3X3X3X3X3X3X3X3X3X3Xb J I / O.0.E.XX3X3X3X3X3X3X3X3X3X3X3X3X3X3X*XT.I.O.~ ~ H D 3X3X3X3X3X3X3X3X3X3X3X3X3X3X3X3X3X3X",
"3X3X3X3X3X3X3X3X3X3X3X3X3X3X3XS c P I P ! 0.0.R.=X3X3X3X3X3X3X3X3X3X3X1X<X X!.U.O.~ ( ^ m 8 &.3X3X3X3X3X3X3X3X3X3X3X3X3X3X3X3X3X",
"3X3X3X3X3X3X3X3X3X3X3X3X3X3X3Xe 0 P J K E ( O.L.I.~.~.T.T.W././.W.~.W.Q.W.Q.J.+.^ ^ U Y D 8 t 3X3X3X3X3X3X3X3X3X3X3X3X3X3X3X3X3X",
"3X3X3X3X3X3X3X3X3X3X3X3X3X3X3XA c Y J Q K H / O.J.K.H.J.H.K.K.K.K.H.K.H.K.G.| H / E J Q D - #.3X3X3X3X3X3X3X3X3X3X3X3X3X3X3X3X3X",
"3X3X3X3X3X3X3X3X3X3X3X3X3X3X3Xq j I I K E K E U L ~ ~ ~ / X.! P | I ^ ~ ~ ! { } Y C } Z D , A 3X3X3X3X3X3X3X3X3X3X3X3X3X3X3X3X3X",
"3X3X3X3X3X3X3X3X3X3X3X3X3X3X3XG 2 H I K K C K E X.I I I P P K K K { E P J K U Z V n Y K C 0 [ 3X3X3X3X3X3X3X3X3X3X3X3X3X3X3X3X3X",
"3X3X3X3X3X3X3X3X3X3X3X3X3X3X3Xe 3 j V x V l n E K J I  .E E Y Q E K K W Y Y { ' J H j V c < &.3X3X3X3X3X3X3X3X3X3X3X3X3X3X3X3X3X",
"3X3X3X3X3X3X3X3X3X3X3X3X3X3X3Xe 3 4 V l H I E K E J I I P P Y Y U P Y Y K Q I P P L k 1 M = ) 3X3X3X3X3X3X3X3X3X3X3X3X3X3X3X3X3X",
"3X3X3X3X3X3X3X3X3X3X3X3X3X3X3X3X3 3 j K I K I I E I I I P E K P E P E Y Y Y E P / U J c 1 A 3X3X3X3X3X3X3X3X3X3X3X3X3X3X3X3X3X3X",
"3X3X3X3X3X3X3X3X3X3X3X3X3X3X3X3X3 n V K I K K ] I E E I I Y E E / E P P Y P E P / ! P Q 0 ) 3X3X3X3X3X3X3X3X3X3X3X3X3X3X3X3X3X3X",
"3X3X3X3X3X3X3X3X3X3X3X3X3X3X3X3Xv J K K Y I I I I I I I E P E P ^ E P E P Y E E ^ / P P N ] 3X3X3X3X3X3X3X3X3X3X3X3X3X3X3X3X3X3X",
"3X3X3X3X3X3X3X3X3X3X3X3X3X3X3X*.C K E E I E E I I I ! I I I Y I E P Y E P Y P ^ P ^ E E J N p.3X3X3X3X3X3X3X3X3X3X3X3X3X3X3X3X3X",
"3X3X3X3X3X3X3X3X3X3X3X3X3X3X3XS J E E J K I I P I I I I E I I I ^ E P E I I I I / / P P Q Y G 3X3X3X3X3X3X3X3X3X3X3X3X3X3X3X3X3X",
"3X3X3X3X3X3X3X3X3X3X3X3X3X3X%.0 D P P I I I ! I I I ! E I I Y I E P Y P E I I I P / P E K V N 7.3X3X3X3X3X3X3X3X3X3X3X3X3X3X3X3X",
"3X3X3X3X3X3X3X3X3X3X3X3X3X%.0 2 n H I I I E E I I I ' I I I I Y E P E P I I I ! P / P P V c C & 9.3X3X3X3X3X3X3X3X3X3X3X3X3X3X3X",
"3X3X3X3X3X3X3X3X3X3X3X3X=., , c h n J I I U I I U ' I U ] I I I E E P E I I I I I P H n n 2 > < - -.3X3X3X3X3X3X3X3X3X3X3X3X3X3X",
"3X3X3X3X3X3X3X3X3X3X3X3X9 9 # 0 2 h h n U Z K U ] ' ' Z I K I E E I I ..U K V U x l M l 4 j 2 0 6 q 3X3X3X3X3X3X3X3X3X3X3X3X3X3X",
"3X3X3X3X3X3X3X3X3X3X3X3X3X=.0 , c 1 v 2 j v l V V ' V V E J V V I n H V l M j j 1 3 4 v j 3 , w 9.3X3X3X3X3X3X3X3X3X3X3X3X3X3X3X",
"3X3X3X3X3X3X3X3X3X3X3X3X3X3X(.r., , 0 , > 3 4 j j j j l h h h h h c j j k 2 1 3 4 B < > < 9 r.3X3X3X3X3X3X3X3X3X3X3X3X3X3X3X3X3X",
"3X3X3X3X3X3X3X3X3X3X3X3X3X3X3X3X3Xp.= , , 3 , 4 4 4 j 4 c c c c 2 c 1 c 1 4 w 4 , $ = 9 y.3X3X3X3X3X3X3X3X3X3X3X3X3X3X3X3X3X3X3X",
"3X3X3X3X3X3X3X3X3X3X3X3X3X3X3X3X3X3X3X3X`.).&., # , b 2 0 * * c * c 0 2 , > > w._.'.3X3X3X3X3X3X3X3X3X3X3X3X3X3X3X3X3X3X3X3X3X3X",
"3X3X3X3X3X3X3X3X3X3X3X3X3X3X3X3X3X3X3X3X3X3X3XXXXXR & & @ @ * @ * @ @ * 4.|.|.3X3X3X3X3X3X3X3X3X3X3X3X3X3X3X3X3X3X3X3X3X3X3X3X3X",
"3X3X3X3X3X3X3X3X3X3X3X3X3X3X3X3X3X3X3X3X3X3X3X3X.XD b @.T T @.T W T W b G =X3X3X3X3X3X3X3X3X3X3X3X3X3X3X3X3X3X3X3X3X3X3X3X3X3X3X",
"3X3X3X3X3X3X3X3X3X3X3X3X3X3X3X3X3X3X3X3X3X3X3XOXN 8 b b 6.8.6.6.3.3.b b 8 G ;X3X3X3X3X3X3X3X3X3X3X3X3X3X3X3X3X3X3X3X3X3X3X3X3X3X",
"3X3X3X3X3X3X3X3X3X3X3X3X3X3X3X3X3X3X3X3X3X3XOXS , 2 8 c v m C C N N k l 2 , R -X3X3X3X3X3X3X3X3X3X3X3X3X3X3X3X3X3X3X3X3X3X3X3X3X",
"3X3X3X3X3X3X3X3X3X3X3X3X3X3X3X3X3X3X3X3X3X3XN , 0 8 3 3 j h j 2 < 3 l l j 2 % Q 3X3X3X3X3X3X3X3X3X3X3X3X3X3X3X3X3X3X3X3X3X3X3X3X",
"3X3X3X3X3X3X3X3X3X3X3X3X3X3X3X3X3X3X3X3X3X'.8 1 2 2 1 2 2 j j j 0 3 k z 2 v k > OX3X3X3X3X3X3X3X3X3X3X3X3X3X3X3X3X3X3X3X3X3X3X3X",
"3X3X3X3X3X3X3X3X3X3X3X3X3X3X3X3X3X3X3X3X3XD v E M m n n j h h j j j k k h n V K e 3X3X3X3X3X3X3X3X3X3X3X3X3X3X3X3X3X3X3X3X3X3X3X",
"3X3X3X3X3X3X3X3X3X3X3X3X3X3X3X3X3X3X3X3X}.b Q Y E E J H n k k j V j I I I Y K K 8 OX3X3X3X3X3X3X3X3X3X3X3X3X3X3X3X3X3X3X3X3X3X3X",
"3X3X3X3X3X3X3X3X3X3X3X3X3X3X3X3X3X3X3X3Xc m Y I E P I I K I I I U H ..Z N F Y Y N e 3X3X3X3X3X3X3X3X3X3X3X3X3X3X3X3X3X3X3X3X3X3X",
"3X3X3X3X3X3X3X3X3X3X3X3X3X3X3X3X3X3X3X|.0 W P P / / / I I K I I  .U Z %.u.#.Z K Y # OX3X3X3X3X3X3X3X3X3X3X3X3X3X3X3X3X3X3X3X3X3X",
"3X3X3X3X3X3X3X3X3X3X3X3X3X3X3X3X3X3X3X, D C E U I I ! I I I I E | { ) ].,XoX=.E J R 6 3X3X3X3X3X3X3X3X3X3X3X3X3X3X3X3X3X3X3X3X3X",
"3X3X3X3X3X3X3X3X3X3X3X3X3X3X3X3X3X3X3X8 Z J E I E P / I I E P E I U f.,X>X,X'.I E J N 3X3X3X3X3X3X3X3X3X3X3X3X3X3X3X3X3X3X3X3X3X",
"3X3X3X3X3X3X3X3X3X3X3X3X3X3X3X3X3X3X).& Y Y I E ! E P E I I I E | ] <.>X#X%Xj.X./ E , .X3X3X3X3X3X3X3X3X3X3X3X3X3X3X3X3X3X3X3X3X",
"3X3X3X3X3X3X3X3X3X3X3X3X3X3X3X3X3X3X> b Z J E I I P P E K E K E I Z 1.$X@X{.$.K L / 3 , 3X3X3X3X3X3X3X3X3X3X3X3X3X3X3X3X3X3X3X3X",
"3X3X3X3X3X3X3X3X3X3X3X3X3X3X3X3X3X^., M W I E J P E Y K P E P E I Z 1.#X@XB.t I X.P h e `.3X3X3X3X3X3X3X3X3X3X3X3X3X3X3X3X3X3X3X",
"3X3X3X3X3X3X3X3X3X3X3X3X3X3X3X3Xa.2 0 n I I E / E E E E E I I I / Z <.>X@XB.t I ! H J 3 0 (.3X3X3X3X3X3X3X3X3X3X3X3X3X3X3X3X3X3X",
"3X3X3X3X3X3X3X3X3X3X3X3X3X3X3Xa.v J m E J I P U E E P E I I I I I S <.:X#XV.S I / / J M v v ).3X3X3X3X3X3X3X3X3X3X3X3X3X3X3X3X3X",
"3X3X3X3X3X3X3X3X3X3X3X3X3X3Xs.b N J ..n  ./ P E P E I I I I I ! K _ i.>X:XV.N U J J ..Q C n w ^.3X3X3X3X3X3X3X3X3X3X3X3X3X3X3X3X",
"3X3X3X3X3X3X3X3X3X3X3X3X^.*.N R J J E E E J E E H J I P I I I { I t :.+X:X].S L E U E J I E N S *.'.3X3X3X3X3X3X3X3X3X3X3X3X3X3X",
"3X3X3X3X3X3X3X3X3X3X3X&.Z M J E ^ P P P Q P Q P P H E J K } C Z _ ` Z.F.{.i._ I P / J J E E Z D N D &.3X3X3X3X3X3X3X3X3X3X3X3X3X",
"3X3X3X3X3X3X3X3X3X3XS v E J ..P / / P T m D K J J I P / K V F r : :.C.D.Z.<.Z I E n J Y E J E J Q C m R 3X3X3X3X3X3X3X3X3X3X3X3X",
"3X3X3X3X3X3X3X3X3XS e F Z V z / P ^ U Y m H E I L ^ ^ / { V 9 . y Z.D.Z.j.` Z U K Q Q Y J L P E W b Y N %.3X3X3X3X3X3X3X3X3X3X3X",
"3X3X3X3X3X3X3X3X3X3XF q 2 D E J / U I I P I K H x L U K B 6 7 :.C.S.S.h.7 w ] I ] N v M ! P z J J A A S 3X3X3X3X3X3X3X3X3X3X3X3X",
"3X3X3X3X3X3X3X3X3X3X3Xs.G 8 1 D Y M C V K I L l k ' 3 r . o a g n.n.b.s X ; 4 K N N Y j L U I h , %.^.3X3X3X3X3X3X3X3X3X3X3X3X3X",
"3X3X3X3X3X3X3X3X3X3X3X3X3Xr.&.< , = 4 j M j 1 4 4 ; . o + f C.A.n.m.n.,.y   : 4 < M v 2 j j , [ a.3X3X3X3X3X3X3X3X3X3X3X3X3X3X3X",
"3X3X3X3X3X3X3X3X3X3X3X3X3X3X3Xw.7.%.> < = = ; 5 . O u u s l.c.c.b.v.k.i u y 7 r , 2 $ 2 &.&.d.3X3X3X3X3X3X3X3X3X3X3X3X3X3X3X3X3X",
"3X3X3X3X3X3X3X3X3X3X3X3X3X3X3X3X3X3Xq.q.7.e.-.;.2.,.f f h.N.N.N.h.s d d f >.g.-.e.4.w.p.3X3X3X3X3X3X3X3X3X3X3X3X3X3X3X3X3X3X3X3X",
"3X3X3X3X3X3X3X3X3X3X3X3X3X3X3X3X3X3X3X3X3X3X3X3XM.z.z.B.3X3X3X3X3XZ.z.c.x.3X3X3X3X3X3X3X3X3X3X3X3X3X3X3X3X3X3X3X3X3X3X3X3X3X3X3X",
"3X3X3X3X3X3X3X3X3X3X3X3X3X3X3X3X3X3X3X3X3X3X3X3X3X].[.3X3X3X3X3X3X3XZ.Z.3X3X3X3X3X3X3X3X3X3X3X3X3X3X3X3X3X3X3X3X3X3X3X3X3X3X3X3X",
"3X3X3X3X3X3X3X3X3X3X3X3X3X3X3X3X3X3X3X3X3X3X3X3X3X3X3X3X3X3X3X3X3X3X3X3X3X3X3X3X3X3X3X3X3X3X3X3X3X3X3X3X3X3X3X3X3X3X3X3X3X3X3X3X",
"3X3X3X3X3X3X3X3X3X3X3X3X3X3X3X3X3X3X3X3X3X3X3X3X3X3X3X3X3X3X3X3X3X3X3X3X3X3X3X3X3X3X3X3X3X3X3X3X3X3X3X3X3X3X3X3X3X3X3X3X3X3X3X3X",
"3X3X3X3X3X3X3X3X3X3X3X3X3X3X3X3X3X3X3X3X3X3X3X3X3X3X3X3X3X3X3X3X3X3X3X3X3X3X3X3X3X3X3X3X3X3X3X3X3X3X3X3X3X3X3X3X3X3X3X3X3X3X3X3X",
"3X3X3X3X3X3X3X3X3X3X3X3X3X3X3X3X3X3X3X3X3X3X3X3X3X3X3X3X3X3X3X3X3X3X3X3X3X3X3X3X3X3X3X3X3X3X3X3X3X3X3X3X3X3X3X3X3X3X3X3X3X3X3X3X",
"3X3X3X3X3X3X3X3X3X3X3X3X3X3X3X3X3X3X3X3X3X3X3X3X3X3X3X3X3X3X3X3X3X3X3X3X3X3X3X3X3X3X3X3X3X3X3X3X3X3X3X3X3X3X3X3X3X3X3X3X3X3X3X3X",
"3X3X3X3X3X3X3X3X3X3X3X3X3X3X3X3X3X3X3X3X3X3X3X3X3X3X3X3X3X3X3X3X3X3X3X3X3X3X3X3X3X3X3X3X3X3X3X3X3X3X3X3X3X3X3X3X3X3X3X3X3X3X3X3X"
};
